<svg version="1.1" xmlns="http://www.w3.org/2000/svg" xmlns:xlink="http://www.w3.org/1999/xlink" width="27.34" height="13.85238" viewBox="0,0,27.34,13.85238"><g transform="translate(-226.33,-173.0738)"><g data-paper-data="{&quot;isPaintingLayer&quot;:true}" fill="#231f20" fill-rule="nonzero" stroke="none" stroke-width="1" stroke-linecap="butt" stroke-linejoin="miter" stroke-miterlimit="10" stroke-dasharray="" stroke-dashoffset="0" style="mix-blend-mode: normal"><path d="M226.33,186.92619v-13.85h5.46c0.93265,-0.02722 1.85732,0.17903 2.69,0.6c0.7144,0.37499 1.30227,0.95243 1.69,1.66c0.39749,0.75085 0.5971,1.5906 0.58,2.44c0.021,0.84785 -0.18254,1.68618 -0.59,2.43c-0.40027,0.70338 -0.99837,1.27366 -1.72,1.64c-0.84587,0.413 -1.77903,0.61542 -2.72,0.59h-3.48v-2.34h3c0.48109,0.01733 0.95888,-0.08579 1.39,-0.3c0.35202,-0.18476 0.64098,-0.47025 0.83,-0.82c0.36056,-0.76288 0.36056,-1.64712 0,-2.41c-0.19059,-0.34605 -0.4794,-0.6279 -0.83,-0.81c-0.44133,-0.20324 -0.92449,-0.29919 -1.41,-0.28h-2v11.45z"/><path d="M238.66,173.07619h3.61l3.81,9.31h0.17l3.81,-9.31h3.61v13.85h-2.84v-9h-0.11l-3.59,8.94h-1.93l-3.58,-9h-0.12v9.06h-2.84z"/></g></g></svg>