<svg version="1.1" xmlns="http://www.w3.org/2000/svg" xmlns:xlink="http://www.w3.org/1999/xlink" width="50.5576" height="29.88703" viewBox="0,0,50.5576,29.88703"><g transform="translate(-214.7212,-165.05648)"><g data-paper-data="{&quot;isPaintingLayer&quot;:true}" fill="#231f20" fill-rule="nonzero" stroke="none" stroke-width="1" stroke-linecap="butt" stroke-linejoin="miter" stroke-miterlimit="10" stroke-dasharray="" stroke-dashoffset="0" style="mix-blend-mode: normal"><path d="M226.33024,194.94022c-2.2132,0.04841 -4.38901,-0.57574 -6.24,-1.79c-1.81306,-1.27926 -3.20527,-3.06826 -4,-5.14c-0.97874,-2.58159 -1.44082,-5.33029 -1.36,-8.09c-0.06834,-2.73402 0.41107,-5.45408 1.41,-8c0.79776,-2.04847 2.19101,-3.81092 4,-5.06c1.83571,-1.20809 3.99271,-1.83533 6.19,-1.8c2.20412,-0.05749 4.37465,0.54873 6.23,1.74c1.80231,1.25619 3.19377,3.01639 4,5.06c0.99184,2.54739 1.46443,5.26735 1.39,8c0.06809,2.76887 -0.40755,5.52421 -1.4,8.11c-0.79749,2.06748 -2.18933,3.85252 -4,5.13c-1.83748,1.23265 -4.00764,1.87462 -6.22,1.84zM226.33024,189.88022c1.69805,-0.00287 3.24784,-0.96762 4,-2.49c0.98,-1.66 1.46667,-4.15 1.46,-7.47c0.04661,-1.84306 -0.17916,-3.68289 -0.67,-5.46c-0.31825,-1.24334 -0.96801,-2.37698 -1.88,-3.28c-0.78867,-0.73559 -1.83166,-1.13701 -2.91,-1.12c-1.66187,0.04024 -3.16414,0.99938 -3.9,2.49c-0.98,1.64 -1.47667,4.09667 -1.49,7.37c-0.04524,1.86933 0.18044,3.73535 0.67,5.54c0.31722,1.2576 0.97054,2.40524 1.89,3.32c0.76944,0.7127 1.78122,1.10597 2.83,1.1z"/><path d="M253.64024,194.94022c-2.2132,0.04841 -4.38901,-0.57574 -6.24,-1.79c-1.81014,-1.28232 -3.20159,-3.07034 -4,-5.14c-0.99014,-2.57896 -1.45918,-5.32863 -1.38,-8.09c-0.07152,-2.73335 0.40448,-5.45338 1.4,-8c1.32864,-3.02842 3.90998,-5.32829 7.07104,-6.30004c3.16106,-0.97175 6.58857,-0.51906 9.38896,1.24004c1.80231,1.25619 3.19377,3.01639 4,5.06c0.99657,2.54607 1.46934,5.26699 1.39,8c0.06809,2.76887 -0.40755,5.52421 -1.4,8.11c-0.79749,2.06748 -2.18933,3.85252 -4,5.13c-1.84717,1.21343 -4.02059,1.83441 -6.23,1.78zM253.64024,189.88022c1.69805,-0.00287 3.24784,-0.96762 4,-2.49c0.98,-1.66 1.46667,-4.15 1.46,-7.47c0.04661,-1.84306 -0.17916,-3.68289 -0.67,-5.46c-0.31825,-1.24334 -0.96801,-2.37698 -1.88,-3.28c-0.78811,-0.73649 -1.83148,-1.13806 -2.91,-1.12c-1.67193,0.02162 -3.19201,0.97456 -3.94,2.47c-0.98,1.64 -1.47667,4.09667 -1.49,7.37c-0.04524,1.86933 0.18044,3.73535 0.67,5.54c0.32094,1.2561 0.97373,2.4028 1.89,3.32c0.77752,0.72775 1.80506,1.12875 2.87,1.12z"/></g></g></svg>