<svg version="1.1" xmlns="http://www.w3.org/2000/svg" xmlns:xlink="http://www.w3.org/1999/xlink" width="40.13859" height="29.76688" viewBox="0,0,40.13859,29.76688"><g transform="translate(-219.93071,-165.11656)"><g data-paper-data="{&quot;isPaintingLayer&quot;:true}" fill="#231f20" fill-rule="nonzero" stroke="none" stroke-width="1" stroke-linecap="butt" stroke-linejoin="miter" stroke-miterlimit="10" stroke-dasharray="" stroke-dashoffset="0" style="mix-blend-mode: normal"><path d="M231.55929,194.87701c-2.21223,0.05201 -4.38814,-0.56868 -6.24,-1.78c-1.80807,-1.28448 -3.19899,-3.07181 -4,-5.14c-0.99014,-2.57896 -1.45918,-5.32863 -1.38,-8.09c-0.0691,-2.73317 0.40682,-5.45273 1.4,-8c1.343,-3.01571 3.92939,-5.2996 7.08811,-6.25912c3.15872,-0.95951 6.57843,-0.50007 9.37189,1.25912c1.80231,1.25619 3.19377,3.01639 4,5.06c0.99657,2.54607 1.46934,5.26699 1.39,8c0.06912,2.76569 -0.40658,5.51796 -1.4,8.1c-0.79473,2.07174 -2.18694,3.86074 -4,5.14c-1.85486,1.18937 -4.02787,1.78582 -6.23,1.71zM231.55929,189.87701c1.69805,-0.00287 3.24784,-0.96762 4,-2.49c0.98,-1.66 1.46667,-4.15 1.46,-7.47c0.04661,-1.84306 -0.17916,-3.68289 -0.67,-5.46c-0.31825,-1.24334 -0.96801,-2.37698 -1.88,-3.28c-0.78117,-0.71959 -1.80799,-1.11315 -2.87,-1.1c-1.67663,-0.00753 -3.21517,0.92797 -3.98,2.42c-0.98,1.64 -1.47667,4.09667 -1.49,7.37c-0.04524,1.86933 0.18044,3.73535 0.67,5.54c0.32367,1.255 0.97608,2.40102 1.89,3.32c0.78279,0.71698 1.80853,1.11012 2.87,1.1z"/><path d="M260.06929,165.42701v28.82h-6.09v-23h-0.17l-6.6,4.14v-5.4l7.14,-4.52z"/></g></g></svg>