<svg version="1.1" xmlns="http://www.w3.org/2000/svg" xmlns:xlink="http://www.w3.org/1999/xlink" width="48.13892" height="30.00652" viewBox="0,0,48.13892,30.00652"><g transform="translate(-215.93054,-164.99674)"><g data-paper-data="{&quot;isPaintingLayer&quot;:true}" fill="#231f20" fill-rule="nonzero" stroke="none" stroke-width="1" stroke-linecap="butt" stroke-linejoin="miter" stroke-miterlimit="10" stroke-dasharray="" stroke-dashoffset="0" style="mix-blend-mode: normal"><path d="M227.56946,194.99898c-2.2132,0.04841 -4.38901,-0.57574 -6.24,-1.79c-1.81306,-1.27926 -3.20527,-3.06826 -4,-5.14c-0.99847,-2.57691 -1.47108,-5.3276 -1.39,-8.09c-0.06644,-2.73297 0.40939,-5.45201 1.4,-8c1.65256,-4.21186 5.71554,-6.98224 10.24,-6.98224c4.52446,0 8.58744,2.77038 10.24,6.98224c1.00025,2.54529 1.47643,5.26629 1.4,8c0.06809,2.76887 -0.40755,5.52421 -1.4,8.11c-0.79854,2.06689 -2.19017,3.85165 -4,5.13c-1.85119,1.22091 -4.03333,1.84239 -6.25,1.78zM227.56946,189.93898c1.68135,-0.01709 3.2095,-0.9804 3.95,-2.49c0.99333,-1.66 1.48333,-4.15 1.47,-7.47c0.04018,-1.84274 -0.18548,-3.68165 -0.67,-5.46c-0.3257,-1.24253 -0.97832,-2.37512 -1.89,-3.28c-0.77701,-0.71985 -1.80088,-1.11365 -2.86,-1.1c-1.6726,0.01934 -3.19377,0.97296 -3.94,2.47c-1,1.64 -1.48,4.1 -1.49,7.37c-0.04594,1.86936 0.17974,3.73549 0.67,5.54c0.31292,1.25933 0.96686,2.40805 1.89,3.32c0.78461,0.70951 1.81257,1.08917 2.87,1.06z"/><path d="M243.53946,194.31898v-4.39l10.26,-9.5c0.87,-0.84 1.61,-1.6 2.2,-2.28c0.54855,-0.59669 1.00675,-1.27051 1.36,-2c0.31095,-0.65949 0.46823,-1.38093 0.46,-2.11c0.0214,-0.76927 -0.17628,-1.52877 -0.57,-2.19c-0.38139,-0.61356 -0.92936,-1.10604 -1.58,-1.42c-0.70587,-0.34558 -1.48426,-0.51703 -2.27,-0.5c-0.79936,-0.02274 -1.59121,0.15973 -2.3,0.53c-0.64955,0.34941 -1.17911,0.88594 -1.52,1.54c-0.37382,0.73655 -0.55935,1.55424 -0.54,2.38h-5.78c-0.03988,-1.72405 0.4035,-3.42485 1.28,-4.91c0.87187,-1.40287 2.13315,-2.52169 3.63,-3.22c1.66103,-0.78712 3.48229,-1.17739 5.32,-1.14c1.85557,-0.04432 3.69745,0.32816 5.39,1.09c1.44921,0.64744 2.68903,1.68639 3.58,3c0.86784,1.30863 1.3177,2.85 1.29,4.42c-0.00656,1.10427 -0.22378,2.19715 -0.64,3.22c-0.57371,1.28401 -1.34283,2.47142 -2.28,3.52c-1.45292,1.64434 -3.00942,3.19417 -4.66,4.64l-4.21,4.12v0.2h12.11v5z"/></g></g></svg>