<svg version="1.1" xmlns="http://www.w3.org/2000/svg" xmlns:xlink="http://www.w3.org/1999/xlink" width="50.34859" height="29.82537" viewBox="0,0,50.34859,29.82537"><g transform="translate(-214.82571,-165.08731)"><g data-paper-data="{&quot;isPaintingLayer&quot;:true}" fill="#231f20" fill-rule="nonzero" stroke="none" stroke-width="1" stroke-linecap="butt" stroke-linejoin="miter" stroke-miterlimit="10" stroke-dasharray="" stroke-dashoffset="0" style="mix-blend-mode: normal"><path d="M226.46429,194.90933c-2.2161,0.04667 -4.3946,-0.57725 -6.25,-1.79c-1.81014,-1.28232 -3.20159,-3.07034 -4,-5.14c-0.99014,-2.57896 -1.45918,-5.32863 -1.38,-8.09c-0.07152,-2.73335 0.40448,-5.45338 1.4,-8c1.32864,-3.02842 3.90998,-5.32829 7.07104,-6.30004c3.16106,-0.97175 6.58857,-0.51906 9.38896,1.24004c1.80231,1.25619 3.19377,3.01639 4,5.06c0.99657,2.54607 1.46934,5.26699 1.39,8c0.07281,2.76921 -0.40299,5.52547 -1.4,8.11c-0.79749,2.06748 -2.18933,3.85252 -4,5.13c-1.84327,1.21382 -4.01365,1.83492 -6.22,1.78zM226.46429,189.84933c1.68067,-0.0194 3.2077,-0.98201 3.95,-2.49c0.98,-1.66 1.46667,-4.15 1.46,-7.47c0.04515,-1.84299 -0.18059,-3.68261 -0.67,-5.46c-0.31825,-1.24334 -0.96801,-2.37698 -1.88,-3.28c-0.7781,-0.71809 -1.80125,-1.1116 -2.86,-1.1c-1.69359,-0.0009 -3.24224,0.95539 -4,2.47c-0.98,1.64 -1.47667,4.09667 -1.49,7.37c-0.04095,1.86912 0.18466,3.73453 0.67,5.54c0.32094,1.2561 0.97373,2.4028 1.89,3.32c0.80192,0.72048 1.85273,1.10064 2.93,1.06z"/><path d="M241.97429,189.16933v-4.8l12,-19h4.14v6.65h-2.45l-7.58,12v0.22h17.09v4.89zM255.80429,194.22933v-6.53l0.11,-2.12v-20.17h5.72v28.82z"/></g></g></svg>