<svg version="1.1" xmlns="http://www.w3.org/2000/svg" xmlns:xlink="http://www.w3.org/1999/xlink" width="48.89902" height="29.83239" viewBox="0,0,48.89902,29.83239"><g transform="translate(-215.55049,-165.08381)"><g data-paper-data="{&quot;isPaintingLayer&quot;:true}" fill="#231f20" fill-rule="nonzero" stroke="none" stroke-width="1" stroke-linecap="butt" stroke-linejoin="miter" stroke-miterlimit="10" stroke-dasharray="" stroke-dashoffset="0" style="mix-blend-mode: normal"><path d="M227.18941,194.91304c-2.2132,0.04841 -4.38901,-0.57574 -6.24,-1.79c-1.81276,-1.27528 -3.20516,-3.06102 -4,-5.13c-0.99848,-2.58039 -1.47107,-5.33435 -1.39,-8.1c-0.06644,-2.73297 0.40939,-5.45201 1.4,-8c1.58095,-4.24474 5.71438,-6.98959 10.24,-6.8c2.18612,-0.06141 4.33993,0.53803 6.18,1.72c1.80438,1.25399 3.19639,3.01489 4,5.06c0.99682,2.54625 1.47288,5.26655 1.4,8c0.07759,2.77606 -0.39833,5.53979 -1.4,8.13c-0.79684,2.07055 -2.18861,3.85898 -4,5.14c-1.83541,1.20558 -3.9947,1.82302 -6.19,1.77zM227.18941,189.91304c1.68135,-0.01709 3.2095,-0.9804 3.95,-2.49c1,-1.66 1.47,-4.15 1.47,-7.48c0.04018,-1.84274 -0.18548,-3.68165 -0.67,-5.46c-0.32552,-1.2397 -0.97829,-2.36911 -1.89,-3.27c-0.77477,-0.72343 -1.80014,-1.1178 -2.86,-1.1c-1.67106,0.01515 -3.19276,0.96525 -3.94,2.46c-0.99333,1.64 -1.49,4.09667 -1.49,7.37c-0.04366,1.86861 0.17856,3.73394 0.66,5.54c0.31768,1.25965 0.97486,2.408 1.9,3.32c0.78515,0.70861 1.81274,1.08814 2.87,1.06z"/><path d="M253.67941,194.67304c-1.82401,0.03919 -3.63405,-0.32623 -5.3,-1.07c-1.46994,-0.66212 -2.7418,-1.69614 -3.69,-3c-0.91041,-1.29534 -1.40563,-2.83679 -1.42,-4.42h5.91c0.03742,1.0697 0.55549,2.06542 1.41,2.71c0.87799,0.70313 1.97543,1.07484 3.1,1.05c0.8885,0.01617 1.76525,-0.20474 2.54,-0.64c0.73359,-0.42529 1.33566,-1.04466 1.74,-1.79c0.42258,-0.8149 0.63565,-1.72218 0.62,-2.64c0.02118,-0.93037 -0.19933,-1.85033 -0.64,-2.67c-0.41103,-0.75225 -1.01955,-1.37807 -1.76,-1.81c-0.78864,-0.43894 -1.67746,-0.66631 -2.58,-0.66c-0.84679,0.00462 -1.68378,0.18154 -2.46,0.52c-0.73238,0.3045 -1.37079,0.79797 -1.85,1.43l-5.41,-1l1.36,-15.19h17.62v5h-12.6l-0.75,7.22h0.17c0.59275,-0.78515 1.38287,-1.39931 2.29,-1.78c1.08211,-0.48076 2.25607,-0.71965 3.44,-0.7c3.27245,-0.07151 6.30872,1.69771 7.86,4.58c1.61827,3.18033 1.55459,6.95605 -0.17,10.08c-0.91424,1.50568 -2.22553,2.73047 -3.79,3.54c-1.74898,0.8721 -3.68651,1.29808 -5.64,1.24z"/></g></g></svg>