<svg version="1.1" xmlns="http://www.w3.org/2000/svg" xmlns:xlink="http://www.w3.org/1999/xlink" width="49.47006" height="30.00409" viewBox="0,0,49.47006,30.00409"><g transform="translate(-215.26497,-164.99795)"><g data-paper-data="{&quot;isPaintingLayer&quot;:true}" fill="#231f20" fill-rule="nonzero" stroke="none" stroke-width="1" stroke-linecap="butt" stroke-linejoin="miter" stroke-miterlimit="10" stroke-dasharray="" stroke-dashoffset="0" style="mix-blend-mode: normal"><path d="M226.90288,194.99764c-2.21385,0.0535 -4.39115,-0.57108 -6.24,-1.79c-1.81276,-1.27528 -3.20516,-3.06102 -4,-5.13c-0.99355,-2.57827 -1.46599,-5.32796 -1.39,-8.09c-0.06512,-2.73287 0.41067,-5.45166 1.4,-8c0.80256,-2.04572 2.19479,-3.80689 4,-5.06c2.76787,-1.89904 6.25135,-2.43034 9.45949,-1.44277c3.20814,0.98757 5.78978,3.38592 7.01051,6.51277c1.00105,2.54506 1.47726,5.26623 1.4,8c0.06912,2.76569 -0.40658,5.51796 -1.4,8.1c-0.80101,2.06819 -2.19193,3.85552 -4,5.14c-1.85201,1.20894 -4.02924,1.82303 -6.24,1.76zM226.90288,189.99764c1.68135,-0.01709 3.2095,-0.9804 3.95,-2.49c0.99333,-1.66 1.48333,-4.15 1.47,-7.47c0.04661,-1.84306 -0.17916,-3.68289 -0.67,-5.46c-0.3168,-1.24617 -0.97071,-2.381 -1.89,-3.28c-0.77701,-0.71985 -1.80088,-1.11365 -2.86,-1.1c-1.67039,0.01743 -3.191,0.96685 -3.94,2.46c-1,1.65 -1.48,4.1 -1.49,7.38c-0.04596,1.86607 0.17973,3.7289 0.67,5.53c0.31316,1.26214 0.96693,2.41403 1.89,3.33c0.78933,0.70057 1.81493,1.07579 2.87,1.05z"/><path d="M253.93288,194.75764c-1.45784,-0.00753 -2.90426,-0.25761 -4.28,-0.74c-1.39855,-0.50109 -2.66409,-1.31514 -3.7,-2.38c-1.16915,-1.24668 -2.04994,-2.73514 -2.58,-4.36c-0.68289,-2.1556 -1.0039,-4.40946 -0.95,-6.67c-0.02007,-2.19498 0.26259,-4.38224 0.84,-6.5c0.47502,-1.75363 1.2756,-3.40228 2.36,-4.86c0.98463,-1.27278 2.25118,-2.29972 3.7,-3c1.51049,-0.69317 3.15842,-1.03506 4.82,-1c1.76358,-0.03567 3.51077,0.3446 5.1,1.11c1.41211,0.69274 2.63147,1.72319 3.55,3c0.89778,1.26894 1.45863,2.74506 1.63,4.29h-6c-0.19739,-0.94022 -0.7218,-1.77999 -1.48,-2.37c-0.80881,-0.5873 -1.79112,-0.88658 -2.79,-0.85c-1.77041,-0.06034 -3.42316,0.88409 -4.27,2.44c-1.06622,2.05276 -1.57646,4.34887 -1.48,6.66h0.2c0.4239,-0.84426 1.02005,-1.5903 1.75,-2.19c0.74806,-0.61334 1.60216,-1.08445 2.52,-1.39c0.96605,-0.32801 1.97979,-0.49359 3,-0.49c3.2134,-0.06531 6.19197,1.67701 7.71,4.51c0.78911,1.47472 1.18516,3.1278 1.15,4.8c0.03435,1.82552 -0.43629,3.62505 -1.36,5.2c-0.90056,1.52071 -2.21035,2.75773 -3.78,3.57c-1.75508,0.87323 -3.70103,1.29267 -5.66,1.22zM253.93288,189.97764c0.88695,0.01257 1.75977,-0.22296 2.52,-0.68c0.7363,-0.44276 1.34058,-1.07465 1.75,-1.83c0.83294,-1.61916 0.83294,-3.54084 0,-5.16c-0.40804,-0.74718 -1.00445,-1.37462 -1.73,-1.82c-0.75335,-0.45492 -1.62012,-0.68721 -2.5,-0.67c-1.32773,-0.02032 -2.60235,0.52075 -3.51,1.49c-0.4516,0.47073 -0.80812,1.02418 -1.05,1.63c-0.26443,0.63297 -0.39386,1.31416 -0.38,2c-0.01134,0.89111 0.20921,1.76986 0.64,2.55c0.41249,0.75249 1.01171,1.38614 1.74,1.84c0.75253,0.44609 1.61544,0.67135 2.49,0.65z"/></g></g></svg>