<svg version="1.1" xmlns="http://www.w3.org/2000/svg" xmlns:xlink="http://www.w3.org/1999/xlink" width="46.19832" height="29.79111" viewBox="0,0,46.19832,29.79111"><g transform="translate(-216.90084,-165.10445)"><g data-paper-data="{&quot;isPaintingLayer&quot;:true}" fill="#231f20" fill-rule="nonzero" stroke="none" stroke-width="1" stroke-linecap="butt" stroke-linejoin="miter" stroke-miterlimit="10" stroke-dasharray="" stroke-dashoffset="0" style="mix-blend-mode: normal"><path d="M228.52916,194.88882c-2.2132,0.04841 -4.38901,-0.57574 -6.24,-1.79c-1.809,-1.27922 -3.20041,-3.06371 -4,-5.13c-0.98888,-2.58279 -1.45786,-5.33547 -1.38,-8.1c-0.06644,-2.73297 0.40939,-5.45201 1.4,-8c1.33516,-3.02292 3.9215,-5.31382 7.08348,-6.27433c3.16198,-0.9605 6.58557,-0.49522 9.37652,1.27433c1.80438,1.25399 3.19639,3.01489 4,5.06c0.9979,2.54569 1.47071,5.2669 1.39,8c0.07493,2.76937 -0.40094,5.52603 -1.4,8.11c-0.79684,2.07055 -2.18861,3.85898 -4,5.14c-1.85407,1.19114 -4.02765,1.78774 -6.23,1.71zM228.52916,189.83882c1.68135,-0.01709 3.2095,-0.9804 3.95,-2.49c1,-1.66 1.47,-4.16 1.46,-7.48c0.04302,-1.84224 -0.17926,-3.68108 -0.66,-5.46c-0.32552,-1.2397 -0.97829,-2.36911 -1.89,-3.27c-0.77533,-0.72252 -1.80033,-1.11675 -2.86,-1.1c-1.67173,0.01285 -3.19453,0.96364 -3.94,2.46c-0.99333,1.64 -1.49,4.09667 -1.49,7.37c-0.04366,1.86861 0.17856,3.73394 0.66,5.54c0.31768,1.25965 0.97486,2.408 1.9,3.32c0.7774,0.72678 1.80588,1.12456 2.87,1.11z"/><path d="M244.84916,194.25882l12,-23.65v-0.19h-13.97v-5h20.22v5l-12,23.77z"/></g></g></svg>