<svg version="1.1" xmlns="http://www.w3.org/2000/svg" xmlns:xlink="http://www.w3.org/1999/xlink" width="49.56862" height="29.99649" viewBox="0,0,49.56862,29.99649"><g transform="translate(-215.21569,-165.00176)"><g data-paper-data="{&quot;isPaintingLayer&quot;:true}" fill="#231f20" fill-rule="nonzero" stroke="none" stroke-width="1" stroke-linecap="butt" stroke-linejoin="miter" stroke-miterlimit="10" stroke-dasharray="" stroke-dashoffset="0" style="mix-blend-mode: normal"><path d="M226.85428,194.994c-2.21716,0.05491 -4.39806,-0.5697 -6.25,-1.79c-1.80983,-1.27835 -3.20146,-3.06311 -4,-5.13c-0.99014,-2.57896 -1.45918,-5.32863 -1.38,-8.09c-0.06991,-2.73323 0.40605,-5.45295 1.4,-8c1.65256,-4.21186 5.71554,-6.98224 10.24,-6.98224c4.52446,0 8.58744,2.77038 10.24,6.98224c0.99737,2.54584 1.47016,5.26694 1.39,8c0.06912,2.76569 -0.40658,5.51796 -1.4,8.1c-0.79736,2.07026 -2.18903,3.85854 -4,5.14c-1.85006,1.21423 -4.02794,1.83199 -6.24,1.77zM226.85428,189.994c1.69873,-0.00051 3.24967,-0.96597 4,-2.49c0.98,-1.66 1.46667,-4.15 1.46,-7.47c0.04661,-1.84306 -0.17916,-3.68289 -0.67,-5.46c-0.31397,-1.24507 -0.96436,-2.37979 -1.88,-3.28c-0.7781,-0.71809 -1.80125,-1.1116 -2.86,-1.1c-1.674,0.0137 -3.19936,0.96367 -3.95,2.46c-1.04,1.60667 -1.56,4.05 -1.56,7.33c-0.04095,1.86582 0.18466,3.72794 0.67,5.53c0.31862,1.25704 0.97174,2.40432 1.89,3.32c0.78717,0.73043 1.8263,1.12817 2.9,1.11z"/><path d="M253.57428,194.754c-1.97826,0.03792 -3.94393,-0.32257 -5.78,-1.06c-1.5633,-0.6064 -2.94182,-1.60928 -4,-2.91c-0.94555,-1.18675 -1.454,-2.66269 -1.44,-4.18c-0.00918,-1.15595 0.27648,-2.29515 0.83,-3.31c0.5404,-1.00286 1.30742,-1.86575 2.24,-2.52c0.94676,-0.66871 2.03494,-1.11014 3.18,-1.29v-0.19c-1.47719,-0.27448 -2.80543,-1.07355 -3.74,-2.25c-0.95387,-1.16663 -1.46399,-2.63324 -1.44,-4.14c-0.01755,-1.44149 0.44313,-2.84816 1.31,-4c0.95493,-1.22225 2.21825,-2.16802 3.66,-2.74c1.64468,-0.69214 3.41591,-1.03276 5.2,-1c1.78442,-0.03664 3.55645,0.30413 5.2,1c1.42152,0.58795 2.66315,1.53987 3.6,2.76c0.87044,1.15057 1.33467,2.55735 1.32,4c0.02876,3.09306 -2.13908,5.77245 -5.17,6.39v0.19c1.13219,0.18193 2.2069,0.62345 3.14,1.29c0.93048,0.65953 1.69969,1.52103 2.25,2.52c0.55965,1.01332 0.85217,2.15241 0.85,3.31c0.00441,1.51574 -0.50298,2.98858 -1.44,4.18c-1.05722,1.30173 -2.43604,2.30483 -4,2.91c-1.83421,0.7298 -3.79641,1.08347 -5.77,1.04zM253.57428,190.284c0.87263,0.01764 1.73782,-0.16361 2.53,-0.53c0.68871,-0.3233 1.2764,-0.82802 1.7,-1.46c0.39281,-0.6405 0.59729,-1.37868 0.59,-2.13c0.01705,-0.78782 -0.20618,-1.56216 -0.64,-2.22c-0.42672,-0.64797 -1.01647,-1.17219 -1.71,-1.52c-0.77294,-0.38406 -1.62706,-0.57615 -2.49,-0.56c-0.8627,-0.01381 -1.71628,0.17816 -2.49,0.56c-0.70275,0.34205 -1.30035,0.86712 -1.73,1.52c-0.81249,1.34696 -0.81249,3.03304 0,4.38c0.41848,0.63651 1.00759,1.14245 1.7,1.46c0.7987,0.35426 1.66662,0.52511 2.54,0.5zM253.57428,177.404c0.74592,0.01461 1.48407,-0.15362 2.15,-0.49c0.60889,-0.31337 1.12063,-0.78708 1.48,-1.37c0.35728,-0.60522 0.54068,-1.29727 0.53,-2c0.01657,-0.70344 -0.16725,-1.39708 -0.53,-2c-0.36295,-0.56621 -0.87041,-1.02534 -1.47,-1.33c-0.66836,-0.33955 -1.41055,-0.50791 -2.16,-0.49c-0.75253,-0.01667 -1.49765,0.15158 -2.17,0.49c-0.60331,0.29923 -1.11208,0.75954 -1.47,1.33c-0.54933,0.89894 -0.70192,1.98522 -0.42152,3.00072c0.2804,1.0155 0.96876,1.86957 1.90152,2.35928c0.66818,0.34105 1.40992,0.51275 2.16,0.5z"/></g></g></svg>