<svg version="1.1" xmlns="http://www.w3.org/2000/svg" xmlns:xlink="http://www.w3.org/1999/xlink" width="42.64856" height="29.80386" viewBox="0,0,42.64856,29.80386"><g transform="translate(-218.67572,-165.09807)"><g data-paper-data="{&quot;isPaintingLayer&quot;:true}" fill="#231f20" fill-rule="nonzero" stroke="none" stroke-width="1" stroke-linecap="butt" stroke-linejoin="miter" stroke-miterlimit="10" stroke-dasharray="" stroke-dashoffset="0" style="mix-blend-mode: normal"><path d="M231.53572,165.44763v28.82h-6.09v-23h-0.17l-6.6,4.14v-5.4l7.14,-4.52z"/><path d="M249.68572,194.89763c-2.21223,0.05201 -4.38814,-0.56868 -6.24,-1.78c-1.80807,-1.28448 -3.19899,-3.07181 -4,-5.14c-0.99014,-2.57896 -1.45918,-5.32863 -1.38,-8.09c-0.0691,-2.73317 0.40682,-5.45273 1.4,-8c1.33323,-3.0243 3.91543,-5.31956 7.07519,-6.28899c3.15976,-0.96943 6.58489,-0.51724 9.38481,1.23899c1.80231,1.25619 3.19377,3.01639 4,5.06c0.99657,2.54607 1.46934,5.26699 1.39,8c0.07387,2.76604 -0.40199,5.51923 -1.4,8.1c-0.79473,2.07174 -2.18694,3.86074 -4,5.14c-1.84865,1.20815 -4.02246,1.82226 -6.23,1.76zM249.68572,189.84763c1.69873,-0.00051 3.24967,-0.96597 4,-2.49c0.98,-1.66 1.46667,-4.15 1.46,-7.47c0.04661,-1.84306 -0.17916,-3.68289 -0.67,-5.46c-0.31825,-1.24334 -0.96801,-2.37698 -1.88,-3.28c-0.78117,-0.71959 -1.80799,-1.11315 -2.87,-1.1c-1.69219,0.00575 -3.23468,0.97078 -3.98,2.49c-0.98,1.64 -1.47667,4.09667 -1.49,7.37c-0.04027,1.86908 0.18532,3.7344 0.67,5.54c0.32367,1.255 0.97608,2.40102 1.89,3.32c0.78583,0.70971 1.81123,1.09558 2.87,1.08z"/></g></g></svg>