<svg version="1.1" xmlns="http://www.w3.org/2000/svg" xmlns:xlink="http://www.w3.org/1999/xlink" width="40.25" height="29.2327" viewBox="0,0,40.25,29.2327"><g transform="translate(-219.875,-165.38365)"><g data-paper-data="{&quot;isPaintingLayer&quot;:true}" fill="#231f20" fill-rule="nonzero" stroke="none" stroke-width="1" stroke-linecap="butt" stroke-linejoin="miter" stroke-miterlimit="10" stroke-dasharray="" stroke-dashoffset="0" style="mix-blend-mode: normal"><path d="M232.745,165.78635v28.82h-6.1v-23h-0.17l-6.6,4.14v-5.41l7.13,-4.51z"/><path d="M239.585,194.60635v-4.39l10.26,-9.5c0.87,-0.85 1.61,-1.61 2.2,-2.28c0.54404,-0.60026 1.00177,-1.2734 1.36,-2c0.31293,-0.66273 0.47352,-1.38711 0.47,-2.12c0.01673,-0.77005 -0.18431,-1.52918 -0.58,-2.19c-0.37758,-0.60326 -0.9138,-1.09105 -1.55,-1.41c-0.70385,-0.34114 -1.47793,-0.5124 -2.26,-0.5c-0.80194,-0.01667 -1.59553,0.16541 -2.31,0.53c-0.6488,0.3504 -1.17811,0.88667 -1.52,1.54c-0.37703,0.73539 -0.56274,1.55391 -0.54,2.38h-5.78c-0.04257,-1.72436 0.40101,-3.42589 1.28,-4.91c0.86318,-1.39781 2.10908,-2.51878 3.59,-3.23c1.66103,-0.78712 3.48229,-1.17739 5.32,-1.14c1.85828,-0.03843 3.70213,0.33375 5.4,1.09c1.44366,0.65628 2.6813,1.6934 3.58,3c0.84838,1.32255 1.28034,2.86925 1.24,4.44c-0.00656,1.10427 -0.22378,2.19715 -0.64,3.22c-0.57323,1.2873 -1.34235,2.47808 -2.28,3.53c-1.43354,1.64251 -2.96996,3.1923 -4.6,4.64l-4.2,4.12v0.19h12.1v5z"/></g></g></svg>