<svg version="1.1" xmlns="http://www.w3.org/2000/svg" xmlns:xlink="http://www.w3.org/1999/xlink" width="22.02446" height="29.63614" viewBox="0,0,22.02446,29.63614"><g transform="translate(-242.65173,-165.1269)"><g data-paper-data="{&quot;isPaintingLayer&quot;:true}" fill="#231f20" fill-rule="nonzero" stroke="none" stroke-width="1" stroke-linecap="butt" stroke-linejoin="miter" stroke-miterlimit="10" stroke-dasharray="" stroke-dashoffset="0" style="mix-blend-mode: normal"><path d="M253.59173,194.76037c-1.92609,0.0381 -3.83831,-0.33343 -5.61,-1.09c-1.5336,-0.63846 -2.86941,-1.67397 -3.87,-3c-0.94467,-1.288 -1.45591,-2.84272 -1.46,-4.44h6.14c0.02294,0.67525 0.26515,1.32465 0.69,1.85c0.45716,0.54527 1.04565,0.96513 1.71,1.22c0.76744,0.30073 1.58581,0.45014 2.41,0.44c0.84598,0.01871 1.68575,-0.14856 2.46,-0.49c0.67123,-0.30017 1.25092,-0.77289 1.68,-1.37c0.82757,-1.22682 0.82757,-2.83318 0,-4.06c-0.47165,-0.62409 -1.10425,-1.10805 -1.83,-1.4c-0.89635,-0.35622 -1.85582,-0.52634 -2.82,-0.5h-2.69v-4.48h2.69c0.83828,0.01609 1.67028,-0.14758 2.44,-0.48c0.66323,-0.28539 1.23684,-0.74497 1.66,-1.33c0.39946,-0.58928 0.60565,-1.28826 0.59,-2c0.01464,-0.67351 -0.16596,-1.33686 -0.52,-1.91c-0.3505,-0.54953 -0.84514,-0.99229 -1.43,-1.28c-0.66974,-0.32353 -1.40635,-0.48456 -2.15,-0.47c-0.77649,-0.00947 -1.54636,0.14382 -2.26,0.45c-0.65424,0.26233 -1.22466,0.69792 -1.65,1.26c-0.41372,0.5523 -0.64448,1.2201 -0.66,1.91h-5.92c0.0119,-1.58062 0.52288,-3.11708 1.46,-4.39c0.95683,-1.30761 2.23936,-2.34191 3.72,-3c1.66764,-0.73844 3.47649,-1.10362 5.3,-1.07c1.7986,-0.04354 3.58357,0.32235 5.22,1.07c1.41088,0.66547 2.61392,1.70257 3.48,3c0.82658,1.21291 1.25635,2.65246 1.23,4.12c0.04763,1.47722 -0.48755,2.91393 -1.49,4c-1.04915,1.10379 -2.43488,1.82831 -3.94,2.06v0.22c1.82754,0.13841 3.54645,0.92166 4.85,2.21c1.11926,1.21732 1.7123,2.82751 1.65,4.48c0.03473,1.57377 -0.46201,3.11331 -1.41,4.37c-1.02561,1.32597 -2.38054,2.36027 -3.93,3c-1.81662,0.75987 -3.77117,1.13443 -5.74,1.1z"/></g></g></svg>