<svg version="1.1" xmlns="http://www.w3.org/2000/svg" xmlns:xlink="http://www.w3.org/1999/xlink" width="20.81247" height="29.21354" viewBox="0,0,20.81247,29.21354"><g transform="translate(-243.25699,-165.10544)"><g data-paper-data="{&quot;isPaintingLayer&quot;:true}" fill="#231f20" fill-rule="nonzero" stroke="none" stroke-width="1" stroke-linecap="butt" stroke-linejoin="miter" stroke-miterlimit="10" stroke-dasharray="" stroke-dashoffset="0" style="mix-blend-mode: normal"><path d="M243.53946,194.31898v-4.39l10.26,-9.5c0.87,-0.84 1.61,-1.6 2.2,-2.28c0.54855,-0.59669 1.00675,-1.27051 1.36,-2c0.31095,-0.65949 0.46823,-1.38093 0.46,-2.11c0.0214,-0.76927 -0.17628,-1.52877 -0.57,-2.19c-0.38139,-0.61356 -0.92936,-1.10604 -1.58,-1.42c-0.70587,-0.34558 -1.48426,-0.51703 -2.27,-0.5c-0.79936,-0.02274 -1.59121,0.15973 -2.3,0.53c-0.64955,0.34941 -1.17911,0.88594 -1.52,1.54c-0.37382,0.73655 -0.55935,1.55424 -0.54,2.38h-5.78c-0.03988,-1.72405 0.4035,-3.42485 1.28,-4.91c0.87187,-1.40287 2.13315,-2.52169 3.63,-3.22c1.66103,-0.78712 3.48229,-1.17739 5.32,-1.14c1.85557,-0.04432 3.69745,0.32816 5.39,1.09c1.44921,0.64744 2.68903,1.68639 3.58,3c0.86784,1.30863 1.3177,2.85 1.29,4.42c-0.00656,1.10427 -0.22378,2.19715 -0.64,3.22c-0.57371,1.28401 -1.34283,2.47142 -2.28,3.52c-1.45292,1.64434 -3.00942,3.19417 -4.66,4.64l-4.21,4.12v0.2h12.11v5z"/></g></g></svg>