<svg version="1.1" xmlns="http://www.w3.org/2000/svg" xmlns:xlink="http://www.w3.org/1999/xlink" width="22.32318" height="29.54079" viewBox="0,0,22.32318,29.54079"><g transform="translate(-242.46738,-165.07044)"><g data-paper-data="{&quot;isPaintingLayer&quot;:true}" fill="#231f20" fill-rule="nonzero" stroke="none" stroke-width="1" stroke-linecap="butt" stroke-linejoin="miter" stroke-miterlimit="10" stroke-dasharray="" stroke-dashoffset="0" style="mix-blend-mode: normal"><path d="M253.23803,165.07649c1.46188,-0.00149 2.9131,0.24884 4.29,0.74c1.38861,0.50936 2.64589,1.3225 3.68,2.38c1.17845,1.23581 2.06066,2.72327 2.58,4.35c0.6949,2.13327 1.03278,4.36664 1,6.61c0.03225,2.21082 -0.24374,4.41536 -0.82,6.55c-0.48884,1.74978 -1.30305,3.39176 -2.4,4.84c-0.97114,1.30096 -2.2399,2.35026 -3.7,3.06c-1.5166,0.69614 -3.1717,1.0381 -4.84,1c-1.75636,0.05119 -3.50009,-0.31194 -5.09,-1.06c-2.88419,-1.41703 -4.83982,-4.21456 -5.18,-7.41h6c0.17923,0.96418 0.70139,1.8309 1.47,2.44c0.80518,0.59653 1.78847,0.90315 2.79,0.87c1.77772,0.05793 3.43523,-0.89476 4.28,-2.46c1.08096,-2.07256 1.59172,-4.39516 1.48,-6.73h-0.2c-0.4238,0.83581 -1.01627,1.57469 -1.74,2.17c-0.74892,0.6145 -1.6026,1.08877 -2.52,1.4c-0.96498,0.33225 -1.97945,0.49794 -3,0.49c-1.59666,0.02448 -3.16977,-0.38695 -4.55,-1.19c-1.32731,-0.79714 -2.41542,-1.93707 -3.15,-3.3c-1.59561,-3.13736 -1.52815,-6.86247 0.18,-9.94c0.90661,-1.51334 2.21508,-2.74565 3.78,-3.56c1.75253,-0.88319 3.69851,-1.31296 5.66,-1.25zM253.23803,169.85649c-0.88715,-0.01417 -1.7604,0.22147 -2.52,0.68c-0.73102,0.44062 -1.33427,1.06455 -1.75,1.81c-0.42688,0.78086 -0.64071,1.66032 -0.62,2.55c-0.01205,0.89191 0.2012,1.77244 0.62,2.56c0.40769,0.73889 1.00039,1.35916 1.72,1.8c0.75525,0.45044 1.62071,0.68239 2.5,0.67c1.32759,0.00496 2.59943,-0.5334 3.52,-1.49c0.43293,-0.468 0.77236,-1.01449 1,-1.61c0.25715,-0.61413 0.38645,-1.27423 0.38,-1.94c0.00183,-0.87852 -0.22199,-1.74279 -0.65,-2.51c-0.38624,-0.73983 -0.95397,-1.36949 -1.65,-1.83c-0.75414,-0.46376 -1.62478,-0.7031 -2.51,-0.69z"/></g></g></svg>