<svg version="1.1" xmlns="http://www.w3.org/2000/svg" xmlns:xlink="http://www.w3.org/1999/xlink" width="21.1801" height="29.18523" viewBox="0,0,21.1801,29.18523"><g transform="translate(-243.26941,-165.49304)"><g data-paper-data="{&quot;isPaintingLayer&quot;:true}" fill="#231f20" fill-rule="nonzero" stroke="none" stroke-width="1" stroke-linecap="butt" stroke-linejoin="miter" stroke-miterlimit="10" stroke-dasharray="" stroke-dashoffset="0" style="mix-blend-mode: normal"><path d="M253.67941,194.67304c-1.82401,0.03919 -3.63405,-0.32623 -5.3,-1.07c-1.46994,-0.66212 -2.7418,-1.69614 -3.69,-3c-0.91041,-1.29534 -1.40563,-2.83679 -1.42,-4.42h5.91c0.03742,1.0697 0.55549,2.06542 1.41,2.71c0.87799,0.70313 1.97543,1.07484 3.1,1.05c0.8885,0.01617 1.76525,-0.20474 2.54,-0.64c0.73359,-0.42529 1.33566,-1.04466 1.74,-1.79c0.42258,-0.8149 0.63565,-1.72218 0.62,-2.64c0.02118,-0.93037 -0.19933,-1.85033 -0.64,-2.67c-0.41103,-0.75225 -1.01955,-1.37807 -1.76,-1.81c-0.78864,-0.43894 -1.67746,-0.66631 -2.58,-0.66c-0.84679,0.00462 -1.68378,0.18154 -2.46,0.52c-0.73238,0.3045 -1.37079,0.79797 -1.85,1.43l-5.41,-1l1.36,-15.19h17.62v5h-12.6l-0.75,7.22h0.17c0.59275,-0.78515 1.38287,-1.39931 2.29,-1.78c1.08211,-0.48076 2.25607,-0.71965 3.44,-0.7c3.27245,-0.07151 6.30872,1.69771 7.86,4.58c1.61827,3.18033 1.55459,6.95605 -0.17,10.08c-0.91424,1.50568 -2.22553,2.73047 -3.79,3.54c-1.74898,0.8721 -3.68651,1.29808 -5.64,1.24z"/></g></g></svg>