<svg version="1.1" xmlns="http://www.w3.org/2000/svg" xmlns:xlink="http://www.w3.org/1999/xlink" width="41.50346" height="29.63497" viewBox="0,0,41.50346,29.63497"><g transform="translate(-219.24827,-165.18252)"><g data-paper-data="{&quot;isPaintingLayer&quot;:true}" fill="#231f20" fill-rule="nonzero" stroke="none" stroke-width="1" stroke-linecap="butt" stroke-linejoin="miter" stroke-miterlimit="10" stroke-dasharray="" stroke-dashoffset="0" style="mix-blend-mode: normal"><path d="M232.10827,165.60506v28.82h-6.09v-23h-0.17l-6.6,4.14v-5.42l7.13,-4.52z"/><path d="M249.61827,194.81506c-1.92594,0.03628 -3.83777,-0.33518 -5.61,-1.09c-1.53166,-0.64179 -2.86666,-1.67668 -3.87,-3c-0.94467,-1.288 -1.45591,-2.84272 -1.46,-4.44h6.14c0.02864,0.67583 0.27408,1.32449 0.7,1.85c0.45186,0.5533 1.04172,0.97758 1.71,1.23c0.76368,0.30167 1.57897,0.45114 2.4,0.44c0.84556,0.01394 1.68432,-0.15313 2.46,-0.49c0.67303,-0.29725 1.25342,-0.77054 1.68,-1.37c0.82757,-1.22682 0.82757,-2.83318 0,-4.06c-0.46444,-0.63121 -1.09927,-1.11687 -1.83,-1.4c-0.89556,-0.35991 -1.85511,-0.53344 -2.82,-0.51h-2.69v-4.47h2.69c0.83836,0.01703 1.67056,-0.14668 2.44,-0.48c0.66323,-0.28539 1.23684,-0.74497 1.66,-1.33c0.39946,-0.58928 0.60565,-1.28826 0.59,-2c0.03501,-1.35459 -0.72845,-2.60353 -1.95,-3.19c-0.66937,-0.32461 -1.40624,-0.4857 -2.15,-0.47c-0.77534,-0.00776 -1.5442,0.14193 -2.26,0.44c-0.65131,0.26746 -1.22048,0.7021 -1.65,1.26c-0.41214,0.55694 -0.6426,1.22737 -0.66,1.92h-5.84c0.00028,-1.57619 0.49713,-3.11223 1.42,-4.39c0.95683,-1.30761 2.23936,-2.34191 3.72,-3c1.66717,-0.74095 3.47583,-1.10951 5.3,-1.08c1.80015,-0.03727 3.58519,0.33546 5.22,1.09c1.40388,0.64316 2.60921,1.65164 3.49,2.92c0.82701,1.20896 1.25692,2.64549 1.23,4.11c0.04601,1.4788 -0.49297,2.91609 -1.5,4c-1.04915,1.10379 -2.43488,1.82831 -3.94,2.06v0.22c1.82688,0.13312 3.54647,0.91314 4.85,2.2c1.11881,1.22224 1.71467,2.83391 1.66,4.49c0.02414,1.5738 -0.47536,3.111 -1.42,4.37c-1.02192,1.32968 -2.37794,2.36481 -3.93,3c-1.82229,0.79421 -3.79229,1.19298 -5.78,1.17z"/></g></g></svg>