<svg version="1.1" xmlns="http://www.w3.org/2000/svg" xmlns:xlink="http://www.w3.org/1999/xlink" width="41.0101" height="29.28236" viewBox="0,0,41.0101,29.28236"><g transform="translate(-219.49495,-165.35882)"><g data-paper-data="{&quot;isPaintingLayer&quot;:true}" fill="#231f20" fill-rule="nonzero" stroke="none" stroke-width="1" stroke-linecap="butt" stroke-linejoin="miter" stroke-miterlimit="10" stroke-dasharray="" stroke-dashoffset="0" style="mix-blend-mode: normal"><path d="M232.36495,165.41882v28.82h-6.1v-23h-0.17l-6.6,4.14v-5.4l7.15,-4.56z"/><path d="M249.73495,194.63882c-1.83008,0.03599 -3.64483,-0.33995 -5.31,-1.1c-1.46994,-0.66212 -2.7418,-1.69614 -3.69,-3c-0.91041,-1.29534 -1.40563,-2.83679 -1.42,-4.42h5.91c0.04561,1.0671 0.5666,2.05773 1.42,2.7c0.88637,0.68222 1.98205,1.03567 3.1,1c0.8885,0.01617 1.76525,-0.20474 2.54,-0.64c0.73359,-0.42529 1.33566,-1.04466 1.74,-1.79c0.42458,-0.81416 0.63777,-1.72195 0.62,-2.64c0.02118,-0.93037 -0.19933,-1.85033 -0.64,-2.67c-0.40873,-0.75135 -1.01802,-1.37449 -1.76,-1.8c-0.78864,-0.43894 -1.67746,-0.66631 -2.58,-0.66c-0.84731,-0.00026 -1.68528,0.17687 -2.46,0.52c-0.7317,0.30087 -1.37019,0.79096 -1.85,1.42l-5.41,-1l1.36,-15.2h17.62v5h-12.6l-0.75,7.22h0.17c0.59637,-0.77915 1.3857,-1.38924 2.29,-1.77c1.08133,-0.48419 2.25533,-0.7265 3.44,-0.71c3.26947,-0.06003 6.3002,1.70596 7.86,4.58c1.61827,3.18033 1.55459,6.95605 -0.17,10.08c-0.91139,1.508 -2.22341,2.73347 -3.79,3.54c-1.74007,0.90672 -3.67805,1.36716 -5.64,1.34z"/></g></g></svg>