<svg version="1.1" xmlns="http://www.w3.org/2000/svg" xmlns:xlink="http://www.w3.org/1999/xlink" width="41.57966" height="29.56814" viewBox="0,0,41.57966,29.56814"><g transform="translate(-219.21017,-165.21593)"><g data-paper-data="{&quot;isPaintingLayer&quot;:true}" fill="#231f20" fill-rule="nonzero" stroke="none" stroke-width="1" stroke-linecap="butt" stroke-linejoin="miter" stroke-miterlimit="10" stroke-dasharray="" stroke-dashoffset="0" style="mix-blend-mode: normal"><path d="M232.08017,165.51909v28.82h-6.1v-23h-0.17l-6.6,4.14v-5.4l7.14,-4.52z"/><path d="M249.99017,194.77909c-1.46102,-0.00846 -2.91058,-0.2585 -4.29,-0.74c-1.39418,-0.50402 -2.65585,-1.31778 -3.69,-2.38c-1.17613,-1.24143 -2.0579,-2.73155 -2.58,-4.36c-0.68289,-2.1556 -1.0039,-4.40946 -0.95,-6.67c-0.02007,-2.19498 0.26259,-4.38224 0.84,-6.5c0.46652,-1.7568 1.26785,-3.407 2.36,-4.86c0.97741,-1.28851 2.24056,-2.33257 3.69,-3.05c1.51244,-0.69802 3.16474,-1.04011 4.83,-1c1.7604,-0.03598 3.50441,0.34434 5.09,1.11c1.41689,0.68961 2.64021,1.7205 3.56,3c0.89076,1.27176 1.4478,2.7469 1.62,4.29h-6c-0.18981,-0.94077 -0.71155,-1.78193 -1.47,-2.37c-0.80881,-0.5873 -1.79112,-0.88658 -2.79,-0.85c-1.771,-0.0627 -3.4249,0.88238 -4.27,2.44c-1.07111,2.05097 -1.58165,4.34841 -1.48,6.66h0.19c0.42709,-0.84221 1.02275,-1.58764 1.75,-2.19c0.75078,-0.60933 1.60411,-1.08002 2.52,-1.39c0.96627,-0.32712 1.97986,-0.49267 3,-0.49c3.21457,-0.05988 6.19347,1.68038 7.72,4.51c1.60415,3.15929 1.52536,6.91084 -0.21,10c-0.9035,1.51835 -2.21254,2.75466 -3.78,3.57c-1.75059,0.89051 -3.69676,1.3272 -5.66,1.27zM249.99017,189.99909c0.88695,0.01257 1.75977,-0.22296 2.52,-0.68c0.73418,-0.4454 1.33784,-1.07665 1.75,-1.83c0.4268,-0.79573 0.64363,-1.68714 0.63,-2.59c0.01377,-0.89651 -0.20318,-1.7815 -0.63,-2.57c-0.40141,-0.74874 -0.99512,-1.37696 -1.72,-1.82c-0.75689,-0.45522 -1.62694,-0.68747 -2.51,-0.67c-1.32773,-0.02032 -2.60235,0.52075 -3.51,1.49c-0.44261,0.474 -0.79806,1.02242 -1.05,1.62c-0.5862,1.46754 -0.49096,3.11955 0.26,4.51c0.41389,0.75737 1.01677,1.39471 1.75,1.85c0.75025,0.44178 1.60966,0.66357 2.48,0.64z"/></g></g></svg>