<svg version="1.1" xmlns="http://www.w3.org/2000/svg" xmlns:xlink="http://www.w3.org/1999/xlink" width="41.64004" height="29.58753" viewBox="0,0,41.64004,29.58753"><g transform="translate(-219.17998,-165.20624)"><g data-paper-data="{&quot;isPaintingLayer&quot;:true}" fill="#231f20" fill-rule="nonzero" stroke="none" stroke-width="1" stroke-linecap="butt" stroke-linejoin="miter" stroke-miterlimit="10" stroke-dasharray="" stroke-dashoffset="0" style="mix-blend-mode: normal"><path d="M232.03998,165.58105v28.82h-6.09v-23h-0.17l-6.6,4.14v-5.41l7.14,-4.51z"/><path d="M249.64998,194.79105c-1.97826,0.03792 -3.94393,-0.32257 -5.78,-1.06c-1.5633,-0.6064 -2.94182,-1.60928 -4,-2.91c-0.94555,-1.18675 -1.454,-2.66269 -1.44,-4.18c-0.00918,-1.15595 0.27648,-2.29515 0.83,-3.31c0.56315,-1.01166 1.35825,-1.8753 2.32,-2.52c0.94676,-0.66871 2.03494,-1.11014 3.18,-1.29v-0.19c-1.47719,-0.27448 -2.80543,-1.07355 -3.74,-2.25c-0.94349,-1.1569 -1.45287,-2.60722 -1.44,-4.1c-0.01907,-1.44172 0.44177,-2.84886 1.31,-4c0.93584,-1.22114 2.17776,-2.17329 3.6,-2.76c3.33463,-1.35309 7.06537,-1.35309 10.4,0c1.40333,0.59544 2.62697,1.54678 3.55,2.76c0.86774,1.15198 1.33167,2.55782 1.32,4c0.01814,1.51225 -0.499,2.98222 -1.46,4.15c-0.94237,1.14836 -2.25969,1.92742 -3.72,2.2v0.19c1.13219,0.18193 2.2069,0.62345 3.14,1.29c0.93048,0.65953 1.69969,1.52103 2.25,2.52c0.55965,1.01332 0.85217,2.15241 0.85,3.31c0.00552,1.51759 -0.50588,2.99183 -1.45,4.18c-1.05397,1.30516 -2.43378,2.30897 -4,2.91c-1.81724,0.73007 -3.76183,1.09043 -5.72,1.06zM249.64998,190.31105c0.87186,0.02077 1.73701,-0.15705 2.53,-0.52c0.69137,-0.32388 1.27972,-0.83262 1.7,-1.47c0.83378,-1.33735 0.83378,-3.03265 0,-4.37c-0.42672,-0.64797 -1.01647,-1.17219 -1.71,-1.52c-1.58175,-0.7524 -3.41825,-0.7524 -5,0c-0.71017,0.34881 -1.31176,0.88471 -1.74,1.55c-0.42142,0.65881 -0.63725,1.42813 -0.62,2.21c-0.0157,0.7632 0.19292,1.51424 0.6,2.16c0.41454,0.64239 1.00449,1.15253 1.7,1.47c0.79949,0.35083 1.66738,0.51825 2.54,0.49zM249.64998,177.44105c0.74592,0.01461 1.48407,-0.15362 2.15,-0.49c0.60889,-0.31337 1.12063,-0.78708 1.48,-1.37c0.35728,-0.60522 0.54068,-1.29727 0.53,-2c0.04298,-1.40082 -0.73992,-2.69653 -2,-3.31c-0.66836,-0.33955 -1.41055,-0.50791 -2.16,-0.49c-0.75253,-0.01667 -1.49765,0.15158 -2.17,0.49c-0.60542,0.29613 -1.11496,0.75714 -1.47,1.33c-0.55609,0.90055 -0.71252,1.99185 -0.43178,3.01235c0.28073,1.0205 0.97332,1.87824 1.91178,2.36765c0.6717,0.32723 1.41326,0.48515 2.16,0.46z"/></g></g></svg>