<svg version="1.1" xmlns="http://www.w3.org/2000/svg" xmlns:xlink="http://www.w3.org/1999/xlink" width="41.69291" height="29.57144" viewBox="0,0,41.69291,29.57144"><g transform="translate(-219.15355,-165.21428)"><g data-paper-data="{&quot;isPaintingLayer&quot;:true}" fill="#231f20" fill-rule="nonzero" stroke="none" stroke-width="1" stroke-linecap="butt" stroke-linejoin="miter" stroke-miterlimit="10" stroke-dasharray="" stroke-dashoffset="0" style="mix-blend-mode: normal"><path d="M232.02355,165.61243v28.82h-6.1v-23h-0.17l-6.6,4.13v-5.4l7.14,-4.52z"/><path d="M249.30355,165.22243c1.45969,-0.00386 2.9086,0.25003 4.28,0.75c1.39021,0.50723 2.65051,1.3167 3.69,2.37c1.16924,1.23333 2.0474,2.71287 2.57,4.33c0.70016,2.13202 1.03817,4.36628 1,6.61c0.02925,2.21131 -0.25011,4.41588 -0.83,6.55c-0.47183,1.76218 -1.26884,3.42065 -2.35,4.89c-0.97705,1.29925 -2.24858,2.348 -3.71,3.06c-1.51571,0.69884 -3.17145,1.04093 -4.84,1c-1.76117,0.03249 -3.50513,-0.35125 -5.09,-1.12c-2.86789,-1.41246 -4.82252,-4.18434 -5.19,-7.36h6c0.18268,0.9653 0.70835,1.83195 1.48,2.44c0.80138,0.59651 1.78154,0.90325 2.78,0.87c1.77831,0.0603 3.43698,-0.89305 4.28,-2.46c1.08096,-2.07256 1.59172,-4.39516 1.48,-6.73h-0.2c-0.4238,0.83581 -1.01627,1.57469 -1.74,2.17c-0.74529,0.61436 -1.59568,1.08868 -2.51,1.4c-0.96541,0.33056 -1.97959,0.49621 -3,0.49c-1.60385,0.03174 -3.18532,-0.38006 -4.57,-1.19c-1.32998,-0.79261 -2.42163,-1.92917 -3.16,-3.29c-1.61572,-3.15472 -1.54439,-6.90893 0.19,-10c0.90412,-1.51534 2.21323,-2.74826 3.78,-3.56c1.75494,-0.87363 3.70099,-1.2931 5.66,-1.22zM249.30355,170.00243c-0.89027,-0.0139 -1.76666,0.22165 -2.53,0.68c-0.72793,0.44125 -1.32779,1.06524 -1.74,1.81c-0.4335,0.77866 -0.65101,1.65904 -0.63,2.55c-0.01385,0.89334 0.20315,1.77512 0.63,2.56c0.4038,0.73848 0.99319,1.35889 1.71,1.8c0.75525,0.45044 1.62071,0.68239 2.5,0.67c1.33106,0.0077 2.60703,-0.53088 3.53,-1.49c0.43044,-0.4699 0.76956,-1.01588 1,-1.61c0.25715,-0.61413 0.38645,-1.27423 0.38,-1.94c0.00533,-0.87769 -0.21505,-1.74202 -0.64,-2.51c-0.39713,-0.74162 -0.97497,-1.37104 -1.68,-1.83c-0.74771,-0.46163 -1.61134,-0.70095 -2.49,-0.69z"/></g></g></svg>