<svg version="1.1" xmlns="http://www.w3.org/2000/svg" xmlns:xlink="http://www.w3.org/1999/xlink" width="48.14136" height="29.85682" viewBox="0,0,48.14136,29.85682"><g transform="translate(-215.92932,-165.07159)"><g data-paper-data="{&quot;isPaintingLayer&quot;:true}" fill="#231f20" fill-rule="nonzero" stroke="none" stroke-width="1" stroke-linecap="butt" stroke-linejoin="miter" stroke-miterlimit="10" stroke-dasharray="" stroke-dashoffset="0" style="mix-blend-mode: normal"><path d="M216.17195,194.29429v-4.42l10.26,-9.5c0.87,-0.85 1.61,-1.61 2.2,-2.28c0.54404,-0.60026 1.00177,-1.2734 1.36,-2c0.31293,-0.66273 0.47352,-1.38711 0.47,-2.12c0.01838,-0.77025 -0.18279,-1.52982 -0.58,-2.19c-0.38431,-0.6111 -0.93149,-1.10287 -1.58,-1.42c-0.70385,-0.34114 -1.47793,-0.5124 -2.26,-0.5c-0.80194,-0.01667 -1.59553,0.16541 -2.31,0.53c-0.63982,0.36733 -1.15522,0.91756 -1.48,1.58c-0.37357,0.7363 -0.55583,1.55476 -0.53,2.38h-5.79c-0.04122,-1.72736 0.40219,-3.43174 1.28,-4.92c0.86679,-1.39231 2.11197,-2.50916 3.59,-3.22c1.66103,-0.78712 3.48229,-1.17739 5.32,-1.14c1.85828,-0.03843 3.70213,0.33375 5.4,1.09c1.44366,0.65628 2.6813,1.6934 3.58,3c0.85861,1.31239 1.30444,2.85188 1.28,4.42c-0.00155,1.10478 -0.21895,2.1986 -0.64,3.22c-0.57296,1.28514 -1.33841,2.47547 -2.27,3.53c-1.44002,1.63977 -2.9796,3.18937 -4.61,4.64l-4.2,4.12v0.19h12.1v5z"/><path d="M252.44195,194.92429c-2.2161,0.04667 -4.3946,-0.57725 -6.25,-1.79c-1.80983,-1.27835 -3.20146,-3.06311 -4,-5.13c-0.98911,-2.57924 -1.45812,-5.32871 -1.38,-8.09c-0.06591,-2.73293 0.40991,-5.45187 1.4,-8c1.58095,-4.24474 5.71438,-6.98959 10.24,-6.8c2.20279,-0.06063 4.37198,0.54968 6.22,1.75c1.80438,1.25399 3.19639,3.01489 4,5.06c0.99737,2.54584 1.47016,5.26694 1.39,8c0.07387,2.76604 -0.40199,5.51923 -1.4,8.1c-0.79684,2.07055 -2.18861,3.85898 -4,5.14c-1.84555,1.20677 -4.01576,1.82085 -6.22,1.76zM252.44195,189.87429c1.68135,-0.01709 3.2095,-0.9804 3.95,-2.49c0.98,-1.66 1.46667,-4.15 1.46,-7.47c0.04356,-1.84555 -0.17872,-3.68777 -0.66,-5.47c-0.32552,-1.2397 -0.97829,-2.36911 -1.89,-3.27c-0.77533,-0.72252 -1.80033,-1.11675 -2.86,-1.1c-1.67173,0.01285 -3.19453,0.96364 -3.94,2.46c-0.99333,1.64 -1.49333,4.1 -1.5,7.38c-0.0404,1.8658 0.1852,3.72784 0.67,5.53c0.31768,1.25965 0.97486,2.408 1.9,3.32c0.7774,0.72678 1.80588,1.12456 2.87,1.11z"/></g></g></svg>