<svg version="1.1" xmlns="http://www.w3.org/2000/svg" xmlns:xlink="http://www.w3.org/1999/xlink" width="37.78247" height="29.22354" viewBox="0,0,37.78247,29.22354"><g transform="translate(-221.10876,-165.38823)"><g data-paper-data="{&quot;isPaintingLayer&quot;:true}" fill="#231f20" fill-rule="nonzero" stroke="none" stroke-width="1" stroke-linecap="butt" stroke-linejoin="miter" stroke-miterlimit="10" stroke-dasharray="" stroke-dashoffset="0" style="mix-blend-mode: normal"><path d="M221.39124,194.61177v-4.39l10.26,-9.5c0.87,-0.84 1.61,-1.6 2.2,-2.28c0.54855,-0.59669 1.00675,-1.27051 1.36,-2c0.31095,-0.65949 0.46823,-1.38093 0.46,-2.11c0.0214,-0.76927 -0.17628,-1.52877 -0.57,-2.19c-0.38139,-0.61356 -0.92936,-1.10604 -1.58,-1.42c-0.70272,-0.34439 -1.47759,-0.51582 -2.26,-0.5c-0.80215,-0.01877 -1.59626,0.16343 -2.31,0.53c-0.65106,0.34739 -1.18115,0.88446 -1.52,1.54c-0.37702,0.73181 -0.56278,1.5471 -0.54,2.37h-5.78c-0.03988,-1.72405 0.4035,-3.42485 1.28,-4.91c0.86115,-1.39704 2.10788,-2.51528 3.59,-3.22c1.66103,-0.78712 3.48229,-1.17739 5.32,-1.14c1.85557,-0.04432 3.69745,0.32816 5.39,1.09c1.45007,0.65037 2.69239,1.68852 3.59,3c0.86031,1.31161 1.30629,2.85164 1.28,4.42c-0.00656,1.10427 -0.22378,2.19715 -0.64,3.22c-0.57323,1.2873 -1.34235,2.47808 -2.28,3.53c-1.43409,1.63886 -2.9705,3.18528 -4.6,4.63l-4.21,4.12v0.2h12.11v5z"/><path d="M258.89124,165.79177v28.82h-6.09v-23h-0.17l-6.6,4.14v-5.41l7.13,-4.52z"/></g></g></svg>