<svg version="1.1" xmlns="http://www.w3.org/2000/svg" xmlns:xlink="http://www.w3.org/1999/xlink" width="45.7733" height="29.22372" viewBox="0,0,45.7733,29.22372"><g transform="translate(-217.11335,-165.38814)"><g data-paper-data="{&quot;isPaintingLayer&quot;:true}" fill="#231f20" fill-rule="nonzero" stroke="none" stroke-width="1" stroke-linecap="butt" stroke-linejoin="miter" stroke-miterlimit="10" stroke-dasharray="" stroke-dashoffset="0" style="mix-blend-mode: normal"><path d="M217.39665,194.60186v-4.39l10.25,-9.5c0.88,-0.84 1.61,-1.6 2.21,-2.28c0.54302,-0.60105 1.00066,-1.27405 1.36,-2c0.30663,-0.66449 0.46366,-1.38818 0.46,-2.12c0.02175,-0.77064 -0.17966,-1.53115 -0.58,-2.19c-0.38037,-0.61074 -0.92426,-1.10267 -1.57,-1.42c-0.70786,-0.33986 -1.48486,-0.51101 -2.27,-0.5c-0.80328,-0.01827 -1.59807,0.16752 -2.31,0.54c-0.64809,0.34676 -1.1775,0.87965 -1.52,1.53c-0.36764,0.73841 -0.54957,1.55536 -0.53,2.38h-5.78c-0.04639,-1.7248 0.39746,-3.42737 1.28,-4.91c0.85978,-1.39449 2.10252,-2.51226 3.58,-3.22c1.65005,-0.7766 3.45663,-1.16324 5.28,-1.13c1.8589,-0.04548 3.70429,0.32702 5.4,1.09c1.4478,0.64969 2.68706,1.68818 3.58,3c0.85861,1.31239 1.30444,2.85188 1.28,4.42c-0.00153,1.10801 -0.21891,2.20512 -0.64,3.23c-0.56965,1.2839 -1.33546,2.47141 -2.27,3.52c-1.4336,1.64245 -2.97002,3.19224 -4.6,4.64l-4.21,4.12v0.2h12.1v5z"/><path d="M242.35665,194.60186v-4.39l10.26,-9.5c0.87,-0.84 1.6,-1.6 2.2,-2.28c0.54635,-0.59843 1.00432,-1.27192 1.36,-2c0.31078,-0.66309 0.46801,-1.38774 0.46,-2.12c0.01867,-0.76896 -0.17882,-1.52772 -0.57,-2.19c-0.38431,-0.6111 -0.93149,-1.10287 -1.58,-1.42c-0.70749,-0.34091 -1.48475,-0.51211 -2.27,-0.5c-0.80023,-0.01966 -1.59213,0.16626 -2.3,0.54c-0.65268,0.34057 -1.18372,0.8751 -1.52,1.53c-0.37382,0.73655 -0.55935,1.55424 -0.54,2.38h-5.78c-0.04149,-1.72423 0.40201,-3.42547 1.28,-4.91c0.86115,-1.39704 2.10788,-2.51528 3.59,-3.22c1.65882,-0.78216 3.47644,-1.16896 5.31,-1.13c1.85557,-0.04432 3.69745,0.32816 5.39,1.09c1.44978,0.64653 2.68982,1.68568 3.58,3c0.86316,1.3103 1.3094,2.85122 1.28,4.42c-0.00153,1.10801 -0.21891,2.20512 -0.64,3.23c-0.56585,1.28594 -1.33203,2.47403 -2.27,3.52c-1.4336,1.64245 -2.97002,3.19224 -4.6,4.64l-4.21,4.12v0.2h12.1v5z"/></g></g></svg>