<svg version="1.1" xmlns="http://www.w3.org/2000/svg" xmlns:xlink="http://www.w3.org/1999/xlink" width="46.98775" height="29.61614" viewBox="0,0,46.98775,29.61614"><g transform="translate(-216.50612,-165.19193)"><g data-paper-data="{&quot;isPaintingLayer&quot;:true}" fill="#231f20" fill-rule="nonzero" stroke="none" stroke-width="1" stroke-linecap="butt" stroke-linejoin="miter" stroke-miterlimit="10" stroke-dasharray="" stroke-dashoffset="0" style="mix-blend-mode: normal"><path d="M216.78942,194.41565v-4.39l10.26,-9.5c0.87,-0.84 1.6,-1.6 2.2,-2.28c0.54123,-0.60032 0.99565,-1.27353 1.35,-2c0.31422,-0.66229 0.47488,-1.38697 0.47,-2.12c0.02175,-0.77064 -0.17966,-1.53115 -0.58,-2.19c-0.38037,-0.61074 -0.92426,-1.10267 -1.57,-1.42c-0.70749,-0.34091 -1.48475,-0.51211 -2.27,-0.5c-0.80328,-0.01827 -1.59807,0.16752 -2.31,0.54c-0.64809,0.34676 -1.1775,0.87965 -1.52,1.53c-0.36764,0.73841 -0.54957,1.55536 -0.53,2.38h-5.78c-0.04639,-1.7248 0.39746,-3.42737 1.28,-4.91c0.85978,-1.39449 2.10252,-2.51226 3.58,-3.22c1.66139,-0.78608 3.48239,-1.17629 5.32,-1.14c1.8589,-0.04548 3.70429,0.32702 5.4,1.09c1.4478,0.64969 2.68706,1.68818 3.58,3c0.85861,1.31239 1.30444,2.85188 1.28,4.42c-0.00153,1.10801 -0.21891,2.20512 -0.64,3.23c-0.56965,1.2839 -1.33546,2.47141 -2.27,3.52c-1.4336,1.64245 -2.97002,3.19224 -4.6,4.64l-4.21,4.12v0.2h12.1v5z"/><path d="M252.39942,194.80565c-1.92594,0.03628 -3.83777,-0.33518 -5.61,-1.09c-1.53046,-0.64384 -2.86498,-1.67835 -3.87,-3c-0.94111,-1.28921 -1.44881,-2.84383 -1.45,-4.44h6.13c0.02651,0.67627 0.27219,1.32558 0.7,1.85c0.45596,0.54892 1.04456,0.9723 1.71,1.23c0.76687,0.3027 1.58564,0.45219 2.41,0.44c0.84598,0.01871 1.68575,-0.14856 2.46,-0.49c0.67016,-0.29749 1.24726,-0.77091 1.67,-1.37c0.40899,-0.58574 0.62248,-1.28571 0.61,-2c0.00744,-0.73362 -0.2165,-1.45092 -0.64,-2.05c-0.47165,-0.62409 -1.10425,-1.10805 -1.83,-1.4c-0.89635,-0.35622 -1.85582,-0.52634 -2.82,-0.5h-2.69v-4.48h2.69c0.83828,0.01609 1.67028,-0.14758 2.44,-0.48c0.66332,-0.28071 1.23486,-0.74141 1.65,-1.33c0.40379,-0.58723 0.61041,-1.28763 0.59,-2c0.01318,-0.67198 -0.1636,-1.33403 -0.51,-1.91c-0.35162,-0.55228 -0.8503,-0.99556 -1.44,-1.28c-0.66622,-0.32343 -1.39956,-0.48449 -2.14,-0.47c-0.77972,-0.00939 -1.55283,0.14387 -2.27,0.45c-0.64652,0.26618 -1.21197,0.69716 -1.64,1.25c-0.42065,0.55242 -0.65209,1.2257 -0.66,1.92h-5.84c-0.00453,-1.57695 0.49279,-3.11444 1.42,-4.39c0.95683,-1.30761 2.23936,-2.34191 3.72,-3c1.66764,-0.73844 3.47649,-1.10362 5.3,-1.07c1.79928,-0.03936 3.58405,0.3299 5.22,1.08c1.40102,0.64341 2.60305,1.65201 3.48,2.92c0.8252,1.20982 1.25493,2.64576 1.23,4.11c0.04601,1.4788 -0.49297,2.91609 -1.5,4c-1.047,1.10124 -2.42868,1.82548 -3.93,2.06v0.22c1.82754,0.13841 3.54645,0.92166 4.85,2.21c1.11926,1.21732 1.7123,2.82751 1.65,4.48c0.03473,1.57377 -0.46201,3.11331 -1.41,4.37c-1.03165,1.32405 -2.38922,2.35774 -3.94,3c-1.81196,0.78128 -3.76685,1.17634 -5.74,1.16z"/></g></g></svg>