<svg version="1.1" xmlns="http://www.w3.org/2000/svg" xmlns:xlink="http://www.w3.org/1999/xlink" width="47.3933" height="29.27354" viewBox="0,0,47.3933,29.27354"><g transform="translate(-216.30335,-165.36323)"><g data-paper-data="{&quot;isPaintingLayer&quot;:true}" fill="#231f20" fill-rule="nonzero" stroke="none" stroke-width="1" stroke-linecap="butt" stroke-linejoin="miter" stroke-miterlimit="10" stroke-dasharray="" stroke-dashoffset="0" style="mix-blend-mode: normal"><path d="M216.58665,194.61677v-4.39l10.26,-9.5c0.87,-0.84 1.6,-1.6 2.2,-2.28c0.54302,-0.60105 1.00066,-1.27405 1.36,-2c0.31078,-0.66309 0.46801,-1.38774 0.46,-2.12c0.02175,-0.77064 -0.17966,-1.53115 -0.58,-2.19c-0.38321,-0.60836 -0.92634,-1.0996 -1.57,-1.42c-0.70749,-0.34091 -1.48475,-0.51211 -2.27,-0.5c-0.80023,-0.01966 -1.59213,0.16626 -2.3,0.54c-0.65106,0.34615 -1.18385,0.87894 -1.53,1.53c-0.36764,0.73841 -0.54957,1.55536 -0.53,2.38h-5.78c-0.04639,-1.7248 0.39746,-3.42737 1.28,-4.91c0.86115,-1.39704 2.10788,-2.51528 3.59,-3.22c1.65818,-0.79852 3.4798,-1.19913 5.32,-1.17c1.85557,-0.04432 3.69745,0.32816 5.39,1.09c1.45121,0.64424 2.69183,1.68386 3.58,3c0.86468,1.30587 1.31116,2.84411 1.28,4.41c-0.00153,1.10801 -0.21891,2.20512 -0.64,3.23c-0.56585,1.28594 -1.33203,2.47403 -2.27,3.52c-1.4336,1.64245 -2.97002,3.19224 -4.6,4.64l-4.24,4.18v0.2h12.1v5z"/><path d="M240.49665,189.54677v-4.79l12,-19h4.14v6.64h-2.45l-7.59,12v0.22h17.1v4.88zM254.32665,194.61677v-6.53l0.11,-2.12v-20.17h5.71v28.82z"/></g></g></svg>