<svg version="1.1" xmlns="http://www.w3.org/2000/svg" xmlns:xlink="http://www.w3.org/1999/xlink" width="46.56574" height="29.64864" viewBox="0,0,46.56574,29.64864"><g transform="translate(-216.71713,-165.17568)"><g data-paper-data="{&quot;isPaintingLayer&quot;:true}" fill="#231f20" fill-rule="nonzero" stroke="none" stroke-width="1" stroke-linecap="butt" stroke-linejoin="miter" stroke-miterlimit="10" stroke-dasharray="" stroke-dashoffset="0" style="mix-blend-mode: normal"><path d="M216.9996,194.41909v-4.39l10.26,-9.5c0.87,-0.84 1.61,-1.6 2.2,-2.27c0.54581,-0.59886 1.00373,-1.27226 1.36,-2c0.31095,-0.65949 0.46823,-1.38093 0.46,-2.11c0.0214,-0.76927 -0.17628,-1.52877 -0.57,-2.19c-0.38139,-0.61356 -0.92936,-1.10604 -1.58,-1.42c-1.44606,-0.68619 -3.12394,-0.68619 -4.57,0c-0.65106,0.34739 -1.18115,0.88446 -1.52,1.54c-0.37579,0.73225 -0.56148,1.54723 -0.54,2.37h-5.78c-0.03988,-1.72405 0.4035,-3.42485 1.28,-4.91c0.86115,-1.39704 2.10788,-2.51528 3.59,-3.22c1.66103,-0.78712 3.48229,-1.17739 5.32,-1.14c1.85872,-0.04344 3.70366,0.32897 5.4,1.09c1.44558,0.65324 2.68396,1.69099 3.58,3c0.85861,1.31239 1.30444,2.85188 1.28,4.42c-0.00656,1.10427 -0.22378,2.19715 -0.64,3.22c-0.57323,1.2873 -1.34235,2.47808 -2.28,3.53c-1.43144,1.64133 -2.96801,3.18792 -4.6,4.63l-4.21,4.13v0.19h12.11v5z"/><path d="M252.4896,194.81909c-1.82973,0.03226 -3.64366,-0.34351 -5.31,-1.1c-1.47286,-0.66183 -2.74802,-1.69575 -3.7,-3c-0.91041,-1.29534 -1.40563,-2.83679 -1.42,-4.42h5.91c0.0458,1.06748 0.56212,2.05984 1.41,2.71c0.88826,0.68594 1.98842,1.03969 3.11,1c0.88883,0.01911 1.76635,-0.202 2.54,-0.64c0.73247,-0.41898 1.33205,-1.03589 1.73,-1.78c0.4305,-0.81233 0.6473,-1.72081 0.63,-2.64c0.01752,-0.93317 -0.20273,-1.85544 -0.64,-2.68c-0.41522,-0.74988 -1.0272,-1.37224 -1.77,-1.8c-0.78501,-0.43897 -1.67062,-0.6664 -2.57,-0.66c-0.84752,-0.00235 -1.68593,0.17487 -2.46,0.52c-0.73121,0.30171 -1.36951,0.79164 -1.85,1.42l-5.42,-1l1.37,-15.2h17.62v5h-12.6l-0.74,7.22h0.16c0.60713,-0.77365 1.4073,-1.37377 2.32,-1.74c1.07884,-0.47995 2.24937,-0.71883 3.43,-0.7c3.27602,-0.07531 6.31707,1.69445 7.87,4.58c0.81076,1.50331 1.21411,3.19257 1.17,4.9c0.04687,1.83463 -0.42823,3.64484 -1.37,5.22c-0.90723,1.51031 -2.21578,2.73924 -3.78,3.55c-1.74898,0.8721 -3.68651,1.29808 -5.64,1.24z"/></g></g></svg>