<svg version="1.1" xmlns="http://www.w3.org/2000/svg" xmlns:xlink="http://www.w3.org/1999/xlink" width="47.13437" height="29.62825" viewBox="0,0,47.13437,29.62825"><g transform="translate(-216.43282,-165.18587)"><g data-paper-data="{&quot;isPaintingLayer&quot;:true}" fill="#231f20" fill-rule="nonzero" stroke="none" stroke-width="1" stroke-linecap="butt" stroke-linejoin="miter" stroke-miterlimit="10" stroke-dasharray="" stroke-dashoffset="0" style="mix-blend-mode: normal"><path d="M216.74529,194.40941v-4.39l10.26,-9.49c0.87,-0.85 1.6,-1.61 2.2,-2.29c0.54855,-0.59669 1.00675,-1.27051 1.36,-2c0.31095,-0.65949 0.46823,-1.38093 0.46,-2.11c0.0214,-0.76927 -0.17628,-1.52877 -0.57,-2.19c-0.38139,-0.61356 -0.92936,-1.10604 -1.58,-1.42c-0.70587,-0.34558 -1.48426,-0.51703 -2.27,-0.5c-0.79887,-0.01794 -1.58954,0.16425 -2.3,0.53c-0.65106,0.34739 -1.18115,0.88446 -1.52,1.54c-0.37702,0.73181 -0.56278,1.5471 -0.54,2.37h-5.81c-0.03988,-1.72405 0.4035,-3.42485 1.28,-4.91c0.86115,-1.39704 2.10788,-2.51528 3.59,-3.22c1.66103,-0.78712 3.48229,-1.17739 5.32,-1.14c1.85557,-0.04432 3.69745,0.32816 5.39,1.09c1.44921,0.64744 2.68903,1.68639 3.58,3c0.86431,1.30977 1.31066,2.85106 1.28,4.42c-0.00155,1.10478 -0.21895,2.1986 -0.64,3.22c-0.56538,1.28923 -1.33155,2.48068 -2.27,3.53c-1.43409,1.63886 -2.9705,3.18528 -4.6,4.63l-4.21,4.13v0.19h12.1v5z"/><path d="M252.76529,194.80941c-1.45883,-0.006 -2.90605,-0.2596 -4.28,-0.75c-1.39855,-0.50109 -2.66409,-1.31514 -3.7,-2.38c-1.17127,-1.24509 -2.05235,-2.73405 -2.58,-4.36c-0.70056,-2.15258 -1.0385,-4.40662 -1,-6.67c-0.02005,-2.19168 0.26262,-4.37564 0.84,-6.49c0.48415,-1.75581 1.29497,-3.4046 2.39,-4.86c0.97621,-1.29359 2.2439,-2.33857 3.7,-3.05c1.50861,-0.6989 3.15787,-1.04107 4.82,-1c1.76499,-0.03867 3.51363,0.34534 5.1,1.12c1.41053,0.69515 2.62936,1.72515 3.55,3c0.89559,1.25702 1.46278,2.71796 1.65,4.25h-6c-0.19462,-0.93859 -0.71983,-1.77608 -1.48,-2.36c-0.80788,-0.59016 -1.79006,-0.89291 -2.79,-0.86c-1.77199,-0.05603 -3.42414,0.89192 -4.27,2.45c-1.06843,2.05195 -1.57881,4.34866 -1.48,6.66h0.2c0.41845,-0.84774 1.01546,-1.59485 1.75,-2.19c0.74754,-0.61652 1.60161,-1.09101 2.52,-1.4c0.96662,-0.32461 1.98035,-0.48681 3,-0.48c1.60136,-0.02635 3.17904,0.38883 4.56,1.2c1.32731,0.79714 2.41542,1.93707 3.15,3.3c0.787,1.47552 1.18292,3.12804 1.15,4.8c0.03155,1.82835 -0.43884,3.63034 -1.36,5.21c-0.89252,1.52608 -2.19984,2.76752 -3.77,3.58c-1.75268,0.89561 -3.70254,1.33579 -5.67,1.28zM252.76529,190.01941c0.88605,0.01612 1.75895,-0.21596 2.52,-0.67c0.7363,-0.44276 1.34058,-1.07465 1.75,-1.83c0.83305,-1.62266 0.83305,-3.54734 0,-5.17c-0.40831,-0.74435 -1.00485,-1.36848 -1.73,-1.81c-0.7523,-0.45842 -1.61914,-0.6942 -2.5,-0.68c-0.68765,-0.01179 -1.36978,0.12463 -2,0.4c-0.59047,0.25484 -1.12166,0.6294 -1.56,1.1c-0.45191,0.46666 -0.80856,1.01692 -1.05,1.62c-0.26248,0.63355 -0.39183,1.31433 -0.38,2c-0.01134,0.89111 0.20921,1.76986 0.64,2.55c0.41249,0.75249 1.01171,1.38614 1.74,1.84c0.76701,0.45529 1.64857,0.68089 2.54,0.65z"/></g></g></svg>