<svg version="1.1" xmlns="http://www.w3.org/2000/svg" xmlns:xlink="http://www.w3.org/1999/xlink" width="44.64247" height="29.19495" viewBox="0,0,44.64247,29.19495"><g transform="translate(-217.67876,-165.40252)"><g data-paper-data="{&quot;isPaintingLayer&quot;:true}" fill="#231f20" fill-rule="nonzero" stroke="none" stroke-width="1" stroke-linecap="butt" stroke-linejoin="miter" stroke-miterlimit="10" stroke-dasharray="" stroke-dashoffset="0" style="mix-blend-mode: normal"><path d="M217.96124,194.57748v-4.39l10.26,-9.49c0.87,-0.85 1.61,-1.61 2.2,-2.28c0.53602,-0.60384 0.9838,-1.28056 1.33,-2.01c0.31407,-0.65879 0.47476,-1.38019 0.47,-2.11c0.01838,-0.77025 -0.18279,-1.52982 -0.58,-2.19c-0.37879,-0.61573 -0.92747,-1.10886 -1.58,-1.42c-0.70385,-0.34114 -1.47793,-0.5124 -2.26,-0.5c-0.80194,-0.01667 -1.59553,0.16541 -2.31,0.53c-0.6488,0.3504 -1.17811,0.88667 -1.52,1.54c-0.37233,0.73316 -0.55457,1.54808 -0.53,2.37h-5.76c-0.03988,-1.72405 0.4035,-3.42485 1.28,-4.91c0.86679,-1.39231 2.11197,-2.50916 3.59,-3.22c1.66516,-0.7699 3.48623,-1.14301 5.32,-1.09c1.85828,-0.03843 3.70213,0.33375 5.4,1.09c1.44366,0.65628 2.6813,1.6934 3.58,3c0.85861,1.31239 1.30444,2.85188 1.28,4.42c-0.00155,1.10478 -0.21895,2.1986 -0.64,3.22c-0.57296,1.28514 -1.33841,2.47547 -2.27,3.53c-1.43792,1.6386 -2.97764,3.185 -4.61,4.63l-4.2,4.11v0.19h12.1v5z"/><path d="M244.07124,194.57748l11.94,-23.64v-0.19h-13.91v-5h20.22v5l-12,23.76z"/></g></g></svg>