<svg version="1.1" xmlns="http://www.w3.org/2000/svg" xmlns:xlink="http://www.w3.org/1999/xlink" width="47.14271" height="29.62753" viewBox="0,0,47.14271,29.62753"><g transform="translate(-216.42864,-165.18624)"><g data-paper-data="{&quot;isPaintingLayer&quot;:true}" fill="#231f20" fill-rule="nonzero" stroke="none" stroke-width="1" stroke-linecap="butt" stroke-linejoin="miter" stroke-miterlimit="10" stroke-dasharray="" stroke-dashoffset="0" style="mix-blend-mode: normal"><path d="M216.71131,194.42105v-4.39l10.26,-9.5c0.87,-0.85 1.61,-1.61 2.2,-2.28c0.54404,-0.60026 1.00177,-1.2734 1.36,-2c0.31422,-0.66229 0.47488,-1.38697 0.47,-2.12c0.01565,-0.76992 -0.18532,-1.52875 -0.58,-2.19c-0.38431,-0.6111 -0.93149,-1.10287 -1.58,-1.42c-0.70385,-0.34114 -1.47793,-0.5124 -2.26,-0.5c-0.80342,-0.01959 -1.59853,0.16628 -2.31,0.54c-0.65035,0.34372 -1.18055,0.87741 -1.52,1.53c-0.37382,0.73655 -0.55935,1.55424 -0.54,2.38h-5.78c-0.04149,-1.72423 0.40201,-3.42547 1.28,-4.91c0.86055,-1.4 2.10718,-2.52162 3.59,-3.23c1.66103,-0.78712 3.48229,-1.17739 5.32,-1.14c1.852,-0.04045 3.68979,0.33188 5.38,1.09c1.44613,0.65236 2.68473,1.69029 3.58,3c0.85861,1.31239 1.30444,2.85188 1.28,4.42c-0.00558,1.10437 -0.22283,2.19743 -0.64,3.22c-0.54981,1.29518 -1.29887,2.49637 -2.22,3.56c-1.43095,1.64492 -2.96753,3.19486 -4.6,4.64l-4.2,4.12v0.2h12.1v5z"/><path d="M252.43131,194.81105c-1.97826,0.03792 -3.94393,-0.32257 -5.78,-1.06c-1.5633,-0.6064 -2.94182,-1.60928 -4,-2.91c-0.94555,-1.18675 -1.454,-2.66269 -1.44,-4.18c-0.00918,-1.15595 0.27648,-2.29515 0.83,-3.31c0.53732,-1.00501 1.30491,-1.86856 2.24,-2.52c0.94676,-0.66871 2.03494,-1.11014 3.18,-1.29v-0.19c-1.47817,-0.27189 -2.80726,-1.07148 -3.74,-2.25c-0.95387,-1.16663 -1.46399,-2.63324 -1.44,-4.14c-0.01755,-1.44149 0.44313,-2.84816 1.31,-4c0.93584,-1.22114 2.17776,-2.17329 3.6,-2.76c3.33463,-1.35309 7.06537,-1.35309 10.4,0c1.41577,0.5931 2.65294,1.54424 3.59,2.76c0.86641,1.15268 1.33018,2.55805 1.32,4c0.01814,1.51225 -0.499,2.98222 -1.46,4.15c-0.93343,1.16125 -2.24766,1.95475 -3.71,2.24v0.19c1.13219,0.18193 2.2069,0.62345 3.14,1.29c0.93048,0.65953 1.69969,1.52103 2.25,2.52c0.55965,1.01332 0.85217,2.15241 0.85,3.31c0.00552,1.51759 -0.50588,2.99183 -1.45,4.18c-1.05397,1.30516 -2.43378,2.30897 -4,2.91c-1.8079,0.72615 -3.7419,1.08644 -5.69,1.06zM252.43131,190.34105c0.87263,0.01764 1.73782,-0.16361 2.53,-0.53c0.68758,-0.32091 1.27262,-0.82633 1.69,-1.46c0.84034,-1.33908 0.84034,-3.04092 0,-4.38c-0.42672,-0.64797 -1.01647,-1.17219 -1.71,-1.52c-1.58175,-0.7524 -3.41825,-0.7524 -5,0c-0.70275,0.34205 -1.30035,0.86712 -1.73,1.52c-0.81249,1.34696 -0.81249,3.03304 0,4.38c0.41848,0.63651 1.00759,1.14245 1.7,1.46c0.78989,0.36262 1.65096,0.54372 2.52,0.53zM252.43131,177.46105c0.74592,0.01461 1.48407,-0.15362 2.15,-0.49c0.61098,-0.31038 1.12345,-0.78476 1.48,-1.37c0.35728,-0.60522 0.54068,-1.29727 0.53,-2c0.01657,-0.70344 -0.16725,-1.39708 -0.53,-2c-0.36295,-0.56621 -0.87041,-1.02534 -1.47,-1.33c-0.66836,-0.33955 -1.41055,-0.50791 -2.16,-0.49c-0.75253,-0.01667 -1.49765,0.15158 -2.17,0.49c-0.60331,0.29923 -1.11208,0.75954 -1.47,1.33c-0.71453,1.2376 -0.71453,2.7624 0,4c0.35003,0.58693 0.8599,1.06211 1.47,1.37c0.67207,0.33919 1.41739,0.50749 2.17,0.49z"/></g></g></svg>