<svg version="1.1" xmlns="http://www.w3.org/2000/svg" xmlns:xlink="http://www.w3.org/1999/xlink" width="47.25598" height="29.61591" viewBox="0,0,47.25598,29.61591"><g transform="translate(-216.37201,-165.19204)"><g data-paper-data="{&quot;isPaintingLayer&quot;:true}" fill="#231f20" fill-rule="nonzero" stroke="none" stroke-width="1" stroke-linecap="butt" stroke-linejoin="miter" stroke-miterlimit="10" stroke-dasharray="" stroke-dashoffset="0" style="mix-blend-mode: normal"><path d="M216.65509,194.40591v-4.39l10.26,-9.5c0.87,-0.84 1.6,-1.6 2.2,-2.28c0.54302,-0.60105 1.00066,-1.27405 1.36,-2c0.30663,-0.66449 0.46366,-1.38818 0.46,-2.12c0.01982,-0.76726 -0.18152,-1.52403 -0.58,-2.18c-0.38464,-0.59474 -0.92865,-1.06944 -1.57,-1.37c-0.70587,-0.34558 -1.48426,-0.51703 -2.27,-0.5c-0.80241,-0.02135 -1.59715,0.16099 -2.31,0.53c-0.64414,0.35204 -1.17219,0.88356 -1.52,1.53c-0.36764,0.73841 -0.54957,1.55536 -0.53,2.38h-5.78c-0.04474,-1.72461 0.39899,-3.42673 1.28,-4.91c0.85978,-1.39449 2.10252,-2.51226 3.58,-3.22c1.66139,-0.78608 3.48239,-1.17629 5.32,-1.14c1.8589,-0.04548 3.70429,0.32702 5.4,1.09c1.44724,0.65059 2.68628,1.68888 3.58,3c0.86031,1.31161 1.30629,2.85164 1.28,4.42c-0.00257,1.10467 -0.21994,2.19831 -0.64,3.22c-0.56965,1.2839 -1.33546,2.47141 -2.27,3.52c-1.4336,1.64245 -2.97002,3.19224 -4.6,4.64l-4.22,4.1v0.2h12.1v5z"/><path d="M252.08509,165.19591c1.4587,-0.00234 2.90677,0.24803 4.28,0.74c1.39295,0.50651 2.65409,1.31993 3.69,2.38c1.16924,1.23333 2.0474,2.71287 2.57,4.33c0.70016,2.13202 1.03817,4.36628 1,6.61c0.02847,2.21126 -0.25088,4.41573 -0.83,6.55c-0.46756,1.76375 -1.26495,3.42299 -2.35,4.89c-0.97339,1.29882 -2.24158,2.34765 -3.7,3.06c-1.51254,0.71336 -3.16783,1.07246 -4.84,1.05c-1.7645,0.03369 -3.51198,-0.35007 -5.1,-1.12c-2.87787,-1.4244 -4.83073,-4.21797 -5.18,-7.41h6c0.1869,0.96367 0.71174,1.82895 1.48,2.44c0.80575,0.5944 1.78944,0.89762 2.79,0.86c1.77317,0.06076 3.42762,-0.88852 4.27,-2.45c1.08096,-2.07256 1.59172,-4.39516 1.48,-6.73h-0.2c-0.42645,0.8341 -1.01851,1.57248 -1.74,2.17c-0.74529,0.61436 -1.59568,1.08868 -2.51,1.4c-0.96541,0.33056 -1.97959,0.49621 -3,0.49c-1.59353,0.02468 -3.16347,-0.38682 -4.54,-1.19c-1.32731,-0.79714 -2.41542,-1.93707 -3.15,-3.3c-1.60813,-3.13447 -1.54056,-6.86581 0.18,-9.94c0.90118,-1.5177 2.21105,-2.75134 3.78,-3.56c1.73876,-0.88359 3.67026,-1.32007 5.62,-1.27zM252.08509,169.97591c-0.89027,-0.0139 -1.76666,0.22165 -2.53,0.68c-1.50636,0.93108 -2.40785,2.58951 -2.37,4.36c-0.01486,0.89027 0.20226,1.76908 0.63,2.55c0.4044,0.74394 0.99763,1.36822 1.72,1.81c0.75192,0.44859 1.6146,0.67725 2.49,0.66c0.68674,0.01279 1.36838,-0.12013 2,-0.39c0.58955,-0.25721 1.12295,-0.62753 1.57,-1.09c0.4445,-0.46874 0.80026,-1.01424 1.05,-1.61c0.25248,-0.61554 0.38159,-1.27469 0.38,-1.94c-0.00298,-0.87791 -0.22649,-1.74099 -0.65,-2.51c-0.41216,-0.75335 -1.01582,-1.3846 -1.75,-1.83c-0.76209,-0.47088 -1.64441,-0.71057 -2.54,-0.69z"/></g></g></svg>