<svg version="1.1" xmlns="http://www.w3.org/2000/svg" xmlns:xlink="http://www.w3.org/1999/xlink" width="49.3576" height="30.04803" viewBox="0,0,49.3576,30.04803"><g transform="translate(-215.3212,-164.97598)"><g data-paper-data="{&quot;isPaintingLayer&quot;:true}" fill="#231f20" fill-rule="nonzero" stroke="none" stroke-width="1" stroke-linecap="butt" stroke-linejoin="miter" stroke-miterlimit="10" stroke-dasharray="" stroke-dashoffset="0" style="mix-blend-mode: normal"><path d="M226.2512,194.76099c-1.92279,0.03729 -3.83157,-0.33424 -5.6,-1.09c-1.5336,-0.63846 -2.86941,-1.67397 -3.87,-3c-0.94843,-1.28606 -1.46009,-2.84204 -1.46,-4.44h6.13c0.02651,0.67627 0.27219,1.32558 0.7,1.85c0.45596,0.54892 1.04456,0.9723 1.71,1.23c0.76716,0.30171 1.58572,0.45116 2.41,0.44c0.84598,0.01871 1.68575,-0.14856 2.46,-0.49c0.67016,-0.29749 1.24726,-0.77091 1.67,-1.37c0.83312,-1.22512 0.83312,-2.83488 0,-4.06c-0.47165,-0.62409 -1.10425,-1.10805 -1.83,-1.4c-0.89635,-0.35622 -1.85582,-0.52634 -2.82,-0.5h-2.69v-4.47h2.69c0.83828,0.01609 1.67028,-0.14758 2.44,-0.48c0.66332,-0.28071 1.23486,-0.74141 1.65,-1.33c0.40506,-0.58662 0.61181,-1.28745 0.59,-2c0.01318,-0.67198 -0.1636,-1.33403 -0.51,-1.91c-0.35162,-0.55228 -0.8503,-0.99556 -1.44,-1.28c-0.66584,-0.32452 -1.39945,-0.48564 -2.14,-0.47c-0.77972,-0.00939 -1.55283,0.14387 -2.27,0.45c-0.64985,0.26519 -1.21633,0.70042 -1.64,1.26c-0.42247,0.54762 -0.65426,1.21838 -0.66,1.91h-5.84c-0.00315,-1.57673 0.49404,-3.1138 1.42,-4.39c0.95683,-1.30761 2.23936,-2.34191 3.72,-3c1.66764,-0.73844 3.47649,-1.10362 5.3,-1.07c1.79938,-0.04041 3.58438,0.32891 5.22,1.08c1.39891,0.64673 2.60015,1.65467 3.48,2.92c0.82658,1.21291 1.25635,2.65246 1.23,4.12c0.04819,1.47916 -0.49109,2.91725 -1.5,4c-1.047,1.10124 -2.42868,1.82548 -3.93,2.06v0.22c1.82754,0.13841 3.54645,0.92166 4.85,2.21c1.11926,1.21732 1.7123,2.82751 1.65,4.48c0.03473,1.57377 -0.46201,3.11331 -1.41,4.37c-1.02936,1.32636 -2.38761,2.36056 -3.94,3c-1.82196,0.78195 -3.78747,1.17369 -5.77,1.15z"/><path d="M253.0312,195.02099c-2.21223,0.05201 -4.38814,-0.56868 -6.24,-1.78c-1.81097,-1.28146 -3.20264,-3.06974 -4,-5.14c-1.86089,-5.21565 -1.86089,-10.91435 0,-16.13c1.64913,-4.21858 5.71554,-6.99501 10.245,-6.99501c4.52946,0 8.59587,2.77643 10.245,6.99501c0.99184,2.54739 1.46443,5.26735 1.39,8c0.06912,2.76569 -0.40658,5.51796 -1.4,8.1c-0.79473,2.07174 -2.18694,3.86074 -4,5.14c-1.84628,1.22656 -4.02395,1.85822 -6.24,1.81zM253.0312,190.02099c1.69805,-0.00287 3.24784,-0.96762 4,-2.49c0.98,-1.66 1.46667,-4.15 1.46,-7.47c0.04661,-1.84306 -0.17916,-3.68289 -0.67,-5.46c-0.32011,-1.24258 -0.96961,-2.37575 -1.88,-3.28c-0.78171,-0.71872 -1.80817,-1.11213 -2.87,-1.1c-1.67039,0.01743 -3.191,0.96685 -3.94,2.46c-1,1.65 -1.48,4.1 -1.49,7.38c-0.04524,1.86933 0.18044,3.73535 0.67,5.54c0.31532,1.25837 0.96892,2.40648 1.89,3.32c0.77911,0.69112 1.78864,1.06568 2.83,1.05z"/></g></g></svg>