<svg version="1.1" xmlns="http://www.w3.org/2000/svg" xmlns:xlink="http://www.w3.org/1999/xlink" width="39" height="29.63614" viewBox="0,0,39,29.63614"><g transform="translate(-220.5,-165.18193)"><g data-paper-data="{&quot;isPaintingLayer&quot;:true}" fill="#231f20" fill-rule="nonzero" stroke="none" stroke-width="1" stroke-linecap="butt" stroke-linejoin="miter" stroke-miterlimit="10" stroke-dasharray="" stroke-dashoffset="0" style="mix-blend-mode: normal"><path d="M231.5,194.81485c-1.92594,0.03628 -3.83777,-0.33518 -5.61,-1.09c-1.52857,-0.64707 -2.86232,-1.68099 -3.87,-3c-0.96809,-1.28337 -1.50067,-2.84256 -1.52,-4.45h6.13c0.02864,0.67583 0.27408,1.32449 0.7,1.85c0.45596,0.54892 1.04456,0.9723 1.71,1.23c0.76687,0.3027 1.58564,0.45219 2.41,0.44c0.84655,0.01362 1.68594,-0.15698 2.46,-0.5c0.67054,-0.29213 1.24814,-0.76251 1.67,-1.36c0.40899,-0.58574 0.62248,-1.28571 0.61,-2c0.00744,-0.73362 -0.2165,-1.45092 -0.64,-2.05c-0.4687,-0.62701 -1.10221,-1.11166 -1.83,-1.4c-0.89587,-0.35883 -1.85519,-0.53233 -2.82,-0.51h-2.69v-4.47h2.69c0.83828,0.01609 1.67028,-0.14758 2.44,-0.48c0.66332,-0.28071 1.23486,-0.74141 1.65,-1.33c0.40379,-0.58723 0.61041,-1.28763 0.59,-2c0.01318,-0.67198 -0.1636,-1.33403 -0.51,-1.91c-0.3461,-0.55696 -0.84631,-1.00158 -1.44,-1.28c-0.66454,-0.32826 -1.39907,-0.48958 -2.14,-0.47c-0.77858,-0.00773 -1.55069,0.14194 -2.27,0.44c-0.64581,0.27218 -1.21062,0.70612 -1.64,1.26c-0.41987,0.55352 -0.65434,1.22543 -0.67,1.92h-5.81c0.00318,-1.5773 0.50357,-3.11344 1.43,-4.39c0.95683,-1.30761 2.23936,-2.34191 3.72,-3c1.66687,-0.74188 3.47574,-1.11048 5.3,-1.08c1.80041,-0.0401 3.58608,0.33277 5.22,1.09c1.40102,0.64341 2.60305,1.65201 3.48,2.92c0.82701,1.20896 1.25692,2.64549 1.23,4.11c0.04601,1.4788 -0.49297,2.91609 -1.5,4c-1.047,1.10124 -2.42868,1.82548 -3.93,2.06v0.31c1.82622,0.13569 3.54496,0.91533 4.85,2.2c1.11986,1.22096 1.71278,2.83444 1.65,4.49c0.03473,1.57377 -0.46201,3.11331 -1.41,4.37c-1.02804,1.32769 -2.38667,2.36219 -3.94,3c-1.80375,0.75404 -3.74543,1.12193 -5.7,1.08z"/><path d="M259.5,165.60485v28.82h-6.1v-23h-0.16l-6.6,4.14v-5.41l7.13,-4.51z"/></g></g></svg>