<svg version="1.1" xmlns="http://www.w3.org/2000/svg" xmlns:xlink="http://www.w3.org/1999/xlink" width="46.96" height="29.65607" viewBox="0,0,46.96,29.65607"><g transform="translate(-216.52,-165.17197)"><g data-paper-data="{&quot;isPaintingLayer&quot;:true}" fill="#231f20" fill-rule="nonzero" stroke="none" stroke-width="1" stroke-linecap="butt" stroke-linejoin="miter" stroke-miterlimit="10" stroke-dasharray="" stroke-dashoffset="0" style="mix-blend-mode: normal"><path d="M227.46,194.82537c-1.92609,0.0381 -3.83831,-0.33343 -5.61,-1.09c-1.5336,-0.63846 -2.86941,-1.67397 -3.87,-3c-0.94467,-1.288 -1.45591,-2.84272 -1.46,-4.44h6.14c0.02294,0.67525 0.26515,1.32465 0.69,1.85c0.45596,0.54892 1.04456,0.9723 1.71,1.23c0.76607,0.3055 1.5854,0.45509 2.41,0.44c0.84598,0.01871 1.68575,-0.14856 2.46,-0.49c0.67329,-0.29682 1.25378,-0.7702 1.68,-1.37c0.82757,-1.22682 0.82757,-2.83318 0,-4.06c-0.47165,-0.62409 -1.10425,-1.10805 -1.83,-1.4c-0.89769,-0.35149 -1.85619,-0.52144 -2.82,-0.5h-2.73v-4.48h2.7c0.83828,0.01609 1.67028,-0.14758 2.44,-0.48c0.6667,-0.27958 1.24176,-0.74032 1.66,-1.33c0.40068,-0.58871 0.60699,-1.28808 0.59,-2c0.015,-0.67041 -0.1657,-1.33066 -0.52,-1.9c-0.34707,-0.55492 -0.84238,-1.00174 -1.43,-1.29c-0.66974,-0.32353 -1.40635,-0.48456 -2.15,-0.47c-0.77649,-0.00947 -1.54636,0.14382 -2.26,0.45c-0.65424,0.26233 -1.22466,0.69792 -1.65,1.26c-0.41372,0.5523 -0.64448,1.2201 -0.66,1.91h-5.84c0.00163,-1.57598 0.49835,-3.11161 1.42,-4.39c0.95683,-1.30761 2.23936,-2.34191 3.72,-3c1.6691,-0.73387 3.47692,-1.09884 5.3,-1.07c1.79938,-0.04041 3.58438,0.32891 5.22,1.08c1.39891,0.64673 2.60015,1.65467 3.48,2.92c0.82538,1.21348 1.25503,2.65264 1.23,4.12c0.04334,1.47652 -0.49125,2.91166 -1.49,4c-1.05993,1.07871 -2.44362,1.7811 -3.94,2v0.23c1.84723,0.14325 3.5804,0.94946 4.88,2.27c1.11926,1.21732 1.7123,2.82751 1.65,4.48c0.03078,1.57627 -0.46544,3.11771 -1.41,4.38c-1.02494,1.32664 -2.38007,2.36109 -3.93,3c-1.82605,0.77903 -3.7949,1.16736 -5.78,1.14z"/><path d="M242.93,194.39537v-4.39l10.26,-9.5c0.88,-0.84 1.61,-1.6 2.2,-2.28c0.54635,-0.59843 1.00432,-1.27192 1.36,-2c0.31422,-0.66229 0.47488,-1.38697 0.47,-2.12c0.01703,-0.76693 -0.18411,-1.52293 -0.58,-2.18c-0.38121,-0.61619 -0.92897,-1.11194 -1.58,-1.43c-0.70385,-0.34114 -1.47793,-0.5124 -2.26,-0.5c-0.80328,-0.01827 -1.59807,0.16752 -2.31,0.54c-0.64627,0.3492 -1.17504,0.88145 -1.52,1.53c-0.37036,0.73744 -0.55244,1.55509 -0.53,2.38h-5.79c-0.03988,-1.72405 0.4035,-3.42485 1.28,-4.91c0.86378,-1.39484 2.10978,-2.51243 3.59,-3.22c1.66103,-0.78712 3.48229,-1.17739 5.32,-1.14c1.85872,-0.04344 3.70366,0.32897 5.4,1.09c1.44724,0.65059 2.68628,1.68888 3.58,3c0.86144,1.31109 1.30753,2.85147 1.28,4.42c-0.00257,1.10467 -0.21994,2.19831 -0.64,3.22c-0.57344,1.28185 -1.33889,2.46881 -2.27,3.52c-1.43624,1.63999 -2.97251,3.18961 -4.6,4.64l-4.21,4.12v0.2h12.1v5z"/></g></g></svg>