<svg version="1.1" xmlns="http://www.w3.org/2000/svg" xmlns:xlink="http://www.w3.org/1999/xlink" width="48.18416" height="29.66499" viewBox="0,0,48.18416,29.66499"><g transform="translate(-215.90792,-165.16751)"><g data-paper-data="{&quot;isPaintingLayer&quot;:true}" fill="#231f20" fill-rule="nonzero" stroke="none" stroke-width="1" stroke-linecap="butt" stroke-linejoin="miter" stroke-miterlimit="10" stroke-dasharray="" stroke-dashoffset="0" style="mix-blend-mode: normal"><path d="M226.83792,194.83035c-1.92665,0.03312 -3.83852,-0.34175 -5.61,-1.1c-1.53046,-0.64384 -2.86498,-1.67835 -3.87,-3c-0.94111,-1.28921 -1.44881,-2.84383 -1.45,-4.44h6.13c0.02651,0.67627 0.27219,1.32558 0.7,1.85c0.45536,0.55193 1.04389,0.9787 1.71,1.24c0.76756,0.29929 1.5863,0.44537 2.41,0.43c0.8459,0.01773 1.68546,-0.1495 2.46,-0.49c0.67177,-0.29488 1.2495,-0.76883 1.67,-1.37c0.40899,-0.58574 0.62248,-1.28571 0.61,-2c0.00033,-0.71708 -0.22343,-1.41633 -0.64,-2c-0.46811,-0.62995 -1.10151,-1.11799 -1.83,-1.41c-0.89819,-0.34971 -1.85633,-0.5196 -2.82,-0.5h-2.69v-4.48h2.67c0.83828,0.01609 1.67028,-0.14758 2.44,-0.48c0.66557,-0.27693 1.23807,-0.7384 1.65,-1.33c0.40506,-0.58662 0.61181,-1.28745 0.59,-2c0.01348,-0.66887 -0.16339,-1.32779 -0.51,-1.9c-0.34852,-0.55738 -0.84779,-1.00464 -1.44,-1.29c-0.66694,-0.32034 -1.40033,-0.47798 -2.14,-0.46c-0.77901,-0.01255 -1.5521,0.1373 -2.27,0.44c-0.64985,0.26519 -1.21633,0.70042 -1.64,1.26c-0.41077,0.52866 -0.64826,1.17127 -0.68,1.84h-5.84c0.00522,-1.57697 0.5054,-3.11251 1.43,-4.39c0.95615,-1.30826 2.23887,-2.34271 3.72,-3c1.66687,-0.74188 3.47574,-1.11048 5.3,-1.08c1.79928,-0.03936 3.58405,0.3299 5.22,1.08c1.39891,0.64673 2.60015,1.65467 3.48,2.92c0.82538,1.21348 1.25503,2.65264 1.23,4.12c0.04384,1.47844 -0.49484,2.91494 -1.5,4c-1.05509,1.07979 -2.43605,1.78257 -3.93,2v0.35c1.82732,0.13138 3.54748,0.91166 4.85,2.2c1.11738,1.21846 1.71012,2.82786 1.65,4.48c0.03078,1.57627 -0.46544,3.11771 -1.41,4.38c-1.031,1.32471 -2.38876,2.35854 -3.94,3c-1.80489,0.76691 -3.74906,1.15166 -5.71,1.13z"/><path d="M252.96792,194.83035c-1.92351,0.03414 -3.83232,-0.34081 -5.6,-1.1c-1.5336,-0.63846 -2.86941,-1.67397 -3.87,-3c-0.94843,-1.28606 -1.46009,-2.84204 -1.46,-4.44h6.13c0.02651,0.67627 0.27219,1.32558 0.7,1.85c0.45536,0.55193 1.04389,0.9787 1.71,1.24c0.76784,0.29829 1.58638,0.44434 2.41,0.43c0.84598,0.01871 1.68575,-0.14856 2.46,-0.49c0.67177,-0.29488 1.2495,-0.76883 1.67,-1.37c0.83418,-1.22114 0.83418,-2.82886 0,-4.05c-0.46811,-0.62995 -1.10151,-1.11799 -1.83,-1.41c-0.89769,-0.35149 -1.85619,-0.52144 -2.82,-0.5h-2.69v-4.48h2.69c0.83828,0.01609 1.67028,-0.14758 2.44,-0.48c0.66557,-0.27693 1.23807,-0.7384 1.65,-1.33c0.40506,-0.58662 0.61181,-1.28745 0.59,-2c0.01348,-0.66887 -0.16339,-1.32779 -0.51,-1.9c-0.34852,-0.55738 -0.84779,-1.00464 -1.44,-1.29c-0.66657,-0.32143 -1.40023,-0.47914 -2.14,-0.46c-0.77901,-0.01255 -1.5521,0.1373 -2.27,0.44c-0.64985,0.26519 -1.21633,0.70042 -1.64,1.26c-0.42247,0.54762 -0.65426,1.21838 -0.66,1.91h-5.84c-0.00315,-1.57673 0.49404,-3.1138 1.42,-4.39c0.95615,-1.30826 2.23887,-2.34271 3.72,-3c1.66687,-0.74188 3.47574,-1.11048 5.3,-1.08c1.79938,-0.04041 3.58438,0.32891 5.22,1.08c1.39891,0.64673 2.60015,1.65467 3.48,2.92c0.82538,1.21348 1.25503,2.65264 1.23,4.12c0.04384,1.47844 -0.49484,2.91494 -1.5,4c-1.05509,1.07979 -2.43605,1.78257 -3.93,2v0.33c1.82732,0.13138 3.54748,0.91166 4.85,2.2c1.11738,1.21846 1.71012,2.82786 1.65,4.48c0.03078,1.57627 -0.46544,3.11771 -1.41,4.38c-1.0287,1.32703 -2.38714,2.36137 -3.94,3c-1.82344,0.77509 -3.78889,1.16 -5.77,1.13z"/></g></g></svg>