<svg version="1.1" xmlns="http://www.w3.org/2000/svg" xmlns:xlink="http://www.w3.org/1999/xlink" width="49.22" height="29.62429" viewBox="0,0,49.22,29.62429"><g transform="translate(-215.39,-165.18786)"><g data-paper-data="{&quot;isPaintingLayer&quot;:true}" fill="#231f20" fill-rule="nonzero" stroke="none" stroke-width="1" stroke-linecap="butt" stroke-linejoin="miter" stroke-miterlimit="10" stroke-dasharray="" stroke-dashoffset="0" style="mix-blend-mode: normal"><path d="M226.33,194.81002c-1.92673,0.03403 -3.83879,-0.34088 -5.61,-1.1c-1.5336,-0.63846 -2.86941,-1.67397 -3.87,-3c-0.94467,-1.288 -1.45591,-2.84272 -1.46,-4.44h6.14c0.02294,0.67525 0.26515,1.32465 0.69,1.85c0.45803,0.54908 1.04577,0.97527 1.71,1.24c0.76811,0.29731 1.58646,0.44333 2.41,0.43c0.84598,0.01871 1.68575,-0.14856 2.46,-0.49c0.67543,-0.29332 1.25678,-0.7674 1.68,-1.37c0.82757,-1.22682 0.82757,-2.83318 0,-4.06c-0.47165,-0.62409 -1.10425,-1.10805 -1.83,-1.4c-0.89769,-0.35149 -1.85619,-0.52144 -2.82,-0.5h-2.73v-4.48h2.69c0.83828,0.01609 1.67028,-0.14758 2.44,-0.48c0.67047,-0.28779 1.24593,-0.75925 1.66,-1.36c0.76055,-1.17804 0.78767,-2.68536 0.07,-3.89c-0.34707,-0.55492 -0.84238,-1.00174 -1.43,-1.29c-0.66974,-0.32353 -1.40635,-0.48456 -2.15,-0.47c-0.77649,-0.00947 -1.54636,0.14382 -2.26,0.45c-0.65424,0.26233 -1.22466,0.69792 -1.65,1.26c-0.41967,0.56057 -0.65075,1.2398 -0.66,1.94h-5.84c0.00163,-1.57598 0.49835,-3.11161 1.42,-4.39c0.95683,-1.30761 2.23936,-2.34191 3.72,-3c1.6691,-0.73387 3.47692,-1.09884 5.3,-1.07c1.79343,-0.03424 3.57129,0.33843 5.2,1.09c1.39891,0.64673 2.60015,1.65467 3.48,2.92c0.82538,1.21348 1.25503,2.65264 1.23,4.12c0.04334,1.47652 -0.49125,2.91166 -1.49,4c-1.05726,1.08235 -2.44226,1.78539 -3.94,2v0.33c1.82732,0.13138 3.54748,0.91166 4.85,2.2c1.11926,1.21732 1.7123,2.82751 1.65,4.48c0.03078,1.57627 -0.46544,3.11771 -1.41,4.38c-1.02494,1.32664 -2.38007,2.36109 -3.93,3c-1.81042,0.75715 -3.75788,1.13166 -5.72,1.1z"/><path d="M241.37,189.35002v-4.8l12,-19h4.14v6.64h-2.42l-7.59,12v0.22h17.11v4.89zM255.2,194.41002v-6.53l0.11,-2.12v-20.17h5.72v28.82z"/></g></g></svg>