<svg version="1.1" xmlns="http://www.w3.org/2000/svg" xmlns:xlink="http://www.w3.org/1999/xlink" width="47.7031" height="29.6474" viewBox="0,0,47.7031,29.6474"><g transform="translate(-216.14845,-165.1763)"><g data-paper-data="{&quot;isPaintingLayer&quot;:true}" fill="#231f20" fill-rule="nonzero" stroke="none" stroke-width="1" stroke-linecap="butt" stroke-linejoin="miter" stroke-miterlimit="10" stroke-dasharray="" stroke-dashoffset="0" style="mix-blend-mode: normal"><path d="M227.07845,194.81953c-1.92279,0.03729 -3.83157,-0.33424 -5.6,-1.09c-1.53166,-0.64179 -2.86666,-1.67668 -3.87,-3c-0.94843,-1.28606 -1.46009,-2.84204 -1.46,-4.44h6.14c0.02509,0.67482 0.26705,1.32357 0.69,1.85c0.45158,0.54253 1.0329,0.96218 1.69,1.22c0.76744,0.30073 1.58581,0.45014 2.41,0.44c0.84556,0.01394 1.68432,-0.15313 2.46,-0.49c0.67123,-0.30017 1.25092,-0.77289 1.68,-1.37c0.82757,-1.22682 0.82757,-2.83318 0,-4.06c-0.4687,-0.62701 -1.10221,-1.11166 -1.83,-1.4c-0.89556,-0.35991 -1.85511,-0.53344 -2.82,-0.51h-2.71v-4.47h2.69c0.83828,0.01609 1.67028,-0.14758 2.44,-0.48c0.67429,-0.2759 1.25674,-0.737 1.68,-1.33c0.4067,-0.58633 0.61679,-1.28662 0.6,-2c0.01017,-0.67295 -0.17009,-1.33508 -0.52,-1.91c-0.34768,-0.55192 -0.84308,-0.99536 -1.43,-1.28c-0.66974,-0.32353 -1.40635,-0.48456 -2.15,-0.47c-0.77534,-0.00776 -1.5442,0.14193 -2.26,0.44c-0.65131,0.26746 -1.22048,0.7021 -1.65,1.26c-0.41214,0.55694 -0.6426,1.22737 -0.66,1.92h-5.87c0.00028,-1.57619 0.49713,-3.11223 1.42,-4.39c0.95683,-1.30761 2.23936,-2.34191 3.72,-3c1.66687,-0.74188 3.47574,-1.11048 5.3,-1.08c1.80061,-0.04224 3.58676,0.33073 5.22,1.09c1.40102,0.64341 2.60305,1.65201 3.48,2.92c0.82701,1.20896 1.25692,2.64549 1.23,4.11c0.0444,1.47669 -0.49033,2.91222 -1.49,4c-1.039,1.12958 -2.42585,1.87933 -3.94,2.13v0.22c1.82622,0.13569 3.54496,0.91533 4.85,2.2c1.11986,1.22096 1.71278,2.83444 1.65,4.49c0.03473,1.57377 -0.46201,3.11331 -1.41,4.37c-1.02192,1.32968 -2.37794,2.36481 -3.93,3c-1.81769,0.76891 -3.77672,1.14708 -5.75,1.11z"/><path d="M253.08845,194.81953c-1.83017,0.03701 -3.64515,-0.33897 -5.31,-1.1c-1.47457,-0.65905 -2.75039,-1.69349 -3.7,-3c-0.91073,-1.3021 -1.40262,-2.85102 -1.41,-4.44h5.91c0.04561,1.07031 0.56167,2.06581 1.41,2.72c0.89022,0.6822 1.989,1.03551 3.11,1c0.8885,0.01617 1.76525,-0.20474 2.54,-0.64c0.73087,-0.4255 1.32966,-1.04505 1.73,-1.79c0.43133,-0.81201 0.64818,-1.72072 0.63,-2.64c0.01625,-0.92984 -0.20397,-1.84857 -0.64,-2.67c-0.4123,-0.75205 -1.02498,-1.37511 -1.77,-1.8c-0.78735,-0.44328 -1.67645,-0.67417 -2.58,-0.67c-0.84487,0.0022 -1.67976,0.18281 -2.45,0.53c-0.75747,0.31411 -1.41208,0.83365 -1.89,1.5l-5.42,-1l1.37,-15.2h17.61v5h-12.56l-0.75,7.22h0.17c0.5972,-0.78487 1.39043,-1.39875 2.3,-1.78c1.08,-0.47631 2.24973,-0.71503 3.43,-0.7c3.27127,-0.05697 6.30347,1.70765 7.87,4.58c0.80293,1.50951 1.20249,3.20076 1.16,4.91c0.04592,1.81477 -0.41835,3.60601 -1.34,5.17c-0.90744,1.50763 -2.21617,2.73327 -3.78,3.54c-1.74721,0.87901 -3.68483,1.31188 -5.64,1.26z"/></g></g></svg>