<svg version="1.1" xmlns="http://www.w3.org/2000/svg" xmlns:xlink="http://www.w3.org/1999/xlink" width="48.23151" height="29.6452" viewBox="0,0,48.23151,29.6452"><g transform="translate(-215.88425,-165.1774)"><g data-paper-data="{&quot;isPaintingLayer&quot;:true}" fill="#231f20" fill-rule="nonzero" stroke="none" stroke-width="1" stroke-linecap="butt" stroke-linejoin="miter" stroke-miterlimit="10" stroke-dasharray="" stroke-dashoffset="0" style="mix-blend-mode: normal"><path d="M226.81427,194.81999c-1.92549,0.03121 -3.83628,-0.34005 -5.61,-1.09c-1.52857,-0.64707 -2.86232,-1.68099 -3.87,-3c-0.9455,-1.28696 -1.45369,-2.84306 -1.45,-4.44h6.13c0.02864,0.67583 0.27408,1.32449 0.7,1.85c0.45186,0.5533 1.04172,0.97758 1.71,1.23c0.76437,0.29825 1.57963,0.44432 2.4,0.43c0.84911,0.01759 1.6919,-0.14961 2.47,-0.49c0.67054,-0.29213 1.24814,-0.76251 1.67,-1.36c0.83312,-1.22512 0.83312,-2.83488 0,-4.06c-0.46602,-0.62966 -1.10035,-1.11494 -1.83,-1.4c-0.8961,-0.35803 -1.85526,-0.5315 -2.82,-0.51h-2.69v-4.47h2.69c0.8382,0.01517 1.67001,-0.14847 2.44,-0.48c0.65958,-0.28692 1.22958,-0.74638 1.65,-1.33c0.39946,-0.58928 0.60565,-1.28826 0.59,-2c0.01483,-0.67218 -0.16207,-1.33468 -0.51,-1.91c-0.34852,-0.55738 -0.84779,-1.00464 -1.44,-1.29c-0.66694,-0.32034 -1.40033,-0.47798 -2.14,-0.46c-0.77858,-0.00773 -1.55069,0.14194 -2.27,0.44c-0.64699,0.27493 -1.21441,0.70823 -1.65,1.26c-0.41372,0.5523 -0.64448,1.2201 -0.66,1.91h-5.84c0.00631,-1.57523 0.50258,-3.10948 1.42,-4.39c0.95754,-1.31094 2.24424,-2.34582 3.73,-3c1.66331,-0.74199 3.46896,-1.11063 5.29,-1.08c1.80232,-0.03741 3.58992,0.33173 5.23,1.08c1.3971,0.64958 2.59765,1.65695 3.48,2.92c0.82538,1.21348 1.25503,2.65264 1.23,4.12c0.04384,1.47844 -0.49484,2.91494 -1.5,4c-1.04798,1.09817 -2.42972,1.81893 -3.93,2.05v0.23c1.82579,0.1374 3.54397,0.91678 4.85,2.2c1.11738,1.21846 1.71012,2.82786 1.65,4.48c0.03412,1.57836 -0.46629,3.1219 -1.42,4.38c-1.02192,1.32968 -2.37794,2.36481 -3.93,3c-1.81974,0.79224 -3.78534,1.19422 -5.77,1.18z"/><path d="M253.35427,194.81999c-1.462,-0.00699 -2.91235,-0.26055 -4.29,-0.75c-1.39418,-0.50402 -2.65585,-1.31778 -3.69,-2.38c-1.17807,-1.23997 -2.06012,-2.73056 -2.58,-4.36c-0.70056,-2.15258 -1.0385,-4.40662 -1,-6.67c-0.02005,-2.19168 0.26262,-4.37564 0.84,-6.49c0.46652,-1.7568 1.26785,-3.407 2.36,-4.86c0.97474,-1.29107 2.23854,-2.33568 3.69,-3.05c1.51244,-0.69802 3.16474,-1.04011 4.83,-1c1.76166,-0.03746 3.50678,0.34653 5.09,1.12c1.41529,0.69207 2.63806,1.72249 3.56,3c0.89152,1.27136 1.44864,2.74669 1.62,4.29h-6c-0.19204,-0.93714 -0.71356,-1.77442 -1.47,-2.36c-0.80788,-0.59016 -1.79006,-0.89291 -2.79,-0.86c-1.77258,-0.05839 -3.42588,0.89022 -4.27,2.45c-1.07336,2.05015 -1.58404,4.34821 -1.48,6.66h0.19c0.42187,-0.84556 1.01833,-1.592 1.75,-2.19c0.74832,-0.61297 1.60234,-1.08404 2.52,-1.39c0.96498,-0.33225 1.97945,-0.49794 3,-0.49c1.60167,-0.02895 3.18005,0.38641 4.56,1.2c1.3295,0.7944 2.41826,1.93501 3.15,3.3c0.78691,1.46194 1.18951,3.09984 1.17,4.76c0.03155,1.82835 -0.43884,3.63034 -1.36,5.21c-0.90075,1.51804 -2.21074,2.75178 -3.78,3.56c-1.73592,0.89438 -3.66766,1.34122 -5.62,1.3zM253.35427,190.02999c0.88605,0.01612 1.75895,-0.21596 2.52,-0.67c0.73418,-0.4454 1.33784,-1.07665 1.75,-1.83c0.4268,-0.79573 0.64363,-1.68714 0.63,-2.59c0.01504,-0.89983 -0.20193,-1.78837 -0.63,-2.58c-0.4044,-0.74394 -0.99763,-1.36822 -1.72,-1.81c-1.35993,-0.78946 -3.01201,-0.89318 -4.46,-0.28c-0.5876,0.25994 -1.11783,0.63382 -1.56,1.1c-0.44481,0.47227 -0.80054,1.02111 -1.05,1.62c-0.25771,0.63497 -0.38687,1.31476 -0.38,2c-0.00684,0.89058 0.21343,1.7682 0.64,2.55c0.41527,0.75371 1.01805,1.38748 1.75,1.84c0.74921,0.44528 1.60869,0.67055 2.48,0.65z"/></g></g></svg>