<svg version="1.1" xmlns="http://www.w3.org/2000/svg" xmlns:xlink="http://www.w3.org/1999/xlink" width="45.80002" height="29.62481" viewBox="0,0,45.80002,29.62481"><g transform="translate(-217.09999,-165.1876)"><g data-paper-data="{&quot;isPaintingLayer&quot;:true}" fill="#231f20" fill-rule="nonzero" stroke="none" stroke-width="1" stroke-linecap="butt" stroke-linejoin="miter" stroke-miterlimit="10" stroke-dasharray="" stroke-dashoffset="0" style="mix-blend-mode: normal"><path d="M228.03001,194.81059c-1.92549,0.03121 -3.83628,-0.34005 -5.61,-1.09c-1.53335,-0.63888 -2.86906,-1.67431 -3.87,-3c-0.9455,-1.28696 -1.45369,-2.84306 -1.45,-4.44h6.13c0.02863,0.67886 0.27395,1.33071 0.7,1.86c0.45186,0.5533 1.04172,0.97758 1.71,1.23c0.76437,0.29825 1.57963,0.44432 2.4,0.43c0.84911,0.01759 1.6919,-0.14961 2.47,-0.49c0.67177,-0.29488 1.2495,-0.76883 1.67,-1.37c0.83418,-1.22114 0.83418,-2.82886 0,-4.05c-0.46602,-0.62966 -1.10035,-1.11494 -1.83,-1.4c-0.89937,-0.35883 -1.86195,-0.5323 -2.83,-0.51h-2.68v-4.48h2.68c0.84037,0.01436 1.6746,-0.14567 2.45,-0.47c0.65958,-0.28692 1.22958,-0.74638 1.65,-1.33c0.39706,-0.59041 0.60303,-1.28861 0.59,-2c0.03133,-1.36763 -0.75534,-2.62236 -2,-3.19c-0.66694,-0.32034 -1.40033,-0.47798 -2.14,-0.46c-0.77911,-0.01373 -1.55244,0.13616 -2.27,0.44c-0.65131,0.26746 -1.22048,0.7021 -1.65,1.26c-0.41372,0.5523 -0.64448,1.2201 -0.66,1.91h-5.82c0.00163,-1.57598 0.49835,-3.11161 1.42,-4.39c0.95754,-1.31094 2.24424,-2.34582 3.73,-3c1.66331,-0.74199 3.46896,-1.11063 5.29,-1.08c1.79938,-0.04041 3.58438,0.32891 5.22,1.08c1.40362,0.64358 2.60885,1.65197 3.49,2.92c0.82538,1.21348 1.25503,2.65264 1.23,4.12c0.04384,1.47844 -0.49484,2.91494 -1.5,4c-1.04798,1.09817 -2.42972,1.81893 -3.93,2.05v0.23c1.82447,0.13111 3.54157,0.91161 4.84,2.2c1.1267,1.21339 1.72401,2.8254 1.66,4.48c0.03412,1.57836 -0.46629,3.1219 -1.42,4.38c-1.02494,1.32664 -2.38007,2.36109 -3.93,3c-1.81196,0.78128 -3.76685,1.17634 -5.74,1.16z"/><path d="M244.65001,194.41059l11.94,-23.64v-0.2h-13.91v-5h20.22v5.06l-11.93,23.78z"/></g></g></svg>