<svg version="1.1" xmlns="http://www.w3.org/2000/svg" xmlns:xlink="http://www.w3.org/1999/xlink" width="48.32004" height="29.63205" viewBox="0,0,48.32004,29.63205"><g transform="translate(-215.83998,-165.18397)"><g data-paper-data="{&quot;isPaintingLayer&quot;:true}" fill="#231f20" fill-rule="nonzero" stroke="none" stroke-width="1" stroke-linecap="butt" stroke-linejoin="miter" stroke-miterlimit="10" stroke-dasharray="" stroke-dashoffset="0" style="mix-blend-mode: normal"><path d="M226.76998,194.81407c-1.92234,0.03218 -3.83007,-0.33915 -5.6,-1.09c-1.53166,-0.64179 -2.86666,-1.67668 -3.87,-3c-0.94843,-1.28606 -1.46009,-2.84204 -1.46,-4.44h6.14c0.02509,0.67482 0.26705,1.32357 0.69,1.85c0.45596,0.54892 1.04456,0.9723 1.71,1.23c0.76811,0.29731 1.58646,0.44333 2.41,0.43c0.84598,0.01871 1.68575,-0.14856 2.46,-0.49c0.6708,-0.29616 1.25066,-0.76557 1.68,-1.36c0.39942,-0.58981 0.60879,-1.28772 0.6,-2c0.00373,-0.7176 -0.22036,-1.41788 -0.64,-2c-0.46602,-0.62966 -1.10035,-1.11494 -1.83,-1.4c-0.89556,-0.35991 -1.85511,-0.53344 -2.82,-0.51h-2.69v-4.47h2.69c0.83828,0.01609 1.67028,-0.14758 2.44,-0.48c0.66141,-0.28387 1.23217,-0.74394 1.65,-1.33c0.4067,-0.58633 0.61679,-1.28662 0.6,-2c0.01127,-0.67309 -0.16908,-1.33552 -0.52,-1.91c-0.34707,-0.55492 -0.84238,-1.00174 -1.43,-1.29c-0.67059,-0.32008 -1.40715,-0.47767 -2.15,-0.46c-0.77858,-0.00773 -1.55069,0.14194 -2.27,0.44c-0.64581,0.27218 -1.21062,0.70612 -1.64,1.26c-0.41372,0.5523 -0.64448,1.2201 -0.66,1.91h-5.84c0.00163,-1.57598 0.49835,-3.11161 1.42,-4.39c0.95615,-1.30826 2.23887,-2.34271 3.72,-3c1.66687,-0.74188 3.47574,-1.11048 5.3,-1.08c1.79938,-0.04041 3.58438,0.32891 5.22,1.08c1.3971,0.64958 2.59765,1.65695 3.48,2.92c0.82538,1.21348 1.25503,2.65264 1.23,4.12c0.04384,1.47844 -0.49484,2.91494 -1.5,4c-1.05193,1.08408 -2.43444,1.78765 -3.93,2v0.23c1.82622,0.13569 3.54496,0.91533 4.85,2.2c1.11738,1.21846 1.71012,2.82786 1.65,4.48c0.03078,1.57627 -0.46544,3.11771 -1.41,4.38c-1.02192,1.32968 -2.37794,2.36481 -3.93,3c-1.81475,0.78467 -3.77292,1.18312 -5.75,1.17z"/><path d="M252.99998,194.81407c-1.97453,0.032 -3.93577,-0.32829 -5.77,-1.06c-1.56622,-0.60103 -2.94603,-1.60484 -4,-2.91c-0.94555,-1.18675 -1.454,-2.66269 -1.44,-4.18c-0.01224,-1.15507 0.26996,-2.29422 0.82,-3.31c0.54416,-1.00331 1.31451,-1.86609 2.25,-2.52c0.94676,-0.66871 2.03494,-1.11014 3.18,-1.29v-0.22c-1.47705,-0.26844 -2.80621,-1.06451 -3.74,-2.24c-1.87074,-2.37096 -1.92398,-5.70044 -0.13,-8.13c0.93409,-1.21874 2.17212,-2.17054 3.59,-2.76c3.33586,-1.34679 7.06414,-1.34679 10.4,0c1.42102,0.5936 2.66209,1.54853 3.6,2.77c0.86774,1.15198 1.33167,2.55782 1.32,4c0.01367,1.51455 -0.50282,2.98618 -1.46,4.16c-0.93813,1.15887 -2.25577,1.94874 -3.72,2.23v0.2c1.13528,0.18185 2.21327,0.62331 3.15,1.29c0.92959,0.64695 1.70194,1.49449 2.26,2.48c0.55965,1.01332 0.85217,2.15241 0.85,3.31c0.00552,1.51759 -0.50588,2.99183 -1.45,4.18c-1.05818,1.30072 -2.4367,2.3036 -4,2.91c-1.81353,0.73394 -3.75363,1.10429 -5.71,1.09zM252.99998,190.33407c0.87509,0.02089 1.74353,-0.1569 2.54,-0.52c0.68657,-0.32713 1.27088,-0.83538 1.69,-1.47c0.418,-0.64181 0.63396,-1.3942 0.62,-2.16c0.00771,-0.78345 -0.21483,-1.55191 -0.64,-2.21c-0.42539,-0.65283 -1.01981,-1.17813 -1.72,-1.52c-0.77294,-0.38406 -1.62706,-0.57615 -2.49,-0.56c-0.86258,-0.01266 -1.71589,0.17925 -2.49,0.56c-0.70019,0.34187 -1.29461,0.86717 -1.72,1.52c-0.42494,0.6577 -0.64427,1.4271 -0.63,2.21c-0.01755,0.76484 0.19496,1.51733 0.61,2.16c0.41788,0.63949 1.00689,1.14881 1.7,1.47c0.79443,0.35753 1.6591,0.53183 2.53,0.51zM252.99998,177.46407c0.75004,0.01234 1.49167,-0.15933 2.16,-0.5c0.6094,-0.30426 1.11935,-0.77606 1.47,-1.36c0.36523,-0.60231 0.55246,-1.29572 0.54,-2c0.01809,-0.70497 -0.16955,-1.39994 -0.54,-2c-0.35616,-0.57079 -0.86083,-1.03398 -1.46,-1.34c-1.37231,-0.64035 -2.95769,-0.64035 -4.33,0c-0.60401,0.30283 -1.11269,0.76653 -1.47,1.34c-0.36275,0.60292 -0.54657,1.29656 -0.53,2c-0.01068,0.70273 0.17272,1.39478 0.53,2c0.35716,0.58223 0.86972,1.05323 1.48,1.36c0.66518,0.33946 1.40329,0.51111 2.15,0.5z"/></g></g></svg>