<svg version="1.1" xmlns="http://www.w3.org/2000/svg" xmlns:xlink="http://www.w3.org/1999/xlink" width="48.44253" height="29.6198" viewBox="0,0,48.44253,29.6198"><g transform="translate(-215.77873,-165.1901)"><g data-paper-data="{&quot;isPaintingLayer&quot;:true}" fill="#231f20" fill-rule="nonzero" stroke="none" stroke-width="1" stroke-linecap="butt" stroke-linejoin="miter" stroke-miterlimit="10" stroke-dasharray="" stroke-dashoffset="0" style="mix-blend-mode: normal"><path d="M226.71873,194.80809c-1.92549,0.03121 -3.83628,-0.34005 -5.61,-1.09c-1.53335,-0.63888 -2.86906,-1.67431 -3.87,-3c-0.94467,-1.288 -1.45591,-2.84272 -1.46,-4.44h6.14c0.02986,0.6769 0.27117,1.3274 0.69,1.86c0.45596,0.54892 1.04456,0.9723 1.71,1.23c0.76811,0.29731 1.58646,0.44333 2.41,0.43c0.84598,0.01871 1.68575,-0.14856 2.46,-0.49c0.67297,-0.28782 1.25406,-0.75477 1.68,-1.35c0.40179,-0.58869 0.61139,-1.28736 0.6,-2c0.00512,-0.71781 -0.2191,-1.41851 -0.64,-2c-0.45948,-0.63606 -1.09589,-1.12293 -1.83,-1.4c-0.89556,-0.35991 -1.85511,-0.53344 -2.82,-0.51h-2.69v-4.48h2.69c0.83722,0.01531 1.66837,-0.14479 2.44,-0.47c0.66323,-0.28539 1.23684,-0.74497 1.66,-1.33c0.75999,-1.18185 0.78709,-2.69164 0.07,-3.9c-0.34707,-0.55492 -0.84238,-1.00174 -1.43,-1.29c-0.67059,-0.32008 -1.40715,-0.47767 -2.15,-0.46c-0.77578,-0.01263 -1.54562,0.13725 -2.26,0.44c-0.65424,0.26233 -1.22466,0.69792 -1.65,1.26c-0.41372,0.5523 -0.64448,1.2201 -0.66,1.91h-5.84c0.00163,-1.57598 0.49835,-3.11161 1.42,-4.39c0.95615,-1.30826 2.23887,-2.34271 3.72,-3c1.66687,-0.74188 3.47574,-1.11048 5.3,-1.08c1.79938,-0.04041 3.58438,0.32891 5.22,1.08c1.39891,0.64673 2.60015,1.65467 3.48,2.92c0.83561,1.2091 1.26944,2.65054 1.24,4.12c0.04384,1.47844 -0.49484,2.91494 -1.5,4c-1.05726,1.08235 -2.44226,1.78539 -3.94,2v0.23c1.82732,0.13138 3.54748,0.91166 4.85,2.2c1.11738,1.21846 1.71012,2.82786 1.65,4.48c0.03078,1.57627 -0.46544,3.11771 -1.41,4.38c-1.02494,1.32664 -2.38007,2.36109 -3.93,3c-1.81369,0.77358 -3.76835,1.16178 -5.74,1.14z"/><path d="M252.66873,165.19809c1.46287,-0.00295 2.9149,0.2509 4.29,0.75c1.38813,0.50553 2.64553,1.31532 3.68,2.37c1.17587,1.23005 2.05792,2.7104 2.58,4.33c0.6949,2.13327 1.03278,4.36664 1,6.61c0.03225,2.21082 -0.24374,4.41536 -0.82,6.55c-0.47083,1.7644 -1.27161,3.42364 -2.36,4.89c-0.97114,1.30096 -2.2399,2.35026 -3.7,3.06c-1.5166,0.69614 -3.1717,1.0381 -4.84,1c-1.76117,0.03249 -3.50513,-0.35125 -5.09,-1.12c-2.88419,-1.41703 -4.83982,-4.21456 -5.18,-7.41h6c0.18268,0.9653 0.70835,1.83195 1.48,2.44c0.80064,0.59795 1.78132,0.90485 2.78,0.87c1.77772,0.05793 3.43523,-0.89476 4.28,-2.46c1.08096,-2.07256 1.59172,-4.39516 1.48,-6.73h-0.2c-0.4238,0.83581 -1.01627,1.57469 -1.74,2.17c-0.78174,0.64157 -1.67736,1.13009 -2.64,1.44c-0.96498,0.33225 -1.97945,0.49794 -3,0.49c-1.59666,0.02448 -3.16977,-0.38695 -4.55,-1.19c-1.32731,-0.79714 -2.41542,-1.93707 -3.15,-3.3c-1.59561,-3.13736 -1.52815,-6.86247 0.18,-9.94c0.90661,-1.51334 2.21508,-2.74565 3.78,-3.56c1.77557,-0.89983 3.75079,-1.33341 5.74,-1.26zM252.66873,169.95809c-0.89027,-0.0139 -1.76666,0.22165 -2.53,0.68c-0.73102,0.44062 -1.33427,1.06455 -1.75,1.81c-0.42688,0.78086 -0.64071,1.66032 -0.62,2.55c-0.01205,0.89191 0.2012,1.77244 0.62,2.56c0.40769,0.73889 1.00039,1.35916 1.72,1.8c0.75607,0.44743 1.62161,0.67593 2.5,0.66c0.66996,0.00608 1.33391,-0.12671 1.95,-0.39c0.59233,-0.25222 1.12666,-0.62319 1.57,-1.09c0.45083,-0.46371 0.80742,-1.01048 1.05,-1.61c0.25715,-0.61413 0.38645,-1.27423 0.38,-1.94c0.00051,-0.8771 -0.21957,-1.74024 -0.64,-2.51c-0.41666,-0.75005 -1.01931,-1.38025 -1.75,-1.83c-0.75103,-0.46244 -1.61809,-0.70175 -2.5,-0.69z"/></g></g></svg>