<svg version="1.1" xmlns="http://www.w3.org/2000/svg" xmlns:xlink="http://www.w3.org/1999/xlink" width="50.23884" height="29.7908" viewBox="0,0,50.23884,29.7908"><g transform="translate(-214.88058,-165.1046)"><g data-paper-data="{&quot;isPaintingLayer&quot;:true}" fill="#231f20" fill-rule="nonzero" stroke="none" stroke-width="1" stroke-linecap="butt" stroke-linejoin="miter" stroke-miterlimit="10" stroke-dasharray="" stroke-dashoffset="0" style="mix-blend-mode: normal"><path d="M214.88058,189.18897v-4.8l12,-18.95h4.13v6.64h-2.45l-7.58,12v0.23h17.1v4.88zM228.72058,194.25897v-6.53l0.11,-2.13v-20.16h5.71v28.82z"/><path d="M253.48058,194.88897c-2.2132,0.04841 -4.38901,-0.57574 -6.24,-1.79c-1.80983,-1.27835 -3.20146,-3.06311 -4,-5.13c-0.98888,-2.58279 -1.45786,-5.33547 -1.38,-8.1c-0.07152,-2.73335 0.40448,-5.45338 1.4,-8c1.33516,-3.02292 3.9215,-5.31382 7.08348,-6.27433c3.16198,-0.9605 6.58557,-0.49522 9.37652,1.27433c1.80438,1.25399 3.19639,3.01489 4,5.06c0.9979,2.54569 1.47071,5.2669 1.39,8c0.06992,2.769 -0.40579,5.52469 -1.4,8.11c-0.79997,2.06878 -2.1911,3.85638 -4,5.14c-1.85486,1.18937 -4.02787,1.78582 -6.23,1.71zM253.48058,189.83897c1.69805,-0.00287 3.24784,-0.96762 4,-2.49c0.98,-1.67333 1.46667,-4.16667 1.46,-7.48c0.04061,-1.85065 -0.19189,-3.69718 -0.69,-5.48c-0.31804,-1.24052 -0.96797,-2.37098 -1.88,-3.27c-0.7784,-0.72404 -1.80707,-1.11831 -2.87,-1.1c-1.67039,0.01743 -3.191,0.96685 -3.94,2.46c-0.98,1.64 -1.47667,4.09667 -1.49,7.37c-0.04594,1.86936 0.17974,3.73549 0.67,5.54c0.31862,1.25704 0.97174,2.40432 1.89,3.32c0.7715,0.72576 1.79078,1.1299 2.85,1.13z"/></g></g></svg>