<svg version="1.1" xmlns="http://www.w3.org/2000/svg" xmlns:xlink="http://www.w3.org/1999/xlink" width="47.84" height="29.23305" viewBox="0,0,47.84,29.23305"><g transform="translate(-216.08,-165.38347)"><g data-paper-data="{&quot;isPaintingLayer&quot;:true}" fill="#231f20" fill-rule="nonzero" stroke="none" stroke-width="1" stroke-linecap="butt" stroke-linejoin="miter" stroke-miterlimit="10" stroke-dasharray="" stroke-dashoffset="0" style="mix-blend-mode: normal"><path d="M216.08,189.54653v-4.8l12,-19h4.14v6.64h-2.45l-7.58,12v0.23h17.09v4.88zM229.91,194.61653v-6.53l0.12,-2.13v-20.16h5.71v28.82z"/><path d="M243.37,194.61653v-4.39l10.26,-9.5c0.87,-0.85 1.61,-1.61 2.2,-2.28c0.54404,-0.60026 1.00177,-1.2734 1.36,-2c0.31078,-0.66309 0.46801,-1.38774 0.46,-2.12c0.01867,-0.76896 -0.17882,-1.52772 -0.57,-2.19c-0.38431,-0.6111 -0.93149,-1.10287 -1.58,-1.42c-0.70385,-0.34114 -1.47793,-0.5124 -2.26,-0.5c-0.80351,-0.02048 -1.59884,0.16544 -2.31,0.54c-0.65268,0.34057 -1.18372,0.8751 -1.52,1.53c-0.37382,0.73655 -0.55935,1.55424 -0.54,2.38h-5.78c-0.04149,-1.72423 0.40201,-3.42547 1.28,-4.91c0.86055,-1.4 2.10718,-2.52162 3.59,-3.23c1.66103,-0.78712 3.48229,-1.17739 5.32,-1.14c1.85633,-0.04118 3.69825,0.33472 5.39,1.1c1.44978,0.64653 2.68982,1.68568 3.58,3c0.86611,1.30943 1.31581,2.85026 1.29,4.42c-0.00656,1.10427 -0.22378,2.19715 -0.64,3.22c-0.57094,1.28854 -1.34027,2.47966 -2.28,3.53c-1.43619,1.64004 -2.97245,3.18967 -4.6,4.64l-4.21,4.12v0.2h12.11v5z"/></g></g></svg>