<svg version="1.1" xmlns="http://www.w3.org/2000/svg" xmlns:xlink="http://www.w3.org/1999/xlink" width="49.05416" height="29.60535" viewBox="0,0,49.05416,29.60535"><g transform="translate(-215.47292,-165.19733)"><g data-paper-data="{&quot;isPaintingLayer&quot;:true}" fill="#231f20" fill-rule="nonzero" stroke="none" stroke-width="1" stroke-linecap="butt" stroke-linejoin="miter" stroke-miterlimit="10" stroke-dasharray="" stroke-dashoffset="0" style="mix-blend-mode: normal"><path d="M215.47292,189.34025v-4.82l12,-18.95h4.14v6.64h-2.45l-7.58,12v0.23h17.12v4.88zM229.30292,194.41025v-6.53l0.11,-2.13v-20.16h5.72v28.82z"/><path d="M253.42292,194.80025c-1.92594,0.03628 -3.83777,-0.33518 -5.61,-1.09c-1.52857,-0.64707 -2.86232,-1.68099 -3.87,-3c-0.94111,-1.28921 -1.44881,-2.84383 -1.45,-4.44h6.13c0.02864,0.67583 0.27408,1.32449 0.7,1.85c0.45596,0.54892 1.04456,0.9723 1.71,1.23c0.76687,0.3027 1.58564,0.45219 2.41,0.44c0.84655,0.01362 1.68594,-0.15698 2.46,-0.5c0.67054,-0.29213 1.24814,-0.76251 1.67,-1.36c0.40899,-0.58574 0.62248,-1.28571 0.61,-2c0.00744,-0.73362 -0.2165,-1.45092 -0.64,-2.05c-0.4687,-0.62701 -1.10221,-1.11166 -1.83,-1.4c-0.8961,-0.35803 -1.85526,-0.5315 -2.82,-0.51h-2.69v-4.45h2.7c0.83828,0.01609 1.67028,-0.14758 2.44,-0.48c0.66332,-0.28071 1.23486,-0.74141 1.65,-1.33c0.39946,-0.58928 0.60565,-1.28826 0.59,-2c0.01318,-0.67198 -0.1636,-1.33403 -0.51,-1.91c-0.34852,-0.55738 -0.84779,-1.00464 -1.44,-1.29c-0.66694,-0.32034 -1.40033,-0.47798 -2.14,-0.46c-0.77858,-0.00773 -1.55069,0.14194 -2.27,0.44c-0.64581,0.27218 -1.21062,0.70612 -1.64,1.26c-0.4211,0.55286 -0.65571,1.22518 -0.67,1.92h-5.84c0.00498,-1.57544 0.50138,-3.11008 1.42,-4.39c0.96061,-1.308 2.24645,-2.34218 3.73,-3c1.66657,-0.74281 3.47565,-1.11145 5.3,-1.08c1.80041,-0.0401 3.58608,0.33277 5.22,1.09c1.40102,0.64341 2.60305,1.65201 3.48,2.92c0.82701,1.20896 1.25692,2.64549 1.23,4.11c0.04601,1.4788 -0.49297,2.91609 -1.5,4c-1.047,1.10124 -2.42868,1.82548 -3.93,2.06v0.22c1.82579,0.1374 3.54397,0.91678 4.85,2.2c1.11738,1.21846 1.71012,2.82786 1.65,4.48c0.03699,1.57717 -0.45986,3.1206 -1.41,4.38c-1.02804,1.32769 -2.38667,2.36219 -3.94,3c-1.81475,0.7815 -3.77436,1.17002 -5.75,1.14z"/></g></g></svg>