<svg version="1.1" xmlns="http://www.w3.org/2000/svg" xmlns:xlink="http://www.w3.org/1999/xlink" width="48.59264" height="29.21369" viewBox="0,0,48.59264,29.21369"><g transform="translate(-215.70368,-165.39316)"><g data-paper-data="{&quot;isPaintingLayer&quot;:true}" fill="#231f20" fill-rule="nonzero" stroke="none" stroke-width="1" stroke-linecap="butt" stroke-linejoin="miter" stroke-miterlimit="10" stroke-dasharray="" stroke-dashoffset="0" style="mix-blend-mode: normal"><path d="M215.70368,189.14316v-4.8l12,-18.95h4.13v6.64h-2.41l-7.63,12v0.23h17.1v4.88zM229.53368,194.21316v-6.53l0.11,-2.13v-20.16h5.71v28.82z"/><path d="M253.52368,194.60316c-1.82973,0.03226 -3.64366,-0.34351 -5.31,-1.1c-1.47286,-0.66183 -2.74802,-1.69575 -3.7,-3c-0.91041,-1.29534 -1.40563,-2.83679 -1.42,-4.42h5.91c0.0458,1.06748 0.56212,2.05984 1.41,2.71c0.88148,0.70384 1.98228,1.07549 3.11,1.05c0.8885,0.01617 1.76525,-0.20474 2.54,-0.64c0.73087,-0.4255 1.32966,-1.04505 1.73,-1.79c0.4305,-0.81233 0.6473,-1.72081 0.63,-2.64c0.01625,-0.92984 -0.20397,-1.84857 -0.64,-2.67c-0.4123,-0.75205 -1.02498,-1.37511 -1.77,-1.8c-0.78246,-0.44639 -1.6692,-0.67756 -2.57,-0.67c-0.847,0.00264 -1.68438,0.17965 -2.46,0.52c-0.7341,0.30152 -1.37324,0.79556 -1.85,1.43l-5.42,-1l1.37,-15.19h17.62v5h-12.6l-0.75,7.22h0.17c0.59447,-0.78757 1.38849,-1.40208 2.3,-1.78c1.08,-0.47631 2.24973,-0.71503 3.43,-0.7c3.27423,-0.06838 6.31193,1.69943 7.87,4.58c0.8064,1.50857 1.20942,3.19988 1.17,4.91c0.03757,1.81511 -0.4298,3.60498 -1.35,5.17c-0.9103,1.50531 -2.2183,2.73026 -3.78,3.54c-1.74632,0.88247 -3.68398,1.31879 -5.64,1.27z"/></g></g></svg>