<svg version="1.1" xmlns="http://www.w3.org/2000/svg" xmlns:xlink="http://www.w3.org/1999/xlink" width="49.16151" height="29.56819" viewBox="0,0,49.16151,29.56819"><g transform="translate(-215.41924,-165.21591)"><g data-paper-data="{&quot;isPaintingLayer&quot;:true}" fill="#231f20" fill-rule="nonzero" stroke="none" stroke-width="1" stroke-linecap="butt" stroke-linejoin="miter" stroke-miterlimit="10" stroke-dasharray="" stroke-dashoffset="0" style="mix-blend-mode: normal"><path d="M215.41924,189.31841v-4.8l12,-19h4.16v6.66h-2.45l-7.55,12v0.22h17.1v4.89zM229.24924,194.37841v-6.53l0.11,-2.12v-20.17h5.72v28.82z"/><path d="M253.77924,194.77841c-1.462,-0.00699 -2.91235,-0.26055 -4.29,-0.75c-1.39418,-0.50402 -2.65585,-1.31778 -3.69,-2.38c-1.17807,-1.23997 -2.06012,-2.73056 -2.58,-4.36c-0.68838,-2.15435 -1.00953,-4.40913 -0.95,-6.67c-0.01816,-2.19092 0.26106,-4.37417 0.83,-6.49c0.47421,-1.7558 1.27855,-3.4052 2.37,-4.86c0.98047,-1.27286 2.24382,-2.29997 3.69,-3c1.50835,-0.71524 3.16084,-1.07448 4.83,-1.05c1.76166,-0.03746 3.50678,0.34653 5.09,1.12c1.41529,0.69207 2.63806,1.72249 3.56,3c0.88736,1.27355 1.44407,2.7478 1.62,4.29h-6c-0.1895,-0.94064 -0.71575,-1.7798 -1.48,-2.36c-0.8041,-0.59011 -1.78314,-0.89298 -2.78,-0.86c-1.77258,-0.05839 -3.42588,0.89022 -4.27,2.45c-1.07234,2.05084 -1.5862,4.34773 -1.49,6.66h0.2c0.42187,-0.84556 1.01833,-1.592 1.75,-2.19c0.75038,-0.61235 1.60366,-1.08639 2.52,-1.4c0.96662,-0.32461 1.98035,-0.48681 3,-0.48c3.21304,-0.07423 6.19444,1.66589 7.71,4.5c0.79005,1.47475 1.1894,3.12721 1.16,4.8c0.03155,1.82835 -0.43884,3.63034 -1.36,5.21c-0.90473,1.51841 -2.218,2.75197 -3.79,3.56c-1.74762,0.88785 -3.69073,1.32118 -5.65,1.26zM253.77924,189.98841c1.77751,0.03547 3.42416,-0.93087 4.26,-2.5c0.84651,-1.61938 0.84651,-3.55062 0,-5.17c-0.4044,-0.74394 -0.99763,-1.36822 -1.72,-1.81c-0.75649,-0.45722 -1.62617,-0.69283 -2.51,-0.68c-1.32778,-0.01033 -2.59977,0.53326 -3.51,1.5c-0.43019,0.47386 -0.7692,1.02306 -1,1.62c-0.25848,0.63474 -0.38767,1.31469 -0.38,2c-0.00684,0.89058 0.21343,1.7682 0.64,2.55c0.41527,0.75371 1.01805,1.38748 1.75,1.84c0.73719,0.43904 1.58209,0.66412 2.44,0.65z"/></g></g></svg>