<svg version="1.1" xmlns="http://www.w3.org/2000/svg" xmlns:xlink="http://www.w3.org/1999/xlink" width="49.19048" height="29.65531" viewBox="0,0,49.19048,29.65531"><g transform="translate(-215.40476,-165.17234)"><g data-paper-data="{&quot;isPaintingLayer&quot;:true}" fill="#231f20" fill-rule="nonzero" stroke="none" stroke-width="1" stroke-linecap="butt" stroke-linejoin="miter" stroke-miterlimit="10" stroke-dasharray="" stroke-dashoffset="0" style="mix-blend-mode: normal"><path d="M215.40476,189.32506v-4.8l12,-18.95h4.14v6.64h-2.45l-7.59,12v0.23h17.1v4.88zM229.23476,194.39506v-6.53l0.11,-2.13v-20.12h5.72v28.82z"/><path d="M253.45476,194.82506c-1.97819,0.0371 -3.9437,-0.32335 -5.78,-1.06c-1.5633,-0.6064 -2.94182,-1.60928 -4,-2.91c-0.94555,-1.18675 -1.454,-2.66269 -1.44,-4.18c-0.00918,-1.15595 0.27648,-2.29515 0.83,-3.31c0.5404,-1.00286 1.30742,-1.86575 2.24,-2.52c0.94676,-0.66871 2.03494,-1.11014 3.18,-1.29v-0.23c-1.47719,-0.27448 -2.80543,-1.07355 -3.74,-2.25c-0.95387,-1.16663 -1.46399,-2.63324 -1.44,-4.14c-0.01755,-1.44149 0.44313,-2.84816 1.31,-4c0.93818,-1.2188 2.17942,-2.17041 3.6,-2.76c1.64468,-0.69214 3.41591,-1.03276 5.2,-1c1.78445,-0.03695 3.55654,0.30384 5.2,1c1.41788,0.58946 2.65591,1.54126 3.59,2.76c0.87333,1.14964 1.34104,2.5563 1.33,4c0.01447,1.51336 -0.50616,2.98317 -1.47,4.15c-0.93169,1.16324 -2.24671,1.95721 -3.71,2.24v0.19c2.28606,0.37577 4.27305,1.7803 5.39,3.81c1.32024,2.38971 1.08812,5.33648 -0.59,7.49c-1.05722,1.30173 -2.43604,2.30483 -4,2.91c-1.80799,0.74192 -3.74577,1.11587 -5.7,1.1zM253.45476,190.35506c0.87263,0.01764 1.73782,-0.16361 2.53,-0.53c0.68871,-0.3233 1.2764,-0.82802 1.7,-1.46c0.82616,-1.34313 0.82616,-3.03687 0,-4.38c-0.43333,-0.64593 -1.02568,-1.1694 -1.72,-1.52c-0.77294,-0.38406 -1.62706,-0.57615 -2.49,-0.56c-0.8627,-0.01381 -1.71628,0.17816 -2.49,0.56c-0.70111,0.3445 -1.29814,0.86905 -1.73,1.52c-0.42002,0.66314 -0.63564,1.4352 -0.62,2.22c-0.01337,0.76291 0.19506,1.51329 0.6,2.16c0.42128,0.63404 1.00961,1.13931 1.7,1.46c0.79257,0.35134 1.65333,0.52212 2.52,0.5zM253.45476,177.47506c0.74592,0.01461 1.48407,-0.15362 2.15,-0.49c0.61098,-0.31038 1.12345,-0.78476 1.48,-1.37c0.35728,-0.60522 0.54068,-1.29727 0.53,-2c0.01657,-0.70344 -0.16725,-1.39708 -0.53,-2c-0.36167,-0.56365 -0.86516,-1.02231 -1.46,-1.33c-1.37126,-0.66058 -2.96874,-0.66058 -4.34,0c-0.60331,0.29923 -1.11208,0.75954 -1.47,1.33c-0.71453,1.2376 -0.71453,2.7624 0,4c0.353,0.58453 0.86209,1.05898 1.47,1.37c0.67207,0.33919 1.41739,0.50749 2.17,0.49z"/></g></g></svg>