<svg version="1.1" xmlns="http://www.w3.org/2000/svg" xmlns:xlink="http://www.w3.org/1999/xlink" width="49.28253" height="29.61465" viewBox="0,0,49.28253,29.61465"><g transform="translate(-215.35873,-165.19267)"><g data-paper-data="{&quot;isPaintingLayer&quot;:true}" fill="#231f20" fill-rule="nonzero" stroke="none" stroke-width="1" stroke-linecap="butt" stroke-linejoin="miter" stroke-miterlimit="10" stroke-dasharray="" stroke-dashoffset="0" style="mix-blend-mode: normal"><path d="M215.35873,189.34541v-4.8l12,-19h4.14v6.65h-2.45l-7.58,12v0.23h17.09v4.88zM229.20873,194.40541v-6.52l0.11,-2.12v-20.18h5.71v28.82z"/><path d="M253.08873,165.19541c1.45969,-0.00386 2.9086,0.25003 4.28,0.75c1.39232,0.50297 2.65351,1.31301 3.69,2.37c1.16908,1.23519 2.05017,2.71392 2.58,4.33c0.6949,2.13327 1.03278,4.36664 1,6.61c0.03225,2.21082 -0.24374,4.41536 -0.82,6.55c-0.47509,1.76281 -1.2755,3.42129 -2.36,4.89c-0.97339,1.29882 -2.24158,2.34765 -3.7,3.06c-1.51254,0.71336 -3.16783,1.07246 -4.84,1.05c-1.76439,0.03256 -3.51161,-0.35114 -5.1,-1.12c-1.41941,-0.70435 -2.63986,-1.7529 -3.55,-3.05c-0.8998,-1.29307 -1.45716,-2.79311 -1.62,-4.36h6c0.1869,0.96367 0.71174,1.82895 1.48,2.44c0.80445,0.59796 1.78826,0.90474 2.79,0.87c1.77713,0.05556 3.43348,-0.89645 4.28,-2.46c1.07254,-2.0753 1.57955,-4.3965 1.47,-6.73h-0.19c-0.43194,0.83335 -1.02708,1.57131 -1.75,2.17c-0.74529,0.61436 -1.59568,1.08868 -2.51,1.4c-0.96463,0.33471 -1.97895,0.50376 -3,0.5c-3.20254,0.06395 -6.17157,-1.66959 -7.69,-4.49c-1.60811,-3.13798 -1.54055,-6.87224 0.18,-9.95c0.90412,-1.51534 2.21323,-2.74826 3.78,-3.56c1.73446,-0.87565 3.65749,-1.31177 5.6,-1.27zM253.08873,169.97541c-0.89027,-0.0139 -1.76666,0.22165 -2.53,0.68c-1.50636,0.93108 -2.40785,2.58951 -2.37,4.36c-0.01385,0.89334 0.20315,1.77512 0.63,2.56c0.40769,0.73889 1.00039,1.35916 1.72,1.8c1.3589,0.78291 3.00641,0.88287 4.45,0.27c0.59151,-0.25369 1.12556,-0.62447 1.57,-1.09c0.4445,-0.46874 0.80026,-1.01424 1.05,-1.61c0.25248,-0.61554 0.38159,-1.27469 0.38,-1.94c-0.00298,-0.87791 -0.22649,-1.74099 -0.65,-2.51c-0.41129,-0.75071 -1.01096,-1.3814 -1.74,-1.83c-0.74511,-0.4507 -1.59919,-0.68928 -2.47,-0.69z"/></g></g></svg>