<svg version="1.1" xmlns="http://www.w3.org/2000/svg" xmlns:xlink="http://www.w3.org/1999/xlink" width="48.3981" height="29.99694" viewBox="0,0,48.3981,29.99694"><g transform="translate(-215.80095,-165.00153)"><g data-paper-data="{&quot;isPaintingLayer&quot;:true}" fill="#231f20" fill-rule="nonzero" stroke="none" stroke-width="1" stroke-linecap="butt" stroke-linejoin="miter" stroke-miterlimit="10" stroke-dasharray="" stroke-dashoffset="0" style="mix-blend-mode: normal"><path d="M226.23095,194.75377c-1.83331,0.03612 -3.65134,-0.33979 -5.32,-1.1c-1.46994,-0.66212 -2.7418,-1.69614 -3.69,-3c-0.91041,-1.29534 -1.40563,-2.83679 -1.42,-4.42h5.94c0.03729,1.07251 0.55507,2.07134 1.41,2.72c0.89022,0.6822 1.989,1.03551 3.11,1c0.88811,0.01284 1.76401,-0.20786 2.54,-0.64c0.72863,-0.42835 1.32673,-1.04719 1.73,-1.79c0.42258,-0.8149 0.63565,-1.72218 0.62,-2.64c0.02118,-0.93037 -0.19933,-1.85033 -0.64,-2.67c-0.41735,-0.73282 -1.03015,-1.33524 -1.77,-1.74c-0.78558,-0.44766 -1.67587,-0.67885 -2.58,-0.67c-0.84487,0.0022 -1.67976,0.18281 -2.45,0.53c-0.73493,0.29523 -1.37481,0.78638 -1.85,1.42l-5.42,-1l1.36,-15.2h17.62v5h-12.61l-0.75,7.22h0.17c0.59335,-0.78216 1.38355,-1.39293 2.29,-1.77c1.08163,-0.48327 2.25542,-0.72554 3.44,-0.71c3.26947,-0.06003 6.3002,1.70596 7.86,4.58c1.61827,3.18033 1.55459,6.95605 -0.17,10.08c-0.91424,1.50568 -2.22553,2.73047 -3.79,3.54c-1.74407,0.87779 -3.67815,1.31064 -5.63,1.26z"/><path d="M252.54095,194.99377c-2.21385,0.0535 -4.39115,-0.57108 -6.24,-1.79c-1.81276,-1.27528 -3.20516,-3.06102 -4,-5.13c-0.99278,-2.57848 -1.4652,-5.32802 -1.39,-8.09c-0.06591,-2.73293 0.40991,-5.45187 1.4,-8c1.65256,-4.21186 5.71554,-6.98224 10.24,-6.98224c4.52446,0 8.58744,2.77038 10.24,6.98224c1.00105,2.54506 1.47726,5.26623 1.4,8c0.06912,2.76569 -0.40658,5.51796 -1.4,8.1c-0.79841,2.06966 -2.18986,3.85768 -4,5.14c-1.85234,1.21739 -4.03439,1.83535 -6.25,1.77zM252.54095,189.99377c1.68135,-0.01709 3.2095,-0.9804 3.95,-2.49c0.99333,-1.66 1.48333,-4.15 1.47,-7.47c0.04661,-1.84306 -0.17916,-3.68289 -0.67,-5.46c-0.3168,-1.24617 -0.97071,-2.381 -1.89,-3.28c-0.77701,-0.71985 -1.80088,-1.11365 -2.86,-1.1c-1.67039,0.01743 -3.191,0.96685 -3.94,2.46c-0.98,1.64 -1.47667,4.1 -1.49,7.38c-0.05033,1.83409 0.16182,3.66596 0.63,5.44c0.30999,1.2605 0.96436,2.40998 1.89,3.32c0.78221,0.74925 1.82691,1.1621 2.91,1.15z"/></g></g></svg>