<svg version="1.1" xmlns="http://www.w3.org/2000/svg" xmlns:xlink="http://www.w3.org/1999/xlink" width="37.98" height="29.26249" viewBox="0,0,37.98,29.26249"><g transform="translate(-221.01,-165.36875)"><g data-paper-data="{&quot;isPaintingLayer&quot;:true}" fill="#231f20" fill-rule="nonzero" stroke="none" stroke-width="1" stroke-linecap="butt" stroke-linejoin="miter" stroke-miterlimit="10" stroke-dasharray="" stroke-dashoffset="0" style="mix-blend-mode: normal"><path d="M231.44,194.62875c-1.83017,0.03701 -3.64515,-0.33897 -5.31,-1.1c-1.47457,-0.65905 -2.75039,-1.69349 -3.7,-3c-0.91041,-1.29534 -1.40563,-2.83679 -1.42,-4.42h5.87c0.04561,1.07031 0.56167,2.06581 1.41,2.72c0.89022,0.6822 1.989,1.03551 3.11,1c0.88811,0.01284 1.76401,-0.20786 2.54,-0.64c0.72863,-0.42835 1.32673,-1.04719 1.73,-1.79c0.85285,-1.66727 0.85285,-3.64273 0,-5.31c-0.4057,-0.75359 -1.01572,-1.37747 -1.76,-1.8c-0.78735,-0.44328 -1.67645,-0.67417 -2.58,-0.67c-0.84487,0.0022 -1.67976,0.18281 -2.45,0.53c-0.73493,0.29523 -1.37481,0.78638 -1.85,1.42l-5.42,-1l1.36,-15.2h17.62v5h-12.57l-0.75,7.22h0.17c0.59507,-0.78459 1.38918,-1.39571 2.3,-1.77c1.07776,-0.48431 2.24854,-0.72666 3.43,-0.71c1.63064,-0.02686 3.23679,0.39891 4.64,1.23c1.35657,0.80488 2.46942,1.96265 3.22,3.35c1.61827,3.18033 1.55459,6.95605 -0.17,10.08c-0.91139,1.508 -2.22341,2.73347 -3.79,3.54c-1.73784,0.90094 -3.67281,1.35461 -5.63,1.32z"/><path d="M258.99,165.41875v28.82h-6.11v-23h-0.17l-6.6,4.14v-5.41l7.13,-4.51z"/></g></g></svg>