<svg version="1.1" xmlns="http://www.w3.org/2000/svg" xmlns:xlink="http://www.w3.org/1999/xlink" width="45.99" height="29.62633" viewBox="0,0,45.99,29.62633"><g transform="translate(-217.005,-165.18684)"><g data-paper-data="{&quot;isPaintingLayer&quot;:true}" fill="#231f20" fill-rule="nonzero" stroke="none" stroke-width="1" stroke-linecap="butt" stroke-linejoin="miter" stroke-miterlimit="10" stroke-dasharray="" stroke-dashoffset="0" style="mix-blend-mode: normal"><path d="M227.435,194.8097c-1.83284,0.03107 -3.64977,-0.34461 -5.32,-1.1c-1.46994,-0.66212 -2.7418,-1.69614 -3.69,-3c-0.91041,-1.29534 -1.40563,-2.83679 -1.42,-4.42h5.91c0.05622,1.0508 0.5719,2.02365 1.41,2.66c0.88148,0.70384 1.98228,1.07549 3.11,1.05c0.88811,0.01284 1.76401,-0.20786 2.54,-0.64c0.72863,-0.42835 1.32673,-1.04719 1.73,-1.79c0.42258,-0.8149 0.63565,-1.72218 0.62,-2.64c0.02118,-0.93037 -0.19933,-1.85033 -0.64,-2.67c-0.4057,-0.75359 -1.01572,-1.37747 -1.76,-1.8c-0.78558,-0.44766 -1.67587,-0.67885 -2.58,-0.67c-0.84366,0.00373 -1.67756,0.18072 -2.45,0.52c-0.72099,0.31493 -1.34307,0.81951 -1.8,1.46l-5.42,-1l1.36,-15.19h17.57v5h-12.59l-0.75,7.22h0.17c0.59275,-0.78515 1.38287,-1.39931 2.29,-1.78c1.08383,-0.47534 2.2566,-0.71399 3.44,-0.7c1.62918,-0.02574 3.23417,0.39626 4.64,1.22c1.36173,0.82484 2.4745,2.00327 3.22,3.41c1.59007,3.15874 1.52652,6.89713 -0.17,10c-0.90177,1.51266 -2.20265,2.74781 -3.76,3.57c-1.74995,0.89422 -3.69539,1.33761 -5.66,1.29z"/><path d="M242.445,194.4197v-4.39l10.26,-9.5c0.87,-0.85 1.61,-1.61 2.2,-2.28c0.54404,-0.60026 1.00177,-1.2734 1.36,-2c0.3098,-0.66342 0.46699,-1.38784 0.46,-2.12c0.0203,-0.76914 -0.1773,-1.52835 -0.57,-2.19c-0.38431,-0.6111 -0.93149,-1.10287 -1.58,-1.42c-0.70385,-0.34114 -1.47793,-0.5124 -2.26,-0.5c-0.80215,-0.01877 -1.59626,0.16343 -2.31,0.53c-0.65106,0.34739 -1.18115,0.88446 -1.52,1.54c-0.37703,0.73539 -0.56274,1.55391 -0.54,2.38h-5.78c-0.04257,-1.72436 0.40101,-3.42589 1.28,-4.91c0.86055,-1.4 2.10718,-2.52162 3.59,-3.23c1.66103,-0.78712 3.48229,-1.17739 5.32,-1.14c1.85515,-0.0396 3.69601,0.33267 5.39,1.09c1.44814,0.65345 2.6897,1.69097 3.59,3c0.85861,1.31239 1.30444,2.85188 1.28,4.42c-0.00656,1.10427 -0.22378,2.19715 -0.64,3.22c-0.57323,1.2873 -1.34235,2.47808 -2.28,3.53c-1.43354,1.64251 -2.96996,3.1923 -4.6,4.64l-4.21,4.12v0.19h12.11v5z"/></g></g></svg>