<svg version="1.1" xmlns="http://www.w3.org/2000/svg" xmlns:xlink="http://www.w3.org/1999/xlink" width="47.1277" height="29.62542" viewBox="0,0,47.1277,29.62542"><g transform="translate(-216.43615,-165.18729)"><g data-paper-data="{&quot;isPaintingLayer&quot;:true}" fill="#231f20" fill-rule="nonzero" stroke="none" stroke-width="1" stroke-linecap="butt" stroke-linejoin="miter" stroke-miterlimit="10" stroke-dasharray="" stroke-dashoffset="0" style="mix-blend-mode: normal"><path d="M226.81615,194.81028c-1.81216,0.02799 -3.60818,-0.34419 -5.26,-1.09c-1.47021,-0.66612 -2.74437,-1.69922 -3.7,-3c-0.91041,-1.29534 -1.40563,-2.83679 -1.42,-4.42h5.91c0.04561,1.07031 0.56167,2.06581 1.41,2.72c0.89022,0.6822 1.989,1.03551 3.11,1c0.8885,0.01617 1.76525,-0.20474 2.54,-0.64c0.73284,-0.42298 1.33225,-1.04317 1.73,-1.79c0.43259,-0.81154 0.64952,-1.72057 0.63,-2.64c0.01625,-0.92984 -0.20397,-1.84857 -0.64,-2.67c-0.4123,-0.75205 -1.02498,-1.37511 -1.77,-1.8c-0.78501,-0.43897 -1.67062,-0.6664 -2.57,-0.66c-0.84752,-0.00235 -1.68593,0.17487 -2.46,0.52c-0.73317,0.29832 -1.37228,0.78888 -1.85,1.42l-5.42,-1l1.37,-15.2h17.57v5h-12.6l-0.74,7.22h0.16c0.60013,-0.77954 1.39276,-1.38953 2.3,-1.77c1.07806,-0.48338 2.24863,-0.72569 3.43,-0.71c3.28385,-0.054 6.32203,1.73339 7.87,4.63c0.79097,1.50245 1.18347,3.18262 1.14,4.88c0.03757,1.81511 -0.4298,3.60498 -1.35,5.17c-0.90744,1.50763 -2.21617,2.73327 -3.78,3.54c-1.73555,0.88457 -3.6624,1.32764 -5.61,1.29z"/><path d="M252.48615,194.81028c-1.92594,0.03628 -3.83777,-0.33518 -5.61,-1.09c-1.5336,-0.63846 -2.86941,-1.67397 -3.87,-3c-0.94312,-1.29197 -1.45093,-2.85041 -1.45,-4.45h6.14c0.02864,0.67583 0.27408,1.32449 0.7,1.85c0.45186,0.5533 1.04172,0.97758 1.71,1.23c0.76368,0.30167 1.57897,0.45114 2.4,0.44c0.84598,0.01871 1.68575,-0.14856 2.46,-0.49c0.67543,-0.29332 1.25678,-0.7674 1.68,-1.37c0.82757,-1.22682 0.82757,-2.83318 0,-4.06c-0.46718,-0.62851 -1.10115,-1.11352 -1.83,-1.4c-0.89635,-0.35622 -1.85582,-0.52634 -2.82,-0.5h-2.68v-4.48h2.68c0.83836,0.01703 1.67056,-0.14668 2.44,-0.48c0.66323,-0.28539 1.23684,-0.74497 1.66,-1.33c0.39946,-0.58928 0.60565,-1.28826 0.59,-2c0.01318,-0.67198 -0.1636,-1.33403 -0.51,-1.91c-0.3567,-0.54794 -0.85402,-0.99 -1.44,-1.28c-0.66937,-0.32461 -1.40624,-0.4857 -2.15,-0.47c-0.77534,-0.00776 -1.5442,0.14193 -2.26,0.44c-0.65131,0.26746 -1.22048,0.7021 -1.65,1.26c-0.41214,0.55694 -0.6426,1.22737 -0.66,1.92h-5.89c0.00528,-1.57388 0.50557,-3.10621 1.43,-4.38c0.95683,-1.30761 2.23936,-2.34191 3.72,-3c1.66794,-0.73752 3.47657,-1.10266 5.3,-1.07c1.79938,-0.04041 3.58438,0.32891 5.22,1.08c1.40388,0.64316 2.60921,1.65164 3.49,2.92c0.8252,1.20982 1.25493,2.64576 1.23,4.11c0.04601,1.4788 -0.49297,2.91609 -1.5,4c-1.047,1.10124 -2.42868,1.82548 -3.93,2.06v0.22c1.82446,0.13901 3.54002,0.92235 4.84,2.21c1.12605,1.236 1.71271,2.87002 1.63,4.54c0.03186,1.57495 -0.46844,3.11461 -1.42,4.37c-1.02561,1.32597 -2.38054,2.36027 -3.93,3c-1.80944,0.76141 -3.7571,1.13937 -5.72,1.11z"/></g></g></svg>