<svg version="1.1" xmlns="http://www.w3.org/2000/svg" xmlns:xlink="http://www.w3.org/1999/xlink" width="48.17" height="29.26368" viewBox="0,0,48.17,29.26368"><g transform="translate(-215.915,-165.36816)"><g data-paper-data="{&quot;isPaintingLayer&quot;:true}" fill="#231f20" fill-rule="nonzero" stroke="none" stroke-width="1" stroke-linecap="butt" stroke-linejoin="miter" stroke-miterlimit="10" stroke-dasharray="" stroke-dashoffset="0" style="mix-blend-mode: normal"><path d="M226.345,194.62816c-1.82973,0.03226 -3.64366,-0.34351 -5.31,-1.1c-1.47142,-0.65972 -2.74384,-1.69421 -3.69,-3c-0.9149,-1.28994 -1.41384,-2.82863 -1.43,-4.41h5.91c0.0458,1.06748 0.56212,2.05984 1.41,2.71c0.88826,0.68594 1.98842,1.03969 3.11,1c0.88894,0.02011 1.76672,-0.20106 2.54,-0.64c0.73284,-0.42298 1.33225,-1.04317 1.73,-1.79c0.84633,-1.66883 0.84633,-3.64117 0,-5.31c-0.4123,-0.75205 -1.02498,-1.37511 -1.77,-1.8c-0.78501,-0.43897 -1.67062,-0.6664 -2.57,-0.66c-0.84752,-0.00235 -1.68593,0.17487 -2.46,0.52c-0.73121,0.30171 -1.36951,0.79164 -1.85,1.42l-5.42,-1l1.34,-15.13h17.62v5h-12.62l-0.74,7.21h0.17c0.59403,-0.78148 1.38404,-1.3921 2.29,-1.77c1.07884,-0.47995 2.24937,-0.71883 3.43,-0.7c3.27602,-0.07531 6.31707,1.69445 7.87,4.58c0.81076,1.50331 1.21411,3.19257 1.17,4.9c0.04343,1.8158 -0.42435,3.60725 -1.35,5.17c-0.90432,1.51266 -2.21362,2.74229 -3.78,3.55c-1.73608,0.86912 -3.65912,1.29837 -5.6,1.25z"/><path d="M240.885,189.16816v-4.8l12,-19h4.14v6.65h-2.45l-7.58,12v0.22h17.09v4.89zM254.715,194.22816v-6.53l0.12,-2.12v-20.14h5.71v28.82z"/></g></g></svg>