<svg version="1.1" xmlns="http://www.w3.org/2000/svg" xmlns:xlink="http://www.w3.org/1999/xlink" width="46.73009" height="29.26178" viewBox="0,0,46.73009,29.26178"><g transform="translate(-216.63495,-165.36911)"><g data-paper-data="{&quot;isPaintingLayer&quot;:true}" fill="#231f20" fill-rule="nonzero" stroke="none" stroke-width="1" stroke-linecap="butt" stroke-linejoin="miter" stroke-miterlimit="10" stroke-dasharray="" stroke-dashoffset="0" style="mix-blend-mode: normal"><path d="M227.06495,194.62911c-1.83284,0.03107 -3.64977,-0.34461 -5.32,-1.1c-1.47142,-0.65972 -2.74384,-1.69421 -3.69,-3c-0.91193,-1.29082 -1.4074,-2.8296 -1.42,-4.41h5.91c0.03742,1.0697 0.55549,2.06542 1.41,2.71c0.88746,0.68746 1.98818,1.04139 3.11,1c0.8885,0.01617 1.76525,-0.20474 2.54,-0.64c0.73017,-0.42195 1.32902,-1.03811 1.73,-1.78c0.42258,-0.8149 0.63565,-1.72218 0.62,-2.64c0.02246,-0.93369 -0.19808,-1.8572 -0.64,-2.68c-0.4057,-0.75359 -1.01572,-1.37747 -1.76,-1.8c-0.7883,-0.43979 -1.67735,-0.66722 -2.58,-0.66c-0.84366,0.00373 -1.67756,0.18072 -2.45,0.52c-0.73292,0.29875 -1.37193,0.78923 -1.85,1.42l-5.42,-1l1.36,-15.2h17.62v5h-12.59l-0.75,7.22h0.17c0.59275,-0.78515 1.38287,-1.39931 2.29,-1.78c1.0824,-0.47984 2.25616,-0.71868 3.44,-0.7c3.27245,-0.07151 6.30872,1.69771 7.86,4.58c1.61826,3.17682 1.55457,6.94962 -0.17,10.07c-0.91077,1.51102 -2.22271,2.73988 -3.79,3.55c-1.73872,0.89856 -3.67308,1.35209 -5.63,1.32z"/><path d="M252.60495,194.62911c-1.83284,0.03107 -3.64977,-0.34461 -5.32,-1.1c-1.47142,-0.65972 -2.74384,-1.69421 -3.69,-3c-0.91193,-1.29082 -1.4074,-2.8296 -1.42,-4.41h5.91c0.03742,1.0697 0.55549,2.06542 1.41,2.71c0.88826,0.68594 1.98842,1.03969 3.11,1c0.8885,0.01617 1.76525,-0.20474 2.54,-0.64c0.73017,-0.42195 1.32902,-1.03811 1.73,-1.78c0.42258,-0.8149 0.63565,-1.72218 0.62,-2.64c0.02246,-0.93369 -0.19808,-1.8572 -0.64,-2.68c-0.4057,-0.75359 -1.01572,-1.37747 -1.76,-1.8c-0.7883,-0.43979 -1.67735,-0.66722 -2.58,-0.66c-0.84366,0.00373 -1.67756,0.18072 -2.45,0.52c-0.73292,0.29875 -1.37193,0.78923 -1.85,1.42l-5.42,-1l1.36,-15.2h17.63v5h-12.6l-0.75,7.22h0.17c0.59275,-0.78515 1.38287,-1.39931 2.29,-1.78c1.0824,-0.47984 2.25616,-0.71868 3.44,-0.7c3.27245,-0.07151 6.30872,1.69771 7.86,4.58c1.61826,3.17682 1.55457,6.94962 -0.17,10.07c-0.91077,1.51102 -2.22271,2.73988 -3.79,3.55c-1.73828,0.89975 -3.67294,1.35334 -5.63,1.32z"/></g></g></svg>