<svg version="1.1" xmlns="http://www.w3.org/2000/svg" xmlns:xlink="http://www.w3.org/1999/xlink" width="47.23699" height="29.56676" viewBox="0,0,47.23699,29.56676"><g transform="translate(-216.3815,-165.21662)"><g data-paper-data="{&quot;isPaintingLayer&quot;:true}" fill="#231f20" fill-rule="nonzero" stroke="none" stroke-width="1" stroke-linecap="butt" stroke-linejoin="miter" stroke-miterlimit="10" stroke-dasharray="" stroke-dashoffset="0" style="mix-blend-mode: normal"><path d="M226.8115,194.77993c-1.83284,0.03107 -3.64977,-0.34461 -5.32,-1.1c-1.46994,-0.66212 -2.7418,-1.69614 -3.69,-3c-0.91041,-1.29534 -1.40563,-2.83679 -1.42,-4.42h5.91c0.03742,1.0697 0.55549,2.06542 1.41,2.71c0.88746,0.68746 1.98818,1.04139 3.11,1c0.8885,0.01617 1.76525,-0.20474 2.54,-0.64c0.73017,-0.42195 1.32902,-1.03811 1.73,-1.78c0.42258,-0.8149 0.63565,-1.72218 0.62,-2.64c0.0221,-0.93047 -0.19847,-1.85066 -0.64,-2.67c-0.40507,-0.75663 -1.01502,-1.3839 -1.76,-1.81c-0.7883,-0.43979 -1.67735,-0.66722 -2.58,-0.66c-0.84366,0.00373 -1.67756,0.18072 -2.45,0.52c-0.73292,0.29875 -1.37193,0.78923 -1.85,1.42l-5.42,-1l1.36,-15.19h17.62v5h-12.59l-0.75,7.22h0.17c0.59275,-0.78515 1.38287,-1.39931 2.29,-1.78c1.0824,-0.47984 2.25616,-0.71868 3.44,-0.7c3.27245,-0.07151 6.30872,1.69771 7.86,4.58c1.61827,3.18033 1.55459,6.95605 -0.17,10.08c-0.91424,1.50568 -2.22553,2.73047 -3.79,3.54c-1.73872,0.89856 -3.67308,1.35209 -5.63,1.32z"/><path d="M252.8815,194.77993c-1.45883,-0.006 -2.90605,-0.2596 -4.28,-0.75c-1.40029,-0.49754 -2.6666,-1.31208 -3.7,-2.38c-1.17807,-1.23997 -2.06012,-2.73056 -2.58,-4.36c-0.70056,-2.15258 -1.0385,-4.40662 -1,-6.67c-0.02005,-2.19168 0.26262,-4.37564 0.84,-6.49c0.47071,-1.75524 1.27167,-3.40467 2.36,-4.86c0.97621,-1.29359 2.2439,-2.33857 3.7,-3.05c1.50861,-0.6989 3.15787,-1.04107 4.82,-1c1.76487,-0.03751 3.51324,0.34644 5.1,1.12c1.41053,0.69515 2.62936,1.72515 3.55,3c0.89578,1.2691 1.45333,2.74557 1.62,4.29h-6c-0.19462,-0.93859 -0.71983,-1.77608 -1.48,-2.36c-0.80788,-0.59016 -1.79006,-0.89291 -2.79,-0.86c-1.77199,-0.05603 -3.42414,0.89192 -4.27,2.45c-1.07336,2.05015 -1.58404,4.34821 -1.48,6.66h0.19c0.42555,-0.84602 1.02536,-1.59238 1.76,-2.19c0.74339,-0.61474 1.59449,-1.08607 2.51,-1.39c0.96498,-0.33225 1.97945,-0.49794 3,-0.49c3.2148,-0.07106 6.19761,1.66763 7.72,4.5c1.60057,3.16011 1.52182,6.90987 -0.21,10c-0.89818,1.5201 -2.20884,2.75447 -3.78,3.56c-1.73262,0.88075 -3.65694,1.31716 -5.6,1.27zM252.8815,189.98993c0.88605,0.01612 1.75895,-0.21596 2.52,-0.67c0.73418,-0.4454 1.33784,-1.07665 1.75,-1.83c0.4268,-0.79573 0.64363,-1.68714 0.63,-2.59c0.01467,-0.89661 -0.20233,-1.78183 -0.63,-2.57c-0.40141,-0.74874 -0.99512,-1.37696 -1.72,-1.82c-0.75606,-0.45822 -1.62603,-0.69391 -2.51,-0.68c-1.32681,-0.00551 -2.59696,0.53729 -3.51,1.5c-0.42856,0.47508 -0.76738,1.02397 -1,1.62c-0.26248,0.63355 -0.39183,1.31433 -0.38,2c-0.01134,0.89111 0.20921,1.76986 0.64,2.55c0.40798,0.75576 1.00819,1.39047 1.74,1.84c0.73761,0.43806 1.58222,0.66306 2.44,0.65z"/></g></g></svg>