<svg version="1.1" xmlns="http://www.w3.org/2000/svg" xmlns:xlink="http://www.w3.org/1999/xlink" width="44.84" height="29.26191" viewBox="0,0,44.84,29.26191"><g transform="translate(-217.58,-165.36904)"><g data-paper-data="{&quot;isPaintingLayer&quot;:true}" fill="#231f20" fill-rule="nonzero" stroke="none" stroke-width="1" stroke-linecap="butt" stroke-linejoin="miter" stroke-miterlimit="10" stroke-dasharray="" stroke-dashoffset="0" style="mix-blend-mode: normal"><path d="M228.01,194.62904c-1.82973,0.03226 -3.64366,-0.34351 -5.31,-1.1c-1.47606,-0.65662 -2.75246,-1.69154 -3.7,-3c-0.91193,-1.29082 -1.4074,-2.8296 -1.42,-4.41h5.91c0.0458,1.06748 0.56212,2.05984 1.41,2.71c0.88826,0.68594 1.98842,1.03969 3.11,1c0.8885,0.01617 1.76525,-0.20474 2.54,-0.64c0.73017,-0.42195 1.32902,-1.03811 1.73,-1.78c0.85298,-1.67076 0.85298,-3.64924 0,-5.32c-0.40831,-0.75167 -1.0177,-1.37491 -1.76,-1.8c-0.7883,-0.43979 -1.67735,-0.66722 -2.58,-0.66c-0.84415,-0.00094 -1.67901,0.17625 -2.45,0.52c-0.73292,0.29875 -1.37193,0.78923 -1.85,1.42l-5.42,-1l1.36,-15.2h17.62v5h-12.61l-0.75,7.22h0.17c0.59447,-0.78757 1.38849,-1.40208 2.3,-1.78c1.07854,-0.48087 2.24928,-0.7198 3.43,-0.7c1.62918,-0.02574 3.23417,0.39626 4.64,1.22c1.35509,0.81114 2.46723,1.97163 3.22,3.36c1.61826,3.17682 1.55457,6.94962 -0.17,10.07c-0.91077,1.51102 -2.22271,2.73988 -3.79,3.55c-1.73784,0.90094 -3.67281,1.35461 -5.63,1.32z"/><path d="M244.16,194.22904l11.95,-23.64v-0.19h-13.92v-5h20.23v5.06l-12,23.76z"/></g></g></svg>