<svg version="1.1" xmlns="http://www.w3.org/2000/svg" xmlns:xlink="http://www.w3.org/1999/xlink" width="47.35004" height="29.60544" viewBox="0,0,47.35004,29.60544"><g transform="translate(-216.32498,-165.19728)"><g data-paper-data="{&quot;isPaintingLayer&quot;:true}" fill="#231f20" fill-rule="nonzero" stroke="none" stroke-width="1" stroke-linecap="butt" stroke-linejoin="miter" stroke-miterlimit="10" stroke-dasharray="" stroke-dashoffset="0" style="mix-blend-mode: normal"><path d="M226.75498,194.80012c-1.83284,0.03107 -3.64977,-0.34461 -5.32,-1.1c-1.46994,-0.66212 -2.7418,-1.69614 -3.69,-3c-0.91041,-1.29534 -1.40563,-2.83679 -1.42,-4.42h5.91c0.0458,1.06748 0.56212,2.05984 1.41,2.71c0.88826,0.68594 1.98842,1.03969 3.11,1c0.88726,0.01636 1.76323,-0.2009 2.54,-0.63c0.72863,-0.42835 1.32673,-1.04719 1.73,-1.79c0.42258,-0.8149 0.63565,-1.72218 0.62,-2.64c0.02118,-0.93037 -0.19933,-1.85033 -0.64,-2.67c-0.4081,-0.75441 -1.01732,-1.38093 -1.76,-1.81c-0.7883,-0.43979 -1.67735,-0.66722 -2.58,-0.66c-0.84366,0.00373 -1.67756,0.18072 -2.45,0.52c-0.73562,0.29889 -1.3754,0.79342 -1.85,1.43l-5.42,-1l1.36,-15.19h17.62v5h-12.59l-0.75,7.22h0.17c0.59275,-0.78515 1.38287,-1.39931 2.29,-1.78c1.08383,-0.47534 2.2566,-0.71399 3.44,-0.7c1.62918,-0.02574 3.23417,0.39626 4.64,1.22c1.35509,0.81114 2.46723,1.97163 3.22,3.36c1.61827,3.18033 1.55459,6.95605 -0.17,10.08c-0.91424,1.50568 -2.22553,2.73047 -3.79,3.54c-1.73874,0.89747 -3.67366,1.34769 -5.63,1.31z"/><path d="M252.51498,194.80012c-1.97495,0.03712 -3.9372,-0.32336 -5.77,-1.06c-1.56396,-0.60517 -2.94278,-1.60827 -4,-2.91c-0.93837,-1.19005 -1.4428,-2.66455 -1.43,-4.18c-0.01224,-1.15507 0.26996,-2.29422 0.82,-3.31c0.54416,-1.00331 1.31451,-1.86609 2.25,-2.52c0.94499,-0.67193 2.03396,-1.11368 3.18,-1.29v-0.19c-1.48017,-0.27394 -2.81174,-1.07288 -3.75,-2.25c-1.86092,-2.37565 -1.91,-5.70046 -0.12,-8.13c0.93409,-1.21874 2.17212,-2.17054 3.59,-2.76c1.64494,-0.69129 3.41599,-1.03188 5.2,-1c1.78452,-0.03785 3.5568,0.30297 5.2,1c1.42058,0.58959 2.66182,1.5412 3.6,2.76c0.86774,1.15198 1.33167,2.55782 1.32,4c0.01386,1.51154 -0.50278,2.98009 -1.46,4.15c-0.9371,1.16193 -2.25467,1.95531 -3.72,2.24v0.19c1.13528,0.18185 2.21327,0.62331 3.15,1.29c0.93048,0.65953 1.69969,1.52103 2.25,2.52c0.55965,1.01332 0.85217,2.15241 0.85,3.31c0.00552,1.51759 -0.50588,2.99183 -1.45,4.18c-1.05818,1.30072 -2.4367,2.3036 -4,2.91c-1.8152,0.72406 -3.75597,1.08094 -5.71,1.05zM252.51498,190.32012c0.87509,0.02089 1.74353,-0.1569 2.54,-0.52c0.68856,-0.32409 1.27363,-0.83299 1.69,-1.47c0.41504,-0.64267 0.62755,-1.39516 0.61,-2.16c0.01427,-0.7829 -0.20506,-1.5523 -0.63,-2.21c-0.42539,-0.65283 -1.01981,-1.17813 -1.72,-1.52c-0.77294,-0.38406 -1.62706,-0.57615 -2.49,-0.56c-0.8627,-0.01381 -1.71628,0.17816 -2.49,0.56c-0.70019,0.34187 -1.29461,0.86717 -1.72,1.52c-0.42494,0.6577 -0.64427,1.4271 -0.63,2.21c-0.01755,0.76484 0.19496,1.51733 0.61,2.16c0.41454,0.64239 1.00449,1.15253 1.7,1.47c0.79363,0.36097 1.65833,0.53869 2.53,0.52zM252.51498,177.45012c0.74925,0.01584 1.49093,-0.15241 2.16,-0.49c1.25724,-0.65249 2.03324,-1.96392 2,-3.38c0.03039,-1.39749 -0.74873,-2.68693 -2,-3.31c-1.36848,-0.65737 -2.96152,-0.65737 -4.33,0c-0.60542,0.29613 -1.11496,0.75714 -1.47,1.33c-0.36748,0.60091 -0.55167,1.29597 -0.53,2c-0.01068,0.70273 0.17272,1.39478 0.53,2c0.35937,0.58292 0.87111,1.05663 1.48,1.37c0.66981,0.33452 1.41155,0.49935 2.16,0.48z"/></g></g></svg>