<svg version="1.1" xmlns="http://www.w3.org/2000/svg" xmlns:xlink="http://www.w3.org/1999/xlink" width="47.41291" height="29.61606" viewBox="0,0,47.41291,29.61606"><g transform="translate(-216.29355,-165.19197)"><g data-paper-data="{&quot;isPaintingLayer&quot;:true}" fill="#231f20" fill-rule="nonzero" stroke="none" stroke-width="1" stroke-linecap="butt" stroke-linejoin="miter" stroke-miterlimit="10" stroke-dasharray="" stroke-dashoffset="0" style="mix-blend-mode: normal"><path d="M226.71355,194.75816c-1.83008,0.03599 -3.64483,-0.33995 -5.31,-1.1c-1.46994,-0.66212 -2.7418,-1.69614 -3.69,-3c-0.91503,-1.29304 -1.41073,-2.83597 -1.42,-4.42h5.91c0.03769,1.07008 0.55106,2.06748 1.4,2.72c0.891,0.68073 1.98923,1.03386 3.11,1c0.8885,0.01617 1.76525,-0.20474 2.54,-0.64c0.73318,-0.42255 1.33268,-1.04285 1.73,-1.79c0.84633,-1.66883 0.84633,-3.64117 0,-5.31c-0.40929,-0.75429 -1.0227,-1.37809 -1.77,-1.8c-0.78191,-0.44773 -1.66902,-0.679 -2.57,-0.67c-0.84679,0.00462 -1.68378,0.18154 -2.46,0.52c-0.7319,0.30533 -1.37011,0.79865 -1.85,1.43l-5.41,-1l1.36,-15.19h17.62v5h-12.6l-0.74,7.22h0.17c0.59032,-0.78754 1.38115,-1.40225 2.29,-1.78c1.08038,-0.47512 2.24984,-0.71379 3.43,-0.7c3.27304,-0.06379 6.30853,1.70273 7.87,4.58c1.61827,3.18033 1.55459,6.95605 -0.17,10.08c-0.91139,1.508 -2.22341,2.73347 -3.79,3.54c-1.74575,0.89793 -3.68723,1.34808 -5.65,1.31z"/><path d="M252.16355,165.19816c1.45969,-0.00386 2.9086,0.25003 4.28,0.75c1.39114,0.51016 2.65152,1.32309 3.69,2.38c1.16688,1.23125 2.04482,2.707 2.57,4.32c0.70016,2.13202 1.03817,4.36628 1,6.61c0.02925,2.21131 -0.25011,4.41588 -0.83,6.55c-0.47183,1.76218 -1.26884,3.42065 -2.35,4.89c-0.9756,1.29671 -2.24324,2.34508 -3.7,3.06c-3.16573,1.42387 -6.79464,1.39832 -9.94,-0.07c-2.88292,-1.41851 -4.83799,-4.21525 -5.18,-7.41h6c0.18438,0.96465 0.70972,1.83074 1.48,2.44c0.80138,0.59651 1.78154,0.90325 2.78,0.87c1.77831,0.0603 3.43698,-0.89305 4.28,-2.46c1.08187,-2.07223 1.59269,-4.39507 1.48,-6.73h-0.2c-0.42362,0.83878 -1.01601,1.58096 -1.74,2.18c-0.74784,0.61062 -1.59752,1.08455 -2.51,1.4c-0.96662,0.32571 -1.97998,0.49122 -3,0.49c-3.20431,0.06084 -6.1748,-1.6713 -7.7,-4.49c-1.61572,-3.15472 -1.54439,-6.90893 0.19,-10c0.90432,-1.51266 2.21362,-2.74229 3.78,-3.55c1.74205,-0.87056 3.67357,-1.29329 5.62,-1.23zM252.16355,169.98816c-0.88937,-0.01746 -1.76584,0.21465 -2.53,0.67c-0.72863,0.44475 -1.32843,1.07213 -1.74,1.82c-0.4335,0.77866 -0.65101,1.65904 -0.63,2.55c-0.01348,0.89011 0.20355,1.76858 0.63,2.55c0.40112,0.74042 0.99111,1.36146 1.71,1.8c0.75335,0.45492 1.62012,0.68721 2.5,0.67c0.68674,0.01279 1.36838,-0.12013 2,-0.39c0.58938,-0.26197 1.12251,-0.6355 1.57,-1.1c0.4445,-0.46874 0.80026,-1.01424 1.05,-1.61c0.25452,-0.61493 0.38371,-1.27449 0.38,-1.94c-0.00294,-0.87474 -0.22651,-1.7346 -0.65,-2.5c-0.41666,-0.75005 -1.01931,-1.38025 -1.75,-1.83c-0.74524,-0.48105 -1.61299,-0.7379 -2.5,-0.74z"/></g></g></svg>