<svg version="1.1" xmlns="http://www.w3.org/2000/svg" xmlns:xlink="http://www.w3.org/1999/xlink" width="336.88" height="125.17346" viewBox="0,0,336.88,125.17346"><g transform="translate(-71.56,-78.73264)"><g data-paper-data="{&quot;isPaintingLayer&quot;:true}" fill-rule="nonzero" stroke="none" stroke-width="1" stroke-linecap="butt" stroke-linejoin="miter" stroke-miterlimit="10" stroke-dasharray="" stroke-dashoffset="0" style="mix-blend-mode: normal"><path d="M71.56,158.5939v-1.9h13.27v1.9h-5.56v15.84h-2.14v-15.84z" fill="#231f20"/><path d="M89.92,166.4339v8h-2v-17.74h2v6.5h0.18c0.29452,-0.6729 0.78165,-1.24354 1.4,-1.64c0.75791,-0.43808 1.6255,-0.64976 2.5,-0.61c0.82576,-0.01935 1.64345,0.16618 2.38,0.54c0.67182,0.37724 1.20993,0.95379 1.54,1.65c0.41029,0.88171 0.60563,1.84816 0.57,2.82v8.48h-2v-8.3c0.05751,-0.89247 -0.23684,-1.77196 -0.82,-2.45c-0.5944,-0.59866 -1.41799,-0.91205 -2.26,-0.86c-0.62214,-0.00945 -1.23699,0.13481 -1.79,0.42c-0.52424,0.26566 -0.95889,0.67946 -1.25,1.19c-0.3243,0.61511 -0.47958,1.30526 -0.45,2z" fill="#231f20"/><path d="M107.81,174.6639c-1.15816,0.0337 -2.30223,-0.26097 -3.3,-0.85c-0.92863,-0.56656 -1.66955,-1.39444 -2.13,-2.38c-0.52105,-1.12009 -0.77765,-2.34496 -0.75,-3.58c-0.02424,-1.23795 0.23216,-2.46531 0.75,-3.59c0.45347,-0.99361 1.17784,-1.83928 2.09,-2.44c0.93694,-0.59667 2.02944,-0.90285 3.14,-0.88c0.68129,0.00688 1.35686,0.1251 2,0.35c0.70349,0.2358 1.34568,0.62522 1.88,1.14c0.59109,0.55564 1.0462,1.24001 1.33,2c0.34921,1.00563 0.51517,2.06576 0.49,3.13v0.87h-10.23v-1.75h8.15c0.01654,-0.69237 -0.13441,-1.3785 -0.44,-2c-0.28375,-0.57333 -0.71963,-1.05763 -1.26,-1.4c-1.2554,-0.68385 -2.78033,-0.64573 -4,0.1c-0.57917,0.39101 -1.04761,0.9249 -1.36,1.55c-0.31166,0.64186 -0.47241,1.34649 -0.47,2.06v1.18c-0.0285,0.87575 0.14964,1.74591 0.52,2.54c0.31791,0.66068 0.82644,1.21099 1.46,1.58c0.65868,0.37011 1.40464,0.5566 2.16,0.54c0.49606,0.00488 0.98947,-0.07285 1.46,-0.23c0.42265,-0.14449 0.8084,-0.38004 1.13,-0.69c0.3243,-0.3255 0.57345,-0.71802 0.73,-1.15l2,0.55c-0.19535,0.655 -0.53733,1.25689 -1,1.76c-0.51601,0.51568 -1.13663,0.91466 -1.82,1.17c-0.80816,0.30259 -1.66742,0.44523 -2.53,0.42z" fill="#231f20"/><path d="M128.65,174.6639c-1.13357,0.03135 -2.25089,-0.27495 -3.21,-0.88c-0.90668,-0.59983 -1.62723,-1.44163 -2.08,-2.43c-0.97297,-2.26667 -0.97297,-4.83333 0,-7.1c0.46049,-0.98947 1.18772,-1.83097 2.1,-2.43c0.93694,-0.59667 2.02944,-0.90285 3.14,-0.88c0.86772,-0.01094 1.72749,0.16647 2.52,0.52c0.72176,0.32711 1.35322,0.82472 1.84,1.45c0.48077,0.63715 0.7875,1.38842 0.89,2.18h-2c-0.16654,-0.62386 -0.51458,-1.18421 -1,-1.61c-0.60487,-0.49223 -1.37127,-0.74174 -2.15,-0.7c-0.74275,-0.01595 -1.47244,0.19702 -2.09,0.61c-0.61683,0.43871 -1.09837,1.0415 -1.39,1.74c-0.34397,0.82969 -0.51086,1.72208 -0.49,2.62c-0.02066,0.91643 0.14255,1.82771 0.48,2.68c0.28776,0.70892 0.76951,1.32238 1.39,1.77c1.05096,0.69082 2.3741,0.82163 3.54,0.35c0.42388,-0.17283 0.80082,-0.44354 1.1,-0.79c0.30421,-0.35972 0.52302,-0.78365 0.64,-1.24h2c-0.1113,0.76098 -0.40272,1.48437 -0.85,2.11c-0.4647,0.63414 -1.07983,1.14274 -1.79,1.48c-0.8082,0.38409 -1.69547,0.5725 -2.59,0.55z" fill="#231f20"/><path d="M138.92,156.6939v17.74h-2v-17.74z" fill="#231f20"/><path d="M148,174.6639c-2.24272,0.07671 -4.31392,-1.19515 -5.26,-3.23c-0.52187,-1.12336 -0.77848,-2.35167 -0.75,-3.59c-0.02846,-1.248 0.22805,-2.48604 0.75,-3.62c0.9627,-2.0329 3.01067,-3.32906 5.26,-3.32906c2.24933,0 4.29729,1.29615 5.26,3.32906c0.52195,1.13396 0.77846,2.372 0.75,3.62c0.02848,1.23833 -0.22813,2.46664 -0.75,3.59c-0.94009,2.04266 -3.01259,3.3232 -5.26,3.25zM148,172.8339c0.80837,0.03374 1.60345,-0.21362 2.25,-0.7c0.59665,-0.47991 1.04698,-1.11731 1.3,-1.84c0.28913,-0.7912 0.43475,-1.62764 0.43,-2.47c0.00381,-0.84553 -0.14176,-1.6851 -0.43,-2.48c-0.25538,-0.72706 -0.70497,-1.37033 -1.3,-1.86c-0.64655,-0.48637 -1.44163,-0.73373 -2.25,-0.7c-0.80552,-0.0356 -1.59808,0.21207 -2.24,0.7c-0.59796,0.48908 -1.05093,1.13224 -1.31,1.86c-0.28504,0.79546 -0.42723,1.63505 -0.42,2.48c-0.00795,0.84175 0.13427,1.67818 0.42,2.47c0.25673,0.72339 0.71045,1.36068 1.31,1.84c0.64192,0.48792 1.43448,0.73559 2.24,0.7z" fill="#231f20"/><path d="M162.52,174.6639c-2.27613,0.08913 -4.37484,-1.22405 -5.29,-3.31c-0.98609,-2.26395 -0.98609,-4.83605 0,-7.1c0.45686,-0.98878 1.1807,-1.83037 2.09,-2.43c0.93767,-0.59502 2.02966,-0.90106 3.14,-0.88c0.86772,-0.01094 1.72749,0.16647 2.52,0.52c0.72324,0.32466 1.35524,0.8227 1.84,1.45c0.48489,0.6348 0.79208,1.38722 0.89,2.18h-2c-0.16253,-0.62558 -0.51126,-1.18703 -1,-1.61c-0.60134,-0.49157 -1.3644,-0.74116 -2.14,-0.7c-0.74319,-0.01925 -1.47384,0.19401 -2.09,0.61c-0.61871,0.43672 -1.10073,1.04011 -1.39,1.74c-0.34768,0.82887 -0.518,1.72135 -0.5,2.62c-0.02251,0.91751 0.14429,1.82981 0.49,2.68c0.28407,0.70822 0.76244,1.32179 1.38,1.77c1.05464,0.69091 2.38074,0.82165 3.55,0.35c0.42388,-0.17283 0.80082,-0.44354 1.1,-0.79c0.30121,-0.36028 0.51663,-0.78428 0.63,-1.24h2c-0.2155,1.56643 -1.20899,2.91743 -2.64,3.59c-0.80492,0.38327 -1.68876,0.57168 -2.58,0.55z" fill="#231f20"/><path d="M170.7,174.4339v-17.74h2v17.74zM172.61,169.5939v-2.52h0.42l5.8,-5.91h2.52l-6.18,6.25h-0.25zM179.14,174.4339l-5.22,-6.61l1.48,-1.39l6.33,8z" fill="#231f20"/><path d="M193.79,174.4339l-4,-13.27h2.13l2.87,10.16h0.13l2.84,-10.16h2.16l2.8,10.12h0.14l2.87,-10.12h2.14l-4,13.27h-2l-2.95,-10.24h-0.21l-2.92,10.24z" fill="#231f20"/><path d="M211.58,158.9139c-0.37372,-0.00269 -0.73196,-0.14957 -1,-0.41c-0.27943,-0.25673 -0.43589,-0.62059 -0.43,-1c-0.00984,-0.38019 0.1473,-0.74561 0.43,-1c0.57476,-0.54477 1.47525,-0.54477 2.05,0c0.2827,0.25439 0.43984,0.61981 0.43,1c0.00589,0.37941 -0.15057,0.74327 -0.43,1c-0.281,0.27172 -0.65923,0.4194 -1.05,0.41zM210.58,174.3939v-13.27h2v13.31z" fill="#231f20"/><path d="M218.36,156.6939v17.74h-2v-17.74z" fill="#231f20"/><path d="M224.13,156.6939v17.74h-2v-17.74z" fill="#231f20"/><path d="M234.98,174.4339v-17.74h2v6.53h0.17c0.15,-0.23 0.36,-0.52 0.63,-0.88c0.3087,-0.41054 0.70057,-0.75129 1.15,-1c0.64004,-0.31294 1.34822,-0.46076 2.06,-0.43c1.04503,-0.0199 2.07221,0.27258 2.95,0.84c0.87756,0.58909 1.57084,1.4141 2,2.38c0.49685,1.14428 0.7391,2.38285 0.71,3.63c0.02788,1.25351 -0.21426,2.49835 -0.71,3.65c-0.431,0.96474 -1.1239,1.78929 -2,2.38c-0.87058,0.56694 -1.89128,0.85957 -2.93,0.84c-0.69196,0.02412 -1.3791,-0.12362 -2,-0.43c-0.45822,-0.2482 -0.86001,-0.5887 -1.18,-1c-0.28,-0.37 -0.49,-0.67 -0.64,-0.91h-0.27v2zM236.98,167.7939c-0.01434,0.89938 0.13474,1.79389 0.44,2.64c0.2579,0.70358 0.70414,1.32278 1.29,1.79c1.26567,0.87908 2.94433,0.87908 4.21,0c0.5967,-0.4757 1.04726,-1.10995 1.3,-1.83c0.56686,-1.65275 0.56686,-3.44725 0,-5.1c-0.24469,-0.7325 -0.6962,-1.3785 -1.3,-1.86c-1.28834,-0.85275 -2.96166,-0.85275 -4.25,0c-0.5847,0.44946 -1.02879,1.05662 -1.28,1.75c-0.28866,0.82541 -0.42751,1.69575 -0.41,2.57z" fill="#231f20"/><path d="M255.37,174.6639c-1.16118,0.03234 -2.30808,-0.26218 -3.31,-0.85c-0.92746,-0.57092 -1.6705,-1.3973 -2.14,-2.38c-0.52105,-1.12009 -0.77766,-2.34496 -0.75,-3.58c-0.02425,-1.23795 0.23217,-2.46531 0.75,-3.59c0.45666,-0.99158 1.18034,-1.83645 2.09,-2.44c0.93767,-0.59502 2.02966,-0.90106 3.14,-0.88c0.69792,0.00322 1.39055,0.12147 2.05,0.35c0.691,0.24354 1.32182,0.63226 1.85,1.14c0.58477,0.55895 1.03596,1.24257 1.32,2c0.35397,1.00444 0.52006,2.06544 0.49,3.13v0.87h-10.23v-1.75h8.16c0.01343,-0.6932 -0.14095,-1.37936 -0.45,-2c-0.27747,-0.57756 -0.71475,-1.06343 -1.26,-1.4c-0.58074,-0.34272 -1.24587,-0.51592 -1.92,-0.5c-0.74483,-0.01902 -1.47765,0.19035 -2.1,0.6c-0.58101,0.38893 -1.04992,0.92336 -1.36,1.55c-0.3196,0.63943 -0.48404,1.34516 -0.48,2.06v1.18c-0.02849,0.87575 0.14964,1.74591 0.52,2.54c0.32093,0.65863 0.82872,1.20815 1.46,1.58c0.66198,0.37094 1.41137,0.55743 2.17,0.54c0.49279,0.00489 0.98291,-0.07285 1.45,-0.23c0.42336,-0.14297 0.80942,-0.37872 1.13,-0.69c0.32829,-0.32229 0.57806,-0.71576 0.73,-1.15l2,0.55c-0.18745,0.65834 -0.53042,1.26196 -1,1.76c-0.51601,0.51568 -1.13664,0.91466 -1.82,1.17c-0.7953,0.29871 -1.64072,0.44131 -2.49,0.42z" fill="#231f20"/><path d="M269.33,179.6439c-0.86205,0.01776 -1.72089,-0.11073 -2.54,-0.38c-1.19696,-0.39525 -2.21428,-1.20344 -2.87,-2.28l1.63,-1.14c0.21813,0.28914 0.45181,0.56622 0.7,0.83c0.32889,0.34707 0.7231,0.62573 1.16,0.82c0.61386,0.25518 1.27566,0.37458 1.94,0.35c0.94489,0.03704 1.87584,-0.23697 2.65,-0.78c0.71486,-0.59466 1.08925,-1.50444 1,-2.43v-2.7h-0.17c-0.15334,0.24 -0.36334,0.54 -0.63,0.9c-0.32749,0.38808 -0.72852,0.70755 -1.18,0.94c-0.6435,0.30096 -1.3503,0.44163 -2.06,0.41c-1.01169,0.01691 -2.00838,-0.24611 -2.88,-0.76c-0.86327,-0.53148 -1.55707,-1.29812 -2,-2.21c-0.52486,-1.10075 -0.77859,-2.31114 -0.74,-3.53c-0.02831,-1.22227 0.21772,-2.43534 0.72,-3.55c0.42827,-0.95844 1.12237,-1.77399 2,-2.35c0.89224,-0.57651 1.93812,-0.86935 3,-0.84c0.71172,-0.02992 1.41969,0.11786 2.06,0.43c0.45511,0.24861 0.85355,0.58916 1.17,1c0.27,0.36 0.49,0.65 0.64,0.88h0.2v-2.1h2v13.62c0.04805,0.98526 -0.2219,1.95986 -0.77,2.78c-0.5179,0.72044 -1.23848,1.27045 -2.07,1.58c-0.94471,0.35869 -1.94973,0.53186 -2.96,0.51zM269.26,172.3539c0.7303,0.02297 1.4509,-0.17198 2.07,-0.56c0.584,-0.39705 1.0338,-0.96193 1.29,-1.62c0.31036,-0.80306 0.45986,-1.65929 0.44,-2.52c0.0183,-0.86297 -0.12763,-1.72154 -0.43,-2.53c-0.25915,-0.67255 -0.70281,-1.25833 -1.28,-1.69c-0.61006,-0.42979 -1.34426,-0.64759 -2.09,-0.62c-0.77249,-0.03148 -1.53317,0.19743 -2.16,0.65c-0.58112,0.45709 -1.02419,1.06631 -1.28,1.76c-0.29647,0.78574 -0.44234,1.62028 -0.43,2.46c-0.01697,0.83358 0.1291,1.66244 0.43,2.44c0.26467,0.66684 0.71604,1.24321 1.3,1.66c0.63709,0.40704 1.38485,0.60621 2.14,0.57z" fill="#231f20"/><path d="M279.83,158.9139c-0.37435,0.00049 -0.73374,-0.14687 -1,-0.41c-0.28384,-0.25358 -0.44121,-0.61955 -0.43,-1c-0.01403,-0.38097 0.14384,-0.7481 0.43,-1c0.26626,-0.26313 0.62565,-0.41049 1,-0.41c0.37351,0.00371 0.73138,0.15045 1,0.41c0.27901,0.25622 0.43238,0.62139 0.42,1c0.00974,0.37811 -0.14319,0.74224 -0.42,1c-0.26862,0.25955 -0.62649,0.40629 -1,0.41zM278.83,174.3939v-13.27h2v13.31z" fill="#231f20"/><path d="M286.61,166.4339v8h-2v-13.31h2v2.07h0.17c0.30505,-0.66966 0.79846,-1.23605 1.42,-1.63c0.73915,-0.44017 1.59046,-0.6556 2.45,-0.62c0.81986,-0.01295 1.63033,0.17593 2.36,0.55c0.68244,0.37761 1.23098,0.95759 1.57,1.66c0.39988,0.87773 0.59154,1.83599 0.56,2.8v8.48h-2v-8.3c0.05237,-0.88705 -0.23755,-1.76038 -0.81,-2.44c-0.58265,-0.59868 -1.39586,-0.91594 -2.23,-0.87c-0.60631,-0.01047 -1.20524,0.13409 -1.74,0.42c-0.51138,0.28422 -0.92849,0.71176 -1.2,1.23c-0.34929,0.59497 -0.53877,1.27016 -0.55,1.96z" fill="#231f20"/><path d="M311.42,161.1239v1.72h-6.88v-1.72zM306.54,157.9439h2v12.64c-0.02667,0.44849 0.06289,0.89627 0.26,1.3c0.14592,0.25808 0.37507,0.45903 0.65,0.57c0.27402,0.09186 0.561,0.13912 0.85,0.14c0.18624,0.01794 0.37376,0.01794 0.56,0l0.34,-0.06l0.42,1.83c-0.14,0 -0.33,0.1 -0.58,0.16c-0.30998,0.05721 -0.62481,0.084 -0.94,0.08c-0.58294,-0.00442 -1.15854,-0.13045 -1.69,-0.37c-0.54845,-0.24905 -1.02115,-0.63894 -1.37,-1.13c-0.37678,-0.56759 -0.56569,-1.23922 -0.54,-1.92z" fill="#231f20"/><path d="M315.53,158.9139c-0.37351,-0.00371 -0.73138,-0.15045 -1,-0.41c-0.27681,-0.25776 -0.42974,-0.62189 -0.42,-1c-0.01238,-0.37861 0.14099,-0.74378 0.42,-1c0.26862,-0.25955 0.62649,-0.40629 1,-0.41c0.37435,-0.00049 0.73374,0.14687 1,0.41c0.28616,0.2519 0.44403,0.61903 0.43,1c0.01121,0.38045 -0.14616,0.74642 -0.43,1c-0.26626,0.26313 -0.62565,0.41049 -1,0.41zM314.53,174.3939v-13.27h2v13.31z" fill="#231f20"/><path d="M325.65,174.6639c-2.27254,0.08495 -4.36619,-1.22754 -5.28,-3.31c-0.98609,-2.26395 -0.98609,-4.83605 0,-7.1c0.45686,-0.98878 1.1807,-1.83037 2.09,-2.43c0.93694,-0.59667 2.02944,-0.90285 3.14,-0.88c0.86772,-0.01094 1.72749,0.16647 2.52,0.52c0.72176,0.32711 1.35322,0.82472 1.84,1.45c0.48489,0.6348 0.79208,1.38722 0.89,2.18h-2c-0.16253,-0.62558 -0.51126,-1.18703 -1,-1.61c-0.6044,-0.49308 -1.37115,-0.74272 -2.15,-0.7c-0.73989,-0.01782 -1.46693,0.1954 -2.08,0.61c-0.6187,0.43672 -1.10073,1.04011 -1.39,1.74c-0.35235,0.82745 -0.52286,1.72094 -0.5,2.62c-0.02251,0.91751 0.14429,1.82981 0.49,2.68c0.28166,0.70961 0.76051,1.32379 1.38,1.77c0.61659,0.42507 1.35124,0.64546 2.1,0.63c0.49746,0.00758 0.99113,-0.08774 1.45,-0.28c0.42102,-0.17285 0.7947,-0.44369 1.09,-0.79c0.30784,-0.35728 0.52709,-0.78211 0.64,-1.24h2c-0.21549,1.56643 -1.20899,2.91743 -2.64,3.59c-0.8082,0.38409 -1.69546,0.5725 -2.59,0.55z" fill="#231f20"/><path d="M333.84,174.4339v-17.74h2v17.74zM335.74,169.5939v-2.52h0.41l5.77,-5.95h2.52l-6.18,6.25h-0.18zM342.27,174.4339l-5.18,-6.57l1.45,-1.43l6.38,8z" fill="#231f20"/><path d="M348.11,158.9139c-0.37372,-0.00269 -0.73196,-0.14957 -1,-0.41c-0.27943,-0.25673 -0.43588,-0.62059 -0.43,-1c-0.00984,-0.38019 0.14729,-0.74561 0.43,-1c0.57475,-0.54477 1.47525,-0.54477 2.05,0c0.28271,0.25439 0.43984,0.61981 0.43,1c0.00588,0.37941 -0.15058,0.74327 -0.43,1c-0.281,0.27172 -0.65922,0.4194 -1.05,0.41zM347.11,174.3939v-13.27h2v13.31z" fill="#231f20"/><path d="M354.92,166.4339v8h-2v-13.31h2v2.07h0.17c0.30505,-0.66966 0.79846,-1.23605 1.42,-1.63c0.73915,-0.44017 1.59046,-0.6556 2.45,-0.62c0.82018,-0.01587 1.63134,0.17317 2.36,0.55c0.68244,0.37761 1.23098,0.95759 1.57,1.66c0.40447,0.87624 0.59634,1.8356 0.56,2.8v8.48h-2v-8.3c0.05237,-0.88705 -0.23754,-1.76038 -0.81,-2.44c-0.58265,-0.59868 -1.39586,-0.91594 -2.23,-0.87c-0.60631,-0.01047 -1.20524,0.13409 -1.74,0.42c-0.51138,0.28422 -0.92849,0.71176 -1.2,1.23c-0.34929,0.59497 -0.53877,1.27016 -0.55,1.96z" fill="#231f20"/><path d="M372.44,179.6439c-0.86199,0.0168 -1.72066,-0.11166 -2.54,-0.38c-1.20366,-0.3876 -2.22656,-1.19739 -2.88,-2.28l1.62,-1.14c0.19,0.24 0.42,0.52 0.7,0.83c0.32889,0.34707 0.7231,0.62573 1.16,0.82c0.61413,0.25427 1.27573,0.37363 1.94,0.35c0.94508,0.03854 1.8765,-0.23562 2.65,-0.78c0.73205,-0.58519 1.12554,-1.49585 1.05,-2.43v-2.7h-0.17c-0.15,0.24 -0.37,0.54 -0.64,0.9c-0.32128,0.39038 -0.71957,0.71037 -1.17,0.94c-0.64387,0.29983 -1.35039,0.44045 -2.06,0.41c-1.01488,0.0172 -2.01486,-0.24577 -2.89,-0.76c-0.8608,-0.53444 -1.55387,-1.30029 -2,-2.21c-0.52013,-1.10233 -0.77362,-2.31158 -0.74,-3.53c-0.02831,-1.22227 0.21772,-2.43534 0.72,-3.55c0.42923,-0.95783 1.12311,-1.77315 2,-2.35c0.87728,-0.56854 1.90482,-0.86113 2.95,-0.84c0.71172,-0.02992 1.41968,0.11786 2.06,0.43c0.456,0.25144 0.85718,0.59142 1.18,1c0.27,0.36 0.48,0.65 0.63,0.88h0.21v-2.1h2v13.62c0.04314,0.9847 -0.22639,1.95781 -0.77,2.78c-0.51968,0.72288 -1.24422,1.27326 -2.08,1.58c-0.93531,0.35491 -1.92978,0.52801 -2.93,0.51zM372.37,172.3539c0.73332,0.02195 1.45682,-0.17284 2.08,-0.56c0.57816,-0.40082 1.02379,-0.96481 1.28,-1.62c0.31529,-0.80168 0.46497,-1.65891 0.44,-2.52c0.0183,-0.86297 -0.12763,-1.72154 -0.43,-2.53c-0.25574,-0.67444 -0.70006,-1.26111 -1.28,-1.69c-1.28681,-0.84572 -2.95319,-0.84572 -4.24,0c-0.5916,0.45138 -1.0425,1.06184 -1.3,1.76c-0.29647,0.78574 -0.44234,1.62028 -0.43,2.46c-0.01378,0.83424 0.13569,1.66313 0.44,2.44c0.26095,0.66614 0.70894,1.24262 1.29,1.66c0.63698,0.41838 1.38842,0.62808 2.15,0.6z" fill="#231f20"/><path d="M392.66,174.7039c-0.78947,0.01158 -1.57164,-0.15237 -2.29,-0.48c-1.42046,-0.61995 -2.31138,-2.05179 -2.24,-3.6c-0.02925,-0.64694 0.12688,-1.28877 0.45,-1.85c0.29399,-0.47283 0.70805,-0.85928 1.2,-1.12c0.52195,-0.28025 1.08077,-0.4856 1.66,-0.61c0.61,-0.14 1.22,-0.24 1.84,-0.33l2,-0.23c0.38403,-0.02453 0.76029,-0.11944 1.11,-0.28c0.23545,-0.14743 0.37012,-0.41293 0.35,-0.69v-0.08c0.05131,-0.73452 -0.20183,-1.4578 -0.7,-2c-0.57373,-0.51341 -1.33243,-0.76993 -2.1,-0.71c-0.81337,-0.04825 -1.6195,0.17704 -2.29,0.64c-0.48957,0.35436 -0.8873,0.82066 -1.16,1.36l-1.94,-0.69c0.29482,-0.72432 0.76571,-1.36363 1.37,-1.86c0.5593,-0.44702 1.20679,-0.77077 1.9,-0.95c1.13907,-0.32703 2.3412,-0.36825 3.5,-0.12c0.57263,0.10305 1.12162,0.30977 1.62,0.61c0.55383,0.34263 1.00339,0.83022 1.3,1.41c0.38211,0.78304 0.56095,1.64967 0.52,2.52v8.79h-2v-1.8h-0.1c-0.1777,0.34262 -0.41085,0.65347 -0.69,0.92c-0.37341,0.35856 -0.81105,0.64353 -1.29,0.84c-0.64481,0.2413 -1.3325,0.34684 -2.02,0.31zM392.97,172.8739c0.69711,0.01707 1.38657,-0.1484 2,-0.48c0.52549,-0.28583 0.9616,-0.71155 1.26,-1.23c0.28327,-0.47822 0.43185,-1.02418 0.43,-1.58v-1.86c-0.16482,0.13766 -0.36031,0.23369 -0.57,0.28c-0.32914,0.08866 -0.663,0.15877 -1,0.21c-0.38,0.06 -0.74,0.12 -1.09,0.16l-0.87,0.11c-0.50225,0.06526 -0.99759,0.17571 -1.48,0.33c-0.41791,0.1308 -0.79619,0.36465 -1.1,0.68c-0.29455,0.33982 -0.44519,0.78099 -0.42,1.23c-0.0377,0.63817 0.26219,1.24932 0.79,1.61c0.61108,0.38759 1.32727,0.57625 2.05,0.54z" fill="#231f20"/><path d="M408.24,161.1239v1.72h-6.87v-1.72zM403.37,157.9439h2v12.64c-0.02932,0.44759 0.05676,0.89521 0.25,1.3c0.14716,0.26085 0.3805,0.46238 0.66,0.57c0.27384,0.09254 0.56094,0.13982 0.85,0.14c0.18289,0.01799 0.36711,0.01799 0.55,0l0.35,-0.06l0.41,1.83c-0.14,0 -0.33,0.1 -0.58,0.16c-0.30992,0.05766 -0.6248,0.08446 -0.94,0.08c-0.58284,-0.0053 -1.15826,-0.13128 -1.69,-0.37c-0.53214,-0.26774 -0.98406,-0.67137 -1.31,-1.17c-0.37678,-0.56759 -0.56569,-1.23922 -0.54,-1.92z" fill="#231f20"/><path d="M86.68,190.3139v1.73h-6.87v-1.73zM81.81,187.1339h2v12.65c-0.02805,0.44428 0.05802,0.88836 0.25,1.29c0.14716,0.26086 0.3805,0.46238 0.66,0.57c0.27384,0.09254 0.56094,0.13983 0.85,0.14c0.18287,0.01838 0.36713,0.01838 0.55,0l0.35,-0.06l0.45,1.79c-0.18564,0.06781 -0.37619,0.1213 -0.57,0.16c-0.32981,0.06012 -0.66483,0.08692 -1,0.08c-0.56294,0.0082 -1.12144,-0.10078 -1.64,-0.32c-0.54769,-0.24594 -1.0179,-0.63663 -1.36,-1.13c-0.37678,-0.56758 -0.56569,-1.23922 -0.54,-1.92z" fill="#231f20"/><path d="M92.07,195.6039v8h-2v-17.71h2v6.54h0.18c0.29515,-0.66986 0.78237,-1.23712 1.4,-1.63c0.75597,-0.4429 1.625,-0.65494 2.5,-0.61c0.82576,-0.01935 1.64345,0.16618 2.38,0.54c0.68669,0.37067 1.23943,0.9479 1.58,1.65c0.41029,0.88171 0.60564,1.84815 0.57,2.82v8.43h-2v-8.34c0.06078,-0.89289 -0.23399,-1.77359 -0.82,-2.45c-0.59762,-0.59468 -1.41788,-0.91044 -2.26,-0.87c-0.62214,-0.00946 -1.237,0.13481 -1.79,0.42c-0.52761,0.28061 -0.9594,0.71239 -1.24,1.24c-0.33875,0.60057 -0.51134,1.28057 -0.5,1.97z" fill="#231f20"/><path d="M109.97,203.8639c-1.15914,0.03069 -2.30327,-0.26748 -3.3,-0.86c-0.93119,-0.56643 -1.67536,-1.39406 -2.14,-2.38c-0.51276,-1.11896 -0.76574,-2.33942 -0.74,-3.57c-0.02343,-1.24003 0.22934,-2.46975 0.74,-3.6c0.46028,-0.99227 1.18735,-1.83706 2.1,-2.44c0.93803,-0.59316 2.03046,-0.89583 3.14,-0.87c0.68075,0.00348 1.35635,0.11833 2,0.34c0.68608,0.23808 1.31341,0.61992 1.84,1.12c0.58692,0.55715 1.03846,1.2413 1.32,2c0.35781,1.00368 0.52732,2.06479 0.5,3.13v0.87h-10.19v-1.73h8.15c0.01535,-0.69226 -0.13553,-1.3781 -0.44,-2c-0.28397,-0.57053 -0.72001,-1.05155 -1.26,-1.39c-0.57908,-0.34772 -1.2447,-0.52453 -1.92,-0.51c-0.74814,-0.02043 -1.48456,0.18897 -2.11,0.6c-0.58234,0.39169 -1.05137,0.9297 -1.36,1.56c-0.30879,0.6215 -0.46965,1.30601 -0.47,2v1.18c-0.0285,0.87575 0.14965,1.74591 0.52,2.54c0.31422,0.65998 0.81936,1.2104 1.45,1.58c0.66287,0.36867 1.41165,0.555 2.17,0.54c0.49641,0.00982 0.99066,-0.06804 1.46,-0.23c0.86888,-0.29643 1.55419,-0.97438 1.86,-1.84l2,0.55c-0.18994,0.65729 -0.5326,1.26036 -1,1.76c-0.52915,0.54495 -1.17551,0.96218 -1.89,1.22c-0.77614,0.29346 -1.60029,0.4393 -2.43,0.43z" fill="#231f20"/><path d="M134.82,193.2839l-1.83,0.52c-0.12714,-0.31925 -0.29884,-0.6189 -0.51,-0.89c-0.23702,-0.31208 -0.54573,-0.56247 -0.9,-0.73c-0.45882,-0.20385 -0.95832,-0.29964 -1.46,-0.28c-0.70836,-0.0232 -1.40668,0.17233 -2,0.56c-0.49747,0.29653 -0.80445,0.83088 -0.81,1.41c-0.01923,0.46719 0.18958,0.91465 0.56,1.2c0.51978,0.36071 1.10894,0.60931 1.73,0.73l2,0.49c0.98649,0.18617 1.90305,0.63926 2.65,1.31c0.58653,0.61099 0.90042,1.43359 0.87,2.28c-0.00124,0.71839 -0.22865,1.41815 -0.65,2c-0.47086,0.62552 -1.09875,1.11541 -1.82,1.42c-0.85763,0.35893 -1.78042,0.536 -2.71,0.52c-1.18389,0.04684 -2.35454,-0.26324 -3.36,-0.89c-0.8995,-0.56019 -1.53153,-1.46309 -1.75,-2.5l1.94,-0.48c0.13572,0.64665 0.51077,1.21815 1.05,1.6c0.59561,0.38063 1.29376,0.56913 2,0.54c0.80234,0.04377 1.59767,-0.16995 2.27,-0.61c0.50846,-0.31371 0.82435,-0.86275 0.84,-1.46c0.00986,-0.43981 -0.1641,-0.86383 -0.48,-1.17c-0.42423,-0.36378 -0.93917,-0.60569 -1.49,-0.7l-2.21,-0.52c-1.00191,-0.17589 -1.93023,-0.6418 -2.67,-1.34c-0.57404,-0.6215 -0.87951,-1.44448 -0.85,-2.29c-0.01674,-0.71796 0.20479,-1.42125 0.63,-2c0.4483,-0.60043 1.04907,-1.07 1.74,-1.36c0.78865,-0.3404 1.6412,-0.50751 2.5,-0.49c1.09986,-0.06267 2.18963,0.23965 3.1,0.86c0.75586,0.57666 1.3204,1.36772 1.62,2.27z" fill="#231f20"/><path d="M143.92,190.3139v1.73h-6.88v-1.73zM139.04,187.1339h2v12.65c-0.02584,0.44522 0.06372,0.88956 0.26,1.29c0.14593,0.25808 0.37508,0.45903 0.65,0.57c0.27728,0.09257 0.56767,0.13985 0.86,0.14c0.18292,0.01754 0.36709,0.01754 0.55,0l0.34,-0.06l0.42,1.83c-0.18911,0.06761 -0.38297,0.12108 -0.58,0.16c-0.30998,0.05721 -0.62481,0.08401 -0.94,0.08c-0.57946,0.00311 -1.15269,-0.11973 -1.68,-0.36c-0.55053,-0.24571 -1.02405,-0.63626 -1.37,-1.13c-0.37679,-0.56758 -0.56569,-1.23922 -0.54,-1.92z" fill="#231f20"/><path d="M150.92,203.8939c-0.78947,0.01158 -1.57164,-0.15236 -2.29,-0.48c-1.42046,-0.61996 -2.31138,-2.05179 -2.24,-3.6c-0.02925,-0.64694 0.12687,-1.28878 0.45,-1.85c0.29399,-0.47283 0.70805,-0.85928 1.2,-1.12c0.5239,-0.2759 1.08211,-0.48103 1.66,-0.61c0.61,-0.13 1.22,-0.24 1.84,-0.32c0.81,-0.11 1.46,-0.19 2,-0.24c0.38477,-0.0197 0.76192,-0.11484 1.11,-0.28c0.23898,-0.14418 0.37483,-0.41201 0.35,-0.69v-0.07c0.04895,-0.7342 -0.20389,-1.45657 -0.7,-2c-0.57373,-0.51341 -1.33243,-0.76993 -2.1,-0.71c-0.81287,-0.04368 -1.61755,0.18121 -2.29,0.64c-0.49235,0.35827 -0.89321,0.82765 -1.17,1.37l-1.93,-0.69c0.29496,-0.73801 0.77339,-1.38855 1.39,-1.89c0.55736,-0.46115 1.20433,-0.80165 1.9,-1c0.65259,-0.17406 1.32461,-0.26479 2,-0.27c0.49348,0.0063 0.98542,0.0565 1.47,0.15c0.57443,0.10207 1.12421,0.31247 1.62,0.62c0.54903,0.34408 0.99747,0.82702 1.3,1.4c0.38295,0.78632 0.56177,1.65639 0.52,2.53v8.74h-2v-1.8h-0.1c-0.18026,0.3466 -0.41681,0.66087 -0.7,0.93c-0.37113,0.35412 -0.80527,0.63563 -1.28,0.83c-0.63446,0.27412 -1.31886,0.41372 -2.01,0.41zM151.23,202.0639c0.69711,0.01707 1.38657,-0.1484 2,-0.48c0.52703,-0.27918 0.96397,-0.70225 1.26,-1.22c0.2819,-0.4788 0.43038,-1.02438 0.43,-1.58v-1.87c-0.16248,0.14123 -0.35891,0.23773 -0.57,0.28c-0.32889,0.09225 -0.66276,0.1657 -1,0.22l-1.1,0.15l-0.86,0.11c-0.50225,0.06526 -0.99759,0.17571 -1.48,0.33c-0.41617,0.13457 -0.79358,0.36789 -1.1,0.68c-0.29334,0.34446 -0.44362,0.78818 -0.42,1.24c-0.03612,0.6351 0.2638,1.24255 0.79,1.6c0.60258,0.38162 1.30738,0.57003 2.02,0.54z" fill="#231f20"/><path d="M160.7,203.5839v-13.27h2v2h0.14c0.24679,-0.66145 0.70798,-1.22122 1.31,-1.59c0.63689,-0.41252 1.38123,-0.62817 2.14,-0.62h0.57h0.51v2.07l-0.48,-0.08c-0.25459,-0.041 -0.51212,-0.06107 -0.77,-0.06c-0.59722,-0.00744 -1.18735,0.1298 -1.72,0.4c-0.49136,0.2533 -0.90318,0.63743 -1.19,1.11c-0.29992,0.47886 -0.45289,1.03512 -0.44,1.6v8.4z" fill="#231f20"/><path d="M176.35,190.3139v1.73h-6.87v-1.73zM171.48,187.1339h2v12.65c-0.02584,0.44522 0.06372,0.88956 0.26,1.29c0.14334,0.26017 0.37334,0.46186 0.65,0.57c0.27384,0.09254 0.56094,0.13983 0.85,0.14c0.18624,0.01794 0.37376,0.01794 0.56,0l0.34,-0.06l0.42,1.83c-0.18953,0.06627 -0.3833,0.11973 -0.58,0.16c-0.30998,0.05721 -0.62481,0.08401 -0.94,0.08c-0.58358,0.00142 -1.1604,-0.12486 -1.69,-0.37c-0.55053,-0.24571 -1.02405,-0.63626 -1.37,-1.13c-0.37679,-0.56758 -0.56569,-1.23922 -0.54,-1.92z" fill="#231f20"/><path d="M191.66,203.8639c-2.24311,0.06645 -4.30927,-1.2126 -5.25,-3.25c-1.00764,-2.3012 -1.00764,-4.91881 0,-7.22c0.97266,-2.02352 3.02249,-3.30712 5.26763,-3.29858c2.24514,0.00854 4.28515,1.30772 5.24237,3.33858c1.00764,2.3012 1.00764,4.9188 0,7.22c-0.94835,2.03533 -3.01544,3.31253 -5.26,3.25zM191.66,202.0239c0.80837,0.03373 1.60345,-0.21363 2.25,-0.7c0.60067,-0.47611 1.0519,-1.11478 1.3,-1.84c0.29385,-0.78993 0.43962,-1.62725 0.43,-2.47c0.00769,-0.84586 -0.138,-1.6861 -0.43,-2.48c-0.2528,-0.72559 -0.70301,-1.36627 -1.3,-1.85c-0.64285,-0.4945 -1.43975,-0.74598 -2.25,-0.71c-0.80732,-0.03708 -1.60145,0.21464 -2.24,0.71c-0.59989,0.48315 -1.05348,1.12371 -1.31,1.85c-0.28403,0.79572 -0.42618,1.63512 -0.42,2.48c-0.00795,0.84176 0.13427,1.67818 0.42,2.47c0.25432,0.72464 0.70848,1.36254 1.31,1.84c0.64192,0.48793 1.43448,0.7356 2.24,0.7z" fill="#231f20"/><path d="M206.69,190.3139v1.73h-7.15v-1.73zM201.69,203.5839v-15.1c-0.02624,-0.67459 0.16288,-1.34004 0.54,-1.9c0.34441,-0.50393 0.82223,-0.9021 1.38,-1.15c0.56853,-0.25676 1.18622,-0.38644 1.81,-0.38c0.41002,-0.00959 0.8197,0.03071 1.22,0.12c0.24245,0.05318 0.47996,0.12677 0.71,0.22l-0.59,1.76l-0.42,-0.13c-0.23609,-0.0536 -0.47801,-0.07713 -0.72,-0.07c-0.53493,-0.05245 -1.06569,0.13423 -1.45,0.51c-0.32739,0.42481 -0.48751,0.95499 -0.45,1.49v14.63z" fill="#231f20"/><path d="M222.18,190.3139v1.73h-6.88v-1.73zM217.3,187.1339h2v12.65c-0.02584,0.44522 0.06372,0.88956 0.26,1.29c0.14593,0.25808 0.37508,0.45903 0.65,0.57c0.27384,0.09254 0.56094,0.13983 0.85,0.14c0.18624,0.01794 0.37376,0.01794 0.56,0l0.34,-0.06l0.42,1.83c-0.18911,0.06761 -0.38298,0.12108 -0.58,0.16c-0.30998,0.05721 -0.62481,0.08401 -0.94,0.08c-0.58358,0.00142 -1.1604,-0.12486 -1.69,-0.37c-0.55053,-0.24571 -1.02405,-0.63626 -1.37,-1.13c-0.37679,-0.56758 -0.56569,-1.23922 -0.54,-1.92z" fill="#231f20"/><path d="M227.57,195.6039v8h-2v-17.71h2v6.54h0.17c0.29818,-0.66795 0.78472,-1.23442 1.4,-1.63c0.75641,-0.44181 1.62511,-0.65377 2.5,-0.61c0.82576,-0.01935 1.64345,0.16618 2.38,0.54c0.68922,0.36733 1.24287,0.94551 1.58,1.65c0.41029,0.88171 0.60564,1.84815 0.57,2.82v8.43h-2v-8.34c0.05919,-0.89097 -0.23139,-1.7699 -0.81,-2.45c-0.59762,-0.59468 -1.41788,-0.91044 -2.26,-0.87c-0.62546,-0.01069 -1.24386,0.13359 -1.8,0.42c-0.52475,0.28445 -0.95555,0.71525 -1.24,1.24c-0.33002,0.60361 -0.49879,1.28213 -0.49,1.97z" fill="#231f20"/><path d="M245.47,203.8639c-1.16214,0.02931 -2.30911,-0.26869 -3.31,-0.86c-0.92598,-0.56974 -1.66609,-1.39672 -2.13,-2.38c-0.5216,-1.11636 -0.77827,-2.33812 -0.75,-3.57c-0.02542,-1.24127 0.23102,-2.47214 0.75,-3.6c0.45666,-0.99158 1.18033,-1.83645 2.09,-2.44c0.93804,-0.59316 2.03046,-0.89583 3.14,-0.87c0.6806,0.00525 1.35591,0.12005 2,0.34c0.68391,0.24267 1.31032,0.62397 1.84,1.12c0.58064,0.56238 1.03118,1.24502 1.32,2c0.35396,1.00444 0.52007,2.06544 0.49,3.13v0.87h-10.18v-1.73h8.19c0.01225,-0.69308 -0.14207,-1.37897 -0.45,-2c-0.28088,-0.57264 -0.7176,-1.05443 -1.26,-1.39c-0.57798,-0.3503 -1.24437,-0.5273 -1.92,-0.51c-0.74483,-0.01902 -1.47764,0.19035 -2.1,0.6c-0.58601,0.39035 -1.05859,0.92849 -1.37,1.56c-0.30415,0.62317 -0.46475,1.30659 -0.47,2v1.18c-0.02849,0.87575 0.14964,1.74591 0.52,2.54c0.31791,0.66068 0.82644,1.21099 1.46,1.58c0.66198,0.37094 1.41138,0.55743 2.17,0.54c0.49314,0.0099 0.98412,-0.06798 1.45,-0.23c0.86888,-0.29643 1.55419,-0.97438 1.86,-1.84l2,0.55c-0.18524,0.65927 -0.52849,1.2634 -1,1.76c-0.52915,0.54495 -1.17551,0.96218 -1.89,1.22c-0.78229,0.29639 -1.61354,0.44228 -2.45,0.43z" fill="#231f20"/><path d="M262.92,195.6039v8h-2v-13.29h2v2.12h0.17c0.31476,-0.66336 0.80603,-1.2273 1.42,-1.63c0.74021,-0.43668 1.59145,-0.64862 2.45,-0.61c0.82072,-0.02108 1.63316,0.16827 2.36,0.55c0.68669,0.37067 1.23943,0.94789 1.58,1.65c0.40105,0.88089 0.59273,1.84267 0.56,2.81v8.43h-2v-8.34c0.0555,-0.88745 -0.2348,-1.76192 -0.81,-2.44c-0.58012,-0.60348 -1.3941,-0.92469 -2.23,-0.88c-0.60631,-0.01047 -1.20524,0.1341 -1.74,0.42c-0.51367,0.28904 -0.93363,0.71941 -1.21,1.24c-0.34681,0.59966 -0.53604,1.27741 -0.55,1.97z" fill="#231f20"/><path d="M280.71,203.8639c-1.15914,0.03069 -2.30327,-0.26748 -3.3,-0.86c-0.93119,-0.56643 -1.67536,-1.39406 -2.14,-2.38c-0.51276,-1.11896 -0.76574,-2.33942 -0.74,-3.57c-0.02343,-1.24003 0.22935,-2.46975 0.74,-3.6c0.46028,-0.99227 1.18735,-1.83706 2.1,-2.44c0.93494,-0.59181 2.02377,-0.89445 3.13,-0.87c0.69752,-0.00185 1.39042,0.11306 2.05,0.34c0.68608,0.23808 1.31341,0.61992 1.84,1.12c0.58692,0.55715 1.03846,1.2413 1.32,2c0.35781,1.00368 0.52731,2.06479 0.5,3.13v0.87h-10.23v-1.73h8.15c0.01535,-0.69226 -0.13553,-1.3781 -0.44,-2c-0.28397,-0.57053 -0.72001,-1.05155 -1.26,-1.39c-0.58218,-0.34904 -1.25139,-0.52588 -1.93,-0.51c-0.74483,-0.01902 -1.47764,0.19035 -2.1,0.6c-0.58234,0.39169 -1.05137,0.9297 -1.36,1.56c-0.30879,0.6215 -0.46965,1.30601 -0.47,2v1.18c-0.0285,0.87575 0.14965,1.74591 0.52,2.54c0.31422,0.65998 0.81936,1.2104 1.45,1.58c0.66287,0.36867 1.41165,0.555 2.17,0.54c0.49641,0.00982 0.99066,-0.06804 1.46,-0.23c0.86888,-0.29643 1.55419,-0.97438 1.86,-1.84l2,0.55c-0.21443,0.68593 -0.59584,1.30787 -1.11,1.81c-0.50241,0.51332 -1.10951,0.91238 -1.78,1.17c-0.77614,0.29346 -1.60028,0.4393 -2.43,0.43z" fill="#231f20"/><path d="M290.49,190.3139l3.18,5.42l3.18,-5.42h2.35l-4.28,6.63l4.28,6.64h-2.35l-3.18,-5.15l-3.18,5.15h-2.35l4.22,-6.64l-4.22,-6.63z" fill="#231f20"/><path d="M307.92,190.3139v1.73h-6.87v-1.73zM303.05,187.1339h2v12.65c-0.02584,0.44522 0.06372,0.88956 0.26,1.29c0.14128,0.26183 0.37197,0.46412 0.65,0.57c0.27384,0.09254 0.56094,0.13983 0.85,0.14c0.18624,0.01794 0.37376,0.01794 0.56,0l0.34,-0.06l0.42,1.83c-0.18953,0.06627 -0.3833,0.11973 -0.58,0.16c-0.30998,0.05721 -0.62481,0.08401 -0.94,0.08c-0.58283,0.00456 -1.15963,-0.11831 -1.69,-0.36c-0.55054,-0.24571 -1.02405,-0.63626 -1.37,-1.13c-0.37678,-0.56758 -0.56569,-1.23922 -0.54,-1.92z" fill="#231f20"/><path d="M317.79,203.5839v-13.27h2v2.12h0.13c0.25698,-0.68015 0.72704,-1.25896 1.34,-1.65c0.6664,-0.40948 1.43823,-0.61461 2.22,-0.59c0.77326,-0.03279 1.53787,0.1732 2.19,0.59c0.60705,0.40813 1.08563,0.98035 1.38,1.65h0.14c0.33855,-0.68201 0.87076,-1.24901 1.53,-1.63c0.74458,-0.42589 1.59265,-0.63703 2.45,-0.61c1.08013,-0.03834 2.1298,0.36205 2.91,1.11c0.82653,0.95054 1.23403,2.19467 1.13,3.45v8.88h-2v-8.93c0.0759,-0.78652 -0.22003,-1.56334 -0.8,-2.1c-0.54253,-0.42133 -1.21322,-0.64372 -1.9,-0.63c-0.80816,-0.04913 -1.59736,0.25778 -2.16,0.84c-0.52512,0.58212 -0.8015,1.34666 -0.77,2.13v8.64h-2.08v-9.09c0.02724,-0.68593 -0.23812,-1.35115 -0.73,-1.83c-0.51479,-0.46952 -1.19379,-0.7174 -1.89,-0.69c-0.52317,-0.0031 -1.03644,0.14256 -1.48,0.42c-0.46585,0.28634 -0.84856,0.68973 -1.11,1.17c-0.2885,0.53016 -0.43329,1.12657 -0.42,1.73v8.29z" fill="#231f20"/><path d="M339.98,188.1039c-0.37351,-0.00371 -0.73138,-0.15045 -1,-0.41c-0.28271,-0.25439 -0.43984,-0.61982 -0.43,-1c-0.00588,-0.37941 0.15058,-0.74327 0.43,-1c0.57475,-0.54477 1.47525,-0.54477 2.05,0c0.28384,0.25357 0.44121,0.61955 0.43,1c0.01403,0.38097 -0.14384,0.7481 -0.43,1c-0.28038,0.27269 -0.65903,0.42054 -1.05,0.41zM338.98,203.5839v-13.27h2v13.27z" fill="#231f20"/><path d="M346.75,195.6039v8h-2v-13.29h2v2.12h0.17c0.3112,-0.66569 0.80325,-1.2305 1.42,-1.63c0.74021,-0.43668 1.59145,-0.64862 2.45,-0.61c0.82072,-0.02108 1.63316,0.16827 2.36,0.55c0.68636,0.36789 1.23664,0.94621 1.57,1.65c0.4091,0.87855 0.60443,1.84148 0.57,2.81v8.43h-2v-8.34c0.05701,-0.88937 -0.23745,-1.76556 -0.82,-2.44c-0.57627,-0.60303 -1.38708,-0.92442 -2.22,-0.88c-0.60645,-0.01182 -1.20572,0.13283 -1.74,0.42c-0.5165,0.28534 -0.93739,0.71666 -1.21,1.24c-0.34681,0.59966 -0.53604,1.27741 -0.55,1.97z" fill="#231f20"/><path d="M367.31,198.1539v-7.84h2v13.27h-2v-2.25h-0.14c-0.32049,0.6929 -0.82128,1.28695 -1.45,1.72c-0.73512,0.49072 -1.60687,0.73579 -2.49,0.7c-0.77233,0.01522 -1.5349,-0.17456 -2.21,-0.55c-0.66307,-0.38665 -1.19312,-0.96551 -1.52,-1.66c-0.39714,-0.87833 -0.5854,-1.83671 -0.55,-2.8v-8.43h2v8.29c-0.04296,0.84938 0.24772,1.68193 0.81,2.32c0.54273,0.57076 1.30275,0.88349 2.09,0.86c0.53988,-0.00835 1.07046,-0.14185 1.55,-0.39c0.5425,-0.26953 1.00204,-0.68069 1.33,-1.19c0.39631,-0.60891 0.59855,-1.32372 0.58,-2.05z" fill="#231f20"/><path d="M378.85,190.3139v1.73h-6.88v-1.73zM373.98,187.1339h2v12.65c-0.02805,0.44428 0.05802,0.88836 0.25,1.29c0.14716,0.26086 0.3805,0.46238 0.66,0.57c0.27384,0.09254 0.56094,0.13983 0.85,0.14c0.18289,0.01798 0.36711,0.01798 0.55,0l0.35,-0.06l0.41,1.83c-0.18869,0.06895 -0.38265,0.12246 -0.58,0.16c-0.30992,0.05766 -0.6248,0.08446 -0.94,0.08c-0.55565,-0.00855 -1.10363,-0.13108 -1.61,-0.36c-0.54769,-0.24594 -1.0179,-0.63663 -1.36,-1.13c-0.37678,-0.56758 -0.56568,-1.23922 -0.54,-1.92z" fill="#231f20"/><path d="M387.35,203.8639c-1.15914,0.03069 -2.30327,-0.26748 -3.3,-0.86c-0.92749,-0.56794 -1.66805,-1.39542 -2.13,-2.38c-0.51276,-1.11896 -0.76574,-2.33942 -0.74,-3.57c-0.02641,-1.24676 0.22643,-2.48363 0.74,-3.62c0.46191,-0.98819 1.18448,-1.83178 2.09,-2.44c0.94234,-0.59177 2.03752,-0.89425 3.15,-0.87c0.68075,0.00348 1.35634,0.11833 2,0.34c0.68608,0.23808 1.3134,0.61992 1.84,1.12c0.58692,0.55715 1.03846,1.2413 1.32,2c0.35781,1.00368 0.52731,2.06479 0.5,3.13v0.87h-10.2v-1.71h8.15c0.01535,-0.69226 -0.13553,-1.3781 -0.44,-2c-0.28397,-0.57053 -0.72001,-1.05155 -1.26,-1.39c-0.57907,-0.34772 -1.2447,-0.52453 -1.92,-0.51c-0.74813,-0.02043 -1.48456,0.18897 -2.11,0.6c-0.58234,0.39169 -1.05137,0.9297 -1.36,1.56c-0.30879,0.6215 -0.46965,1.30601 -0.47,2v1.18c-0.0285,0.87575 0.14964,1.74591 0.52,2.54c0.31422,0.65998 0.81936,1.2104 1.45,1.58c0.66287,0.36867 1.41165,0.555 2.17,0.54c0.49641,0.00982 0.99066,-0.06804 1.46,-0.23c0.86888,-0.29643 1.55419,-0.97438 1.86,-1.84l2,0.55c-0.20448,0.66208 -0.56452,1.26557 -1.05,1.76c-0.51477,0.53869 -1.14342,0.95551 -1.84,1.22c-0.77614,0.29346 -1.60028,0.4393 -2.43,0.43z" fill="#231f20"/><path d="M397.44,203.7239c-0.41101,0.00248 -0.80503,-0.16381 -1.09,-0.46c-0.29975,-0.28666 -0.46645,-0.68529 -0.46,-1.1c0.00639,-0.62471 0.38485,-1.18536 0.96185,-1.42486c0.577,-0.23951 1.24124,-0.11169 1.68815,0.32486c0.29482,0.29003 0.46058,0.68644 0.46,1.1c0.00163,0.27418 -0.07093,0.5437 -0.21,0.78c-0.14247,0.23224 -0.33776,0.42753 -0.57,0.57c-0.23529,0.14146 -0.50549,0.21421 -0.78,0.21z" fill="#231f20"/><text transform="translate(83.95787,100.48264) scale(0.5,0.5)" font-size="40" xml:space="preserve" fill="#9966ff" fill-rule="nonzero" stroke="none" stroke-width="1" stroke-linecap="butt" stroke-linejoin="miter" stroke-miterlimit="10" stroke-dasharray="" stroke-dashoffset="0" font-family="Sans Serif" font-weight="normal" text-anchor="start" style="mix-blend-mode: normal"><tspan x="0" dy="0">oopsie this isn't used anymore</tspan></text></g></g></svg>