<svg version="1.1" xmlns="http://www.w3.org/2000/svg" xmlns:xlink="http://www.w3.org/1999/xlink" width="6.77288" height="21.86933" viewBox="0,0,6.77288,21.86933"><g transform="translate(-236.61356,-169.06533)"><g data-paper-data="{&quot;isPaintingLayer&quot;:true}" fill="#231f20" fill-rule="nonzero" stroke="none" stroke-width="1" stroke-linecap="butt" stroke-linejoin="miter" stroke-miterlimit="10" stroke-dasharray="" stroke-dashoffset="0" style="mix-blend-mode: normal"><path d="M239.99516,175.79446c-0.90013,0.00875 -1.76431,-0.35283 -2.39,-1c-0.63452,-0.62742 -0.9916,-1.48266 -0.9916,-2.375c0,-0.89234 0.35708,-1.74758 0.9916,-2.375c1.31423,-1.3055 3.43577,-1.3055 4.75,0c1.11899,1.05869 1.3442,2.75615 0.54,4.07c-0.30129,0.50332 -0.72424,0.92283 -1.23,1.22c-0.50358,0.30443 -1.08156,0.46363 -1.67,0.46zM239.99516,190.93446c-0.89817,0.00001 -1.75941,-0.35748 -2.39357,-0.99351c-0.63416,-0.63603 -0.98909,-1.49833 -0.98643,-2.39649c-0.01004,-0.89164 0.35242,-1.74702 1,-2.36c0.62742,-0.63452 1.48266,-0.9916 2.375,-0.9916c0.89234,0 1.74758,0.35708 2.375,0.9916c1.12104,1.05351 1.34669,2.75009 0.54,4.06c-0.30129,0.50332 -0.72424,0.92283 -1.23,1.22c-0.50369,0.31374 -1.08663,0.47682 -1.68,0.47z"/></g></g></svg>