<svg xmlns="http://www.w3.org/2000/svg" id="Layer_1" data-name="Layer 1" viewBox="0 0 480 360"><defs><style>.cls-1{fill:#231f20;}</style></defs><polygon class="cls-1" points="32.99 173.88 32.99 186.1 31.51 186.1 31.51 175.43 31.44 175.43 28.45 177.41 28.45 175.91 31.51 173.88 32.99 173.88"/><path class="cls-1" d="M36.5,186.1V185l4-4.42q.7-.78,1.17-1.35a5.45,5.45,0,0,0,.68-1.09,2.63,2.63,0,0,0,.22-1.07,2.06,2.06,0,0,0-.3-1.12,2.1,2.1,0,0,0-.84-.72,2.64,2.64,0,0,0-1.2-.26,2.37,2.37,0,0,0-1.22.29,2,2,0,0,0-.81.81,2.46,2.46,0,0,0-.28,1.21H36.55a3.54,3.54,0,0,1,.49-1.88,3.47,3.47,0,0,1,1.36-1.27,4.06,4.06,0,0,1,1.92-.45,3.9,3.9,0,0,1,1.9.45,3.45,3.45,0,0,1,1.31,1.23A3.23,3.23,0,0,1,44,177.1a3.66,3.66,0,0,1-.24,1.31,5.67,5.67,0,0,1-.84,1.43c-.4.53-.94,1.16-1.64,1.92l-2.75,2.93v.1h5.68v1.31Z"/><rect class="cls-1" x="46.6" y="180.2" width="5.35" height="1.31"/><path class="cls-1" d="M55.84,180.59v5.51H54.43V173.88h1.41v4.49H56a2.57,2.57,0,0,1,1-1.14,3.14,3.14,0,0,1,1.73-.42,3.45,3.45,0,0,1,1.64.38,2.46,2.46,0,0,1,1.09,1.14,4.27,4.27,0,0,1,.39,1.94v5.83h-1.4v-5.73a2.35,2.35,0,0,0-.57-1.69,2,2,0,0,0-1.56-.6,2.67,2.67,0,0,0-1.24.29,2.13,2.13,0,0,0-.86.85A2.77,2.77,0,0,0,55.84,180.59Z"/><path class="cls-1" d="M68.09,186.29a4,4,0,0,1-2.18-.59,3.89,3.89,0,0,1-1.45-1.65,5.57,5.57,0,0,1-.53-2.49,5.64,5.64,0,0,1,.53-2.5,4,4,0,0,1,7.26,0,5.64,5.64,0,0,1,.52,2.5,5.57,5.57,0,0,1-.52,2.49,3.91,3.91,0,0,1-1.46,1.65A4,4,0,0,1,68.09,186.29Zm0-1.26a2.44,2.44,0,0,0,1.55-.49,2.89,2.89,0,0,0,.9-1.27,4.72,4.72,0,0,0,.29-1.71,4.8,4.8,0,0,0-.29-1.71,2.92,2.92,0,0,0-.9-1.28,2.7,2.7,0,0,0-3.1,0,2.86,2.86,0,0,0-.91,1.28,5,5,0,0,0-.29,1.71,5,5,0,0,0,.29,1.71,2.83,2.83,0,0,0,.91,1.27A2.42,2.42,0,0,0,68.09,185Z"/><path class="cls-1" d="M80.17,182.35v-5.42h1.41v9.17H80.17v-1.55h-.1a3,3,0,0,1-1,1.18,2.85,2.85,0,0,1-1.72.49,3.1,3.1,0,0,1-1.53-.38,2.62,2.62,0,0,1-1-1.15,4.36,4.36,0,0,1-.38-1.93v-5.83H75.8v5.73a2.26,2.26,0,0,0,.56,1.6,1.9,1.9,0,0,0,1.44.6,2.46,2.46,0,0,0,1.08-.27,2.39,2.39,0,0,0,.92-.82A2.58,2.58,0,0,0,80.17,182.35Z"/><path class="cls-1" d="M84.15,186.1v-9.17h1.37v1.39h.09a2.23,2.23,0,0,1,.91-1.11,2.69,2.69,0,0,1,1.48-.42h.39l.35,0v1.43l-.33-.05a3,3,0,0,0-.53,0,2.43,2.43,0,0,0-1.19.28,2.07,2.07,0,0,0-.82.76,2,2,0,0,0-.31,1.11v5.8Z"/><path class="cls-1" d="M16.09,174.07a6.11,6.11,0,1,0,6.11,6.11A6.1,6.1,0,0,0,16.09,174.07Zm0,11.22a5.11,5.11,0,1,1,5.11-5.11A5.11,5.11,0,0,1,16.09,185.29Z"/><path class="cls-1" d="M19.7,180.18a.4.4,0,0,1-.4.4H15.69V176a.4.4,0,0,1,.8,0v3.81H19.3A.4.4,0,0,1,19.7,180.18Z"/></svg>