<svg version="1.1" xmlns="http://www.w3.org/2000/svg" xmlns:xlink="http://www.w3.org/1999/xlink" width="78.76" height="12.61177" viewBox="0,0,78.76,12.61177"><g transform="translate(-9.98,-173.67918)"><g data-paper-data="{&quot;isPaintingLayer&quot;:true}" fill="#ffffff" fill-rule="nonzero" stroke="none" stroke-width="1" stroke-linecap="butt" stroke-linejoin="miter" stroke-miterlimit="10" stroke-dasharray="" stroke-dashoffset="0" style="mix-blend-mode: normal"><path d="M32.99,173.88v12.22h-1.48v-10.67h-0.07l-2.99,1.98v-1.5l3.06,-2.03z"/><path d="M36.5,186.1v-1.1l4,-4.42c0.46667,-0.52 0.85667,-0.97 1.17,-1.35c0.26885,-0.33525 0.4971,-0.70113 0.68,-1.09c0.14741,-0.33734 0.22236,-0.70187 0.22,-1.07c0.0093,-0.39436 -0.09483,-0.78309 -0.3,-1.12c-0.21061,-0.31077 -0.50068,-0.5594 -0.84,-0.72c-0.37401,-0.17977 -0.78513,-0.26885 -1.2,-0.26c-0.42533,-0.01462 -0.84675,0.08555 -1.22,0.29c-0.3432,0.18525 -0.62475,0.4668 -0.81,0.81c-0.19529,0.37275 -0.29169,0.78936 -0.28,1.21h-1.37c-0.01519,-0.6601 0.15454,-1.31129 0.49,-1.88c0.32926,-0.53925 0.7995,-0.97838 1.36,-1.27c0.59329,-0.30551 1.25274,-0.46007 1.92,-0.45c0.66124,-0.01353 1.31507,0.14132 1.9,0.45c0.53765,0.28709 0.98965,0.71148 1.31,1.23c0.31859,0.52365 0.48161,1.12715 0.47,1.74c0.00079,0.44767 -0.08056,0.89169 -0.24,1.31c-0.2084,0.51526 -0.49142,0.99708 -0.84,1.43c-0.4,0.53 -0.94,1.16 -1.64,1.92l-2.75,2.93v0.1h5.68v1.31z"/><path d="M46.6,181.51v-1.31h5.35v1.31z"/><path d="M55.84,180.59v5.51h-1.41v-12.22h1.41v4.49h0.16c0.21108,-0.47193 0.55959,-0.86923 1,-1.14c0.52407,-0.30396 1.12489,-0.44983 1.73,-0.42c0.56966,-0.0107 1.1331,0.11986 1.64,0.38c0.47861,0.25007 0.86164,0.65067 1.09,1.14c0.28011,0.60721 0.4137,1.27172 0.39,1.94v5.83h-1.4v-5.73c0.03946,-0.61635 -0.16531,-1.22346 -0.57,-1.69c-0.4075,-0.41811 -0.97735,-0.63729 -1.56,-0.6c-0.43067,-0.00476 -0.85611,0.09474 -1.24,0.29c-0.36276,0.19431 -0.66146,0.48954 -0.86,0.85c-0.2437,0.41583 -0.37468,0.88805 -0.38,1.37z"/><path d="M68.09,186.29c-0.76825,0.01682 -1.52509,-0.18802 -2.18,-0.59c-0.63181,-0.39928 -1.13521,-0.97212 -1.45,-1.65c-0.36652,-0.77796 -0.54792,-1.63021 -0.53,-2.49c-0.01694,-0.86291 0.16438,-1.7182 0.53,-2.5c0.6547,-1.41445 2.07138,-2.31979 3.63,-2.31979c1.55862,0 2.9753,0.90534 3.63,2.31979c0.36218,0.78262 0.54007,1.63787 0.52,2.5c0.02105,0.859 -0.15693,1.71122 -0.52,2.49c-0.31845,0.67858 -0.82523,1.25132 -1.46,1.65c-0.65203,0.40013 -1.40513,0.60489 -2.17,0.59zM68.09,185.03c0.55749,0.01864 1.10453,-0.1543 1.55,-0.49c0.4105,-0.33306 0.7218,-0.77232 0.9,-1.27c0.20146,-0.54719 0.29979,-1.12698 0.29,-1.71c0.00797,-0.58288 -0.0903,-1.16234 -0.29,-1.71c-0.17797,-0.5006 -0.48914,-0.94316 -0.9,-1.28c-0.93039,-0.65231 -2.16961,-0.65231 -3.1,0c-0.41683,0.33339 -0.73205,0.77678 -0.91,1.28c-0.19555,0.54875 -0.29369,1.12746 -0.29,1.71c-0.00369,0.58254 0.09445,1.16125 0.29,1.71c0.17815,0.50034 0.49351,0.94044 0.91,1.27c0.44865,0.3265 0.99588,0.4889 1.55,0.46z"/><path d="M80.17,182.35v-5.42h1.41v9.17h-1.41v-1.55h-0.1c-0.22446,0.47398 -0.56926,0.88084 -1,1.18c-0.50591,0.34365 -1.10894,0.51545 -1.72,0.49c-0.53422,0.00729 -1.06127,-0.1236 -1.53,-0.38c-0.43992,-0.27578 -0.78798,-0.67605 -1,-1.15c-0.27203,-0.60599 -0.402,-1.26612 -0.38,-1.93v-5.83h1.36v5.73c-0.028,0.58579 0.17281,1.15953 0.56,1.6c0.37198,0.39692 0.89624,0.61536 1.44,0.6c0.3759,-0.00629 0.74536,-0.09866 1.08,-0.27c0.37308,-0.18821 0.69029,-0.47094 0.92,-0.82c0.25818,-0.42754 0.38671,-0.92083 0.37,-1.42z"/><path d="M84.15,186.1v-9.17h1.37v1.39h0.09c0.17271,-0.46018 0.49263,-0.8504 0.91,-1.11c0.44193,-0.28109 0.9563,-0.42706 1.48,-0.42h0.39h0.35v1.43l-0.33,-0.05c-0.17632,-0.01564 -0.35368,-0.01564 -0.53,0c-0.41405,-0.0096 -0.82368,0.08678 -1.19,0.28c-0.33787,0.17333 -0.62155,0.43625 -0.82,0.76c-0.21001,0.33157 -0.31782,0.7176 -0.31,1.11v5.8z"/><path d="M20.41336,175.85664c1.14642,1.14642 1.7893,2.70207 1.78664,4.32336c0,3.37446 -2.73554,6.11 -6.11,6.11c-3.37446,0 -6.11,-2.73554 -6.11,-6.11c0,-3.37446 2.73554,-6.11 6.11,-6.11c1.62129,-0.00266 3.17694,0.64022 4.32336,1.78664zM21.2,180.18c0,-2.82218 -2.28782,-5.11 -5.11,-5.11c-2.82218,0 -5.11,2.28782 -5.11,5.11c0,2.82218 2.28782,5.11 5.11,5.11c2.82218,0 5.11,-2.28782 5.11,-5.11z"/><path d="M19.7,180.18c0,0.22091 -0.17909,0.4 -0.4,0.4h-3.61v-4.58c0,-0.22091 0.17909,-0.4 0.4,-0.4c0.22091,0 0.4,0.17909 0.4,0.4v3.81h2.81c0.20971,-0.00059 0.38427,0.16088 0.4,0.37z"/></g></g></svg>