<svg xmlns="http://www.w3.org/2000/svg" id="Layer_1" data-name="Layer 1" viewBox="0 0 480 360"><defs><style>.cls-1{fill:#231f20;}</style></defs><path class="cls-1" d="M28.45,186.1V185l4-4.42q.7-.78,1.17-1.35a5,5,0,0,0,.68-1.09,2.64,2.64,0,0,0,.23-1.07,2.07,2.07,0,0,0-.31-1.12,2.1,2.1,0,0,0-.84-.72,2.57,2.57,0,0,0-1.19-.26,2.43,2.43,0,0,0-1.23.29,2,2,0,0,0-.81.81,2.57,2.57,0,0,0-.28,1.21H28.5a3.46,3.46,0,0,1,1.85-3.15,4.06,4.06,0,0,1,1.92-.45,3.93,3.93,0,0,1,1.91.45,3.42,3.42,0,0,1,1.3,1.23A3.23,3.23,0,0,1,36,177.1a3.66,3.66,0,0,1-.24,1.31,5.67,5.67,0,0,1-.84,1.43,24.33,24.33,0,0,1-1.64,1.92l-2.75,2.93v.1h5.69v1.31Z"/><path class="cls-1" d="M38.08,183.59v-1.21l5.37-8.5h.88v1.88h-.6l-4,6.42v.1h7.23v1.31Zm5.75,2.51V173.88h1.41V186.1Z"/><rect class="cls-1" x="49.08" y="180.2" width="5.35" height="1.31"/><path class="cls-1" d="M58.32,180.59v5.51H56.91V173.88h1.41v4.49h.12a2.63,2.63,0,0,1,1-1.14,3.14,3.14,0,0,1,1.73-.42,3.45,3.45,0,0,1,1.64.38,2.48,2.48,0,0,1,1.1,1.14,4.27,4.27,0,0,1,.39,1.94v5.83H62.86v-5.73a2.35,2.35,0,0,0-.57-1.69,2,2,0,0,0-1.56-.6,2.6,2.6,0,0,0-1.23.29,2,2,0,0,0-.86.85A2.78,2.78,0,0,0,58.32,180.59Z"/><path class="cls-1" d="M70.57,186.29a4,4,0,0,1-2.18-.59,4,4,0,0,1-1.45-1.65,5.57,5.57,0,0,1-.52-2.49,5.64,5.64,0,0,1,.52-2.5,4,4,0,0,1,7.26,0,5.64,5.64,0,0,1,.52,2.5,5.57,5.57,0,0,1-.52,2.49,4,4,0,0,1-1.45,1.65A4,4,0,0,1,70.57,186.29Zm0-1.26a2.42,2.42,0,0,0,1.55-.49,2.74,2.74,0,0,0,.9-1.27,4.73,4.73,0,0,0,.3-1.71,4.8,4.8,0,0,0-.3-1.71,2.77,2.77,0,0,0-.9-1.28,2.7,2.7,0,0,0-3.1,0,2.77,2.77,0,0,0-.9,1.28,4.8,4.8,0,0,0-.3,1.71,4.73,4.73,0,0,0,.3,1.71,2.74,2.74,0,0,0,.9,1.27A2.42,2.42,0,0,0,70.57,185Z"/><path class="cls-1" d="M82.65,182.35v-5.42h1.41v9.17H82.65v-1.55h-.09a3,3,0,0,1-1,1.18,2.83,2.83,0,0,1-1.72.49,3,3,0,0,1-1.52-.38,2.51,2.51,0,0,1-1-1.15,4.22,4.22,0,0,1-.39-1.93v-5.83h1.41v5.73a2.22,2.22,0,0,0,.57,1.6,1.87,1.87,0,0,0,1.44.6,2.42,2.42,0,0,0,1.07-.27,2.39,2.39,0,0,0,.92-.82A2.5,2.5,0,0,0,82.65,182.35Z"/><path class="cls-1" d="M86.64,186.1v-9.17H88v1.39h.09a2.23,2.23,0,0,1,.91-1.11,2.69,2.69,0,0,1,1.48-.42h.39l.35,0v1.43l-.32-.05a3.12,3.12,0,0,0-.54,0,2.46,2.46,0,0,0-1.19.28,2.05,2.05,0,0,0-1.12,1.87v5.8Z"/><path class="cls-1" d="M16.09,174.07a6.11,6.11,0,1,0,6.11,6.11A6.1,6.1,0,0,0,16.09,174.07Zm0,11.22a5.11,5.11,0,1,1,5.11-5.11A5.11,5.11,0,0,1,16.09,185.29Z"/><path class="cls-1" d="M19.7,180.18a.4.4,0,0,1-.4.4H15.69V176a.4.4,0,0,1,.8,0v3.81H19.3A.4.4,0,0,1,19.7,180.18Z"/></svg>