<svg version="1.1" xmlns="http://www.w3.org/2000/svg" xmlns:xlink="http://www.w3.org/1999/xlink" width="81.24" height="12.61182" viewBox="0,0,81.24,12.61182"><g transform="translate(-9.98,-173.67914)"><g data-paper-data="{&quot;isPaintingLayer&quot;:true}" fill="#ffffff" fill-rule="nonzero" stroke="none" stroke-width="1" stroke-linecap="butt" stroke-linejoin="miter" stroke-miterlimit="10" stroke-dasharray="" stroke-dashoffset="0" style="mix-blend-mode: normal"><path d="M28.45,186.1v-1.1l4,-4.42c0.46667,-0.52 0.85667,-0.97 1.17,-1.35c0.2726,-0.33258 0.50115,-0.69894 0.68,-1.09c0.15057,-0.33669 0.22892,-0.70118 0.23,-1.07c0.00573,-0.39528 -0.10184,-0.78393 -0.31,-1.12c-0.21061,-0.31077 -0.50068,-0.5594 -0.84,-0.72c-0.3701,-0.18077 -0.77823,-0.26995 -1.19,-0.26c-0.4284,-0.0135 -0.85275,0.08655 -1.23,0.29c-0.3432,0.18525 -0.62475,0.4668 -0.81,0.81c-0.19085,0.37438 -0.28699,0.78984 -0.28,1.21h-1.37c-0.03305,-1.31651 0.68412,-2.53763 1.85,-3.15c0.59329,-0.30551 1.25274,-0.46007 1.92,-0.45c0.66448,-0.01392 1.32163,0.14091 1.91,0.45c0.53483,0.28734 0.98353,0.71188 1.3,1.23c0.33617,0.51833 0.51664,1.12221 0.52,1.74c0.00079,0.44767 -0.08056,0.89169 -0.24,1.31c-0.2084,0.51526 -0.49142,0.99708 -0.84,1.43c-0.51306,0.66796 -1.06047,1.30882 -1.64,1.92l-2.75,2.93v0.1h5.69v1.31z"/><path d="M38.08,183.59v-1.21l5.37,-8.5h0.88v1.88h-0.6l-4,6.42v0.1h7.23v1.31zM43.83,186.1v-12.22h1.41v12.22z"/><path d="M49.08,181.51v-1.31h5.35v1.31z"/><path d="M58.32,180.59v5.51h-1.41v-12.22h1.41v4.49h0.12c0.21417,-0.46994 0.56197,-0.86643 1,-1.14c0.52407,-0.30396 1.12489,-0.44983 1.73,-0.42c0.56966,-0.0107 1.1331,0.11986 1.64,0.38c0.48144,0.24952 0.86783,0.64996 1.1,1.14c0.28011,0.60721 0.4137,1.27172 0.39,1.94v5.83h-1.44v-5.73c0.03946,-0.61635 -0.16531,-1.22346 -0.57,-1.69c-0.4075,-0.41811 -0.97735,-0.63729 -1.56,-0.6c-0.42761,-0.00596 -0.85009,0.09365 -1.23,0.29c-0.3675,0.18781 -0.6679,0.48472 -0.86,0.85c-0.22237,0.42168 -0.33256,0.89345 -0.32,1.37z"/><path d="M70.57,186.29c-0.76825,0.01682 -1.52509,-0.18802 -2.18,-0.59c-0.62784,-0.40391 -1.13011,-0.97547 -1.45,-1.65c-0.36307,-0.77878 -0.54105,-1.631 -0.52,-2.49c-0.02007,-0.86213 0.15782,-1.71738 0.52,-2.5c0.6547,-1.41445 2.07138,-2.31979 3.63,-2.31979c1.55862,0 2.9753,0.90534 3.63,2.31979c0.36218,0.78262 0.54007,1.63787 0.52,2.5c0.02105,0.859 -0.15693,1.71122 -0.52,2.49c-0.31989,0.67453 -0.82216,1.24609 -1.45,1.65c-0.65491,0.40198 -1.41175,0.60682 -2.18,0.59zM70.57,185.03c0.55771,0.02028 1.10529,-0.15283 1.55,-0.49c0.41647,-0.32743 0.72908,-0.76856 0.9,-1.27c0.20465,-0.54661 0.30636,-1.12637 0.3,-1.71c0.00477,-0.5835 -0.09689,-1.16297 -0.3,-1.71c-0.17075,-0.50429 -0.48322,-0.94869 -0.9,-1.28c-0.93039,-0.65231 -2.16961,-0.65231 -3.1,0c-0.41678,0.33131 -0.72925,0.77571 -0.9,1.28c-0.20311,0.54703 -0.30477,1.1265 -0.3,1.71c-0.00636,0.58363 0.09535,1.16339 0.3,1.71c0.17092,0.50144 0.48353,0.94257 0.9,1.27c0.44865,0.3265 0.99588,0.4889 1.55,0.46z"/><path d="M82.65,182.35v-5.42h1.41v9.17h-1.41v-1.55h-0.09c-0.22446,0.47398 -0.56926,0.88084 -1,1.18c-0.50529,0.34496 -1.10877,0.51688 -1.72,0.49c-0.53138,0.01021 -1.05594,-0.12093 -1.52,-0.38c-0.44446,-0.27043 -0.79391,-0.67229 -1,-1.15c-0.28037,-0.60358 -0.414,-1.26491 -0.39,-1.93v-5.83h1.41v5.73c-0.0296,0.58781 0.17542,1.16331 0.57,1.6c0.36967,0.40022 0.89551,0.61932 1.44,0.6c0.3727,-0.00639 0.73889,-0.09879 1.07,-0.27c0.37308,-0.18821 0.69029,-0.47094 0.92,-0.82c0.24168,-0.43219 0.34958,-0.92641 0.31,-1.42z"/><path d="M86.64,186.1v-9.17h1.36v1.39h0.09c0.17271,-0.46018 0.49263,-0.8504 0.91,-1.11c0.44193,-0.28109 0.9563,-0.42706 1.48,-0.42h0.39h0.35v1.43l-0.32,-0.05c-0.17966,-0.01561 -0.36034,-0.01561 -0.54,0c-0.41391,-0.00829 -0.82321,0.08802 -1.19,0.28c-0.70125,0.35676 -1.13645,1.08339 -1.12,1.87v5.8z"/><path d="M20.41336,175.85664c1.14642,1.14642 1.7893,2.70207 1.78664,4.32336c0,3.37446 -2.73554,6.11 -6.11,6.11c-3.37446,0 -6.11,-2.73554 -6.11,-6.11c0,-3.37446 2.73554,-6.11 6.11,-6.11c1.62129,-0.00266 3.17694,0.64022 4.32336,1.78664zM21.2,180.18c0,-2.82218 -2.28782,-5.11 -5.11,-5.11c-2.82218,0 -5.11,2.28782 -5.11,5.11c0,2.82218 2.28782,5.11 5.11,5.11c2.82218,0 5.11,-2.28782 5.11,-5.11z"/><path d="M19.7,180.18c0,0.22091 -0.17909,0.4 -0.4,0.4h-3.61v-4.58c0,-0.22091 0.17909,-0.4 0.4,-0.4c0.22091,0 0.4,0.17909 0.4,0.4v3.81h2.81c0.20971,-0.00059 0.38427,0.16088 0.4,0.37z"/></g></g></svg>