<svg xmlns="http://www.w3.org/2000/svg" id="Layer_1" data-name="Layer 1" viewBox="0 0 480 360"><defs><style>.cls-1{fill:#231f20;}</style></defs><path class="cls-1" d="M30.31,184.56H28.73l4.55-12.39h1.55l4.55,12.39H37.81l-3.7-10.43H34Zm.58-4.84h6.34v1.33H30.89Z"/><path class="cls-1" d="M47,180.76v-5.49H48.4v9.29H47V183h-.1a2.85,2.85,0,0,1-2.75,1.69,3.11,3.11,0,0,1-1.54-.38,2.69,2.69,0,0,1-1.07-1.17,4.44,4.44,0,0,1-.39-2v-5.9h1.43v5.82a2.35,2.35,0,0,0,.57,1.62,2,2,0,0,0,1.46.6,2.53,2.53,0,0,0,1.09-.22,2.23,2.23,0,0,0,.93-.84A2.48,2.48,0,0,0,47,180.76Z"/><path class="cls-1" d="M55.06,175.27v1.21H50.25v-1.21Zm-3.41-2.22h1.43v8.86a2.12,2.12,0,0,0,.17.9,1,1,0,0,0,.46.4,1.8,1.8,0,0,0,.6.1h.63l.29,1.28-.41.11a3.52,3.52,0,0,1-.66.06A3.06,3.06,0,0,1,53,184.5a2.42,2.42,0,0,1-1-.79,2.3,2.3,0,0,1-.38-1.34Z"/><path class="cls-1" d="M60.89,184.75a4,4,0,0,1-2.2-.6,4.11,4.11,0,0,1-1.48-1.67,6.33,6.33,0,0,1,0-5,4,4,0,0,1,3.68-2.28,3.91,3.91,0,0,1,3.68,2.28,6.25,6.25,0,0,1,0,5,4,4,0,0,1-1.47,1.67A4.17,4.17,0,0,1,60.89,184.75Zm0-1.28a2.45,2.45,0,0,0,1.57-.49,3,3,0,0,0,.92-1.29,5.26,5.26,0,0,0,0-3.46,2.85,2.85,0,0,0-.92-1.3,2.7,2.7,0,0,0-3.14,0,3,3,0,0,0-.92,1.3,5.39,5.39,0,0,0,0,3.46,3.13,3.13,0,0,0,.92,1.29A2.47,2.47,0,0,0,60.89,183.47Z"/><path class="cls-1" d="M72.07,184.56v-9.29h1.38v1.45h.12a2.34,2.34,0,0,1,.94-1.16,2.84,2.84,0,0,1,1.55-.41,2.65,2.65,0,0,1,2.54,1.57h.1a2.9,2.9,0,0,1,1.07-1.15,3.34,3.34,0,0,1,1.71-.42,2.78,2.78,0,0,1,2,.77,3.2,3.2,0,0,1,.79,2.42v6.22H82.85v-6.22a1.7,1.7,0,0,0-.57-1.47,2,2,0,0,0-1.32-.44,2,2,0,0,0-1.52.59,2.19,2.19,0,0,0-.54,1.49v6H77.45v-6.36a1.63,1.63,0,0,0-.51-1.28,1.81,1.81,0,0,0-1.33-.49,1.89,1.89,0,0,0-1,.3,2.27,2.27,0,0,0-.78.82,2.37,2.37,0,0,0-.29,1.2v5.81Z"/><path class="cls-1" d="M90.65,184.75A4,4,0,0,1,87,182.48a6.33,6.33,0,0,1,0-5,4.07,4.07,0,0,1,5.42-1.94,4,4,0,0,1,1.94,1.94,6.25,6.25,0,0,1,0,5,3.92,3.92,0,0,1-3.68,2.27Zm0-1.28a2.45,2.45,0,0,0,1.57-.49,2.88,2.88,0,0,0,.92-1.29,5.26,5.26,0,0,0,0-3.46,2.78,2.78,0,0,0-.92-1.3,2.7,2.7,0,0,0-3.14,0,2.91,2.91,0,0,0-.91,1.3,5.26,5.26,0,0,0,0,3.46,3,3,0,0,0,.91,1.29A2.47,2.47,0,0,0,90.65,183.47Z"/><path class="cls-1" d="M100.55,184.75a3.58,3.58,0,0,1-2-.59,3.91,3.91,0,0,1-1.39-1.67,6.7,6.7,0,0,1,0-5.09,4.12,4.12,0,0,1,1.39-1.67,3.63,3.63,0,0,1,2.07-.58,2.85,2.85,0,0,1,1.44.3,2.39,2.39,0,0,1,.81.67l.44.62h.12v-4.57h1.43v12.39h-1.38v-1.43h-.17c-.11.17-.26.38-.45.64a2.51,2.51,0,0,1-.83.68A3,3,0,0,1,100.55,184.75Zm.19-1.28a2.32,2.32,0,0,0,1.45-.45,2.67,2.67,0,0,0,.9-1.25,5.66,5.66,0,0,0,0-3.68,2.59,2.59,0,0,0-.89-1.22,2.69,2.69,0,0,0-3,0,2.9,2.9,0,0,0-.9,1.25,5.26,5.26,0,0,0-.3,1.77,5.05,5.05,0,0,0,.31,1.8,3,3,0,0,0,.9,1.29A2.42,2.42,0,0,0,100.74,183.47Z"/><path class="cls-1" d="M111.51,184.75a4.51,4.51,0,0,1-2.32-.59,4.14,4.14,0,0,1-1.49-1.67,6.32,6.32,0,0,1,0-5,4.11,4.11,0,0,1,1.46-1.71,3.92,3.92,0,0,1,2.2-.61,4.4,4.4,0,0,1,1.44.24,3.41,3.41,0,0,1,1.29.78,3.74,3.74,0,0,1,.92,1.43,6,6,0,0,1,.35,2.19v.61h-7.17v-1.24h5.71a2.82,2.82,0,0,0-.31-1.4,2.3,2.3,0,0,0-.88-1,2.36,2.36,0,0,0-1.35-.36,2.49,2.49,0,0,0-1.47.42,2.86,2.86,0,0,0-1,1.09,3.39,3.39,0,0,0-.34,1.44v.82A4.26,4.26,0,0,0,109,182a2.65,2.65,0,0,0,1,1.1,3,3,0,0,0,1.52.38,3.08,3.08,0,0,0,1-.16,2.27,2.27,0,0,0,.79-.48,2.1,2.1,0,0,0,.51-.81l1.38.39a3,3,0,0,1-.73,1.23,3.56,3.56,0,0,1-1.27.82A4.67,4.67,0,0,1,111.51,184.75Z"/><polygon class="cls-1" points="124.44 184.56 121.61 175.27 123.11 175.27 125.11 182.38 125.19 182.38 127.19 175.27 128.72 175.27 130.72 182.36 130.81 182.36 132.81 175.27 134.31 175.27 131.49 184.56 130.07 184.56 128.07 177.42 127.94 177.42 125.94 184.56 124.44 184.56"/><path class="cls-1" d="M136.89,173.72a1.09,1.09,0,0,1-.72-.28.94.94,0,0,1,0-1.32l0-.05a1,1,0,0,1,1.42,0l0,0a.92.92,0,0,1,.06,1.31l-.06.06A1,1,0,0,1,136.89,173.72Zm-.73,10.84v-9.29h1.43v9.29Z"/><rect class="cls-1" x="140.21" y="172.17" width="1.42" height="12.39"/><rect class="cls-1" x="144.25" y="172.17" width="1.42" height="12.39"/><path class="cls-1" d="M155.81,184.78a3.71,3.71,0,0,1-1.6-.34,2.92,2.92,0,0,1-1.15-1,2.85,2.85,0,0,1-.42-1.55,2.53,2.53,0,0,1,.32-1.3,2.25,2.25,0,0,1,.84-.78,4.51,4.51,0,0,1,1.16-.43c.43-.09.86-.17,1.29-.22l1.37-.17a2,2,0,0,0,.78-.2.5.5,0,0,0,.24-.48,1.84,1.84,0,0,0-.49-1.39,2,2,0,0,0-1.47-.49,2.54,2.54,0,0,0-1.6.44,2.66,2.66,0,0,0-.82,1l-1.35-.48a3.3,3.3,0,0,1,1-1.33,3.77,3.77,0,0,1,1.33-.66,5.33,5.33,0,0,1,1.42-.19,5.56,5.56,0,0,1,1,.1,3.25,3.25,0,0,1,1.13.44,2.44,2.44,0,0,1,.91,1,3.61,3.61,0,0,1,.36,1.77v6.12h-1.43v-1.26h-.07a2.33,2.33,0,0,1-.48.65,2.91,2.91,0,0,1-.91.59A3.66,3.66,0,0,1,155.81,184.78Zm.22-1.28a2.93,2.93,0,0,0,1.43-.34,2.21,2.21,0,0,0,.88-.86,2.17,2.17,0,0,0,.3-1.1v-1.31a.81.81,0,0,1-.39.2c-.21,0-.44.11-.71.15l-.76.11-.61.07a5.82,5.82,0,0,0-1,.24,1.8,1.8,0,0,0-.78.47,1.26,1.26,0,0,0-.29.86,1.33,1.33,0,0,0,.55,1.13A2.52,2.52,0,0,0,156,183.5Z"/><path class="cls-1" d="M162.68,188.05V175.27h1.38v1.47h.17l.44-.62a2.59,2.59,0,0,1,.81-.67,2.9,2.9,0,0,1,1.44-.3,3.59,3.59,0,0,1,2.07.58,4,4,0,0,1,1.39,1.67,6.61,6.61,0,0,1,0,5.09,3.88,3.88,0,0,1-1.39,1.67,3.53,3.53,0,0,1-2.05.59,3,3,0,0,1-1.43-.3,2.73,2.73,0,0,1-.83-.68c-.19-.26-.34-.47-.45-.64h-.12v4.92Zm1.41-8.13a5.37,5.37,0,0,0,.3,1.86,3,3,0,0,0,.91,1.25,2.35,2.35,0,0,0,1.45.45,2.43,2.43,0,0,0,1.5-.47,2.84,2.84,0,0,0,.9-1.29,4.65,4.65,0,0,0,.31-1.8,4.81,4.81,0,0,0-.3-1.77,2.74,2.74,0,0,0-.9-1.25,2.37,2.37,0,0,0-1.51-.46,2.42,2.42,0,0,0-1.47.44,2.73,2.73,0,0,0-.89,1.22,5.29,5.29,0,0,0-.3,1.81Z"/><path class="cls-1" d="M173.06,188.05V175.27h1.38v1.47h.17l.44-.62a2.59,2.59,0,0,1,.81-.67,2.9,2.9,0,0,1,1.44-.3,3.59,3.59,0,0,1,2.07.58,4,4,0,0,1,1.39,1.67,6.7,6.7,0,0,1,0,5.09,3.88,3.88,0,0,1-1.39,1.67,3.53,3.53,0,0,1-2.05.59,3,3,0,0,1-1.43-.3,2.73,2.73,0,0,1-.83-.68c-.19-.26-.34-.47-.45-.64h-.12v4.92Zm1.41-8.13a5.37,5.37,0,0,0,.3,1.86,3,3,0,0,0,.91,1.25,2.29,2.29,0,0,0,1.45.45,2.39,2.39,0,0,0,1.49-.47,2.86,2.86,0,0,0,.91-1.29,4.65,4.65,0,0,0,.31-1.8,4.81,4.81,0,0,0-.3-1.77,2.74,2.74,0,0,0-.9-1.25,2.37,2.37,0,0,0-1.51-.46,2.42,2.42,0,0,0-1.47.44,2.73,2.73,0,0,0-.89,1.22,5.29,5.29,0,0,0-.3,1.81Z"/><rect class="cls-1" x="183.44" y="172.17" width="1.43" height="12.39"/><path class="cls-1" d="M188.4,188.05a4.72,4.72,0,0,1-.64-.05,3,3,0,0,1-.4-.12l.37-1.25a2.88,2.88,0,0,0,.92.09,1.1,1.1,0,0,0,.71-.35,3,3,0,0,0,.57-1l.26-.72-3.43-9.34h1.55l2.56,7.4h.1l2.56-7.4h1.55L191.14,186a4,4,0,0,1-.66,1.2,2.42,2.42,0,0,1-.91.7A2.75,2.75,0,0,1,188.4,188.05Z"/><path class="cls-1" d="M205.53,184.75a4,4,0,0,1-2.2-.6,4.19,4.19,0,0,1-1.48-1.67,6.33,6.33,0,0,1,0-5,4.15,4.15,0,0,1,1.48-1.68A4.07,4.07,0,0,1,209,177a2.77,2.77,0,0,1,.26.48,6.25,6.25,0,0,1,0,5,3.92,3.92,0,0,1-3.68,2.27Zm0-1.28a2.48,2.48,0,0,0,1.58-.49,2.94,2.94,0,0,0,.91-1.29,5.14,5.14,0,0,0,0-3.46,2.83,2.83,0,0,0-.91-1.3,2.72,2.72,0,0,0-3.15,0,3,3,0,0,0-.91,1.3,5.26,5.26,0,0,0,0,3.46A3.11,3.11,0,0,0,204,183,2.48,2.48,0,0,0,205.53,183.47Z"/><path class="cls-1" d="M213.35,179v5.59H212v-9.29h1.38v1.45h.12a2.76,2.76,0,0,1,1-1.14,3.07,3.07,0,0,1,1.72-.43,3.48,3.48,0,0,1,1.65.38,2.57,2.57,0,0,1,1.1,1.16,4.06,4.06,0,0,1,.4,2v5.9h-1.43v-5.84a2.37,2.37,0,0,0-.57-1.71,2,2,0,0,0-1.56-.61,2.4,2.4,0,0,0-1.22.3,2,2,0,0,0-.84.86A2.88,2.88,0,0,0,213.35,179Z"/><path class="cls-1" d="M230.72,175.27v1.21h-4.81v-1.21Zm-3.41-2.22h1.43v8.86a2,2,0,0,0,.18.9.9.9,0,0,0,.46.4,1.7,1.7,0,0,0,.59.1h.63l.29,1.28-.4.11a3.52,3.52,0,0,1-.66.06,2.9,2.9,0,0,1-1.19-.26,2.51,2.51,0,0,1-.95-.79,2.37,2.37,0,0,1-.38-1.34Z"/><path class="cls-1" d="M234.49,179v5.59h-1.42V172.17h1.42v4.55h.13a2.61,2.61,0,0,1,1-1.15,3.18,3.18,0,0,1,1.75-.42,3.3,3.3,0,0,1,1.66.38,2.43,2.43,0,0,1,1.11,1.15,4.17,4.17,0,0,1,.4,2v5.9h-1.43v-5.83a2.32,2.32,0,0,0-.57-1.71,2,2,0,0,0-1.58-.61,2.55,2.55,0,0,0-1.26.3,2.12,2.12,0,0,0-.87.86A3,3,0,0,0,234.49,179Z"/><path class="cls-1" d="M247,184.75a4.49,4.49,0,0,1-2.31-.59,4.11,4.11,0,0,1-1.5-1.67,6.32,6.32,0,0,1,0-5,4.11,4.11,0,0,1,1.46-1.71,3.92,3.92,0,0,1,2.2-.61,4.4,4.4,0,0,1,1.44.24,3.41,3.41,0,0,1,1.29.78,3.74,3.74,0,0,1,.92,1.43,6,6,0,0,1,.35,2.19v.61h-7.17v-1.24h5.71a2.82,2.82,0,0,0-.31-1.4,2.19,2.19,0,0,0-.88-1,2.36,2.36,0,0,0-1.35-.36,2.57,2.57,0,0,0-1.47.42,2.86,2.86,0,0,0-.95,1.09,3.41,3.41,0,0,0-.33,1.44v.82a4.25,4.25,0,0,0,.36,1.79,2.6,2.6,0,0,0,1,1.1,3,3,0,0,0,1.52.38,3.08,3.08,0,0,0,1-.16,2.27,2.27,0,0,0,.79-.48,2.1,2.1,0,0,0,.51-.81l1.38.39a3,3,0,0,1-.73,1.23,3.56,3.56,0,0,1-1.27.82A4.67,4.67,0,0,1,247,184.75Z"/><path class="cls-1" d="M259.27,179v5.59h-1.43v-9.29h1.38v1.45h.13a2.7,2.7,0,0,1,1-1.14,3.07,3.07,0,0,1,1.72-.43,3.48,3.48,0,0,1,1.65.38,2.57,2.57,0,0,1,1.1,1.16,4.29,4.29,0,0,1,.39,2v5.9h-1.44v-5.84a2.37,2.37,0,0,0-.57-1.71,2,2,0,0,0-1.56-.61,2.34,2.34,0,0,0-1.21.3,2.07,2.07,0,0,0-.85.86A3,3,0,0,0,259.27,179Z"/><path class="cls-1" d="M271.71,184.75a4.49,4.49,0,0,1-2.31-.59,4.11,4.11,0,0,1-1.5-1.67,6.32,6.32,0,0,1,0-5,4.14,4.14,0,0,1,1.47-1.71,3.88,3.88,0,0,1,2.19-.61,4.4,4.4,0,0,1,1.44.24,3.41,3.41,0,0,1,1.29.78,3.74,3.74,0,0,1,.92,1.43,6,6,0,0,1,.35,2.19v.61h-7.17v-1.24h5.71a2.82,2.82,0,0,0-.31-1.4,2.19,2.19,0,0,0-.88-1,2.36,2.36,0,0,0-1.35-.36,2.57,2.57,0,0,0-1.47.42,2.86,2.86,0,0,0-.95,1.09,3.41,3.41,0,0,0-.33,1.44v.82a4.25,4.25,0,0,0,.36,1.79,2.79,2.79,0,0,0,1,1.1,3,3,0,0,0,1.52.38,3.08,3.08,0,0,0,1-.16,2.27,2.27,0,0,0,.79-.48A2.1,2.1,0,0,0,274,182l1.38.39a3,3,0,0,1-.73,1.23,3.56,3.56,0,0,1-1.27.82A4.46,4.46,0,0,1,271.71,184.75Z"/><polygon class="cls-1" points="278.56 175.27 280.79 179.07 283.01 175.27 284.65 175.27 281.65 179.91 284.65 184.56 282.98 184.56 280.75 180.95 278.52 184.56 276.88 184.56 279.82 179.91 276.88 175.27 278.56 175.27"/><path class="cls-1" d="M290.73,175.27v1.21h-4.82v-1.21Zm-3.41-2.22h1.42v8.86a2,2,0,0,0,.18.9,1,1,0,0,0,.46.4,1.8,1.8,0,0,0,.6.1h.63l.29,1.28-.41.11a3.52,3.52,0,0,1-.66.06,3.06,3.06,0,0,1-1.18-.26,2.48,2.48,0,0,1-1-.79,2.44,2.44,0,0,1-.37-1.34Z"/><path class="cls-1" d="M297.67,184.56v-9.29h1.38v1.45h.12a2.45,2.45,0,0,1,.94-1.16,2.84,2.84,0,0,1,1.55-.41,2.68,2.68,0,0,1,1.54.41,2.74,2.74,0,0,1,1,1.16h.09a2.9,2.9,0,0,1,1.07-1.15,3.35,3.35,0,0,1,1.72-.42,2.74,2.74,0,0,1,2,.77,3.2,3.2,0,0,1,.8,2.42v6.22h-1.43v-6.22a1.73,1.73,0,0,0-.56-1.47,2.05,2.05,0,0,0-1.33-.44A2,2,0,0,0,305,177a2.19,2.19,0,0,0-.54,1.49v6h-1.45v-6.36a1.63,1.63,0,0,0-.51-1.28,1.81,1.81,0,0,0-1.33-.49,1.89,1.89,0,0,0-1,.3,2.27,2.27,0,0,0-.78.82,2.62,2.62,0,0,0-.29,1.2v5.81Z"/><path class="cls-1" d="M318.33,180.76v-5.49h1.43v9.29h-1.43V183h-.09a2.84,2.84,0,0,1-2.74,1.69,3.23,3.23,0,0,1-1.55-.38,2.67,2.67,0,0,1-1.06-1.17,4.44,4.44,0,0,1-.39-2v-5.9h1.43v5.82a2.35,2.35,0,0,0,.57,1.62,2,2,0,0,0,1.46.6,2.54,2.54,0,0,0,1.09-.27,2.51,2.51,0,0,0,.93-.84A2.38,2.38,0,0,0,318.33,180.76Z"/><path class="cls-1" d="M329,177.35l-1.29.36a2,2,0,0,0-.35-.62,1.57,1.57,0,0,0-.63-.51,2.27,2.27,0,0,0-1-.2,2.41,2.41,0,0,0-1.42.39,1.17,1.17,0,0,0-.57,1,1.05,1.05,0,0,0,.39.84,3.42,3.42,0,0,0,1.21.52l1.38.33a3.66,3.66,0,0,1,1.85.93,2.09,2.09,0,0,1,.62,1.59,2.33,2.33,0,0,1-.46,1.43,3.05,3.05,0,0,1-1.27,1,4.73,4.73,0,0,1-1.9.36,4.28,4.28,0,0,1-2.36-.61,2.83,2.83,0,0,1-1.18-1.81l1.36-.34a2,2,0,0,0,.73,1.13,2.47,2.47,0,0,0,1.42.38,2.76,2.76,0,0,0,1.59-.43,1.25,1.25,0,0,0,.59-1,1,1,0,0,0-.34-.81,2.09,2.09,0,0,0-1-.49l-1.55-.37a3.63,3.63,0,0,1-1.87-.94,2.31,2.31,0,0,1-.6-1.6,2.38,2.38,0,0,1,.45-1.39,3,3,0,0,1,1.21-1,4.28,4.28,0,0,1,1.76-.34,3.38,3.38,0,0,1,2.16.6A3.3,3.3,0,0,1,329,177.35Z"/><path class="cls-1" d="M332,173.72a1.09,1.09,0,0,1-.72-.28.94.94,0,0,1-.05-1.32l.05-.05a1,1,0,0,1,1.42,0v0a.92.92,0,0,1,.06,1.31l-.06.06A1,1,0,0,1,332,173.72Zm-.73,10.84v-9.29h1.43v9.29Z"/><path class="cls-1" d="M339.09,184.75a4.08,4.08,0,0,1-2.25-.61,4.13,4.13,0,0,1-1.45-1.7,5.9,5.9,0,0,1-.51-2.48,5.79,5.79,0,0,1,.53-2.5,4.22,4.22,0,0,1,1.46-1.7,3.92,3.92,0,0,1,2.2-.61,4.13,4.13,0,0,1,1.77.36,3.15,3.15,0,0,1,1.28,1,2.93,2.93,0,0,1,.63,1.52h-1.43a2.23,2.23,0,0,0-.72-1.13,2.17,2.17,0,0,0-1.51-.49,2.57,2.57,0,0,0-1.46.43,2.85,2.85,0,0,0-1,1.22,4.59,4.59,0,0,0-.35,1.83,4.85,4.85,0,0,0,.34,1.88,3,3,0,0,0,1,1.24,2.73,2.73,0,0,0,2.48.25,2.1,2.1,0,0,0,1.22-1.43h1.43a3.31,3.31,0,0,1-1.85,2.52A4,4,0,0,1,339.09,184.75Z"/><path class="cls-1" d="M353.39,184.75a4.08,4.08,0,0,1-2.25-.61,4.13,4.13,0,0,1-1.45-1.7,5.9,5.9,0,0,1-.51-2.48,5.79,5.79,0,0,1,.53-2.5,4.22,4.22,0,0,1,1.46-1.7,3.92,3.92,0,0,1,2.2-.61,4.13,4.13,0,0,1,1.77.36,3.15,3.15,0,0,1,1.28,1,2.93,2.93,0,0,1,.63,1.52h-1.43a2.23,2.23,0,0,0-.72-1.13,2.17,2.17,0,0,0-1.51-.49,2.57,2.57,0,0,0-1.46.43,2.85,2.85,0,0,0-1,1.22,4.59,4.59,0,0,0-.35,1.83,4.85,4.85,0,0,0,.34,1.88,3,3,0,0,0,1,1.24,2.73,2.73,0,0,0,2.48.25,2.1,2.1,0,0,0,1.22-1.43h1.43a3.25,3.25,0,0,1-.6,1.48,3.3,3.3,0,0,1-1.25,1A4.06,4.06,0,0,1,353.39,184.75Z"/><path class="cls-1" d="M360.56,179v5.59h-1.43V172.17h1.43v4.55h.12a2.61,2.61,0,0,1,1-1.15,3.18,3.18,0,0,1,1.75-.42,3.3,3.3,0,0,1,1.66.38,2.43,2.43,0,0,1,1.11,1.15,4.17,4.17,0,0,1,.4,2v5.9h-1.43v-5.83a2.32,2.32,0,0,0-.57-1.71,2,2,0,0,0-1.58-.61,2.55,2.55,0,0,0-1.26.3,2.12,2.12,0,0,0-.87.86A3,3,0,0,0,360.56,179Z"/><path class="cls-1" d="M372,184.78a3.76,3.76,0,0,1-1.61-.34,2.7,2.7,0,0,1-1.56-2.55,2.43,2.43,0,0,1,.31-1.3,2.25,2.25,0,0,1,.84-.78,4.58,4.58,0,0,1,1.17-.43c.42-.09.85-.17,1.28-.22l1.38-.17a2.25,2.25,0,0,0,.77-.2.47.47,0,0,0,.25-.48,1.84,1.84,0,0,0-.49-1.39,2,2,0,0,0-1.47-.49,2.54,2.54,0,0,0-1.6.44,2.66,2.66,0,0,0-.82,1l-1.36-.48a3.47,3.47,0,0,1,1-1.33,3.82,3.82,0,0,1,1.34-.66,5.33,5.33,0,0,1,1.42-.19,5.47,5.47,0,0,1,1,.1,3,3,0,0,1,1.13.44,2.32,2.32,0,0,1,.91,1,3.62,3.62,0,0,1,.37,1.77v6.12H374.8v-1.26h-.07a2.37,2.37,0,0,1-.49.65,2.76,2.76,0,0,1-.9.59A3.51,3.51,0,0,1,372,184.78Zm.22-1.28a2.93,2.93,0,0,0,1.43-.34,2.34,2.34,0,0,0,.88-.86,2.17,2.17,0,0,0,.3-1.1v-1.31a.84.84,0,0,1-.4.2c-.2,0-.44.11-.7.15l-.77.11-.6.07a5.82,5.82,0,0,0-1,.24,1.63,1.63,0,0,0-.77.47,1.26,1.26,0,0,0-.29.86,1.33,1.33,0,0,0,.55,1.13,2.51,2.51,0,0,0,1.33.38Z"/><path class="cls-1" d="M380.23,179v5.59H378.8v-9.29h1.38v1.45h.12a2.76,2.76,0,0,1,1-1.14,3.07,3.07,0,0,1,1.72-.43,3.48,3.48,0,0,1,1.65.38,2.57,2.57,0,0,1,1.1,1.16,4.3,4.3,0,0,1,.4,2v5.9h-1.43v-5.84a2.37,2.37,0,0,0-.57-1.71,2,2,0,0,0-1.56-.61,2.4,2.4,0,0,0-1.22.3,2,2,0,0,0-.84.86A2.86,2.86,0,0,0,380.23,179Z"/><path class="cls-1" d="M392.52,188.24a5.42,5.42,0,0,1-1.78-.27,3.71,3.71,0,0,1-2-1.6l1.14-.79c.13.17.29.36.49.58a2.54,2.54,0,0,0,.81.57,3.19,3.19,0,0,0,1.36.25,3,3,0,0,0,1.86-.55,2,2,0,0,0,.73-1.7v-1.89H395a5.65,5.65,0,0,1-.45.63,2.52,2.52,0,0,1-.82.66,3.22,3.22,0,0,1-1.44.28,3.82,3.82,0,0,1-2-.53,3.7,3.7,0,0,1-1.41-1.55,5.5,5.5,0,0,1-.52-2.46,6.06,6.06,0,0,1,.5-2.49,4.08,4.08,0,0,1,1.4-1.65,3.63,3.63,0,0,1,2.07-.58,2.85,2.85,0,0,1,1.44.3,2.56,2.56,0,0,1,.83.67c.19.26.34.46.44.62h.15v-1.47h1.37v9.56a3.29,3.29,0,0,1-.54,1.95,3.05,3.05,0,0,1-1.45,1.1A5.55,5.55,0,0,1,392.52,188.24Zm0-5.11a2.61,2.61,0,0,0,1.45-.39,2.38,2.38,0,0,0,.9-1.13,4.33,4.33,0,0,0,.31-1.77,4.61,4.61,0,0,0-.3-1.77,2.49,2.49,0,0,0-.9-1.2,2.29,2.29,0,0,0-1.46-.44,2.35,2.35,0,0,0-1.51.46,2.92,2.92,0,0,0-.9,1.23,5,5,0,0,0-.3,1.72,4.58,4.58,0,0,0,.31,1.71,2.41,2.41,0,0,0,2.4,1.58Z"/><path class="cls-1" d="M403,184.75a4.49,4.49,0,0,1-2.31-.59,4,4,0,0,1-1.49-1.67,5.82,5.82,0,0,1-.53-2.5,5.91,5.91,0,0,1,.53-2.52,4,4,0,0,1,1.46-1.71,3.92,3.92,0,0,1,2.2-.61,4.34,4.34,0,0,1,1.43.24,3.41,3.41,0,0,1,1.29.78,3.65,3.65,0,0,1,.93,1.43,5.81,5.81,0,0,1,.34,2.19v.61h-7.16v-1.24h5.71a3.05,3.05,0,0,0-.31-1.4,2.33,2.33,0,0,0-.89-1,2.41,2.41,0,0,0-1.34-.36,2.49,2.49,0,0,0-1.47.42,2.77,2.77,0,0,0-1,1.09,3.41,3.41,0,0,0-.33,1.44v.82a4,4,0,0,0,.37,1.79,2.6,2.6,0,0,0,1,1.1,3,3,0,0,0,1.51.38,3.08,3.08,0,0,0,1-.16,2.13,2.13,0,0,0,.79-.48,2.25,2.25,0,0,0,.52-.81l1.37.39a3,3,0,0,1-.73,1.23,3.48,3.48,0,0,1-1.27.82A4.67,4.67,0,0,1,403,184.75Z"/><path class="cls-1" d="M410.11,184.66a1.14,1.14,0,0,1-.77-.32,1.12,1.12,0,0,1-.32-.77,1.09,1.09,0,0,1,1.09-1.09,1.06,1.06,0,0,1,.77.32,1,1,0,0,1,.32.77.87.87,0,0,1-.15.54,1.07,1.07,0,0,1-.39.4A1,1,0,0,1,410.11,184.66Z"/><rect class="cls-1" x="16.04" y="171.79" width="0.67" height="2.02" rx="0.25"/><rect class="cls-1" x="16.04" y="182.54" width="0.67" height="2.02" rx="0.25"/><rect class="cls-1" x="20.74" y="177.84" width="2.02" height="0.67" rx="0.25"/><rect class="cls-1" x="9.98" y="177.84" width="2.02" height="0.67" rx="0.25"/><rect class="cls-1" x="12.18" y="173.3" width="0.67" height="2.02" rx="0.25" transform="translate(-119.59 59.9) rotate(-45)"/><rect class="cls-1" x="19.9" y="181.14" width="0.67" height="2.02" rx="0.25" transform="translate(-122.87 67.66) rotate(-45)"/><rect class="cls-1" x="19.23" y="173.97" width="2.02" height="0.67" rx="0.25" transform="translate(-117.32 65.37) rotate(-45)"/><rect class="cls-1" x="11.51" y="181.71" width="2.02" height="0.67" rx="0.25" transform="translate(-125.05 62.17) rotate(-45)"/><path class="cls-1" d="M16.37,174.48a3.7,3.7,0,1,0,3.7,3.7h0A3.7,3.7,0,0,0,16.37,174.48Zm0,6.71a3,3,0,1,1,3-3A3,3,0,0,1,16.37,181.19Z"/><path class="cls-1" d="M18.5,179.13a2.3,2.3,0,0,1-2.13,1.39A2.36,2.36,0,0,1,14,178.17a2.31,2.31,0,0,1,1.39-2.12,2.28,2.28,0,0,0-.22,1,2.35,2.35,0,0,0,2.35,2.35h0A2.09,2.09,0,0,0,18.5,179.13Z"/></svg>