<svg version="1.1" xmlns="http://www.w3.org/2000/svg" xmlns:xlink="http://www.w3.org/1999/xlink" width="401.22141" height="16.46652" viewBox="0,0,401.22141,16.46652"><g transform="translate(-9.98,-171.7742)"><g data-paper-data="{&quot;isPaintingLayer&quot;:true}" fill="#ffffff" fill-rule="nonzero" stroke="none" stroke-width="1" stroke-linecap="butt" stroke-linejoin="miter" stroke-miterlimit="10" stroke-dasharray="" stroke-dashoffset="0" style="mix-blend-mode: normal"><path d="M30.31,184.56h-1.58l4.55,-12.39h1.55l4.55,12.39h-1.57l-3.7,-10.43h-0.11zM30.89,179.72h6.34v1.33h-6.34z"/><path d="M47,180.76v-5.49h1.4v9.29h-1.4v-1.56h-0.1c-0.47859,1.07816 -1.57192,1.75006 -2.75,1.69c-0.53755,0.00857 -1.06814,-0.12235 -1.54,-0.38c-0.46611,-0.27365 -0.83898,-0.68136 -1.07,-1.17c-0.28329,-0.62742 -0.4168,-1.31211 -0.39,-2v-5.9h1.43v5.82c-0.02118,0.59257 0.18243,1.17125 0.57,1.62c0.38382,0.39171 0.91165,0.60863 1.46,0.6c0.37515,0.00841 0.74748,-0.06674 1.09,-0.22c0.38392,-0.18535 0.70667,-0.47686 0.93,-0.84c0.27171,-0.43654 0.401,-0.94674 0.37,-1.46z"/><path d="M55.06,175.27v1.21h-4.81v-1.21zM51.65,173.05h1.43v8.86c-0.00959,0.3088 0.04843,0.61597 0.17,0.9c0.10797,0.17796 0.26877,0.31779 0.46,0.4c0.19288,0.06713 0.39578,0.10095 0.6,0.1h0.63l0.29,1.28l-0.41,0.11c-0.21762,0.04071 -0.4386,0.0608 -0.66,0.06c-0.39995,-0.01 -0.79405,-0.09834 -1.16,-0.26c-0.39793,-0.16926 -0.74324,-0.44205 -1,-0.79c-0.26212,-0.39666 -0.39488,-0.86479 -0.38,-1.34z"/><path d="M60.89,184.75c-0.77602,0.0177 -1.54042,-0.19078 -2.2,-0.6c-0.6379,-0.40953 -1.15011,-0.9875 -1.48,-1.67c-0.68613,-1.59605 -0.68613,-3.40395 0,-5c0.67388,-1.41548 2.11253,-2.30681 3.68,-2.28c1.57387,-0.05036 3.02436,0.84831 3.68,2.28c0.69571,1.59407 0.69571,3.40593 0,5c-0.32222,0.68448 -0.83193,1.26355 -1.47,1.67c-0.66624,0.40232 -1.43178,0.61016 -2.21,0.6zM60.89,183.47c0.56416,0.02245 1.11876,-0.15064 1.57,-0.49c0.41673,-0.33978 0.73448,-0.78532 0.92,-1.29c0.39018,-1.12033 0.39018,-2.33967 0,-3.46c-0.1769,-0.51195 -0.49603,-0.9629 -0.92,-1.3c-0.93907,-0.67119 -2.20093,-0.67119 -3.14,0c-0.41819,0.34253 -0.73606,0.79169 -0.92,1.3c-0.38024,1.12199 -0.38024,2.33801 0,3.46c0.19095,0.50179 0.50777,0.94602 0.92,1.29c0.45199,0.33789 1.00606,0.51081 1.57,0.49z"/><path d="M72.07,184.56v-9.29h1.38v1.45h0.12c0.17826,-0.47894 0.50841,-0.88635 0.94,-1.16c0.46657,-0.2827 1.00468,-0.42504 1.55,-0.41c1.08899,-0.0489 2.09683,0.57406 2.54,1.57h0.1c0.24408,-0.47447 0.61433,-0.8724 1.07,-1.15c0.52217,-0.29043 1.11269,-0.43547 1.71,-0.42c0.74278,-0.02094 1.46303,0.25635 2,0.77c0.58667,0.6627 0.87267,1.53879 0.79,2.42v6.22h-1.42v-6.22c0.06245,-0.55381 -0.15053,-1.10306 -0.57,-1.47c-0.37316,-0.29993 -0.84152,-0.45605 -1.32,-0.44c-0.56747,-0.02817 -1.12014,0.18636 -1.52,0.59c-0.3597,0.41184 -0.55232,0.94334 -0.54,1.49v6h-1.45v-6.36c0.02756,-0.48108 -0.15916,-0.94969 -0.51,-1.28c-0.35829,-0.33734 -0.83849,-0.51426 -1.33,-0.49c-0.35489,0.00412 -0.70145,0.10809 -1,0.3c-0.32506,0.2031 -0.5934,0.4852 -0.78,0.82c-0.20098,0.36736 -0.30104,0.7814 -0.29,1.2v5.81z"/><path d="M90.65,184.75c-1.55439,0.01685 -2.97778,-0.86838 -3.65,-2.27c-0.68613,-1.59605 -0.68613,-3.40395 0,-5c0.46135,-0.97611 1.29163,-1.72893 2.30813,-2.09276c1.0165,-0.36384 2.1359,-0.30889 3.11187,0.15276c0.85515,0.39774 1.54226,1.08485 1.94,1.94c0.69571,1.59407 0.69571,3.40593 0,5c-0.66073,1.42593 -2.1092,2.31942 -3.68,2.27zM90.65,183.47c0.56416,0.02245 1.11876,-0.15064 1.57,-0.49c0.42125,-0.33553 0.73998,-0.78244 0.92,-1.29c0.39018,-1.12033 0.39018,-2.33967 0,-3.46c-0.17332,-0.51378 -0.49312,-0.96566 -0.92,-1.3c-0.93907,-0.67119 -2.20093,-0.67119 -3.14,0c-0.41791,0.34066 -0.73296,0.79073 -0.91,1.3c-0.39018,1.12033 -0.39018,2.33967 0,3.46c0.18273,0.50353 0.49694,0.94895 0.91,1.29c0.45199,0.33789 1.00606,0.51081 1.57,0.49z"/><path d="M100.55,184.75c-0.71044,0.00615 -1.40665,-0.19924 -2,-0.59c-0.6118,-0.41416 -1.09375,-0.99319 -1.39,-1.67c-0.66957,-1.63061 -0.66957,-3.45939 0,-5.09c0.30556,-0.67101 0.78558,-1.24774 1.39,-1.67c0.61561,-0.3979 1.33727,-0.6001 2.07,-0.58c0.49798,-0.02772 0.99452,0.07572 1.44,0.3c0.31638,0.16045 0.59307,0.38932 0.81,0.67l0.44,0.62h0.12v-4.57h1.43v12.39h-1.38v-1.43h-0.17c-0.11,0.17 -0.26,0.38 -0.45,0.64c-0.22442,0.28384 -0.50755,0.51581 -0.83,0.68c-0.45968,0.22456 -0.96916,0.32783 -1.48,0.3zM100.74,183.47c0.52012,0.01687 1.03082,-0.14162 1.45,-0.45c0.41628,-0.31921 0.72931,-0.75397 0.9,-1.25c0.40991,-1.19242 0.40991,-2.48758 0,-3.68c-0.16889,-0.48605 -0.47873,-0.91077 -0.89,-1.22c-0.90716,-0.60939 -2.09284,-0.60939 -3,0c-0.40719,0.32792 -0.71816,0.75982 -0.9,1.25c-0.20069,0.56845 -0.30217,1.16717 -0.3,1.77c-0.00693,0.61385 0.09812,1.22383 0.31,1.8c0.17993,0.50239 0.49061,0.9477 0.9,1.29c0.43932,0.33279 0.97908,0.50566 1.53,0.49z"/><path d="M111.51,184.75c-0.81236,0.01591 -1.61393,-0.18794 -2.32,-0.59c-0.64057,-0.40931 -1.15607,-0.9871 -1.49,-1.67c-0.68731,-1.59581 -0.68731,-3.40419 0,-5c0.31826,-0.69463 0.82385,-1.28679 1.46,-1.71c0.65657,-0.41711 1.42239,-0.62945 2.2,-0.61c0.49002,-0.00074 0.97671,0.08037 1.44,0.24c0.48281,0.16051 0.92357,0.42702 1.29,0.78c0.41239,0.39971 0.7272,0.88902 0.92,1.43c0.25174,0.70191 0.37043,1.44459 0.35,2.19v0.61h-7.17v-1.24h5.71c0.01902,-0.48558 -0.08777,-0.96784 -0.31,-1.4c-0.18827,-0.41284 -0.49445,-0.76077 -0.88,-1c-0.40335,-0.25351 -0.87398,-0.37901 -1.35,-0.36c-0.52192,-0.01761 -1.03617,0.12932 -1.47,0.42c-0.42315,0.26935 -0.76802,0.64526 -1,1.09c-0.21798,0.44911 -0.33408,0.94082 -0.34,1.44v0.82c0.01446,0.62917 0.16815,1.24731 0.45,1.81c0.22155,0.45457 0.56854,0.83626 1,1.1c0.46406,0.25907 0.98862,0.39021 1.52,0.38c0.33988,0.00221 0.67778,-0.05186 1,-0.16c0.29347,-0.10412 0.56238,-0.26751 0.79,-0.48c0.23009,-0.22714 0.40462,-0.50434 0.51,-0.81l1.38,0.39c-0.14061,0.46286 -0.39106,0.88485 -0.73,1.23c-0.35975,0.3611 -0.79284,0.64074 -1.27,0.82c-0.54125,0.19674 -1.11422,0.29167 -1.69,0.28z"/><path d="M124.44,184.56l-2.83,-9.29h1.5l2,7.11h0.08l2,-7.11h1.53l2,7.09h0.09l2,-7.09h1.5l-2.82,9.29h-1.42l-2,-7.14h-0.13l-2,7.14z"/><path d="M136.89,173.72c-0.26614,-0.0023 -0.52223,-0.1019 -0.72,-0.28c-0.3609,-0.366 -0.3609,-0.954 0,-1.32v-0.05c0.18777,-0.18931 0.44336,-0.2958 0.71,-0.2958c0.26664,0 0.52223,0.10649 0.71,0.2958v0c0.18343,0.16471 0.29308,0.39616 0.30436,0.64243c0.01128,0.24628 -0.07676,0.48677 -0.24436,0.66757l-0.06,0.06c-0.18787,0.18109 -0.43907,0.28157 -0.7,0.28zM136.16,184.56v-9.29h1.43v9.29z"/><path d="M140.21,184.56v-12.39h1.42v12.39z"/><path d="M144.25,184.56v-12.39h1.42v12.39z"/><path d="M155.81,184.78c-0.55199,0.00711 -1.0986,-0.10904 -1.6,-0.34c-0.46509,-0.22566 -0.86194,-0.57075 -1.15,-1c-0.28568,-0.46573 -0.43147,-1.00376 -0.42,-1.55c-0.012,-0.45421 0.09853,-0.90326 0.32,-1.3c0.20796,-0.32816 0.49735,-0.59688 0.84,-0.78c0.36508,-0.19594 0.75542,-0.34063 1.16,-0.43c0.43,-0.09 0.86,-0.17 1.29,-0.22l1.37,-0.17c0.27087,-0.0131 0.53625,-0.08114 0.78,-0.2c0.16636,-0.09988 0.25992,-0.28698 0.24,-0.48c0.03747,-0.51137 -0.14013,-1.01518 -0.49,-1.39c-0.40425,-0.35422 -0.93406,-0.53083 -1.47,-0.49c-0.56755,-0.0366 -1.13097,0.11834 -1.6,0.44c-0.35143,0.2608 -0.63309,0.60429 -0.82,1l-1.35,-0.48c0.21425,-0.52148 0.55853,-0.97937 1,-1.33c0.3952,-0.30599 0.8473,-0.53034 1.33,-0.66c0.46263,-0.12695 0.94027,-0.19086 1.42,-0.19c0.33567,0.00308 0.67037,0.03655 1,0.1c0.40094,0.07447 0.78427,0.22374 1.13,0.44c0.39148,0.24096 0.70692,0.5876 0.91,1c0.26805,0.54996 0.39192,1.15903 0.36,1.77v6.12h-1.43v-1.26h-0.07c-0.12092,0.24297 -0.28337,0.46294 -0.48,0.65c-0.26368,0.25195 -0.57238,0.45209 -0.91,0.59c-0.43923,0.13842 -0.90064,0.1927 -1.36,0.16zM156.03,183.5c0.49781,0.01001 0.98997,-0.107 1.43,-0.34c0.36883,-0.19758 0.67399,-0.49581 0.88,-0.86c0.19626,-0.33337 0.29984,-0.71315 0.3,-1.1v-1.31c-0.10915,0.10124 -0.24409,0.17044 -0.39,0.2c-0.21,0 -0.44,0.11 -0.71,0.15l-0.76,0.11l-0.61,0.07c-0.33976,0.05034 -0.6744,0.13065 -1,0.24c-0.29599,0.08722 -0.56458,0.24907 -0.78,0.47c-0.20014,0.24069 -0.30352,0.54726 -0.29,0.86c-0.01741,0.44499 0.18905,0.86917 0.55,1.13c0.40498,0.25186 0.87311,0.38363 1.35,0.38z"/><path d="M162.68,188.05v-12.78h1.38v1.47h0.17l0.44,-0.62c0.22136,-0.27635 0.49704,-0.50438 0.81,-0.67c0.44624,-0.22209 0.94219,-0.32542 1.44,-0.3c0.73305,-0.02264 1.45544,0.17977 2.07,0.58c0.60854,0.41775 1.08963,0.99575 1.39,1.67c0.67945,1.62864 0.67945,3.46136 0,5.09c-0.29483,0.67769 -0.77708,1.25707 -1.39,1.67c-0.60614,0.40337 -1.32217,0.60945 -2.05,0.59c-0.49411,0.01938 -0.98534,-0.08368 -1.43,-0.3c-0.31893,-0.16953 -0.60104,-0.40066 -0.83,-0.68c-0.19,-0.26 -0.34,-0.47 -0.45,-0.64h-0.12v4.92zM164.09,179.92c-0.01039,0.63283 0.09117,1.26252 0.3,1.86c0.18891,0.48902 0.50266,0.92 0.91,1.25c0.42023,0.3063 0.93019,0.46456 1.45,0.45c0.53826,0.01385 1.06588,-0.15147 1.5,-0.47c0.41547,-0.33669 0.72744,-0.78384 0.9,-1.29c0.22131,-0.57361 0.32668,-1.18541 0.31,-1.8c0.01197,-0.6036 -0.08981,-1.20406 -0.3,-1.77c-0.1743,-0.49415 -0.48665,-0.92796 -0.9,-1.25c-0.43598,-0.32137 -0.96889,-0.48372 -1.51,-0.46c-0.52476,-0.01668 -1.0407,0.13776 -1.47,0.44c-0.40548,0.31489 -0.71395,0.73774 -0.89,1.22c-0.20466,0.58125 -0.30619,1.1938 -0.3,1.81z"/><path d="M173.06,188.05v-12.78h1.38v1.47h0.17l0.44,-0.62c0.22136,-0.27635 0.49704,-0.50438 0.81,-0.67c0.44624,-0.22209 0.94219,-0.32542 1.44,-0.3c0.73305,-0.02264 1.45544,0.17977 2.07,0.58c0.60854,0.41775 1.08963,0.99575 1.39,1.67c0.66957,1.63061 0.66957,3.45939 0,5.09c-0.29483,0.67769 -0.77708,1.25707 -1.39,1.67c-0.60614,0.40337 -1.32217,0.60945 -2.05,0.59c-0.49411,0.01938 -0.98534,-0.08368 -1.43,-0.3c-0.31893,-0.16953 -0.60104,-0.40066 -0.83,-0.68c-0.19,-0.26 -0.34,-0.47 -0.45,-0.64h-0.12v4.92zM174.47,179.92c-0.01039,0.63283 0.09117,1.26252 0.3,1.86c0.18891,0.48902 0.50266,0.92 0.91,1.25c0.4181,0.31052 0.92956,0.46925 1.45,0.45c0.5353,0.01468 1.06001,-0.15083 1.49,-0.47c0.41835,-0.33611 0.7337,-0.78314 0.91,-1.29c0.22131,-0.57361 0.32668,-1.18541 0.31,-1.8c0.01197,-0.6036 -0.08981,-1.20406 -0.3,-1.77c-0.1743,-0.49415 -0.48665,-0.92796 -0.9,-1.25c-0.43598,-0.32137 -0.96889,-0.48372 -1.51,-0.46c-0.52476,-0.01668 -1.0407,0.13776 -1.47,0.44c-0.40548,0.31489 -0.71395,0.73774 -0.89,1.22c-0.20466,0.58125 -0.30619,1.1938 -0.3,1.81z"/><path d="M183.44,184.56v-12.39h1.43v12.39z"/><path d="M188.4,188.05c-0.21422,-0.00212 -0.42805,-0.01883 -0.64,-0.05c-0.13596,-0.03066 -0.26962,-0.07076 -0.4,-0.12l0.37,-1.25c0.29982,0.07934 0.61049,0.10973 0.92,0.09c0.2719,-0.02452 0.52497,-0.14927 0.71,-0.35c0.25277,-0.29342 0.44633,-0.633 0.57,-1l0.26,-0.72l-3.43,-9.34h1.55l2.56,7.4h0.1l2.56,-7.4h1.55l-3.94,10.69c-0.14938,0.43497 -0.37265,0.84092 -0.66,1.2c-0.24279,0.30295 -0.55491,0.54304 -0.91,0.7c-0.37456,0.13404 -0.77374,0.18522 -1.17,0.15z"/><path d="M205.53,184.75c-0.77602,0.0177 -1.54042,-0.19078 -2.2,-0.6c-0.63522,-0.41265 -1.14669,-0.98979 -1.48,-1.67c-0.68613,-1.59605 -0.68613,-3.40395 0,-5c0.3301,-0.68501 0.84207,-1.26617 1.48,-1.68c0.90883,-0.60034 2.02036,-0.81134 3.08597,-0.58582c1.0656,0.22552 1.99635,0.86876 2.58403,1.78582c0.10226,0.15105 0.18935,0.31183 0.26,0.48c0.69571,1.59407 0.69571,3.40593 0,5c-0.66073,1.42593 -2.1092,2.31942 -3.68,2.27zM205.53,183.47c0.56722,0.02231 1.12493,-0.15065 1.58,-0.49c0.41527,-0.339 0.72995,-0.78508 0.91,-1.29c0.39985,-1.11868 0.39985,-2.34132 0,-3.46c-0.17315,-0.51125 -0.4889,-0.96232 -0.91,-1.3c-0.94316,-0.66986 -2.20684,-0.66986 -3.15,0c-0.41452,0.3438 -0.72885,0.79284 -0.91,1.3c-0.39018,1.12033 -0.39018,2.33967 0,3.46c0.19552,0.51284 0.52329,0.96481 0.95,1.31c0.44404,0.32146 0.98207,0.48674 1.53,0.47z"/><path d="M213.35,179v5.59h-1.35v-9.29h1.38v1.45h0.12c0.22035,-0.46592 0.56676,-0.86082 1,-1.14c0.51857,-0.30937 1.11685,-0.45894 1.72,-0.43c0.5729,-0.01111 1.13967,0.11942 1.65,0.38c0.48066,0.2599 0.86597,0.66623 1.1,1.16c0.30134,0.62177 0.43902,1.31016 0.4,2v5.9h-1.43v-5.84c0.04263,-0.62283 -0.1622,-1.23732 -0.57,-1.71c-0.40571,-0.42178 -0.9758,-0.6447 -1.56,-0.61c-0.42609,-0.0101 -0.84719,0.09345 -1.22,0.3c-0.36157,0.19374 -0.65482,0.49397 -0.84,0.86c-0.24778,0.41882 -0.3854,0.89359 -0.4,1.38z"/><path d="M230.72,175.27v1.21h-4.81v-1.21zM227.31,173.05h1.43v8.86c-0.01058,0.3099 0.05104,0.61801 0.18,0.9c0.10214,0.18278 0.26481,0.32424 0.46,0.4c0.18921,0.06796 0.38897,0.10182 0.59,0.1h0.63l0.29,1.28l-0.4,0.11c-0.21762,0.04071 -0.4386,0.0608 -0.66,0.06c-0.4106,-0.00145 -0.81621,-0.09007 -1.19,-0.26c-0.37755,-0.18006 -0.70411,-0.45162 -0.95,-0.79c-0.25802,-0.39852 -0.39041,-0.86535 -0.38,-1.34z"/><path d="M234.49,179v5.59h-1.42v-12.42h1.42v4.55h0.13c0.2115,-0.47428 0.55968,-0.87469 1,-1.15c0.53072,-0.30559 1.13839,-0.45143 1.75,-0.42c0.57705,-0.02075 1.14944,0.11028 1.66,0.38c0.48909,0.2472 0.88026,0.65247 1.11,1.15c0.29683,0.62328 0.43427,1.3105 0.4,2v5.9h-1.43v-5.83c0.04824,-0.62353 -0.15729,-1.24012 -0.57,-1.71c-0.41033,-0.4273 -0.98898,-0.65071 -1.58,-0.61c-0.43882,-0.01011 -0.87282,0.09322 -1.26,0.3c-0.36821,0.19495 -0.67081,0.49407 -0.87,0.86c-0.22695,0.43512 -0.3437,0.91927 -0.34,1.41z"/><path d="M247,184.75c-0.8091,0.01509 -1.60724,-0.18876 -2.31,-0.59c-0.64528,-0.4067 -1.16465,-0.98493 -1.5,-1.67c-0.68731,-1.59581 -0.68731,-3.40419 0,-5c0.31826,-0.69463 0.82385,-1.28679 1.46,-1.71c0.65657,-0.41711 1.42239,-0.62945 2.2,-0.61c0.49002,-0.00074 0.97671,0.08037 1.44,0.24c0.48281,0.16051 0.92357,0.42702 1.29,0.78c0.41239,0.39971 0.7272,0.88902 0.92,1.43c0.25174,0.70191 0.37043,1.44459 0.35,2.19v0.61h-7.17v-1.24h5.71c0.01902,-0.48558 -0.08777,-0.96784 -0.31,-1.4c-0.18238,-0.41662 -0.48995,-0.76613 -0.88,-1c-0.40335,-0.25351 -0.87398,-0.37901 -1.35,-0.36c-0.52126,-0.01236 -1.03395,0.13412 -1.47,0.42c-0.4048,0.27597 -0.73192,0.6513 -0.95,1.09c-0.2139,0.45012 -0.32655,0.94165 -0.33,1.44v0.82c-0.0111,0.6157 0.11174,1.22646 0.36,1.79c0.21917,0.45618 0.56671,0.83847 1,1.1c0.46406,0.25907 0.98862,0.39021 1.52,0.38c0.33988,0.00221 0.67778,-0.05186 1,-0.16c0.29347,-0.10412 0.56238,-0.26751 0.79,-0.48c0.23009,-0.22714 0.40462,-0.50434 0.51,-0.81l1.38,0.39c-0.14061,0.46286 -0.39106,0.88485 -0.73,1.23c-0.35975,0.3611 -0.79284,0.64074 -1.27,0.82c-0.53054,0.19994 -1.09304,0.30159 -1.66,0.3z"/><path d="M259.27,179v5.59h-1.43v-9.29h1.38v1.45h0.13c0.21759,-0.46773 0.56461,-0.86333 1,-1.14c0.51857,-0.30937 1.11685,-0.45894 1.72,-0.43c0.5729,-0.01111 1.13967,0.11942 1.65,0.38c0.48066,0.2599 0.86597,0.66623 1.1,1.16c0.28874,0.62567 0.42251,1.31169 0.39,2v5.9h-1.44v-5.84c0.04263,-0.62283 -0.1622,-1.23732 -0.57,-1.71c-0.40571,-0.42178 -0.9758,-0.6447 -1.56,-0.61c-0.42304,-0.01125 -0.84121,0.09243 -1.21,0.3c-0.36261,0.19568 -0.65857,0.49512 -0.85,0.86c-0.21184,0.42872 -0.31813,0.90187 -0.31,1.38z"/><path d="M271.71,184.75c-0.8091,0.01509 -1.60724,-0.18876 -2.31,-0.59c-0.64528,-0.4067 -1.16465,-0.98493 -1.5,-1.67c-0.68731,-1.59581 -0.68731,-3.40419 0,-5c0.32234,-0.69504 0.83121,-1.287 1.47,-1.71c0.65272,-0.41743 1.41547,-0.62988 2.19,-0.61c0.49002,-0.00074 0.97671,0.08037 1.44,0.24c0.48281,0.16051 0.92357,0.42702 1.29,0.78c0.41239,0.39971 0.7272,0.88902 0.92,1.43c0.25174,0.70191 0.37043,1.44459 0.35,2.19v0.61h-7.17v-1.24h5.71c0.01902,-0.48558 -0.08777,-0.96784 -0.31,-1.4c-0.18238,-0.41662 -0.48995,-0.76613 -0.88,-1c-0.40335,-0.25351 -0.87398,-0.37901 -1.35,-0.36c-0.52126,-0.01236 -1.03395,0.13412 -1.47,0.42c-0.4048,0.27597 -0.73192,0.6513 -0.95,1.09c-0.2139,0.45012 -0.32655,0.94165 -0.33,1.44v0.82c-0.0111,0.6157 0.11174,1.22646 0.36,1.79c0.22771,0.45036 0.57332,0.83052 1,1.1c0.46406,0.25907 0.98862,0.39021 1.52,0.38c0.33988,0.00221 0.67778,-0.05186 1,-0.16c0.29347,-0.10412 0.56238,-0.26751 0.79,-0.48c0.23501,-0.22896 0.41311,-0.5098 0.52,-0.82l1.38,0.39c-0.14061,0.46286 -0.39106,0.88485 -0.73,1.23c-0.35975,0.3611 -0.79284,0.64074 -1.27,0.82c-0.53167,0.20936 -1.09861,0.3146 -1.67,0.31z"/><path d="M278.56,175.27l2.23,3.8l2.22,-3.8h1.64l-3,4.64l3,4.65h-1.67l-2.23,-3.61l-2.23,3.61h-1.64l2.94,-4.65l-2.94,-4.64z"/><path d="M290.73,175.27v1.21h-4.82v-1.21zM287.32,173.05h1.42v8.86c-0.01058,0.3099 0.05104,0.61801 0.18,0.9c0.10797,0.17796 0.26877,0.31779 0.46,0.4c0.19288,0.06713 0.39578,0.10095 0.6,0.1h0.63l0.29,1.28l-0.41,0.11c-0.21762,0.04071 -0.4386,0.0608 -0.66,0.06c-0.4067,-0.00738 -0.80786,-0.09576 -1.18,-0.26c-0.39646,-0.17173 -0.74117,-0.44405 -1,-0.79c-0.25066,-0.40134 -0.37921,-0.86691 -0.37,-1.34z"/><path d="M297.67,184.56v-9.29h1.38v1.45h0.12c0.18501,-0.47505 0.51361,-0.88055 0.94,-1.16c0.46657,-0.2827 1.00468,-0.42504 1.55,-0.41c0.54303,-0.02265 1.08012,0.12034 1.54,0.41c0.43682,0.28375 0.7837,0.68614 1,1.16h0.09c0.24408,-0.47447 0.61433,-0.8724 1.07,-1.15c0.52529,-0.29172 1.11938,-0.43678 1.72,-0.42c0.74356,-0.02551 1.46552,0.25245 2,0.77c0.59028,0.66108 0.87996,1.53736 0.8,2.42v6.22h-1.43v-6.22c0.05978,-0.55144 -0.14847,-1.09811 -0.56,-1.47c-0.37791,-0.29829 -0.84875,-0.45406 -1.33,-0.44c-0.57804,-0.0451 -1.1472,0.16286 -1.56,0.57c-0.3597,0.41184 -0.55232,0.94334 -0.54,1.49v6h-1.45v-6.36c0.02756,-0.48108 -0.15916,-0.94969 -0.51,-1.28c-0.35829,-0.33734 -0.83849,-0.51426 -1.33,-0.49c-0.35489,0.00412 -0.70145,0.10809 -1,0.3c-0.32506,0.2031 -0.5934,0.4852 -0.78,0.82c-0.19087,0.37119 -0.2903,0.78261 -0.29,1.2v5.81z"/><path d="M318.33,180.76v-5.49h1.43v9.29h-1.43v-1.56h-0.09c-0.47502,1.07657 -1.56475,1.74871 -2.74,1.69c-0.54032,0.00498 -1.07325,-0.12568 -1.55,-0.38c-0.46319,-0.27423 -0.83268,-0.68207 -1.06,-1.17c-0.28329,-0.62742 -0.4168,-1.31211 -0.39,-2v-5.9h1.43v5.82c-0.02118,0.59257 0.18243,1.17125 0.57,1.62c0.38382,0.39171 0.91165,0.60863 1.46,0.6c0.37893,-0.00755 0.75136,-0.09981 1.09,-0.27c0.37604,-0.19686 0.69601,-0.48587 0.93,-0.84c0.26077,-0.42204 0.38314,-0.91501 0.35,-1.41z"/><path d="M329,177.35l-1.29,0.36c-0.07865,-0.22594 -0.19719,-0.43593 -0.35,-0.62c-0.16174,-0.22221 -0.37898,-0.39807 -0.63,-0.51c-0.31385,-0.14165 -0.65581,-0.21004 -1,-0.2c-0.50243,-0.02134 -0.99895,0.11503 -1.42,0.39c-0.35217,0.21036 -0.56844,0.58979 -0.57,1c-0.00718,0.3253 0.13687,0.63555 0.39,0.84c0.36583,0.25009 0.77679,0.4267 1.21,0.52l1.38,0.33c0.69333,0.12547 1.33571,0.44839 1.85,0.93c0.4235,0.41763 0.64899,0.99592 0.62,1.59c0.00874,0.51438 -0.153,1.01719 -0.46,1.43c-0.32569,0.44149 -0.76443,0.78695 -1.27,1c-0.60178,0.24957 -1.24863,0.37213 -1.9,0.36c-0.82916,0.02971 -1.64909,-0.18222 -2.36,-0.61c-0.61724,-0.42353 -1.04153,-1.07435 -1.18,-1.81l1.36,-0.34c0.10555,0.44966 0.36348,0.84893 0.73,1.13c0.4238,0.26784 0.91907,0.40038 1.42,0.38c0.56141,0.02184 1.11612,-0.12817 1.59,-0.43c0.34894,-0.21623 0.56947,-0.59001 0.59,-1c0.01768,-0.30799 -0.10779,-0.6069 -0.34,-0.81c-0.28288,-0.25077 -0.62849,-0.42011 -1,-0.49l-1.55,-0.37c-0.7021,-0.12294 -1.35247,-0.44987 -1.87,-0.94c-0.39716,-0.43703 -0.61187,-1.00958 -0.6,-1.6c0.00056,-0.49905 0.15798,-0.98531 0.45,-1.39c0.30743,-0.43482 0.72506,-0.77997 1.21,-1c0.55609,-0.23629 1.15591,-0.35217 1.76,-0.34c0.76729,-0.05155 1.52922,0.1601 2.16,0.6c0.50774,0.41515 0.88025,0.97219 1.07,1.6z"/><path d="M332,173.72c-0.26614,-0.0023 -0.52223,-0.1019 -0.72,-0.28c-0.37512,-0.35216 -0.3974,-0.94047 -0.05,-1.32l0.05,-0.05c0.18777,-0.18931 0.44336,-0.2958 0.71,-0.2958c0.26664,0 0.52223,0.10649 0.71,0.2958v0c0.18343,0.16471 0.29308,0.39616 0.30436,0.64243c0.01128,0.24628 -0.07676,0.48677 -0.24436,0.66757l-0.06,0.06c-0.18787,0.18109 -0.43907,0.28157 -0.7,0.28zM331.27,184.56v-9.29h1.43v9.29z"/><path d="M339.09,184.75c-0.79336,0.01982 -1.57529,-0.19217 -2.25,-0.61c-0.63035,-0.42267 -1.13205,-1.01087 -1.45,-1.7c-0.34746,-0.78002 -0.52147,-1.62617 -0.51,-2.48c-0.01174,-0.86241 0.16934,-1.71654 0.53,-2.5c0.32457,-0.68789 0.82902,-1.27526 1.46,-1.7c0.65657,-0.41711 1.42239,-0.62945 2.2,-0.61c0.60934,-0.01207 1.21379,0.11087 1.77,0.36c0.50675,0.2157 0.94809,0.5605 1.28,1c0.35087,0.43609 0.56949,0.96356 0.63,1.52h-1.43c-0.11849,-0.44157 -0.36984,-0.83605 -0.72,-1.13c-0.42338,-0.34819 -0.96284,-0.52325 -1.51,-0.49c-0.51892,-0.00737 -1.02791,0.14254 -1.46,0.43c-0.44148,0.30448 -0.78809,0.72735 -1,1.22c-0.24055,0.57966 -0.35967,1.20249 -0.35,1.83c-0.01244,0.64301 0.10314,1.28207 0.34,1.88c0.2155,0.4959 0.56101,0.92434 1,1.24c0.73816,0.47788 1.66131,0.57094 2.48,0.25c0.60921,-0.2579 1.06127,-0.78778 1.22,-1.43h1.43c-0.15616,1.09664 -0.85052,2.04247 -1.85,2.52c-0.56369,0.27322 -1.18367,0.41023 -1.81,0.4z"/><path d="M353.39,184.75c-0.79336,0.01982 -1.57529,-0.19217 -2.25,-0.61c-0.63035,-0.42267 -1.13205,-1.01087 -1.45,-1.7c-0.34746,-0.78002 -0.52147,-1.62617 -0.51,-2.48c-0.01174,-0.86241 0.16934,-1.71654 0.53,-2.5c0.32457,-0.68789 0.82902,-1.27526 1.46,-1.7c0.65657,-0.41711 1.42239,-0.62945 2.2,-0.61c0.60934,-0.01207 1.21379,0.11087 1.77,0.36c0.50675,0.2157 0.94809,0.5605 1.28,1c0.35087,0.43609 0.56949,0.96356 0.63,1.52h-1.43c-0.11849,-0.44157 -0.36984,-0.83605 -0.72,-1.13c-0.42338,-0.34819 -0.96284,-0.52325 -1.51,-0.49c-0.51892,-0.00737 -1.02791,0.14254 -1.46,0.43c-0.44148,0.30448 -0.78809,0.72735 -1,1.22c-0.24055,0.57966 -0.35967,1.20249 -0.35,1.83c-0.01244,0.64301 0.10314,1.28207 0.34,1.88c0.2155,0.4959 0.56101,0.92434 1,1.24c0.73816,0.47788 1.66131,0.57094 2.48,0.25c0.60921,-0.2579 1.06127,-0.78778 1.22,-1.43h1.43c-0.07379,0.53556 -0.28002,1.04425 -0.6,1.48c-0.32828,0.43087 -0.75758,0.77431 -1.25,1c-0.56108,0.28496 -1.18072,0.43559 -1.81,0.44z"/><path d="M360.56,179v5.59h-1.43v-12.42h1.43v4.55h0.12c0.2115,-0.47428 0.55968,-0.87469 1,-1.15c0.53072,-0.30559 1.13839,-0.45143 1.75,-0.42c0.57705,-0.02075 1.14944,0.11028 1.66,0.38c0.48909,0.2472 0.88026,0.65247 1.11,1.15c0.29683,0.62328 0.43427,1.3105 0.4,2v5.9h-1.43v-5.83c0.04824,-0.62353 -0.15729,-1.24012 -0.57,-1.71c-0.41033,-0.4273 -0.98898,-0.65071 -1.58,-0.61c-0.43882,-0.01011 -0.87282,0.09322 -1.26,0.3c-0.36821,0.19495 -0.67081,0.49407 -0.87,0.86c-0.22349,0.436 -0.33679,0.9201 -0.33,1.41z"/><path d="M372,184.78c-0.55519,0.00693 -1.10502,-0.10918 -1.61,-0.34c-0.98603,-0.45833 -1.60091,-1.46342 -1.56,-2.55c-0.0202,-0.45379 0.08719,-0.90416 0.31,-1.3c0.20796,-0.32816 0.49735,-0.59688 0.84,-0.78c0.36858,-0.19598 0.76223,-0.34066 1.17,-0.43c0.42,-0.09 0.85,-0.17 1.28,-0.22l1.38,-0.17c0.26651,-0.0204 0.52725,-0.08813 0.77,-0.2c0.17633,-0.09115 0.27639,-0.28326 0.25,-0.48c0.03747,-0.51137 -0.14013,-1.01518 -0.49,-1.39c-0.40425,-0.35422 -0.93406,-0.53083 -1.47,-0.49c-0.56755,-0.0366 -1.13097,0.11834 -1.6,0.44c-0.35143,0.2608 -0.63309,0.60429 -0.82,1l-1.36,-0.48c0.22053,-0.51788 0.56373,-0.97433 1,-1.33c0.39888,-0.30604 0.85425,-0.53032 1.34,-0.66c0.46263,-0.12695 0.94027,-0.19086 1.42,-0.19c0.3357,0.00258 0.67044,0.03605 1,0.1c0.40269,0.06822 0.78721,0.21794 1.13,0.44c0.39589,0.23559 0.71268,0.58371 0.91,1c0.27108,0.5492 0.39838,1.1582 0.37,1.77v6.12h-1.46v-1.26h-0.07c-0.12462,0.2433 -0.2904,0.46321 -0.49,0.65c-0.25838,0.25381 -0.56419,0.45429 -0.9,0.59c-0.43211,0.13951 -0.88719,0.19384 -1.34,0.16zM372.22,183.5c0.49781,0.01001 0.98997,-0.107 1.43,-0.34c0.3648,-0.20303 0.66864,-0.49996 0.88,-0.86c0.19626,-0.33337 0.29984,-0.71315 0.3,-1.1v-1.31c-0.11281,0.10159 -0.25104,0.1707 -0.4,0.2c-0.2,0 -0.44,0.11 -0.7,0.15l-0.77,0.11l-0.6,0.07c-0.33976,0.05034 -0.6744,0.13065 -1,0.24c-0.29577,0.08111 -0.56266,0.24401 -0.77,0.47c-0.20014,0.24069 -0.30352,0.54726 -0.29,0.86c-0.01741,0.44499 0.18905,0.86917 0.55,1.13c0.39899,0.24873 0.85983,0.3804 1.33,0.38z"/><path d="M380.23,179v5.59h-1.43v-9.29h1.38v1.45h0.12c0.22035,-0.46592 0.56676,-0.86082 1,-1.14c0.51857,-0.30937 1.11685,-0.45894 1.72,-0.43c0.5729,-0.01111 1.13967,0.11942 1.65,0.38c0.48066,0.2599 0.86597,0.66623 1.1,1.16c0.2918,0.62494 0.42899,1.3109 0.4,2v5.9h-1.43v-5.84c0.04263,-0.62283 -0.1622,-1.23732 -0.57,-1.71c-0.40571,-0.42178 -0.9758,-0.6447 -1.56,-0.61c-0.42609,-0.0101 -0.84719,0.09345 -1.22,0.3c-0.36157,0.19374 -0.65482,0.49397 -0.84,0.86c-0.22071,0.42589 -0.33075,0.90044 -0.32,1.38z"/><path d="M392.52,188.24c-0.60424,0.00986 -1.20587,-0.0814 -1.78,-0.27c-0.83546,-0.27901 -1.54441,-0.84616 -2,-1.6l1.14,-0.79c0.13,0.17 0.29,0.36 0.49,0.58c0.22998,0.24131 0.50521,0.43499 0.81,0.57c0.4296,0.18177 0.89384,0.26711 1.36,0.25c0.6638,0.02768 1.318,-0.16577 1.86,-0.55c0.50656,-0.41329 0.77914,-1.04808 0.73,-1.7v-1.89h-0.13c-0.13542,0.22004 -0.28577,0.43054 -0.45,0.63c-0.22383,0.27527 -0.50325,0.50018 -0.82,0.66c-0.45206,0.20289 -0.94485,0.29871 -1.44,0.28c-0.70273,0.01068 -1.39478,-0.17272 -2,-0.53c-0.60954,-0.37001 -1.09917,-0.90826 -1.41,-1.55c-0.36096,-0.76885 -0.53894,-1.61085 -0.52,-2.46c-0.01108,-0.856 0.15933,-1.70463 0.5,-2.49c0.30965,-0.66598 0.79333,-1.23603 1.4,-1.65c0.61561,-0.3979 1.33727,-0.6001 2.07,-0.58c0.49798,-0.02772 0.99452,0.07572 1.44,0.3c0.32064,0.16258 0.60345,0.39087 0.83,0.67c0.19,0.26 0.34,0.46 0.44,0.62h0.15v-1.47h1.37v9.56c0.02931,0.69059 -0.15963,1.37286 -0.54,1.95c-0.36012,0.50569 -0.86598,0.88945 -1.45,1.1c-0.65452,0.24821 -1.35008,0.37035 -2.05,0.36zM392.52,183.13c0.5111,0.01484 1.0153,-0.12077 1.45,-0.39c0.40983,-0.27432 0.72432,-0.66918 0.9,-1.13c0.22597,-0.56183 0.33157,-1.16481 0.31,-1.77c0.01696,-0.60396 -0.08498,-1.20536 -0.3,-1.77c-0.16952,-0.483 -0.48379,-0.90202 -0.9,-1.2c-0.42211,-0.30915 -0.93736,-0.46443 -1.46,-0.44c-0.54132,-0.02536 -1.07476,0.13715 -1.51,0.46c-0.4036,0.3231 -0.71418,0.74756 -0.9,1.23c-0.2001,0.5513 -0.30165,1.13351 -0.3,1.72c-0.00675,0.58456 0.09848,1.16501 0.31,1.71c0.36424,0.99814 1.33917,1.63997 2.4,1.58z"/><path d="M403,184.75c-0.8091,0.01509 -1.60724,-0.18876 -2.31,-0.59c-0.64545,-0.40355 -1.16236,-0.9829 -1.49,-1.67c-0.3597,-0.78378 -0.54073,-1.63769 -0.53,-2.5c-0.01071,-0.86875 0.17025,-1.72917 0.53,-2.52c0.31316,-0.69787 0.81984,-1.29132 1.46,-1.71c0.65657,-0.41711 1.42239,-0.62945 2.2,-0.61c0.48675,-0.00076 0.97016,0.08038 1.43,0.24c0.48281,0.16051 0.92357,0.42702 1.29,0.78c0.4186,0.39652 0.7373,0.88657 0.93,1.43c0.2528,0.70142 0.36824,1.44495 0.34,2.19v0.61h-7.16v-1.24h5.71c0.00939,-0.48467 -0.09688,-0.9646 -0.31,-1.4c-0.19246,-0.41322 -0.5019,-0.7609 -0.89,-1c-0.40172,-0.24877 -0.8677,-0.37396 -1.34,-0.36c-0.52192,-0.01761 -1.03617,0.12932 -1.47,0.42c-0.42598,0.26597 -0.77164,0.64274 -1,1.09c-0.2139,0.45012 -0.32655,0.94165 -0.33,1.44v0.82c-0.01647,0.61723 0.11017,1.22989 0.37,1.79c0.21917,0.45618 0.56671,0.83847 1,1.1c0.46112,0.25736 0.98199,0.38844 1.51,0.38c0.33988,0.00221 0.67778,-0.05186 1,-0.16c0.2953,-0.10024 0.56498,-0.2641 0.79,-0.48c0.22973,-0.22933 0.40713,-0.50565 0.52,-0.81l1.37,0.39c-0.14061,0.46286 -0.39106,0.88485 -0.73,1.23c-0.35813,0.36309 -0.7917,0.64303 -1.27,0.82c-0.5167,0.20205 -1.06528,0.31041 -1.62,0.32z"/><path d="M410.11,184.66c-0.28787,-0.0056 -0.56295,-0.11992 -0.77,-0.32c-0.2018,-0.20591 -0.31642,-0.48171 -0.32,-0.77c0,-0.60199 0.48801,-1.09 1.09,-1.09c0.2896,-0.003 0.56783,0.11262 0.77,0.32c0.21369,0.19783 0.33054,0.47898 0.32,0.77c0.01093,0.19162 -0.0418,0.38147 -0.15,0.54c-0.09228,0.16552 -0.22687,0.30356 -0.39,0.4c-0.1649,0.10231 -0.356,0.15442 -0.55,0.15z"/><path d="M16.29,173.81c-0.13807,0 -0.25,0 -0.25,0v-2.02c0,0 0.11193,0 0.25,0h0.17c0.13807,0 0.25,0 0.25,0v2.02c0,0 -0.11193,0 -0.25,0z"/><path d="M16.29,184.56c-0.13807,0 -0.25,0 -0.25,0v-2.02c0,0 0.11193,0 0.25,0h0.17c0.13807,0 0.25,0 0.25,0v2.02c0,0 -0.11193,0 -0.25,0z"/><path d="M20.99,178.51c-0.13807,0 -0.25,0 -0.25,0v-0.67c0,0 0.11193,0 0.25,0h1.52c0.13807,0 0.25,0 0.25,0v0.67c0,0 -0.11193,0 -0.25,0z"/><path d="M10.23,178.51c-0.13807,0 -0.25,0 -0.25,0v-0.67c0,0 0.11193,0 0.25,0h1.52c0.13807,0 0.25,0 0.25,0v0.67c0,0 -0.11193,0 -0.25,0z"/><path d="M13.1693,175.08062c-0.09763,0.09763 -0.17678,0.17678 -0.17678,0.17678l-1.42836,-1.42836c0,0 0.07915,-0.07915 0.17678,-0.17678l0.12021,-0.12021c0.09763,-0.09763 0.17678,-0.17678 0.17678,-0.17678l1.42836,1.42836c0,0 -0.07915,0.07915 -0.17678,0.17678z"/><path d="M20.89188,182.92548c-0.09763,0.09763 -0.17678,0.17678 -0.17678,0.17678l-1.42836,-1.42836c0,0 0.07915,-0.07915 0.17678,-0.17678l0.12021,-0.12021c0.09763,-0.09763 0.17678,-0.17678 0.17678,-0.17678l1.42836,1.42836c0,0 -0.07915,0.07915 -0.17678,0.17678z"/><path d="M19.94357,175.08469c-0.09763,0.09763 -0.17678,0.17678 -0.17678,0.17678l-0.47376,-0.47376c0,0 0.07915,-0.07915 0.17678,-0.17678l1.0748,-1.0748c0.09763,-0.09763 0.17678,-0.17678 0.17678,-0.17678l0.47376,0.47376c0,0 -0.07915,0.07915 -0.17678,0.17678z"/><path d="M12.22771,182.81656c-0.09763,0.09763 -0.17678,0.17678 -0.17678,0.17678l-0.47376,-0.47376c0,0 0.07915,-0.07915 0.17678,-0.17678l1.0748,-1.0748c0.09763,-0.09763 0.17678,-0.17678 0.17678,-0.17678l0.47376,0.47376c0,0 -0.07915,0.07915 -0.17678,0.17678z"/><path d="M20.07,178.18v0c0,2.04345 -1.65655,3.7 -3.7,3.7c-2.04345,0 -3.7,-1.65655 -3.7,-3.7c0,-2.04345 1.65655,-3.7 3.7,-3.7c2.04345,0 3.7,1.65655 3.7,3.7zM19.37,178.19c0,-1.65685 -1.34315,-3 -3,-3c-1.65685,0 -3,1.34315 -3,3c0,1.65685 1.34315,3 3,3c1.65685,0 3,-1.34315 3,-3z"/><path d="M18.5,179.13c-0.36592,0.84947 -1.2051,1.3971 -2.13,1.39c-0.62591,0.00266 -1.22724,-0.24344 -1.67171,-0.68415c-0.44446,-0.44071 -0.69565,-1.03994 -0.69829,-1.66585c-0.00044,-0.92049 0.54566,-1.7534 1.39,-2.12c-0.1482,0.31234 -0.22343,0.6543 -0.22,1c0,1.29787 1.05213,2.35 2.35,2.35v0c0.34391,-0.00798 0.68053,-0.10072 0.98,-0.27z"/></g></g></svg>