<svg version="1.1" xmlns="http://www.w3.org/2000/svg" xmlns:xlink="http://www.w3.org/1999/xlink" width="55.11178" height="12.97002" viewBox="0,0,55.11178,12.97002"><g transform="translate(-9.98,-171.79)"><g data-paper-data="{&quot;isPaintingLayer&quot;:true}" fill="#ffffff" fill-rule="nonzero" stroke="none" stroke-width="1" stroke-linecap="butt" stroke-linejoin="miter" stroke-miterlimit="10" stroke-dasharray="" stroke-dashoffset="0" style="mix-blend-mode: normal"><path d="M30.31,184.56h-1.58l4.55,-12.39h1.55l4.55,12.39h-1.57l-3.7,-10.43h-0.11zM30.89,179.72h6.34v1.33h-6.34z"/><path d="M47,180.76v-5.49h1.4v9.29h-1.4v-1.56h-0.1c-0.47859,1.07816 -1.57192,1.75006 -2.75,1.69c-0.53755,0.00857 -1.06814,-0.12235 -1.54,-0.38c-0.46611,-0.27365 -0.83898,-0.68136 -1.07,-1.17c-0.28329,-0.62742 -0.4168,-1.31211 -0.39,-2v-5.9h1.43v5.82c-0.02118,0.59257 0.18243,1.17125 0.57,1.62c0.38382,0.39171 0.91165,0.60863 1.46,0.6c0.37515,0.00841 0.74748,-0.06674 1.09,-0.22c0.38392,-0.18535 0.70667,-0.47686 0.93,-0.84c0.27171,-0.43654 0.401,-0.94674 0.37,-1.46z"/><path d="M55.06,175.27v1.21h-4.81v-1.21zM51.65,173.05h1.43v8.86c-0.00959,0.3088 0.04843,0.61597 0.17,0.9c0.10797,0.17796 0.26877,0.31779 0.46,0.4c0.19288,0.06713 0.39578,0.10095 0.6,0.1h0.63l0.29,1.28l-0.41,0.11c-0.21762,0.04071 -0.4386,0.0608 -0.66,0.06c-0.39995,-0.01 -0.79405,-0.09834 -1.16,-0.26c-0.39793,-0.16926 -0.74324,-0.44205 -1,-0.79c-0.26212,-0.39666 -0.39488,-0.86479 -0.38,-1.34z"/><path d="M60.89,184.75c-0.77602,0.0177 -1.54042,-0.19078 -2.2,-0.6c-0.6379,-0.40953 -1.15011,-0.9875 -1.48,-1.67c-0.68613,-1.59605 -0.68613,-3.40395 0,-5c0.67388,-1.41548 2.11253,-2.30681 3.68,-2.28c1.57387,-0.05036 3.02436,0.84831 3.68,2.28c0.69571,1.59407 0.69571,3.40593 0,5c-0.32222,0.68448 -0.83193,1.26355 -1.47,1.67c-0.66624,0.40232 -1.43178,0.61016 -2.21,0.6zM60.89,183.47c0.56416,0.02245 1.11876,-0.15064 1.57,-0.49c0.41673,-0.33978 0.73448,-0.78532 0.92,-1.29c0.39018,-1.12033 0.39018,-2.33967 0,-3.46c-0.1769,-0.51195 -0.49603,-0.9629 -0.92,-1.3c-0.93907,-0.67119 -2.20093,-0.67119 -3.14,0c-0.41819,0.34253 -0.73606,0.79169 -0.92,1.3c-0.38024,1.12199 -0.38024,2.33801 0,3.46c0.19095,0.50179 0.50777,0.94602 0.92,1.29c0.45199,0.33789 1.00606,0.51081 1.57,0.49z"/><path d="M16.29,173.81c-0.13807,0 -0.25,0 -0.25,0v-2.02c0,0 0.11193,0 0.25,0h0.17c0.13807,0 0.25,0 0.25,0v2.02c0,0 -0.11193,0 -0.25,0z"/><path d="M16.29,184.56c-0.13807,0 -0.25,0 -0.25,0v-2.02c0,0 0.11193,0 0.25,0h0.17c0.13807,0 0.25,0 0.25,0v2.02c0,0 -0.11193,0 -0.25,0z"/><path d="M20.99,178.51c-0.13807,0 -0.25,0 -0.25,0v-0.67c0,0 0.11193,0 0.25,0h1.52c0.13807,0 0.25,0 0.25,0v0.67c0,0 -0.11193,0 -0.25,0z"/><path d="M10.23,178.51c-0.13807,0 -0.25,0 -0.25,0v-0.67c0,0 0.11193,0 0.25,0h1.52c0.13807,0 0.25,0 0.25,0v0.67c0,0 -0.11193,0 -0.25,0z"/><path d="M13.1693,175.08062c-0.09763,0.09763 -0.17678,0.17678 -0.17678,0.17678l-1.42836,-1.42836c0,0 0.07915,-0.07915 0.17678,-0.17678l0.12021,-0.12021c0.09763,-0.09763 0.17678,-0.17678 0.17678,-0.17678l1.42836,1.42836c0,0 -0.07915,0.07915 -0.17678,0.17678z"/><path d="M20.89188,182.92548c-0.09763,0.09763 -0.17678,0.17678 -0.17678,0.17678l-1.42836,-1.42836c0,0 0.07915,-0.07915 0.17678,-0.17678l0.12021,-0.12021c0.09763,-0.09763 0.17678,-0.17678 0.17678,-0.17678l1.42836,1.42836c0,0 -0.07915,0.07915 -0.17678,0.17678z"/><path d="M19.94357,175.08469c-0.09763,0.09763 -0.17678,0.17678 -0.17678,0.17678l-0.47376,-0.47376c0,0 0.07915,-0.07915 0.17678,-0.17678l1.0748,-1.0748c0.09763,-0.09763 0.17678,-0.17678 0.17678,-0.17678l0.47376,0.47376c0,0 -0.07915,0.07915 -0.17678,0.17678z"/><path d="M12.22771,182.81656c-0.09763,0.09763 -0.17678,0.17678 -0.17678,0.17678l-0.47376,-0.47376c0,0 0.07915,-0.07915 0.17678,-0.17678l1.0748,-1.0748c0.09763,-0.09763 0.17678,-0.17678 0.17678,-0.17678l0.47376,0.47376c0,0 -0.07915,0.07915 -0.17678,0.17678z"/><path d="M20.07,178.18v0c0,2.04345 -1.65655,3.7 -3.7,3.7c-2.04345,0 -3.7,-1.65655 -3.7,-3.7c0,-2.04345 1.65655,-3.7 3.7,-3.7c2.04345,0 3.7,1.65655 3.7,3.7zM19.37,178.19c0,-1.65685 -1.34315,-3 -3,-3c-1.65685,0 -3,1.34315 -3,3c0,1.65685 1.34315,3 3,3c1.65685,0 3,-1.34315 3,-3z"/><path d="M18.5,179.13c-0.36592,0.84947 -1.2051,1.3971 -2.13,1.39c-0.62591,0.00266 -1.22724,-0.24344 -1.67171,-0.68415c-0.44446,-0.44071 -0.69565,-1.03994 -0.69829,-1.66585c-0.00044,-0.92049 0.54566,-1.7534 1.39,-2.12c-0.1482,0.31234 -0.22343,0.6543 -0.22,1c0,1.29787 1.05213,2.35 2.35,2.35v0c0.34391,-0.00798 0.68053,-0.10072 0.98,-0.27z"/></g></g></svg>