<svg xmlns="http://www.w3.org/2000/svg" id="Layer_1" data-name="Layer 1" viewBox="0 0 480 360"><defs><style>.cls-1{fill:#231f20;}</style></defs><path class="cls-1" d="M33.32,184.58H29.5V172.16h4a6,6,0,0,1,3.09.74,4.87,4.87,0,0,1,2,2.12,8.33,8.33,0,0,1,0,6.64,4.87,4.87,0,0,1-2,2.14A6.33,6.33,0,0,1,33.32,184.58ZM31,183.21H33.2a4.81,4.81,0,0,0,2.57-.63,3.45,3.45,0,0,0,1.51-1.69,7,7,0,0,0,0-5.19A3.66,3.66,0,0,0,35.82,174a4.61,4.61,0,0,0-2.42-.58H31Z"/><path class="cls-1" d="M44.29,184.76a3.75,3.75,0,0,1-1.61-.33,2.66,2.66,0,0,1-1.56-2.52,2.48,2.48,0,0,1,.31-1.3,2.42,2.42,0,0,1,.84-.78,4.58,4.58,0,0,1,1.17-.43c.42-.09.85-.17,1.28-.23L46.1,179a1.87,1.87,0,0,0,.77-.2.49.49,0,0,0,.25-.48v-.05a1.88,1.88,0,0,0-.49-1.39,2.06,2.06,0,0,0-1.47-.5,2.65,2.65,0,0,0-1.61.45,2.91,2.91,0,0,0-.81,1l-1.36-.48a3.51,3.51,0,0,1,1-1.32,4,4,0,0,1,1.33-.67,5.25,5.25,0,0,1,2.46-.08,3.36,3.36,0,0,1,1.13.43,2.5,2.5,0,0,1,.91,1,3.6,3.6,0,0,1,.36,1.76v6.1H47.12v-1.25H47a2.15,2.15,0,0,1-.48.64,2.56,2.56,0,0,1-.9.59A3.33,3.33,0,0,1,44.29,184.76Zm.21-1.28a2.72,2.72,0,0,0,1.43-.33,2.23,2.23,0,0,0,.89-.86,2.06,2.06,0,0,0,.3-1.11v-1.31a.7.7,0,0,1-.4.2,4,4,0,0,1-.7.15c-.27.05-.52.08-.77.11l-.6.08a7.21,7.21,0,0,0-1,.23,2,2,0,0,0-.77.48,1.29,1.29,0,0,0-.3.86,1.26,1.26,0,0,0,.56,1.12A2.44,2.44,0,0,0,44.5,183.48Z"/><path class="cls-1" d="M51.74,188a2.42,2.42,0,0,1-.65-.06,1.43,1.43,0,0,1-.39-.11l.36-1.26a2.61,2.61,0,0,0,.92.1,1,1,0,0,0,.71-.36,2.63,2.63,0,0,0,.57-1l.27-.73-3.44-9.34h1.55l2.57,7.41h.09l2.57-7.41h1.55l-4,10.65a3.56,3.56,0,0,1-.66,1.19,2.26,2.26,0,0,1-.91.71A2.61,2.61,0,0,1,51.74,188Z"/><path class="cls-1" d="M65.09,184.58v-9.29h1.38v1.46h.12a2.43,2.43,0,0,1,.94-1.16,2.86,2.86,0,0,1,1.56-.42,2.64,2.64,0,0,1,1.53.42,2.73,2.73,0,0,1,1,1.16h.1a2.76,2.76,0,0,1,1.07-1.15,3.23,3.23,0,0,1,1.71-.43,2.83,2.83,0,0,1,2,.78,3.25,3.25,0,0,1,.79,2.42v6.21H75.86v-6.21a1.74,1.74,0,0,0-.56-1.47,2.09,2.09,0,0,0-1.33-.44,2,2,0,0,0-1.51.58,2.23,2.23,0,0,0-.54,1.5v6H70.47v-6.36A1.68,1.68,0,0,0,70,176.9a1.86,1.86,0,0,0-1.32-.48,2.1,2.1,0,0,0-1,.29,2.42,2.42,0,0,0-.77.82,2.55,2.55,0,0,0-.3,1.21v5.84Z"/><path class="cls-1" d="M83.68,184.74A3.91,3.91,0,0,1,80,182.46a5.56,5.56,0,0,1-.53-2.51,5.74,5.74,0,0,1,.53-2.54,4.07,4.07,0,0,1,7.36,0,5.74,5.74,0,0,1,.53,2.54,5.56,5.56,0,0,1-.53,2.51A3.91,3.91,0,0,1,83.68,184.74Zm0-1.28a2.45,2.45,0,0,0,1.57-.49,2.75,2.75,0,0,0,.91-1.29,4.64,4.64,0,0,0,.3-1.73,4.72,4.72,0,0,0-.3-1.74,2.83,2.83,0,0,0-.91-1.3,2.45,2.45,0,0,0-1.57-.49,2.51,2.51,0,0,0-1.58.49,3.2,3.2,0,0,0-.91,1.3,5.18,5.18,0,0,0-.3,1.74,5.08,5.08,0,0,0,.3,1.73A3,3,0,0,0,82.1,183,2.51,2.51,0,0,0,83.68,183.46Z"/><path class="cls-1" d="M93.57,184.74a3.6,3.6,0,0,1-2-.59,4.05,4.05,0,0,1-1.39-1.67,6.82,6.82,0,0,1,0-5.1,4,4,0,0,1,1.4-1.66,3.8,3.8,0,0,1,2.07-.59,2.92,2.92,0,0,1,1.43.3,2.43,2.43,0,0,1,.81.68c.19.25.34.46.44.62h.12v-4.57h1.43v12.42H96.5v-1.42h-.17c-.1.17-.25.38-.44.64a2.61,2.61,0,0,1-.83.68A2.81,2.81,0,0,1,93.57,184.74Zm.2-1.28a2.27,2.27,0,0,0,1.45-.45,2.85,2.85,0,0,0,.9-1.26,5.07,5.07,0,0,0,.31-1.85,4.74,4.74,0,0,0-.3-1.82,2.67,2.67,0,0,0-.9-1.23,2.72,2.72,0,0,0-3,0,2.88,2.88,0,0,0-.9,1.25,5.35,5.35,0,0,0-.3,1.77,5.44,5.44,0,0,0,.3,1.8,3,3,0,0,0,.91,1.28A2.32,2.32,0,0,0,93.77,183.46Z"/><path class="cls-1" d="M104.53,184.74a4.19,4.19,0,0,1-2.31-.6,3.77,3.77,0,0,1-1.49-1.67,5.79,5.79,0,0,1-.53-2.5,5.91,5.91,0,0,1,.53-2.52,4.15,4.15,0,0,1,1.46-1.7,4,4,0,0,1,2.2-.62,4.61,4.61,0,0,1,1.43.24,3.65,3.65,0,0,1,2.22,2.22,5.87,5.87,0,0,1,.34,2.19v.6h-7.16v-1.23H107a3.11,3.11,0,0,0-.31-1.4,2.38,2.38,0,0,0-.89-1,2.77,2.77,0,0,0-2.81.07,2.91,2.91,0,0,0-1,1.09,3.27,3.27,0,0,0-.33,1.44v.82A3.87,3.87,0,0,0,102,182a2.56,2.56,0,0,0,1,1.11,3,3,0,0,0,1.52.38,3.08,3.08,0,0,0,1-.16,1.92,1.92,0,0,0,.79-.49,1.89,1.89,0,0,0,.52-.81l1.38.39a2.83,2.83,0,0,1-.74,1.23,3.17,3.17,0,0,1-1.27.82A4.51,4.51,0,0,1,104.53,184.74Z"/><polygon class="cls-1" points="117.45 184.58 114.63 175.29 116.13 175.29 118.13 182.41 118.22 182.41 120.22 175.29 121.75 175.29 123.75 182.38 123.84 182.38 125.84 175.29 127.34 175.29 124.47 184.58 123.08 184.58 121.08 177.45 120.94 177.45 118.94 184.58 117.45 184.58"/><path class="cls-1" d="M129.91,173.7a1,1,0,0,1-.71-.28.93.93,0,0,1,0-1.31l0-.06a1.06,1.06,0,0,1,1.43,0,.93.93,0,0,1,.06,1.32l-.06,0A1,1,0,0,1,129.91,173.7Zm-.72,10.88v-9.29h1.43v9.29Z"/><rect class="cls-1" x="133.23" y="172.16" width="1.43" height="12.42"/><rect class="cls-1" x="137.27" y="172.16" width="1.43" height="12.42"/><path class="cls-1" d="M148.84,184.76a3.75,3.75,0,0,1-1.61-.33,2.66,2.66,0,0,1-1.56-2.52,2.48,2.48,0,0,1,.3-1.33,2.42,2.42,0,0,1,.84-.78,4.58,4.58,0,0,1,1.17-.43c.42-.09.85-.17,1.28-.23l1.38-.16a1.87,1.87,0,0,0,.77-.2.46.46,0,0,0,.25-.48v-.05a1.88,1.88,0,0,0-.49-1.39,2.06,2.06,0,0,0-1.47-.5,2.65,2.65,0,0,0-1.61.45,2.91,2.91,0,0,0-.81,1l-1.36-.48a3.51,3.51,0,0,1,1-1.32,4,4,0,0,1,1.33-.67,5.25,5.25,0,0,1,2.46-.08,3.36,3.36,0,0,1,1.13.43,2.5,2.5,0,0,1,.91,1,3.6,3.6,0,0,1,.36,1.76v6.13h-1.44v-1.25h-.08a2.15,2.15,0,0,1-.48.64,2.56,2.56,0,0,1-.9.59A3.33,3.33,0,0,1,148.84,184.76Zm.21-1.28a2.72,2.72,0,0,0,1.43-.33,2.23,2.23,0,0,0,.89-.86,2.06,2.06,0,0,0,.3-1.11v-1.31a.7.7,0,0,1-.4.2,4,4,0,0,1-.7.15c-.26.05-.52.08-.77.11l-.6.08a7.21,7.21,0,0,0-1,.23,2,2,0,0,0-.77.48,1.29,1.29,0,0,0-.3.86,1.26,1.26,0,0,0,.56,1.12A2.44,2.44,0,0,0,149.05,183.48Z"/><path class="cls-1" d="M155.71,188V175.25h1.38v1.48h.17c.1-.16.25-.37.43-.62a2.81,2.81,0,0,1,.82-.68,3,3,0,0,1,1.43-.3,3.75,3.75,0,0,1,2.07.59,3.82,3.82,0,0,1,1.4,1.66,6.72,6.72,0,0,1,0,5.1,3.91,3.91,0,0,1-1.39,1.67,3.61,3.61,0,0,1-2.05.59,2.9,2.9,0,0,1-1.44-.3,2.85,2.85,0,0,1-.83-.68c-.19-.26-.34-.47-.44-.64h-.12V188Zm1.4-8.13a5.29,5.29,0,0,0,.31,1.85,2.79,2.79,0,0,0,.9,1.26,2.55,2.55,0,0,0,3,0,2.85,2.85,0,0,0,.91-1.28,5,5,0,0,0,.3-1.8,4.88,4.88,0,0,0-.3-1.77,2.52,2.52,0,0,0-3.9-1.25,2.82,2.82,0,0,0-.9,1.23,5.31,5.31,0,0,0-.32,1.76Z"/><path class="cls-1" d="M166.09,188V175.25h1.38v1.48h.17c.1-.16.25-.37.44-.62a2.65,2.65,0,0,1,.81-.68,3,3,0,0,1,1.43-.3,3.75,3.75,0,0,1,2.07.59,3.82,3.82,0,0,1,1.4,1.66,6.72,6.72,0,0,1,0,5.1,3.91,3.91,0,0,1-1.39,1.67,3.61,3.61,0,0,1-2.05.59,2.9,2.9,0,0,1-1.44-.3,2.85,2.85,0,0,1-.83-.68c-.19-.26-.34-.47-.44-.64h-.12V188Zm1.4-8.13a5.29,5.29,0,0,0,.31,1.85,3,3,0,0,0,.9,1.26,2.55,2.55,0,0,0,3,0,2.85,2.85,0,0,0,.91-1.28,5,5,0,0,0,.3-1.8,4.88,4.88,0,0,0-.3-1.77,2.52,2.52,0,0,0-3.9-1.25,2.82,2.82,0,0,0-.9,1.23,5.31,5.31,0,0,0-.32,1.76Z"/><rect class="cls-1" x="176.47" y="172.16" width="1.43" height="12.42"/><path class="cls-1" d="M181.43,188a2.42,2.42,0,0,1-.65-.06,1.43,1.43,0,0,1-.39-.11l.36-1.26a2.61,2.61,0,0,0,.92.1,1,1,0,0,0,.71-.36,2.63,2.63,0,0,0,.57-1l.27-.73-3.44-9.34h1.55l2.57,7.41H184l2.57-7.41h1.55l-4,10.65a3.75,3.75,0,0,1-.66,1.19,2.26,2.26,0,0,1-.91.71A2.75,2.75,0,0,1,181.43,188Z"/><path class="cls-1" d="M198.56,184.74a3.91,3.91,0,0,1-3.68-2.28,5.83,5.83,0,0,1-.53-2.51,6,6,0,0,1,.53-2.54,4.07,4.07,0,0,1,7.36,0,5.74,5.74,0,0,1,.53,2.54,5.56,5.56,0,0,1-.53,2.51,3.91,3.91,0,0,1-3.68,2.28Zm0-1.28a2.39,2.39,0,0,0,1.57-.49,2.75,2.75,0,0,0,.91-1.29,4.64,4.64,0,0,0,.3-1.73,4.72,4.72,0,0,0-.3-1.74,2.83,2.83,0,0,0-.91-1.3,2.77,2.77,0,0,0-3.14,0,3,3,0,0,0-.92,1.3,5.43,5.43,0,0,0-.29,1.74,5.32,5.32,0,0,0,.29,1.73A2.92,2.92,0,0,0,197,183,2.43,2.43,0,0,0,198.56,183.46Z"/><path class="cls-1" d="M206.37,179v5.62H205v-9.29h1.37v1.46h.13a2.57,2.57,0,0,1,1-1.14,3.16,3.16,0,0,1,1.72-.44,3.46,3.46,0,0,1,1.65.39,2.52,2.52,0,0,1,1.1,1.16,4.34,4.34,0,0,1,.39,2v5.86h-1.46v-5.8a2.39,2.39,0,0,0-.57-1.71,2,2,0,0,0-1.56-.61,2.46,2.46,0,0,0-1.21.29,2.29,2.29,0,0,0-.85.87A3.13,3.13,0,0,0,206.37,179Z"/><path class="cls-1" d="M223.75,175.25v1.21H219v-1.21ZM220.33,173h1.43v8.85a1.88,1.88,0,0,0,.18.91.89.89,0,0,0,.46.4,1.8,1.8,0,0,0,.6.1,1.21,1.21,0,0,0,.38,0l.25,0,.29,1.29-.41.11a2.39,2.39,0,0,1-.66.06,2.89,2.89,0,0,1-1.18-.26,2.36,2.36,0,0,1-1-.8,2.33,2.33,0,0,1-.38-1.34Z"/><path class="cls-1" d="M227.52,179v5.62h-1.43V172.16h1.43v4.55h.12a2.79,2.79,0,0,1,1-1.15,3.22,3.22,0,0,1,1.76-.43,3.52,3.52,0,0,1,1.66.38,2.64,2.64,0,0,1,1.11,1.16,4.22,4.22,0,0,1,.4,2v5.91h-1.43v-5.8a2.41,2.41,0,0,0-.57-1.72,2.11,2.11,0,0,0-1.59-.6,2.61,2.61,0,0,0-1.25.29,2.27,2.27,0,0,0-.87.87A3,3,0,0,0,227.52,179Z"/><path class="cls-1" d="M240.05,184.74a4.19,4.19,0,0,1-2.31-.6,3.77,3.77,0,0,1-1.49-1.67,5.79,5.79,0,0,1-.53-2.5,5.91,5.91,0,0,1,.53-2.52,4.15,4.15,0,0,1,1.46-1.7,4,4,0,0,1,2.2-.62,4.61,4.61,0,0,1,1.43.24,3.65,3.65,0,0,1,2.22,2.22,5.87,5.87,0,0,1,.34,2.19v.6h-7.16v-1.23h5.71a2.87,2.87,0,0,0-.31-1.4,2.33,2.33,0,0,0-.89-1,2.49,2.49,0,0,0-1.34-.35,2.57,2.57,0,0,0-1.47.42,2.91,2.91,0,0,0-1,1.09,3.27,3.27,0,0,0-.33,1.44v.82a3.87,3.87,0,0,0,.37,1.78,2.56,2.56,0,0,0,1,1.11,3,3,0,0,0,1.51.38,3.08,3.08,0,0,0,1-.16,1.92,1.92,0,0,0,.79-.49,1.89,1.89,0,0,0,.52-.81l1.38.39a2.83,2.83,0,0,1-.74,1.23,3.17,3.17,0,0,1-1.27.82A4.25,4.25,0,0,1,240.05,184.74Z"/><path class="cls-1" d="M252.3,179v5.62h-1.43v-9.29h1.38v1.46h.12a2.76,2.76,0,0,1,1-1.14,3.16,3.16,0,0,1,1.72-.44,3.35,3.35,0,0,1,1.65.39,2.52,2.52,0,0,1,1.1,1.16,4.34,4.34,0,0,1,.39,2v5.86h-1.42v-5.8a2.39,2.39,0,0,0-.57-1.71,2,2,0,0,0-1.56-.61,2.49,2.49,0,0,0-1.22.29,2.13,2.13,0,0,0-.84.87A3,3,0,0,0,252.3,179Z"/><path class="cls-1" d="M264.73,184.74a4.19,4.19,0,0,1-2.31-.6,3.77,3.77,0,0,1-1.49-1.67,5.79,5.79,0,0,1-.53-2.5,5.91,5.91,0,0,1,.53-2.52,4.15,4.15,0,0,1,1.46-1.7,4,4,0,0,1,2.2-.62,4.61,4.61,0,0,1,1.43.24,3.65,3.65,0,0,1,2.22,2.22,5.87,5.87,0,0,1,.34,2.19v.6h-7.16v-1.23h5.71a3.11,3.11,0,0,0-.31-1.4,2.38,2.38,0,0,0-.89-1,2.77,2.77,0,0,0-2.81.07,2.91,2.91,0,0,0-1,1.09,3.27,3.27,0,0,0-.33,1.44v.82a3.87,3.87,0,0,0,.37,1.78,2.56,2.56,0,0,0,1,1.11,3,3,0,0,0,1.51.38,3.08,3.08,0,0,0,1-.16,1.92,1.92,0,0,0,.79-.49A1.89,1.89,0,0,0,267,182l1.37.39a2.72,2.72,0,0,1-.73,1.23,3.17,3.17,0,0,1-1.27.82A4.25,4.25,0,0,1,264.73,184.74Z"/><polygon class="cls-1" points="271.58 175.25 273.81 179.05 276.04 175.25 277.69 175.25 274.69 179.9 277.69 184.54 276.04 184.54 273.81 180.94 271.58 184.54 269.98 184.54 272.98 179.9 269.98 175.25 271.58 175.25"/><path class="cls-1" d="M283.75,175.25v1.21H279v-1.21ZM280.34,173h1.43v8.85a1.88,1.88,0,0,0,.18.91.86.86,0,0,0,.46.4,1.7,1.7,0,0,0,.59.1,1.27,1.27,0,0,0,.39,0l.24,0,.29,1.29-.4.11a2.39,2.39,0,0,1-.66.06,2.9,2.9,0,0,1-1.19-.26,2.3,2.3,0,0,1-.95-.8,2.33,2.33,0,0,1-.38-1.34Z"/><path class="cls-1" d="M290.69,184.58v-9.29h1.38v1.46h.13a2.36,2.36,0,0,1,.93-1.16,2.86,2.86,0,0,1,1.56-.42,2.64,2.64,0,0,1,1.53.42,2.73,2.73,0,0,1,1,1.16h.1a2.76,2.76,0,0,1,1.07-1.15,3.23,3.23,0,0,1,1.71-.43,2.83,2.83,0,0,1,2,.78,3.21,3.21,0,0,1,.79,2.42v6.21h-1.43v-6.21a1.74,1.74,0,0,0-.56-1.47,2.09,2.09,0,0,0-1.33-.44,2,2,0,0,0-1.51.58,2.23,2.23,0,0,0-.54,1.5v6h-1.45v-6.36a1.68,1.68,0,0,0-.52-1.28,1.86,1.86,0,0,0-1.32-.48,2.1,2.1,0,0,0-1,.29,2.42,2.42,0,0,0-.77.82,2.55,2.55,0,0,0-.3,1.21v5.84Z"/><path class="cls-1" d="M311.36,180.75v-5.5h1.43v9.33h-1.43V183h-.1a3,3,0,0,1-1,1.2,2.85,2.85,0,0,1-1.75.5,3,3,0,0,1-1.55-.39,2.59,2.59,0,0,1-1.06-1.16,4.55,4.55,0,0,1-.39-2v-5.91H307v5.81a2.27,2.27,0,0,0,.57,1.62,1.89,1.89,0,0,0,1.46.61,2.38,2.38,0,0,0,2.36-2.54Z"/><path class="cls-1" d="M322,177.33l-1.28.37a2.1,2.1,0,0,0-.36-.63,1.73,1.73,0,0,0-.63-.5,2.27,2.27,0,0,0-1-.2,2.56,2.56,0,0,0-1.42.39,1.16,1.16,0,0,0-.56,1,1,1,0,0,0,.38.84,3.4,3.4,0,0,0,1.21.51l1.38.34a3.89,3.89,0,0,1,1.86.92,2.14,2.14,0,0,1,.61,1.6,2.26,2.26,0,0,1-.46,1.42,3,3,0,0,1-1.27,1,4.41,4.41,0,0,1-1.9.36,4.09,4.09,0,0,1-2.35-.62,2.72,2.72,0,0,1-1.18-1.8l1.35-.34a1.85,1.85,0,0,0,.74,1.12,2.4,2.4,0,0,0,1.42.38,2.59,2.59,0,0,0,1.58-.43,1.18,1.18,0,0,0,.59-1,1.12,1.12,0,0,0-.33-.82,2.29,2.29,0,0,0-1-.49l-1.55-.36a3.69,3.69,0,0,1-1.88-.94,2.45,2.45,0,0,1-.15-3,3.07,3.07,0,0,1,1.22-.95,4.41,4.41,0,0,1,1.75-.35,3.46,3.46,0,0,1,2.17.61A3.24,3.24,0,0,1,322,177.33Z"/><path class="cls-1" d="M325,173.7a1,1,0,0,1-.72-.28.93.93,0,0,1-.05-1.31l.05-.06a1.07,1.07,0,0,1,1.44,0,1,1,0,0,1,0,1.37A1,1,0,0,1,325,173.7Zm-.73,10.88v-9.29h1.43v9.29Z"/><path class="cls-1" d="M332.12,184.74a3.89,3.89,0,0,1-3.7-2.32,5.79,5.79,0,0,1-.51-2.47,5.7,5.7,0,0,1,.52-2.5,4.25,4.25,0,0,1,1.47-1.7,4,4,0,0,1,2.2-.62,4.09,4.09,0,0,1,1.76.37,3.44,3.44,0,0,1,1.29,1,3.21,3.21,0,0,1,.62,1.53h-1.43a2.11,2.11,0,0,0-.72-1.13,2.19,2.19,0,0,0-1.5-.49,2.55,2.55,0,0,0-1.46.43,3.09,3.09,0,0,0-1,1.21,4.84,4.84,0,0,0-.34,1.84,4.77,4.77,0,0,0,.34,1.87,2.78,2.78,0,0,0,1,1.24,2.37,2.37,0,0,0,1.47.45,2.27,2.27,0,0,0,1-.2,2,2,0,0,0,.77-.55,1.93,1.93,0,0,0,.44-.88h1.43a3.2,3.2,0,0,1-1.85,2.52A3.74,3.74,0,0,1,332.12,184.74Z"/><path class="cls-1" d="M346.42,184.74a3.89,3.89,0,0,1-3.7-2.32,5.79,5.79,0,0,1-.51-2.47,5.7,5.7,0,0,1,.52-2.5,4.25,4.25,0,0,1,1.47-1.7,4,4,0,0,1,2.19-.62,4.1,4.1,0,0,1,1.77.37,3.44,3.44,0,0,1,1.29,1,3.21,3.21,0,0,1,.62,1.53h-1.43a2.15,2.15,0,0,0-2.22-1.62,2.55,2.55,0,0,0-1.46.43,3.09,3.09,0,0,0-1,1.21,4.84,4.84,0,0,0-.34,1.84,4.77,4.77,0,0,0,.34,1.87,2.78,2.78,0,0,0,1,1.24,2.37,2.37,0,0,0,1.47.45,2.27,2.27,0,0,0,1-.2,2,2,0,0,0,.77-.55,1.93,1.93,0,0,0,.44-.88h1.43a3.2,3.2,0,0,1-1.85,2.52A3.74,3.74,0,0,1,346.42,184.74Z"/><path class="cls-1" d="M353.58,179v5.62h-1.43V172.16h1.43v4.55h.12a2.79,2.79,0,0,1,1-1.15,3.22,3.22,0,0,1,1.76-.43,3.52,3.52,0,0,1,1.66.38,2.64,2.64,0,0,1,1.11,1.16,4.21,4.21,0,0,1,.39,2v5.91H358.2v-5.8a2.41,2.41,0,0,0-.57-1.72,2.11,2.11,0,0,0-1.59-.6,2.61,2.61,0,0,0-1.25.29,2.27,2.27,0,0,0-.87.87A3,3,0,0,0,353.58,179Z"/><path class="cls-1" d="M365,184.76a3.7,3.7,0,0,1-1.6-.33,2.84,2.84,0,0,1-1.15-1,2.77,2.77,0,0,1-.42-1.54,2.58,2.58,0,0,1,.32-1.3,2.42,2.42,0,0,1,.84-.78,4.92,4.92,0,0,1,1.16-.43c.43-.09.86-.17,1.29-.23l1.37-.16a1.92,1.92,0,0,0,.78-.2.49.49,0,0,0,.24-.48v-.05a1.88,1.88,0,0,0-.48-1.39,2,2,0,0,0-1.48-.5,2.62,2.62,0,0,0-1.6.45,2.94,2.94,0,0,0-.82,1l-1.35-.48a3.41,3.41,0,0,1,1-1.32,3.79,3.79,0,0,1,1.33-.67,6.3,6.3,0,0,1,1.42-.19,6.51,6.51,0,0,1,1,.11,3.44,3.44,0,0,1,1.13.43,2.65,2.65,0,0,1,.91,1,3.6,3.6,0,0,1,.36,1.76v6.12h-1.43v-1.25h-.07a2.15,2.15,0,0,1-.48.64,2.56,2.56,0,0,1-.9.59A3.33,3.33,0,0,1,365,184.76Zm.22-1.28a2.74,2.74,0,0,0,1.43-.33,2.14,2.14,0,0,0,.88-.86,2.06,2.06,0,0,0,.3-1.11v-1.31a.64.64,0,0,1-.39.2,4.27,4.27,0,0,1-.71.15c-.26.05-.52.08-.76.11l-.61.08a6.9,6.9,0,0,0-1,.23,2,2,0,0,0-.78.48,1.28,1.28,0,0,0-.29.86,1.26,1.26,0,0,0,.55,1.12,2.44,2.44,0,0,0,1.36.38Z"/><path class="cls-1" d="M373.25,179v5.62h-1.43v-9.29h1.38v1.46h.12a2.69,2.69,0,0,1,1-1.14,3.12,3.12,0,0,1,1.71-.44,3.35,3.35,0,0,1,1.65.39,2.54,2.54,0,0,1,1.11,1.16,4.34,4.34,0,0,1,.39,2v5.86h-1.43v-5.8a2.39,2.39,0,0,0-.57-1.71,2,2,0,0,0-1.56-.61,2.49,2.49,0,0,0-1.22.29,2.34,2.34,0,0,0-.84.87A3,3,0,0,0,373.25,179Z"/><path class="cls-1" d="M385.54,188.22a5.16,5.16,0,0,1-1.78-.26,3.85,3.85,0,0,1-1.23-.69,4.08,4.08,0,0,1-.79-.91l1.14-.8c.13.17.29.36.49.58a2.42,2.42,0,0,0,.81.58,3.21,3.21,0,0,0,1.36.24,3,3,0,0,0,1.86-.54,2,2,0,0,0,.73-1.71v-1.88H388a4.61,4.61,0,0,1-.44.62,2.43,2.43,0,0,1-.83.66,2.85,2.85,0,0,1-1.44.29,3.68,3.68,0,0,1-3.41-2.08,5.51,5.51,0,0,1-.51-2.47,5.81,5.81,0,0,1,.5-2.49,3.91,3.91,0,0,1,1.4-1.64,3.77,3.77,0,0,1,2.06-.59,3,3,0,0,1,1.45.3,2.71,2.71,0,0,1,.82.68c.19.25.34.46.44.62h.15v-1.48h1.38v9.56a3.16,3.16,0,0,1-.54,2,3.07,3.07,0,0,1-1.45,1.11A5.67,5.67,0,0,1,385.54,188.22Zm-.05-5.1a2.5,2.5,0,0,0,1.46-.4,2.44,2.44,0,0,0,.9-1.13,4.39,4.39,0,0,0,.31-1.76,4.55,4.55,0,0,0-.31-1.78,2.64,2.64,0,0,0-.89-1.2,2.76,2.76,0,0,0-3,0,2.81,2.81,0,0,0-.91,1.24,5.06,5.06,0,0,0-.3,1.72,4.71,4.71,0,0,0,.31,1.71,2.67,2.67,0,0,0,.91,1.16,2.5,2.5,0,0,0,1.52.44Z"/><path class="cls-1" d="M396.07,184.74a4.24,4.24,0,0,1-2.32-.6,4,4,0,0,1-1.49-1.67,5.64,5.64,0,0,1-.52-2.5,5.93,5.93,0,0,1,.52-2.52,4.29,4.29,0,0,1,1.46-1.7,4,4,0,0,1,2.2-.62,4.68,4.68,0,0,1,1.44.24,3.67,3.67,0,0,1,2.21,2.22,5.88,5.88,0,0,1,.35,2.19v.6h-7.17v-1.23h5.71a2.87,2.87,0,0,0-.31-1.4,2.36,2.36,0,0,0-.88-1,2.79,2.79,0,0,0-2.82.07,2.91,2.91,0,0,0-1,1.09,3.28,3.28,0,0,0-.34,1.44v.82a4.15,4.15,0,0,0,.37,1.78,2.56,2.56,0,0,0,1,1.11,3,3,0,0,0,1.52.38,3.08,3.08,0,0,0,1-.16,2,2,0,0,0,.79-.49,1.87,1.87,0,0,0,.51-.81l1.38.39a2.91,2.91,0,0,1-.73,1.23,3.24,3.24,0,0,1-1.27.82A4.4,4.4,0,0,1,396.07,184.74Z"/><path class="cls-1" d="M403.13,184.64a1.05,1.05,0,0,1-.77-.32,1.09,1.09,0,1,1,1.54-1.54,1,1,0,0,1,.32.77,1,1,0,0,1-.15.55,1,1,0,0,1-.39.39A.88.88,0,0,1,403.13,184.64Z"/><circle class="cls-1" cx="16.37" cy="178.16" r="3.69"/><rect class="cls-1" x="16.04" y="171.77" width="0.67" height="2.02" rx="0.25"/><rect class="cls-1" x="16.04" y="182.52" width="0.67" height="2.02" rx="0.25"/><rect class="cls-1" x="20.74" y="177.82" width="2.02" height="0.67" rx="0.25"/><rect class="cls-1" x="9.98" y="177.82" width="2.02" height="0.67" rx="0.25"/><rect class="cls-1" x="12.18" y="173.28" width="0.67" height="2.02" rx="0.25" transform="translate(-119.58 59.9) rotate(-45)"/><rect class="cls-1" x="19.9" y="181.12" width="0.67" height="2.02" rx="0.25" transform="translate(-122.86 67.66) rotate(-45)"/><rect class="cls-1" x="19.23" y="173.95" width="2.02" height="0.67" rx="0.25" transform="translate(-117.31 65.36) rotate(-45)"/><rect class="cls-1" x="11.51" y="181.69" width="2.02" height="0.67" rx="0.25" transform="translate(-125.04 62.17) rotate(-45)"/></svg>