<svg version="1.1" xmlns="http://www.w3.org/2000/svg" xmlns:xlink="http://www.w3.org/1999/xlink" width="394.24066" height="16.45385" viewBox="0,0,394.24066,16.45385"><g transform="translate(-9.98,-171.77)"><g data-paper-data="{&quot;isPaintingLayer&quot;:true}" fill="#ffffff" fill-rule="nonzero" stroke="none" stroke-width="1" stroke-linecap="butt" stroke-linejoin="miter" stroke-miterlimit="10" stroke-dasharray="" stroke-dashoffset="0" style="mix-blend-mode: normal"><path d="M33.32,184.58h-3.82v-12.42h4c1.07778,-0.0355 2.14521,0.22014 3.09,0.74c0.86745,0.48593 1.56538,1.22574 2,2.12c0.92027,2.11767 0.92027,4.52233 0,6.64c-0.43127,0.90167 -1.12953,1.6488 -2,2.14c-0.99977,0.54998 -2.12962,0.81948 -3.27,0.78zM31,183.21h2.2c0.89872,0.0344 1.78908,-0.18386 2.57,-0.63c0.67928,-0.37722 1.21133,-0.9727 1.51,-1.69c0.66503,-1.66609 0.66503,-3.52391 0,-5.19c-0.29695,-0.70538 -0.80756,-1.29992 -1.46,-1.7c-0.73825,-0.41152 -1.57542,-0.61216 -2.42,-0.58h-2.4z"/><path d="M44.29,184.76c-0.55447,0.0104 -1.10434,-0.10231 -1.61,-0.33c-0.98315,-0.44566 -1.59948,-1.44128 -1.56,-2.52c-0.01757,-0.45354 0.08965,-0.9032 0.31,-1.3c0.21349,-0.32352 0.50157,-0.59102 0.84,-0.78c0.36858,-0.19598 0.76223,-0.34066 1.17,-0.43c0.42,-0.09 0.85,-0.17 1.28,-0.23l1.38,-0.17c0.26804,-0.01067 0.53065,-0.07888 0.77,-0.2c0.17215,-0.09529 0.2706,-0.28432 0.25,-0.48v-0.05c0.03266,-0.51071 -0.14429,-1.01267 -0.49,-1.39c-0.40603,-0.35202 -0.93354,-0.53145 -1.47,-0.5c-0.57116,-0.02764 -1.13594,0.13022 -1.61,0.45c-0.34125,0.26871 -0.61801,0.61039 -0.81,1l-1.36,-0.48c0.22328,-0.51346 0.56616,-0.96606 1,-1.32c0.39748,-0.30462 0.84863,-0.53189 1.33,-0.67c0.80208,-0.22122 1.64525,-0.24864 2.46,-0.08c0.39957,0.07383 0.78243,0.21952 1.13,0.43c0.38942,0.24342 0.70427,0.58941 0.91,1c0.2668,0.54682 0.39066,1.15234 0.36,1.76v6.1h-1.45v-1.25h-0.12c-0.11855,0.24148 -0.28137,0.45857 -0.48,0.64c-0.25481,0.25821 -0.56159,0.45932 -0.9,0.59c-0.42441,0.15984 -0.87699,0.2313 -1.33,0.21zM44.5,183.48c0.4979,0.0231 0.99257,-0.09106 1.43,-0.33c0.37187,-0.19695 0.68042,-0.4951 0.89,-0.86c0.20333,-0.33403 0.30738,-0.71903 0.3,-1.11v-1.31c-0.10788,0.10861 -0.24838,0.17886 -0.4,0.2c-0.22838,0.07082 -0.46265,0.12102 -0.7,0.15c-0.27,0.05 -0.52,0.08 -0.77,0.11l-0.6,0.08c-0.33837,0.05282 -0.67255,0.12968 -1,0.23c-0.29005,0.0989 -0.5535,0.26312 -0.77,0.48c-0.20124,0.24065 -0.3079,0.54639 -0.3,0.86c-0.02519,0.44623 0.1879,0.87241 0.56,1.12c0.40597,0.25794 0.87912,0.39015 1.36,0.38z"/><path d="M51.74,188c-0.21838,0.00945 -0.43704,-0.01074 -0.65,-0.06c-0.13456,-0.01797 -0.26588,-0.05501 -0.39,-0.11l0.36,-1.26c0.29826,0.08787 0.60982,0.12173 0.92,0.1c0.27629,-0.01657 0.53335,-0.14691 0.71,-0.36c0.26151,-0.28716 0.45617,-0.62867 0.57,-1l0.27,-0.73l-3.44,-9.34h1.55l2.57,7.41h0.09l2.57,-7.41h1.55l-4,10.65c-0.14144,0.43541 -0.36553,0.83946 -0.66,1.19c-0.23677,0.31144 -0.55033,0.55609 -0.91,0.71c-0.35023,0.15019 -0.72911,0.22187 -1.11,0.21z"/><path d="M65.09,184.58v-9.29h1.38v1.46h0.12c0.18384,-0.47573 0.5127,-0.88156 0.94,-1.16c0.46883,-0.28701 1.01044,-0.43283 1.56,-0.42c0.541,-0.02019 1.07513,0.12644 1.53,0.42c0.43719,0.28333 0.78418,0.68584 1,1.16h0.1c0.23775,-0.47888 0.60948,-0.8784 1.07,-1.15c0.51909,-0.29915 1.11115,-0.44803 1.71,-0.43c0.74323,-0.01276 1.46165,0.26742 2,0.78c0.58145,0.66568 0.86669,1.53947 0.79,2.42v6.21h-1.43v-6.21c0.05812,-0.55123 -0.14985,-1.09716 -0.56,-1.47c-0.37951,-0.2953 -0.84925,-0.4507 -1.33,-0.44c-0.56255,-0.02792 -1.11079,0.18267 -1.51,0.58c-0.35868,0.41638 -0.55098,0.95054 -0.54,1.5v6h-1.45v-6.36c0.03131,-0.47392 -0.13944,-0.93895 -0.47,-1.28c-0.36036,-0.32637 -0.83418,-0.49867 -1.32,-0.48c-0.35239,0.01119 -0.6963,0.11092 -1,0.29c-0.31751,0.20906 -0.5813,0.48998 -0.77,0.82c-0.19857,0.3723 -0.30165,0.78806 -0.3,1.21v5.84z"/><path d="M83.68,184.74c-1.57387,0.05036 -3.02436,-0.84831 -3.68,-2.28c-0.36991,-0.78391 -0.5514,-1.64346 -0.53,-2.51c-0.01952,-0.87602 0.16178,-1.74489 0.53,-2.54c0.6725,-1.42349 2.10565,-2.33147 3.68,-2.33147c1.57435,0 3.0075,0.90798 3.68,2.33147c0.36822,0.79511 0.54952,1.66398 0.53,2.54c0.0214,0.86654 -0.16009,1.72609 -0.53,2.51c-0.65564,1.43169 -2.10613,2.33036 -3.68,2.28zM83.68,183.46c0.56416,0.02245 1.11876,-0.15064 1.57,-0.49c0.42289,-0.33182 0.73926,-0.7803 0.91,-1.29c0.20919,-0.55232 0.31101,-1.1395 0.3,-1.73c0.01034,-0.59371 -0.09144,-1.18403 -0.3,-1.74c-0.17315,-0.51125 -0.4889,-0.96232 -0.91,-1.3c-0.45124,-0.33936 -1.00584,-0.51245 -1.57,-0.49c-0.56691,-0.0199 -1.12383,0.15282 -1.58,0.49c-0.40767,0.35006 -0.72062,0.79714 -0.91,1.3c-0.19884,0.55856 -0.30032,1.14711 -0.3,1.74c-0.00117,0.58971 0.10034,1.17512 0.3,1.73c0.17797,0.51441 0.49253,0.9707 0.91,1.32c0.46001,0.32653 1.01661,0.48857 1.58,0.46z"/><path d="M93.57,184.74c-0.71027,0.00494 -1.40614,-0.20034 -2,-0.59c-0.60679,-0.41967 -1.08743,-0.99712 -1.39,-1.67c-0.65955,-1.63603 -0.65955,-3.46397 0,-5.1c0.30467,-0.67184 0.78919,-1.24635 1.4,-1.66c0.61872,-0.39206 1.33756,-0.59695 2.07,-0.59c0.49439,-0.0228 0.98646,0.08043 1.43,0.3c0.31665,0.16445 0.5932,0.39661 0.81,0.68c0.19,0.25 0.34,0.46 0.44,0.62h0.12v-4.57h1.43v12.42h-1.38v-1.42h-0.17c-0.1,0.17 -0.25,0.38 -0.44,0.64c-0.22659,0.2817 -0.50922,0.51326 -0.83,0.68c-0.46357,0.22122 -0.97891,0.31114 -1.49,0.26zM93.77,183.46c0.52066,0.02087 1.03264,-0.13802 1.45,-0.45c0.41053,-0.32889 0.72203,-0.76499 0.9,-1.26c0.2175,-0.59202 0.32264,-1.21942 0.31,-1.85c0.02015,-0.62046 -0.08178,-1.23883 -0.3,-1.82c-0.17412,-0.48873 -0.48687,-0.91615 -0.9,-1.23c-0.9096,-0.60132 -2.0904,-0.60132 -3,0c-0.40792,0.32723 -0.71905,0.75935 -0.9,1.25c-0.19898,0.56889 -0.30041,1.16731 -0.3,1.77c-0.00207,0.61261 0.09936,1.22117 0.3,1.8c0.18429,0.4999 0.49839,0.94171 0.91,1.28c0.4326,0.3475 0.97542,0.52844 1.53,0.51z"/><path d="M104.53,184.74c-0.81188,0.02816 -1.61445,-0.18029 -2.31,-0.6c-0.65426,-0.39301 -1.17383,-0.97534 -1.49,-1.67c-0.36066,-0.78346 -0.54174,-1.63759 -0.53,-2.5c-0.01071,-0.86875 0.17025,-1.72917 0.53,-2.52c0.32157,-0.68983 0.82665,-1.27793 1.46,-1.7c0.65742,-0.41625 1.42197,-0.63171 2.2,-0.62c0.48634,0.00407 0.96898,0.08507 1.43,0.24c1.03671,0.36768 1.85232,1.18329 2.22,2.22c0.25136,0.70179 0.36675,1.44503 0.34,2.19v0.6h-7.16v-1.23h5.78c0.00713,-0.48444 -0.09903,-0.96385 -0.31,-1.4c-0.19488,-0.41162 -0.50377,-0.75868 -0.89,-1c-0.87982,-0.48894 -1.95562,-0.46214 -2.81,0.07c-0.42166,0.27113 -0.76612,0.6466 -1,1.09c-0.21841,0.44854 -0.33129,0.94111 -0.33,1.44v0.82c-0.03723,0.62858 0.07948,1.25674 0.34,1.83c0.21555,0.4612 0.56371,0.84766 1,1.11c0.46406,0.25907 0.98862,0.39021 1.52,0.38c0.33988,0.00221 0.67778,-0.05186 1,-0.16c0.2995,-0.09615 0.57078,-0.26442 0.79,-0.49c0.24033,-0.2206 0.41948,-0.49965 0.52,-0.81l1.38,0.39c-0.13686,0.46678 -0.39172,0.89041 -0.74,1.23c-0.35101,0.37175 -0.78673,0.65308 -1.27,0.82c-0.53465,0.19453 -1.10129,0.28614 -1.67,0.27z"/><path d="M117.45,184.58l-2.82,-9.29h1.5l2,7.12h0.09l2,-7.12h1.53l2,7.09h0.09l2,-7.09h1.5l-2.87,9.29h-1.39l-2,-7.13h-0.14l-2,7.13z"/><path d="M129.91,173.7c-0.26438,0.0042 -0.51966,-0.09647 -0.71,-0.28c-0.35972,-0.36258 -0.35972,-0.94742 0,-1.31v-0.06c0.40489,-0.36994 1.02511,-0.36994 1.43,0c0.18404,0.16647 0.29392,0.39959 0.30519,0.64749c0.01127,0.2479 -0.07701,0.49003 -0.24519,0.67251h-0.06c-0.18435,0.20441 -0.44481,0.32378 -0.72,0.33zM129.19,184.58v-9.29h1.43v9.29z"/><path d="M133.23,184.58v-12.42h1.43v12.42z"/><path d="M137.27,184.58v-12.42h1.43v12.42z"/><path d="M148.84,184.76c-0.55447,0.0104 -1.10434,-0.10231 -1.61,-0.33c-0.98315,-0.44566 -1.59948,-1.44128 -1.56,-2.52c-0.02622,-0.46265 0.07771,-0.9234 0.3,-1.33c0.21349,-0.32352 0.50157,-0.59102 0.84,-0.78c0.36858,-0.19598 0.76223,-0.34066 1.17,-0.43c0.42,-0.09 0.85,-0.17 1.28,-0.23l1.38,-0.16c0.26804,-0.01067 0.53065,-0.07888 0.77,-0.2c0.1786,-0.08887 0.27956,-0.28272 0.25,-0.48v-0.05c0.03266,-0.51071 -0.14429,-1.01267 -0.49,-1.39c-0.40603,-0.35202 -0.93354,-0.53145 -1.47,-0.5c-0.57116,-0.02764 -1.13594,0.13022 -1.61,0.45c-0.34125,0.26871 -0.61801,0.61039 -0.81,1l-1.36,-0.48c0.22328,-0.51346 0.56616,-0.96606 1,-1.32c0.39748,-0.30462 0.84863,-0.53189 1.33,-0.67c0.80208,-0.22122 1.64525,-0.24864 2.46,-0.08c0.39957,0.07383 0.78243,0.21952 1.13,0.43c0.38942,0.24342 0.70427,0.58941 0.91,1c0.2668,0.54682 0.39066,1.15234 0.36,1.76v6.13h-1.44v-1.25h-0.08c-0.11855,0.24148 -0.28137,0.45857 -0.48,0.64c-0.25481,0.25821 -0.56159,0.45932 -0.9,0.59c-0.43761,0.16191 -0.90436,0.23005 -1.37,0.2zM149.05,183.48c0.4979,0.0231 0.99257,-0.09106 1.43,-0.33c0.37187,-0.19695 0.68042,-0.4951 0.89,-0.86c0.20333,-0.33403 0.30738,-0.71903 0.3,-1.11v-1.31c-0.10788,0.10861 -0.24838,0.17886 -0.4,0.2c-0.22838,0.07082 -0.46265,0.12102 -0.7,0.15c-0.26,0.05 -0.52,0.08 -0.77,0.11l-0.6,0.08c-0.33837,0.05282 -0.67255,0.12968 -1,0.23c-0.29005,0.0989 -0.5535,0.26312 -0.77,0.48c-0.20124,0.24065 -0.3079,0.54639 -0.3,0.86c-0.02519,0.44623 0.1879,0.87241 0.56,1.12c0.40597,0.25794 0.87912,0.39015 1.36,0.38z"/><path d="M155.71,188v-12.75h1.38v1.48h0.17c0.1,-0.16 0.25,-0.37 0.43,-0.62c0.22748,-0.27688 0.50581,-0.50769 0.82,-0.68c0.44466,-0.21632 0.93589,-0.31938 1.43,-0.3c0.73283,-0.00984 1.45248,0.19528 2.07,0.59c0.61743,0.40625 1.10375,0.98288 1.4,1.66c0.67015,1.63396 0.67015,3.46604 0,5.1c-0.29625,0.67681 -0.7782,1.25584 -1.39,1.67c-0.6083,0.39868 -1.32283,0.60433 -2.05,0.59c-0.49781,0.02542 -0.99376,-0.07791 -1.44,-0.3c-0.31722,-0.17207 -0.59888,-0.40283 -0.83,-0.68c-0.19,-0.26 -0.34,-0.47 -0.44,-0.64h-0.12v4.88zM157.11,179.87c-0.0077,0.63021 0.09729,1.25672 0.31,1.85c0.17511,0.4965 0.48713,0.93333 0.9,1.26c0.89423,0.65045 2.10577,0.65045 3,0c0.41723,-0.33302 0.73253,-0.77653 0.91,-1.28c0.20957,-0.57652 0.31126,-1.18668 0.3,-1.8c0.01032,-0.60348 -0.0914,-1.20363 -0.3,-1.77c-0.24932,-0.77286 -0.85581,-1.37821 -1.62914,-1.62607c-0.77333,-0.24786 -1.61872,-0.10786 -2.27086,0.37607c-0.40721,0.31962 -0.71858,0.74517 -0.9,1.23c-0.20543,0.56435 -0.31363,1.15946 -0.32,1.76z"/><path d="M166.09,188v-12.75h1.38v1.48h0.17c0.1,-0.16 0.25,-0.37 0.44,-0.62c0.22157,-0.27879 0.49705,-0.51006 0.81,-0.68c0.44466,-0.21632 0.93589,-0.31938 1.43,-0.3c0.73283,-0.00984 1.45248,0.19528 2.07,0.59c0.61743,0.40625 1.10375,0.98288 1.4,1.66c0.67015,1.63396 0.67015,3.46604 0,5.1c-0.29625,0.67681 -0.7782,1.25584 -1.39,1.67c-0.6083,0.39868 -1.32283,0.60433 -2.05,0.59c-0.49781,0.02542 -0.99376,-0.07791 -1.44,-0.3c-0.31722,-0.17207 -0.59888,-0.40283 -0.83,-0.68c-0.19,-0.26 -0.34,-0.47 -0.44,-0.64h-0.12v4.88zM167.49,179.87c-0.0077,0.63021 0.09729,1.25672 0.31,1.85c0.18457,0.49152 0.49491,0.92599 0.9,1.26c0.89423,0.65045 2.10577,0.65045 3,0c0.41723,-0.33302 0.73253,-0.77653 0.91,-1.28c0.20957,-0.57652 0.31126,-1.18668 0.3,-1.8c0.01032,-0.60348 -0.0914,-1.20363 -0.3,-1.77c-0.24932,-0.77286 -0.85581,-1.37821 -1.62914,-1.62607c-0.77333,-0.24786 -1.61872,-0.10786 -2.27086,0.37607c-0.40721,0.31962 -0.71858,0.74517 -0.9,1.23c-0.20543,0.56435 -0.31363,1.15946 -0.32,1.76z"/><path d="M176.47,184.58v-12.42h1.43v12.42z"/><path d="M181.43,188c-0.21838,0.00945 -0.43704,-0.01074 -0.65,-0.06c-0.13456,-0.01797 -0.26588,-0.05501 -0.39,-0.11l0.36,-1.26c0.29826,0.08787 0.60982,0.12173 0.92,0.1c0.27629,-0.01657 0.53335,-0.14691 0.71,-0.36c0.26151,-0.28716 0.45617,-0.62867 0.57,-1l0.27,-0.73l-3.44,-9.34h1.55l2.57,7.41h0.1l2.57,-7.41h1.55l-4,10.65c-0.14559,0.4336 -0.36927,0.8369 -0.66,1.19c-0.23677,0.31144 -0.55033,0.55609 -0.91,0.71c-0.35458,0.14743 -0.7361,0.21897 -1.12,0.21z"/><path d="M198.56,184.74c-1.57387,0.05036 -3.02436,-0.84831 -3.68,-2.28c-0.36084,-0.78694 -0.54188,-1.64436 -0.53,-2.51c-0.01071,-0.87519 0.17019,-1.74212 0.53,-2.54c0.6725,-1.42349 2.10565,-2.33147 3.68,-2.33147c1.57435,0 3.0075,0.90798 3.68,2.33147c0.36822,0.79511 0.54952,1.66398 0.53,2.54c0.0214,0.86654 -0.16009,1.72609 -0.53,2.51c-0.65564,1.43169 -2.10613,2.33036 -3.68,2.28zM198.56,183.46c0.56482,0.02755 1.12112,-0.14607 1.57,-0.49c0.42289,-0.33182 0.73926,-0.7803 0.91,-1.29c0.20919,-0.55232 0.31101,-1.1395 0.3,-1.73c0.01034,-0.59371 -0.09144,-1.18403 -0.3,-1.74c-0.17315,-0.51125 -0.4889,-0.96232 -0.91,-1.3c-0.94559,-0.65053 -2.19441,-0.65053 -3.14,0c-0.41819,0.34253 -0.73606,0.79169 -0.92,1.3c-0.19086,0.56032 -0.28882,1.14807 -0.29,1.74c0.00028,0.58874 0.09827,1.17335 0.29,1.73c0.17976,0.51867 0.50209,0.97616 0.93,1.32c0.45173,0.32797 1.0026,0.4904 1.56,0.46z"/><path d="M206.37,179v5.62h-1.37v-9.29h1.37v1.46h0.13c0.21108,-0.47193 0.55959,-0.86923 1,-1.14c0.51951,-0.30802 1.1164,-0.46071 1.72,-0.44c0.57383,-0.00885 1.14086,0.12517 1.65,0.39c0.48285,0.25703 0.86895,0.6642 1.1,1.16c0.28688,0.62627 0.42056,1.31183 0.39,2v5.86h-1.46v-5.8c0.04046,-0.62255 -0.1641,-1.23624 -0.57,-1.71c-0.40571,-0.42178 -0.9758,-0.6447 -1.56,-0.61c-0.42152,-0.00862 -0.83818,0.09124 -1.21,0.29c-0.35658,0.20808 -0.65027,0.50868 -0.85,0.87c-0.21179,0.41574 -0.32796,0.87357 -0.34,1.34z"/><path d="M223.75,175.25v1.21h-4.75v-1.21zM220.33,173h1.43v8.85c-0.01695,0.31361 0.04493,0.62646 0.18,0.91c0.10147,0.18333 0.26436,0.32497 0.46,0.4c0.19288,0.06713 0.39578,0.10095 0.6,0.1c0.12588,0.02001 0.25412,0.02001 0.38,0h0.25l0.29,1.29l-0.41,0.11c-0.21615,0.05055 -0.43828,0.07075 -0.66,0.06c-0.40726,-0.00255 -0.80938,-0.09116 -1.18,-0.26c-0.4007,-0.1694 -0.74677,-0.44626 -1,-0.8c-0.26033,-0.39747 -0.39292,-0.86504 -0.38,-1.34z"/><path d="M227.52,179v5.62h-1.43v-12.46h1.43v4.55h0.12c0.22015,-0.46871 0.5664,-0.8669 1,-1.15c0.53342,-0.30883 1.14427,-0.45807 1.76,-0.43c0.5761,-0.01111 1.14611,0.11938 1.66,0.38c0.48145,0.26205 0.8694,0.66747 1.11,1.16c0.29486,0.62393 0.4322,1.31066 0.4,2v5.91h-1.43v-5.8c0.04097,-0.62565 -0.16349,-1.24264 -0.57,-1.72c-0.42247,-0.41403 -0.99933,-0.63171 -1.59,-0.6c-0.43431,-0.00886 -0.86396,0.09082 -1.25,0.29c-0.36456,0.20438 -0.66562,0.50544 -0.87,0.87c-0.22223,0.42613 -0.33884,0.89941 -0.34,1.38z"/><path d="M240.05,184.74c-0.81188,0.02816 -1.61445,-0.18029 -2.31,-0.6c-0.65426,-0.39301 -1.17383,-0.97534 -1.49,-1.67c-0.36066,-0.78346 -0.54174,-1.63759 -0.53,-2.5c-0.01071,-0.86875 0.17025,-1.72917 0.53,-2.52c0.32157,-0.68983 0.82665,-1.27793 1.46,-1.7c0.65742,-0.41625 1.42197,-0.63171 2.2,-0.62c0.48634,0.00407 0.96898,0.08507 1.43,0.24c1.03671,0.36768 1.85232,1.18329 2.22,2.22c0.25136,0.70179 0.36675,1.44503 0.34,2.19v0.6h-7.16v-1.23h5.71c0.01679,-0.48538 -0.08988,-0.96708 -0.31,-1.4c-0.19246,-0.41322 -0.5019,-0.7609 -0.89,-1c-0.40458,-0.24104 -0.86922,-0.3624 -1.34,-0.35c-0.52126,-0.01236 -1.03395,0.13412 -1.47,0.42c-0.42166,0.27113 -0.76612,0.6466 -1,1.09c-0.21841,0.44854 -0.33129,0.94111 -0.33,1.44v0.82c-0.01976,0.6143 0.10707,1.22447 0.37,1.78c0.21555,0.4612 0.56371,0.84766 1,1.11c0.46112,0.25736 0.98199,0.38844 1.51,0.38c0.33988,0.00221 0.67778,-0.05186 1,-0.16c0.2995,-0.09615 0.57078,-0.26442 0.79,-0.49c0.24033,-0.2206 0.41948,-0.49965 0.52,-0.81l1.38,0.39c-0.13686,0.46678 -0.39172,0.89041 -0.74,1.23c-0.35101,0.37175 -0.78673,0.65308 -1.27,0.82c-0.51388,0.21156 -1.06427,0.32027 -1.62,0.32z"/><path d="M252.3,179v5.62h-1.43v-9.29h1.38v1.46h0.12c0.22035,-0.46592 0.56676,-0.86082 1,-1.14c0.51951,-0.30802 1.1164,-0.46071 1.72,-0.44c0.57434,-0.01363 1.14254,0.12067 1.65,0.39c0.48285,0.25703 0.86895,0.6642 1.1,1.16c0.28688,0.62627 0.42056,1.31183 0.39,2v5.86h-1.42v-5.8c0.04046,-0.62255 -0.1641,-1.23624 -0.57,-1.71c-0.40571,-0.42178 -0.9758,-0.6447 -1.56,-0.61c-0.42475,-0.00899 -0.84473,0.09084 -1.22,0.29c-0.35817,0.20275 -0.64994,0.50493 -0.84,0.87c-0.20917,0.4158 -0.31873,0.87456 -0.32,1.34z"/><path d="M264.73,184.74c-0.81188,0.02816 -1.61445,-0.18029 -2.31,-0.6c-0.65426,-0.39301 -1.17383,-0.97534 -1.49,-1.67c-0.36066,-0.78346 -0.54174,-1.63759 -0.53,-2.5c-0.01071,-0.86875 0.17025,-1.72917 0.53,-2.52c0.32157,-0.68983 0.82665,-1.27793 1.46,-1.7c0.65742,-0.41625 1.42197,-0.63171 2.2,-0.62c0.48634,0.00407 0.96898,0.08507 1.43,0.24c1.03671,0.36768 1.85232,1.18329 2.22,2.22c0.25136,0.70179 0.36675,1.44503 0.34,2.19v0.6h-7.16v-1.23h5.71c0.00713,-0.48444 -0.09903,-0.96385 -0.31,-1.4c-0.19488,-0.41162 -0.50377,-0.75868 -0.89,-1c-0.87982,-0.48894 -1.95562,-0.46214 -2.81,0.07c-0.42166,0.27113 -0.76612,0.6466 -1,1.09c-0.21841,0.44854 -0.33129,0.94111 -0.33,1.44v0.82c-0.01976,0.6143 0.10707,1.22447 0.37,1.78c0.21555,0.4612 0.56371,0.84766 1,1.11c0.46112,0.25736 0.98199,0.38844 1.51,0.38c0.33988,0.00221 0.67778,-0.05186 1,-0.16c0.2995,-0.09615 0.57078,-0.26442 0.79,-0.49c0.24479,-0.21265 0.43075,-0.4847 0.54,-0.79l1.37,0.39c-0.12925,0.46778 -0.38129,0.89247 -0.73,1.23c-0.35101,0.37175 -0.78673,0.65308 -1.27,0.82c-0.5215,0.2073 -1.07889,0.30926 -1.64,0.3z"/><path d="M271.58,175.25l2.23,3.8l2.23,-3.8h1.65l-3,4.65l3,4.64h-1.65l-2.23,-3.6l-2.23,3.6h-1.6l3,-4.64l-3,-4.65z"/><path d="M283.75,175.25v1.21h-4.75v-1.21zM280.34,173h1.43v8.85c-0.01695,0.31361 0.04493,0.62646 0.18,0.91c0.09935,0.18503 0.26297,0.32731 0.46,0.4c0.18921,0.06796 0.38897,0.10182 0.59,0.1c0.12922,0.02008 0.26078,0.02008 0.39,0h0.24l0.29,1.29l-0.4,0.11c-0.21615,0.05055 -0.43828,0.07075 -0.66,0.06c-0.4106,-0.00145 -0.81621,-0.09007 -1.19,-0.26c-0.38404,-0.17451 -0.71269,-0.45126 -0.95,-0.8c-0.26033,-0.39747 -0.39292,-0.86504 -0.38,-1.34z"/><path d="M290.69,184.58v-9.29h1.38v1.46h0.13c0.17692,-0.47677 0.50312,-0.88363 0.93,-1.16c0.46883,-0.28701 1.01044,-0.43283 1.56,-0.42c0.541,-0.02019 1.07513,0.12644 1.53,0.42c0.43719,0.28333 0.78418,0.68584 1,1.16h0.1c0.23775,-0.47888 0.60948,-0.8784 1.07,-1.15c0.51909,-0.29915 1.11115,-0.44803 1.71,-0.43c0.74323,-0.01276 1.46165,0.26742 2,0.78c0.58561,0.66331 0.87145,1.53893 0.79,2.42v6.21h-1.43v-6.21c0.05812,-0.55123 -0.14985,-1.09716 -0.56,-1.47c-0.37951,-0.2953 -0.84925,-0.4507 -1.33,-0.44c-0.56255,-0.02792 -1.11079,0.18267 -1.51,0.58c-0.35868,0.41638 -0.55098,0.95054 -0.54,1.5v6h-1.45v-6.36c0.01825,-0.48149 -0.17113,-0.94765 -0.52,-1.28c-0.36036,-0.32637 -0.83418,-0.49867 -1.32,-0.48c-0.35239,0.01119 -0.6963,0.11092 -1,0.29c-0.31751,0.20906 -0.5813,0.48998 -0.77,0.82c-0.19857,0.3723 -0.30165,0.78806 -0.3,1.21v5.84z"/><path d="M311.36,180.75v-5.5h1.43v9.33h-1.43v-1.58h-0.1c-0.22152,0.48129 -0.56655,0.89532 -1,1.2c-0.51301,0.35345 -1.1277,0.52908 -1.75,0.5c-0.54243,0.01256 -1.07811,-0.12223 -1.55,-0.39c-0.46493,-0.26757 -0.83532,-0.67289 -1.06,-1.16c-0.27953,-0.62861 -0.41287,-1.31242 -0.39,-2v-5.91h1.49v5.81c-0.02948,0.59381 0.17518,1.17548 0.57,1.62c0.37403,0.40707 0.90754,0.62997 1.46,0.61c0.65646,-0.00403 1.2821,-0.27903 1.72895,-0.75996c0.44684,-0.48092 0.6752,-1.12506 0.63105,-1.78004z"/><path d="M322,177.33l-1.28,0.37c-0.08254,-0.2293 -0.20435,-0.44248 -0.36,-0.63c-0.1678,-0.21385 -0.38364,-0.38514 -0.63,-0.5c-0.31385,-0.14165 -0.65581,-0.21004 -1,-0.2c-0.50131,-0.01188 -0.99508,0.12373 -1.42,0.39c-0.3498,0.2114 -0.56254,0.59129 -0.56,1c-0.01766,0.32517 0.12412,0.63858 0.38,0.84c0.36636,0.24701 0.77736,0.42024 1.21,0.51l1.38,0.34c0.69187,0.13259 1.33474,0.45057 1.86,0.92c0.41715,0.4252 0.6382,1.00501 0.61,1.6c0.01191,0.51177 -0.15027,1.01242 -0.46,1.42c-0.32387,0.44325 -0.76315,0.78914 -1.27,1c-0.5989,0.25909 -1.24783,0.38205 -1.9,0.36c-0.82806,0.03623 -1.64758,-0.17999 -2.35,-0.62c-0.62409,-0.41224 -1.05088,-1.06328 -1.18,-1.8l1.35,-0.34c0.09774,0.45281 0.36181,0.85248 0.74,1.12c0.42194,0.27207 0.91857,0.40497 1.42,0.38c0.55931,0.03131 1.11369,-0.11957 1.58,-0.43c0.3584,-0.20683 0.58228,-0.58627 0.59,-1c0.00707,-0.30702 -0.11223,-0.60347 -0.33,-0.82c-0.28794,-0.24313 -0.63143,-0.41144 -1,-0.49l-1.55,-0.36c-0.70454,-0.12445 -1.35771,-0.45104 -1.88,-0.94c-0.72903,-0.84848 -0.79076,-2.08303 -0.15,-3c0.31895,-0.41557 0.73894,-0.74261 1.22,-0.95c0.55338,-0.23471 1.14891,-0.35382 1.75,-0.35c0.77115,-0.04459 1.53504,0.17014 2.17,0.61c0.50185,0.40605 0.87096,0.95275 1.06,1.57z"/><path d="M325,173.7c-0.26782,0.00688 -0.5272,-0.09399 -0.72,-0.28c-0.37392,-0.34869 -0.39626,-0.93383 -0.05,-1.31l0.05,-0.06c0.40819,-0.37131 1.03181,-0.37131 1.44,0c0.36194,0.38495 0.36194,0.98505 0,1.37c-0.1928,0.18601 -0.45218,0.28688 -0.72,0.28zM324.27,184.58v-9.29h1.43v9.29z"/><path d="M332.12,184.74c-1.59203,0.05725 -3.05807,-0.862 -3.7,-2.32c-0.34943,-0.77586 -0.52356,-1.61919 -0.51,-2.47c-0.01796,-0.86193 0.15984,-1.71671 0.52,-2.5c0.32858,-0.68831 0.83633,-1.2755 1.47,-1.7c0.65742,-0.41625 1.42197,-0.63171 2.2,-0.62c0.60685,-0.00878 1.20805,0.11761 1.76,0.37c0.504,0.22502 0.94645,0.568 1.29,1c0.33652,0.44723 0.55025,0.97467 0.62,1.53h-1.43c-0.11085,-0.44489 -0.3636,-0.84156 -0.72,-1.13c-0.42174,-0.34405 -0.95648,-0.51874 -1.5,-0.49c-0.51909,-0.00863 -1.02845,0.14139 -1.46,0.43c-0.43193,0.31053 -0.77638,0.72731 -1,1.21c-0.23194,0.58538 -0.34743,1.21039 -0.34,1.84c-0.01326,0.63983 0.10237,1.27579 0.34,1.87c0.20524,0.50203 0.55284,0.93306 1,1.24c0.42639,0.30917 0.94361,0.4675 1.47,0.45c0.34419,0.01004 0.68615,-0.05835 1,-0.2c0.29697,-0.1191 0.56102,-0.30771 0.77,-0.55c0.22023,-0.2504 0.37182,-0.55358 0.44,-0.88h1.43c-0.13648,1.10456 -0.83707,2.05887 -1.85,2.52c-0.55721,0.28147 -1.17602,0.41898 -1.8,0.4z"/><path d="M346.42,184.74c-1.59203,0.05725 -3.05807,-0.862 -3.7,-2.32c-0.34943,-0.77586 -0.52356,-1.61919 -0.51,-2.47c-0.01796,-0.86193 0.15984,-1.71671 0.52,-2.5c0.32858,-0.68831 0.83633,-1.2755 1.47,-1.7c0.65456,-0.41438 1.41536,-0.62977 2.19,-0.62c0.61018,-0.00993 1.21489,0.11648 1.77,0.37c0.504,0.22502 0.94645,0.568 1.29,1c0.33652,0.44723 0.55025,0.97467 0.62,1.53h-1.43c-0.25325,-1.0042 -1.18641,-1.68516 -2.22,-1.62c-0.51909,-0.00863 -1.02845,0.14139 -1.46,0.43c-0.43193,0.31053 -0.77638,0.72731 -1,1.21c-0.23194,0.58538 -0.34743,1.21039 -0.34,1.84c-0.01326,0.63983 0.10237,1.27579 0.34,1.87c0.20524,0.50203 0.55284,0.93306 1,1.24c0.42639,0.30917 0.94361,0.4675 1.47,0.45c0.34419,0.01004 0.68615,-0.05835 1,-0.2c0.29697,-0.1191 0.56102,-0.30771 0.77,-0.55c0.22023,-0.2504 0.37182,-0.55358 0.44,-0.88h1.43c-0.13648,1.10456 -0.83707,2.05887 -1.85,2.52c-0.55721,0.28147 -1.17602,0.41898 -1.8,0.4z"/><path d="M353.58,179v5.62h-1.43v-12.46h1.43v4.55h0.12c0.22015,-0.46871 0.5664,-0.8669 1,-1.15c0.53342,-0.30883 1.14427,-0.45807 1.76,-0.43c0.5761,-0.01111 1.14611,0.11938 1.66,0.38c0.48145,0.26205 0.8694,0.66747 1.11,1.16c0.29181,0.62467 0.42573,1.31146 0.39,2v5.91h-1.42v-5.8c0.04097,-0.62565 -0.16349,-1.24264 -0.57,-1.72c-0.42247,-0.41403 -0.99933,-0.63171 -1.59,-0.6c-0.43431,-0.00886 -0.86396,0.09082 -1.25,0.29c-0.36456,0.20438 -0.66562,0.50544 -0.87,0.87c-0.22223,0.42613 -0.33884,0.89941 -0.34,1.38z"/><path d="M365,184.76c-0.55126,0.01059 -1.09792,-0.10216 -1.6,-0.33c-0.46728,-0.22234 -0.86493,-0.56812 -1.15,-1c-0.28808,-0.461 -0.43414,-0.99658 -0.42,-1.54c-0.00958,-0.45394 0.1008,-0.90237 0.32,-1.3c0.21349,-0.32352 0.50157,-0.59102 0.84,-0.78c0.36703,-0.19157 0.75678,-0.33604 1.16,-0.43c0.43,-0.09 0.86,-0.17 1.29,-0.23l1.37,-0.16c0.27121,-0.01078 0.53706,-0.07895 0.78,-0.2c0.16829,-0.09807 0.26252,-0.28652 0.24,-0.48v-0.05c0.03536,-0.50929 -0.13791,-1.01106 -0.48,-1.39c-0.40515,-0.36041 -0.93928,-0.54086 -1.48,-0.5c-0.56804,-0.02763 -1.12964,0.13032 -1.6,0.45c-0.34417,0.26834 -0.62427,0.60994 -0.82,1l-1.35,-0.48c0.21981,-0.51548 0.56327,-0.96885 1,-1.32c0.39466,-0.30909 0.84672,-0.53682 1.33,-0.67c0.46457,-0.11712 0.94098,-0.18087 1.42,-0.19c0.33567,0.01082 0.67,0.04759 1,0.11c0.3991,0.0755 0.78167,0.22108 1.13,0.43c0.3847,0.24904 0.69824,0.59359 0.91,1c0.2668,0.54682 0.39066,1.15234 0.36,1.76v6.12h-1.43v-1.25h-0.07c-0.11855,0.24148 -0.28137,0.45857 -0.48,0.64c-0.25481,0.25821 -0.56159,0.45932 -0.9,0.59c-0.43761,0.16191 -0.90436,0.23005 -1.37,0.2zM365.22,183.48c0.49781,0.02208 0.99221,-0.09202 1.43,-0.33c0.3712,-0.19434 0.67718,-0.49337 0.88,-0.86c0.20333,-0.33403 0.30738,-0.71903 0.3,-1.11v-1.31c-0.10241,0.11049 -0.24051,0.18131 -0.39,0.2c-0.23198,0.07006 -0.46951,0.12024 -0.71,0.15c-0.26,0.05 -0.52,0.08 -0.76,0.11l-0.61,0.08c-0.33858,0.05174 -0.67284,0.12862 -1,0.23c-0.29363,0.09751 -0.56063,0.26182 -0.78,0.48c-0.19846,0.24162 -0.30162,0.54753 -0.29,0.86c-0.02737,0.44427 0.18171,0.87002 0.55,1.12c0.40597,0.25794 0.87912,0.39015 1.36,0.38z"/><path d="M373.25,179v5.62h-1.43v-9.29h1.38v1.46h0.12c0.21711,-0.46804 0.56424,-0.86376 1,-1.14c0.51574,-0.30826 1.10952,-0.46105 1.71,-0.44c0.57434,-0.01363 1.14254,0.12067 1.65,0.39c0.48569,0.25648 0.87515,0.66349 1.11,1.16c0.28688,0.62627 0.42056,1.31183 0.39,2v5.86h-1.43v-5.8c0.04046,-0.62255 -0.1641,-1.23624 -0.57,-1.71c-0.40571,-0.42178 -0.9758,-0.6447 -1.56,-0.61c-0.42475,-0.00899 -0.84473,0.09084 -1.22,0.29c-0.3514,0.21139 -0.64107,0.51141 -0.84,0.87c-0.20571,0.41663 -0.31183,0.87535 -0.31,1.34z"/><path d="M385.54,188.22c-0.60398,0.01822 -1.20647,-0.06978 -1.78,-0.26c-0.44899,-0.1523 -0.86598,-0.38623 -1.23,-0.69c-0.30693,-0.26256 -0.57316,-0.56924 -0.79,-0.91l1.14,-0.8c0.13,0.17 0.29,0.36 0.49,0.58c0.22685,0.24742 0.5027,0.44494 0.81,0.58c0.43055,0.17772 0.89462,0.25962 1.36,0.24c0.66265,0.03059 1.31675,-0.15931 1.86,-0.54c0.5096,-0.41537 0.78251,-1.05466 0.73,-1.71v-1.88h-0.13c-0.12935,0.21843 -0.27651,0.4258 -0.44,0.62c-0.2247,0.27842 -0.50812,0.50379 -0.83,0.66c-0.44642,0.22083 -0.94291,0.32082 -1.44,0.29c-1.44679,0.03753 -2.78124,-0.77644 -3.41,-2.08c-0.35868,-0.77283 -0.53325,-1.61831 -0.51,-2.47c-0.019,-0.85672 0.15175,-1.70703 0.5,-2.49c0.30372,-0.66708 0.78884,-1.23536 1.4,-1.64c0.61514,-0.39178 1.33072,-0.59673 2.06,-0.59c0.50081,-0.02272 0.99932,0.08042 1.45,0.3c0.31563,0.17018 0.59435,0.40131 0.82,0.68c0.19,0.25 0.34,0.46 0.44,0.62h0.15v-1.48h1.38v9.56c0.04985,0.70841 -0.14038,1.41295 -0.54,2c-0.35956,0.50851 -0.86527,0.89564 -1.45,1.11c-0.65595,0.22384 -1.34738,0.32552 -2.04,0.3zM385.49,183.12c0.51631,0.02076 1.02637,-0.11899 1.46,-0.4c0.40718,-0.27719 0.72094,-0.67112 0.9,-1.13c0.22291,-0.55921 0.32843,-1.15828 0.31,-1.76c0.0167,-0.60809 -0.08872,-1.21336 -0.31,-1.78c-0.17493,-0.47735 -0.48398,-0.89404 -0.89,-1.2c-0.9127,-0.59092 -2.0873,-0.59092 -3,0c-0.41275,0.32066 -0.72789,0.75008 -0.91,1.24c-0.19891,0.55162 -0.30042,1.13361 -0.3,1.72c-0.00363,0.58429 0.10149,1.16416 0.31,1.71c0.18845,0.46441 0.50381,0.86641 0.91,1.16c0.44566,0.30738 0.97906,0.46178 1.52,0.44z"/><path d="M396.07,184.74c-0.81494,0.02724 -1.62045,-0.18108 -2.32,-0.6c-0.64545,-0.40355 -1.16236,-0.9829 -1.49,-1.67c-0.36218,-0.78262 -0.54007,-1.63787 -0.52,-2.5c-0.01319,-0.86793 0.16432,-1.72818 0.52,-2.52c0.32746,-0.68601 0.83131,-1.27269 1.46,-1.7c0.65742,-0.41625 1.42197,-0.63171 2.2,-0.62c0.4896,0.00418 0.97551,0.08517 1.44,0.24c1.03134,0.37266 1.842,1.18699 2.21,2.22c0.25453,0.70119 0.3733,1.44441 0.35,2.19v0.6h-7.17v-1.23h5.71c0.01679,-0.48538 -0.08988,-0.96708 -0.31,-1.4c-0.19122,-0.41092 -0.49673,-0.75808 -0.88,-1c-0.88344,-0.48858 -1.96189,-0.46181 -2.82,0.07c-0.42166,0.27113 -0.76612,0.6466 -1,1.09c-0.22153,0.44784 -0.33782,0.94037 -0.34,1.44v0.82c-0.00974,0.61339 0.11662,1.22131 0.37,1.78c0.21555,0.4612 0.56371,0.84766 1,1.11c0.46406,0.25907 0.98862,0.39021 1.52,0.38c0.33988,0.00221 0.67778,-0.05186 1,-0.16c0.29816,-0.09902 0.56881,-0.26688 0.79,-0.49c0.23739,-0.22118 0.41315,-0.50033 0.51,-0.81l1.38,0.39c-0.13721,0.46435 -0.38813,0.88712 -0.73,1.23c-0.35275,0.36965 -0.78793,0.65063 -1.27,0.82c-0.51184,0.20671 -1.05801,0.31527 -1.61,0.32z"/><path d="M403.13,184.64c-0.28983,0.00419 -0.56851,-0.11162 -0.77,-0.32c-0.29565,-0.27071 -0.41886,-0.68186 -0.3208,-1.07055c0.09806,-0.38869 0.40156,-0.69219 0.79025,-0.79025c0.38869,-0.09806 0.79984,0.02514 1.07055,0.3208c0.21369,0.19783 0.33054,0.47898 0.32,0.77c0.00442,0.194 -0.04769,0.3851 -0.15,0.55c-0.09087,0.16399 -0.22601,0.29913 -0.39,0.39c-0.16161,0.10964 -0.3551,0.16241 -0.55,0.15z"/><path d="M12.68,178.16c0,-2.03793 1.65207,-3.69 3.69,-3.69c2.03793,0 3.69,1.65207 3.69,3.69c0,2.03793 -1.65207,3.69 -3.69,3.69c-2.03793,0 -3.69,-1.65207 -3.69,-3.69z"/><path d="M16.29,173.79c-0.13807,0 -0.25,0 -0.25,0v-2.02c0,0 0.11193,0 0.25,0h0.17c0.13807,0 0.25,0 0.25,0v2.02c0,0 -0.11193,0 -0.25,0z"/><path d="M16.29,184.54c-0.13807,0 -0.25,0 -0.25,0v-2.02c0,0 0.11193,0 0.25,0h0.17c0.13807,0 0.25,0 0.25,0v2.02c0,0 -0.11193,0 -0.25,0z"/><path d="M20.99,178.49c-0.13807,0 -0.25,0 -0.25,0v-0.67c0,0 0.11193,0 0.25,0h1.52c0.13807,0 0.25,0 0.25,0v0.67c0,0 -0.11193,0 -0.25,0z"/><path d="M10.23,178.49c-0.13807,0 -0.25,0 -0.25,0v-0.67c0,0 0.11193,0 0.25,0h1.52c0.13807,0 0.25,0 0.25,0v0.67c0,0 -0.11193,0 -0.25,0z"/><path d="M13.16516,175.06648c-0.09763,0.09763 -0.17678,0.17678 -0.17678,0.17678l-1.42836,-1.42836c0,0 0.07915,-0.07915 0.17678,-0.17678l0.12021,-0.12021c0.09763,-0.09763 0.17678,-0.17678 0.17678,-0.17678l1.42836,1.42836c0,0 -0.07915,0.07915 -0.17678,0.17678z"/><path d="M20.88774,182.91133c-0.09763,0.09763 -0.17678,0.17678 -0.17678,0.17678l-1.42836,-1.42836c0,0 0.07915,-0.07915 0.17678,-0.17678l0.12021,-0.12021c0.09763,-0.09763 0.17678,-0.17678 0.17678,-0.17678l1.42836,1.42836c0,0 -0.07915,0.07915 -0.17678,0.17678z"/><path d="M19.93943,175.06055c-0.09763,0.09763 -0.17678,0.17678 -0.17678,0.17678l-0.47376,-0.47376c0,0 0.07915,-0.07915 0.17678,-0.17678l1.0748,-1.0748c0.09763,-0.09763 0.17678,-0.17678 0.17678,-0.17678l0.47376,0.47376c0,0 -0.07915,0.07915 -0.17678,0.17678z"/><path d="M12.22357,182.80242c-0.09763,0.09763 -0.17678,0.17678 -0.17678,0.17678l-0.47376,-0.47376c0,0 0.07915,-0.07915 0.17678,-0.17678l1.0748,-1.0748c0.09763,-0.09763 0.17678,-0.17678 0.17678,-0.17678l0.47376,0.47376c0,0 -0.07915,0.07915 -0.17678,0.17678z"/></g></g></svg>