<svg version="1.1" xmlns="http://www.w3.org/2000/svg" xmlns:xlink="http://www.w3.org/1999/xlink" width="48.44" height="16.23226" viewBox="0,0,48.44,16.23226"><g transform="translate(-9.98,-171.77)"><g data-paper-data="{&quot;isPaintingLayer&quot;:true}" fill="#231f20" fill-rule="nonzero" stroke="none" stroke-width="1" stroke-linecap="butt" stroke-linejoin="miter" stroke-miterlimit="10" stroke-dasharray="" stroke-dashoffset="0" style="mix-blend-mode: normal"><path d="M33.32,184.58h-3.82v-12.42h4c1.07778,-0.0355 2.14521,0.22014 3.09,0.74c0.86745,0.48593 1.56538,1.22574 2,2.12c0.92027,2.11767 0.92027,4.52233 0,6.64c-0.43127,0.90167 -1.12953,1.6488 -2,2.14c-0.99977,0.54998 -2.12962,0.81948 -3.27,0.78zM31,183.21h2.2c0.89872,0.0344 1.78908,-0.18386 2.57,-0.63c0.67928,-0.37722 1.21133,-0.9727 1.51,-1.69c0.66503,-1.66609 0.66503,-3.52391 0,-5.19c-0.29695,-0.70538 -0.80756,-1.29992 -1.46,-1.7c-0.73825,-0.41152 -1.57542,-0.61216 -2.42,-0.58h-2.4z"/><path d="M44.29,184.76c-0.55447,0.0104 -1.10434,-0.10231 -1.61,-0.33c-0.98315,-0.44566 -1.59948,-1.44128 -1.56,-2.52c-0.01757,-0.45354 0.08965,-0.9032 0.31,-1.3c0.21349,-0.32352 0.50157,-0.59102 0.84,-0.78c0.36858,-0.19598 0.76223,-0.34066 1.17,-0.43c0.42,-0.09 0.85,-0.17 1.28,-0.23l1.38,-0.17c0.26804,-0.01067 0.53065,-0.07888 0.77,-0.2c0.17215,-0.09529 0.2706,-0.28432 0.25,-0.48v-0.05c0.03266,-0.51071 -0.14429,-1.01267 -0.49,-1.39c-0.40603,-0.35202 -0.93354,-0.53145 -1.47,-0.5c-0.57116,-0.02764 -1.13594,0.13022 -1.61,0.45c-0.34125,0.26871 -0.61801,0.61039 -0.81,1l-1.36,-0.48c0.22328,-0.51346 0.56616,-0.96606 1,-1.32c0.39748,-0.30462 0.84863,-0.53189 1.33,-0.67c0.80208,-0.22122 1.64525,-0.24864 2.46,-0.08c0.39957,0.07383 0.78243,0.21952 1.13,0.43c0.38942,0.24342 0.70427,0.58941 0.91,1c0.2668,0.54682 0.39066,1.15234 0.36,1.76v6.1h-1.45v-1.25h-0.12c-0.11855,0.24148 -0.28137,0.45857 -0.48,0.64c-0.25481,0.25821 -0.56159,0.45932 -0.9,0.59c-0.42441,0.15984 -0.87699,0.2313 -1.33,0.21zM44.5,183.48c0.4979,0.0231 0.99257,-0.09106 1.43,-0.33c0.37187,-0.19695 0.68042,-0.4951 0.89,-0.86c0.20333,-0.33403 0.30738,-0.71903 0.3,-1.11v-1.31c-0.10788,0.10861 -0.24838,0.17886 -0.4,0.2c-0.22838,0.07082 -0.46265,0.12102 -0.7,0.15c-0.27,0.05 -0.52,0.08 -0.77,0.11l-0.6,0.08c-0.33837,0.05282 -0.67255,0.12968 -1,0.23c-0.29005,0.0989 -0.5535,0.26312 -0.77,0.48c-0.20124,0.24065 -0.3079,0.54639 -0.3,0.86c-0.02519,0.44623 0.1879,0.87241 0.56,1.12c0.40597,0.25794 0.87912,0.39015 1.36,0.38z"/><path d="M51.74,188c-0.21838,0.00945 -0.43704,-0.01074 -0.65,-0.06c-0.13456,-0.01797 -0.26588,-0.05501 -0.39,-0.11l0.36,-1.26c0.29826,0.08787 0.60982,0.12173 0.92,0.1c0.27629,-0.01657 0.53335,-0.14691 0.71,-0.36c0.26151,-0.28716 0.45617,-0.62867 0.57,-1l0.27,-0.73l-3.44,-9.34h1.55l2.57,7.41h0.09l2.57,-7.41h1.55l-4,10.65c-0.14144,0.43541 -0.36553,0.83946 -0.66,1.19c-0.23677,0.31144 -0.55033,0.55609 -0.91,0.71c-0.35023,0.15019 -0.72911,0.22187 -1.11,0.21z"/><path d="M12.68,178.16c0,-2.03793 1.65207,-3.69 3.69,-3.69c2.03793,0 3.69,1.65207 3.69,3.69c0,2.03793 -1.65207,3.69 -3.69,3.69c-2.03793,0 -3.69,-1.65207 -3.69,-3.69z"/><path d="M16.29,173.79c-0.13807,0 -0.25,0 -0.25,0v-2.02c0,0 0.11193,0 0.25,0h0.17c0.13807,0 0.25,0 0.25,0v2.02c0,0 -0.11193,0 -0.25,0z"/><path d="M16.29,184.54c-0.13807,0 -0.25,0 -0.25,0v-2.02c0,0 0.11193,0 0.25,0h0.17c0.13807,0 0.25,0 0.25,0v2.02c0,0 -0.11193,0 -0.25,0z"/><path d="M20.99,178.49c-0.13807,0 -0.25,0 -0.25,0v-0.67c0,0 0.11193,0 0.25,0h1.52c0.13807,0 0.25,0 0.25,0v0.67c0,0 -0.11193,0 -0.25,0z"/><path d="M10.23,178.49c-0.13807,0 -0.25,0 -0.25,0v-0.67c0,0 0.11193,0 0.25,0h1.52c0.13807,0 0.25,0 0.25,0v0.67c0,0 -0.11193,0 -0.25,0z"/><path d="M13.16516,175.06648c-0.09763,0.09763 -0.17678,0.17678 -0.17678,0.17678l-1.42836,-1.42836c0,0 0.07915,-0.07915 0.17678,-0.17678l0.12021,-0.12021c0.09763,-0.09763 0.17678,-0.17678 0.17678,-0.17678l1.42836,1.42836c0,0 -0.07915,0.07915 -0.17678,0.17678z"/><path d="M20.88774,182.91133c-0.09763,0.09763 -0.17678,0.17678 -0.17678,0.17678l-1.42836,-1.42836c0,0 0.07915,-0.07915 0.17678,-0.17678l0.12021,-0.12021c0.09763,-0.09763 0.17678,-0.17678 0.17678,-0.17678l1.42836,1.42836c0,0 -0.07915,0.07915 -0.17678,0.17678z"/><path d="M19.93943,175.06055c-0.09763,0.09763 -0.17678,0.17678 -0.17678,0.17678l-0.47376,-0.47376c0,0 0.07915,-0.07915 0.17678,-0.17678l1.0748,-1.0748c0.09763,-0.09763 0.17678,-0.17678 0.17678,-0.17678l0.47376,0.47376c0,0 -0.07915,0.07915 -0.17678,0.17678z"/><path d="M12.22357,182.80242c-0.09763,0.09763 -0.17678,0.17678 -0.17678,0.17678l-0.47376,-0.47376c0,0 0.07915,-0.07915 0.17678,-0.17678l1.0748,-1.0748c0.09763,-0.09763 0.17678,-0.17678 0.17678,-0.17678l0.47376,0.47376c0,0 -0.07915,0.07915 -0.17678,0.17678z"/></g></g></svg>