<svg version="1.1" xmlns="http://www.w3.org/2000/svg" xmlns:xlink="http://www.w3.org/1999/xlink" width="406.75298" height="16.48031" viewBox="0,0,406.75298,16.48031"><g transform="translate(-9.9861,-171.75397)"><g data-paper-data="{&quot;isPaintingLayer&quot;:true}" fill="#ffffff" fill-rule="nonzero" stroke="none" stroke-width="1" stroke-linecap="butt" stroke-linejoin="miter" stroke-miterlimit="10" stroke-dasharray="" stroke-dashoffset="0" style="mix-blend-mode: normal"><path d="M39.34,172.16v12.39h-1.45l-6.75,-9.73h-0.14v9.73h-1.5v-12.39h1.5l6.77,9.75h0.12v-9.75z"/><path d="M42.87,173.71c-0.26782,0.00688 -0.5272,-0.09399 -0.72,-0.28c-0.36194,-0.38495 -0.36194,-0.98505 0,-1.37c0.18848,-0.19555 0.4484,-0.30603 0.72,-0.30603c0.2716,0 0.53152,0.11047 0.72,0.30603c0.1918,0.17613 0.30097,0.4246 0.30097,0.685c0,0.2604 -0.10917,0.50887 -0.30097,0.685c-0.1928,0.18601 -0.45218,0.28688 -0.72,0.28zM42.15,184.55v-9.29h1.42v9.29z"/><path d="M49.94,188.23c-0.60451,0.01397 -1.20683,-0.07739 -1.78,-0.27c-0.45491,-0.1457 -0.87639,-0.38023 -1.24,-0.69c-0.31081,-0.2558 -0.57475,-0.56372 -0.78,-0.91l1.14,-0.79c0.12,0.16 0.29,0.36 0.49,0.58c0.22603,0.24585 0.50227,0.44025 0.81,0.57c0.42863,0.185 0.8936,0.27047 1.36,0.25c0.66041,0.02545 1.31075,-0.16789 1.85,-0.55c0.51029,-0.4112 0.78676,-1.04632 0.74,-1.7v-1.89h-0.12c-0.10667,0.16667 -0.25667,0.37667 -0.45,0.63c-0.2272,0.27185 -0.50587,0.49615 -0.82,0.66c-0.45069,0.2072 -0.94451,0.30322 -1.44,0.28c-0.70279,0.0112 -1.39498,-0.17223 -2,-0.53c-0.61291,-0.3659 -1.10358,-0.90529 -1.41,-1.55c-0.36935,-0.76957 -0.54772,-1.61684 -0.52,-2.47c-0.01851,-0.85345 0.15224,-1.7004 0.5,-2.48c0.30261,-0.67046 0.78777,-1.24225 1.4,-1.65c0.61764,-0.39338 1.33788,-0.59519 2.07,-0.58c0.49767,-0.02363 0.99317,0.0796 1.44,0.3c0.31688,0.16399 0.59614,0.39217 0.82,0.67c0.2,0.26 0.34,0.46 0.45,0.62h0.14v-1.47h1.41v9.55c0.03863,0.70727 -0.15064,1.40829 -0.54,2c-0.36149,0.50436 -0.86689,0.88777 -1.45,1.1c-0.66288,0.23926 -1.36581,0.34792 -2.07,0.32zM49.94,183.12c0.51138,0.01724 1.01627,-0.11856 1.45,-0.39c0.40983,-0.27432 0.72432,-0.66918 0.9,-1.13c0.22155,-0.56308 0.32699,-1.16514 0.31,-1.77c0.01149,-0.60356 -0.09027,-1.20393 -0.3,-1.77c-0.17649,-0.48198 -0.48915,-0.90234 -0.9,-1.21c-0.90799,-0.60667 -2.09201,-0.60667 -3,0c-0.40721,0.31962 -0.71858,0.74517 -0.9,1.23c-0.20564,0.54981 -0.30737,1.13304 -0.3,1.72c-0.01194,0.58407 0.08995,1.16488 0.3,1.71c0.1875,0.46496 0.50305,0.8672 0.91,1.16c0.43484,0.29963 0.95197,0.45686 1.48,0.45z"/><path d="M58,179v5.59h-1.43v-12.43h1.43v4.55h0.13c0.2115,-0.47428 0.55968,-0.87469 1,-1.15c0.53135,-0.304 1.13855,-0.44973 1.75,-0.42c0.57534,-0.01503 1.1455,0.11206 1.66,0.37c0.48311,0.25988 0.87164,0.66592 1.11,1.16c0.29255,0.62469 0.42978,1.31084 0.4,2v5.9h-1.46v-5.81c0.0485,-0.6422 -0.16424,-1.27679 -0.59,-1.76c-0.41033,-0.4273 -0.98898,-0.65071 -1.58,-0.61c-0.43854,-0.00746 -0.87188,0.09572 -1.26,0.3c-0.37039,0.19196 -0.67377,0.49185 -0.87,0.86c-0.22392,0.44893 -0.32403,0.94948 -0.29,1.45z"/><path d="M70.67,175.26v1.21h-4.81v-1.21zM67.26,173h1.43v8.86c-0.01971,0.31058 0.04236,0.62089 0.18,0.9c0.10147,0.18333 0.26436,0.32497 0.46,0.4c0.18881,0.06946 0.38885,0.10336 0.59,0.1c0.12971,0.01233 0.26029,0.01233 0.39,0h0.24l0.29,1.28c-0.13027,0.04702 -0.26401,0.0838 -0.4,0.11c-0.21722,0.04353 -0.43849,0.06364 -0.66,0.06c-0.4105,-0.00235 -0.81593,-0.09093 -1.19,-0.26c-0.4,-0.16574 -0.74618,-0.43922 -1,-0.79c-0.26351,-0.39975 -0.3963,-0.87149 -0.38,-1.35z"/><path d="M77.62,184.55v-9.29h1.38v1.45h0.12c0.17501,-0.47785 0.50164,-0.88527 0.93,-1.16c0.47077,-0.28144 1.01169,-0.4236 1.56,-0.41c0.53931,-0.01754 1.07173,0.12513 1.53,0.41c0.43609,0.28459 0.78277,0.68674 1,1.16h0.1c0.23727,-0.47921 0.60911,-0.87885 1.07,-1.15c0.52162,-0.29182 1.11253,-0.43696 1.71,-0.42c0.74202,-0.01653 1.46064,0.26014 2,0.77c0.58042,0.66626 0.86552,1.5396 0.79,2.42v6.22h-1.43v-6.22c0.05812,-0.55123 -0.14985,-1.09716 -0.56,-1.47c-0.37722,-0.29241 -0.84278,-0.4476 -1.32,-0.44c-0.55913,-0.02507 -1.10318,0.1853 -1.5,0.58c-0.36586,0.40818 -0.55939,0.9422 -0.54,1.49v6.05h-1.46v-6.36c0.02224,-0.48219 -0.16778,-0.94994 -0.52,-1.28c-0.35583,-0.33479 -0.8319,-0.51151 -1.32,-0.49c-0.35456,0.00623 -0.70056,0.11003 -1,0.3c-0.32646,0.19823 -0.59268,0.48173 -0.77,0.82c-0.20537,0.36603 -0.30895,0.78039 -0.3,1.2v5.81z"/><path d="M96.2,184.74c-0.77891,0.01564 -1.54594,-0.19261 -2.21,-0.6c-0.63807,-0.40645 -1.14778,-0.98552 -1.47,-1.67c-0.70663,-1.60918 -0.70663,-3.44082 0,-5.05c0.32336,-0.68946 0.8368,-1.2723 1.48,-1.68c0.66406,-0.40739 1.43109,-0.61564 2.21,-0.6c1.57171,-0.04234 3.01814,0.85381 3.68,2.28c0.70663,1.60918 0.70663,3.44082 0,5.05c-0.32493,0.68579 -0.83824,1.26499 -1.48,1.67c-0.66245,0.4111 -1.4306,0.61965 -2.21,0.6zM96.2,183.46c0.56449,0.02496 1.11992,-0.14839 1.57,-0.49c0.41673,-0.33978 0.73448,-0.78532 0.92,-1.29c0.38629,-1.12099 0.38629,-2.33901 0,-3.46c-0.18122,-0.50972 -0.49957,-0.95956 -0.92,-1.3c-0.94004,-0.66815 -2.19996,-0.66815 -3.14,0c-0.42043,0.34044 -0.73878,0.79028 -0.92,1.3c-0.38629,1.12099 -0.38629,2.33901 0,3.46c0.18552,0.50468 0.50327,0.95022 0.92,1.29c0.45008,0.34161 1.00551,0.51496 1.57,0.49z"/><path d="M106.1,184.74c-0.73055,0.01636 -1.44887,-0.18937 -2.06,-0.59c-0.60854,-0.41775 -1.08963,-0.99575 -1.39,-1.67c-0.34879,-0.80394 -0.51936,-1.67387 -0.5,-2.55c-0.02015,-0.87296 0.15049,-1.7398 0.5,-2.54c0.29945,-0.6778 0.78487,-1.25684 1.4,-1.67c0.61764,-0.39338 1.33788,-0.59519 2.07,-0.58c0.49746,-0.02105 0.99233,0.08205 1.44,0.3c0.31218,0.16678 0.58764,0.39463 0.81,0.67l0.44,0.62h0.12v-4.57h1.42v12.39h-1.35v-1.43h-0.16c-0.11,0.17 -0.26,0.38 -0.45,0.64c-0.22659,0.2817 -0.50922,0.51326 -0.83,0.68c-0.45368,0.22123 -0.95585,0.32441 -1.46,0.3zM106.29,183.46c0.52012,0.01687 1.03082,-0.14162 1.45,-0.45c0.41417,-0.32125 0.72671,-0.75532 0.9,-1.25c0.40687,-1.19293 0.40687,-2.48707 0,-3.68c-0.17375,-0.48619 -0.48675,-0.91049 -0.9,-1.22c-0.90632,-0.61213 -2.09368,-0.61213 -3,0c-0.4098,0.32544 -0.72134,0.75814 -0.9,1.25c-0.20597,0.56707 -0.30761,1.16673 -0.3,1.77c-0.00795,0.61307 0.09365,1.22264 0.3,1.8c0.18273,0.50353 0.49694,0.94895 0.91,1.29c0.44047,0.33795 0.98523,0.51128 1.54,0.49z"/><path d="M117.06,184.74c-0.81288,0.02048 -1.61566,-0.18367 -2.32,-0.59c-0.64545,-0.40355 -1.16236,-0.9829 -1.49,-1.67c-0.36218,-0.78262 -0.54007,-1.63787 -0.52,-2.5c-0.02101,-0.86865 0.15686,-1.73061 0.52,-2.52c0.32004,-0.69349 0.82525,-1.28521 1.46,-1.71c0.65682,-0.41655 1.42246,-0.62884 2.2,-0.61c0.48989,0.00073 0.97635,0.08181 1.44,0.24c0.47826,0.16393 0.91506,0.43011 1.28,0.78c0.41491,0.39958 0.73301,0.8887 0.93,1.43c0.24523,0.70333 0.36044,1.44542 0.34,2.19v0.61h-7.16v-1.24h5.71c0.01135,-0.48486 -0.09502,-0.96525 -0.31,-1.4c-0.19122,-0.41092 -0.49673,-0.75808 -0.88,-1c-0.40598,-0.24742 -0.87473,-0.37243 -1.35,-0.36c-0.52151,-0.01429 -1.03476,0.13236 -1.47,0.42c-0.4283,0.26316 -0.77463,0.64066 -1,1.09c-0.22716,0.44579 -0.34377,0.93968 -0.34,1.44v0.82c-0.01647,0.61723 0.11017,1.22989 0.37,1.79c0.21566,0.45853 0.56403,0.84175 1,1.1c0.46406,0.25907 0.98862,0.39021 1.52,0.38c0.33999,0.00372 0.67814,-0.05038 1,-0.16c0.2924,-0.10636 0.56088,-0.26949 0.79,-0.48c0.22638,-0.2301 0.40035,-0.50641 0.51,-0.81l1.38,0.39c-0.14804,0.45954 -0.39753,0.87991 -0.73,1.23c-0.36257,0.3576 -0.79488,0.63673 -1.27,0.82c-0.51437,0.19813 -1.05896,0.30637 -1.61,0.32z"/><path d="M130,184.55l-2.83,-9.29h1.5l2,7.11h0.1l2,-7.11h1.52l2,7.09h0.1l2,-7.09h1.5l-2.89,9.29h-1.4l-2,-7.14h-0.15l-2,7.14z"/><path d="M142.44,173.71c-0.26782,0.00688 -0.5272,-0.09399 -0.72,-0.28c-0.1918,-0.17613 -0.30097,-0.4246 -0.30097,-0.685c0,-0.2604 0.10917,-0.50887 0.30097,-0.685c0.19116,-0.18967 0.45074,-0.29422 0.72,-0.29c0.2658,-0.00154 0.52128,0.10281 0.71,0.29c0.1918,0.17613 0.30097,0.4246 0.30097,0.685c0,0.2604 -0.10917,0.50887 -0.30097,0.685c-0.19034,0.18353 -0.44562,0.2842 -0.71,0.28zM141.71,184.55v-9.29h1.43v9.29z"/><path d="M147.18,172.16v12.39h-1.43v-12.39z"/><path d="M151.22,172.16v12.39h-1.43v-12.39z"/><path d="M161.36,184.77c-0.55172,0.00448 -1.09777,-0.11156 -1.6,-0.34c-0.47049,-0.21741 -0.86936,-0.56426 -1.15,-1c-0.29054,-0.46362 -0.43673,-1.00312 -0.42,-1.55c-0.0202,-0.45379 0.08719,-0.90416 0.31,-1.3c0.20796,-0.32816 0.49735,-0.59688 0.84,-0.78c0.36961,-0.19368 0.76294,-0.33824 1.17,-0.43c0.42,-0.09 0.85,-0.17 1.28,-0.22l1.38,-0.17c0.26747,-0.01443 0.52932,-0.08244 0.77,-0.2c0.17215,-0.09529 0.2706,-0.28432 0.25,-0.48v-0.05c0.0315,-0.51055 -0.1453,-1.01207 -0.49,-1.39c-0.40425,-0.35422 -0.93406,-0.53083 -1.47,-0.49c-0.56755,-0.0366 -1.13097,0.11834 -1.6,0.44c-0.35115,0.2611 -0.63274,0.60451 -0.82,1l-1.36,-0.49c0.21798,-0.51654 0.56176,-0.97032 1,-1.32c0.39169,-0.31154 0.845,-0.53649 1.33,-0.66c0.46277,-0.12624 0.94032,-0.19013 1.42,-0.19c0.33559,0.00454 0.67016,0.03799 1,0.1c0.39893,0.0761 0.7814,0.22164 1.13,0.43c0.38909,0.24382 0.70385,0.5897 0.91,1c0.27276,0.54862 0.40016,1.15806 0.37,1.77v6.12h-1.43v-1.26h-0.07c-0.12777,0.24132 -0.29317,0.46074 -0.49,0.65c-0.25723,0.25278 -0.56353,0.45017 -0.9,0.58c-0.43199,0.1719 -0.89551,0.25029 -1.36,0.23zM161.58,183.48c0.49717,0.01533 0.98983,-0.09836 1.43,-0.33c0.3666,-0.2006 0.67102,-0.4981 0.88,-0.86c0.19537,-0.33375 0.29888,-0.71328 0.3,-1.1v-1.31c-0.11309,0.10118 -0.2512,0.17023 -0.4,0.2l-0.7,0.15l-0.77,0.11l-0.6,0.07c-0.33899,0.04957 -0.67342,0.12648 -1,0.23c-0.29218,0.09436 -0.55663,0.25921 -0.77,0.48c-0.20552,0.23765 -0.30965,0.54642 -0.29,0.86c-0.02692,0.44694 0.18165,0.87545 0.55,1.13c0.41064,0.25469 0.88697,0.38333 1.37,0.37z"/><path d="M168.23,188v-12.74h1.38v1.47h0.17c0.1,-0.16 0.25,-0.36 0.44,-0.62c0.21765,-0.27998 0.49417,-0.50871 0.81,-0.67c0.44325,-0.22041 0.93554,-0.32369 1.43,-0.3c0.7325,-0.01823 1.45361,0.18382 2.07,0.58c0.61776,0.41022 1.1039,0.99012 1.4,1.67c0.35459,0.7986 0.52545,1.66659 0.5,2.54c0.02424,0.87654 -0.14654,1.74752 -0.5,2.55c-0.29578,0.6771 -0.77782,1.25625 -1.39,1.67c-0.5931,0.39132 -1.28947,0.59675 -2,0.59c-0.49746,0.02105 -0.99233,-0.08205 -1.44,-0.3c-0.31783,-0.16691 -0.59716,-0.39855 -0.82,-0.68c-0.16236,-0.20437 -0.31261,-0.41807 -0.45,-0.64h-0.12v4.88zM169.63,179.87c-0.00889,0.63356 0.09611,1.26357 0.31,1.86c0.1805,0.49089 0.49171,0.92312 0.9,1.25c0.88816,0.61185 2.06184,0.61185 2.95,0c0.4164,-0.33793 0.73133,-0.78436 0.91,-1.29c0.20635,-0.57736 0.30795,-1.18693 0.3,-1.8c0.00638,-0.60233 -0.09174,-1.2012 -0.29,-1.77c-0.17854,-0.49459 -0.49417,-0.92815 -0.91,-1.25c-0.43327,-0.31919 -0.96228,-0.48141 -1.5,-0.46c-0.52476,-0.01668 -1.0407,0.13776 -1.47,0.44c-0.40748,0.31295 -0.71641,0.73643 -0.89,1.22c-0.22018,0.58435 -0.32544,1.20573 -0.31,1.83z"/><path d="M178.61,188v-12.74h1.39v1.47h0.17c0.1,-0.16 0.25,-0.36 0.44,-0.62c0.22236,-0.27537 0.49782,-0.50322 0.81,-0.67c0.44325,-0.22041 0.93554,-0.32369 1.43,-0.3c0.7325,-0.01823 1.45361,0.18382 2.07,0.58c0.61776,0.41022 1.1039,0.99012 1.4,1.67c0.35459,0.7986 0.52545,1.66659 0.5,2.54c0.02424,0.87654 -0.14654,1.74752 -0.5,2.55c-0.29578,0.6771 -0.77782,1.25625 -1.39,1.67c-0.5931,0.39132 -1.28947,0.59675 -2,0.59c-0.49446,0.02369 -0.98675,-0.07959 -1.43,-0.3c-0.32245,-0.16419 -0.60558,-0.39616 -0.83,-0.68c-0.16236,-0.20437 -0.31261,-0.41807 -0.45,-0.64h-0.22v4.88zM180.01,179.87c-0.00889,0.63356 0.09611,1.26357 0.31,1.86c0.1805,0.49089 0.49171,0.92312 0.9,1.25c0.88816,0.61185 2.06184,0.61185 2.95,0c0.4164,-0.33793 0.73133,-0.78436 0.91,-1.29c0.20976,-0.57674 0.31474,-1.18632 0.31,-1.8c0.00761,-0.60327 -0.09403,-1.20293 -0.3,-1.77c-0.17854,-0.49459 -0.49417,-0.92815 -0.91,-1.25c-0.43327,-0.31919 -0.96228,-0.48141 -1.5,-0.46c-0.52476,-0.01668 -1.0407,0.13776 -1.47,0.44c-0.40748,0.31295 -0.71641,0.73643 -0.89,1.22c-0.22359,0.58368 -0.33225,1.20508 -0.32,1.83z"/><path d="M190.42,172.16v12.39h-1.42v-12.39z"/><path d="M194,188c-0.21764,0.00024 -0.43496,-0.01648 -0.65,-0.05c-0.13483,-0.02217 -0.26603,-0.06254 -0.39,-0.12l0.36,-1.25c0.29966,0.08022 0.61047,0.11063 0.92,0.09c0.27271,-0.02162 0.52678,-0.14686 0.71,-0.35c0.25792,-0.28974 0.45212,-0.63043 0.57,-1l0.27,-0.72l-3.43,-9.34h1.54l2.57,7.4h0.1l2.56,-7.4h1.55l-3.94,10.64c-0.15384,0.43298 -0.37672,0.83821 -0.66,1.2c-0.24785,0.29774 -0.55865,0.53681 -0.91,0.7c-0.37105,0.15012 -0.77015,0.21834 -1.17,0.2z"/><path d="M211.08,184.74c-1.56867,0.04148 -3.01313,-0.84953 -3.68,-2.27c-0.70663,-1.60918 -0.70663,-3.44082 0,-5.05c0.6725,-1.42349 2.10565,-2.33147 3.68,-2.33147c1.57435,0 3.0075,0.90798 3.68,2.33147c0.70663,1.60918 0.70663,3.44082 0,5.05c-0.32222,0.68448 -0.83193,1.26355 -1.47,1.67c-0.66245,0.4111 -1.4306,0.61965 -2.21,0.6zM211.08,183.46c0.56744,0.02395 1.12569,-0.14917 1.58,-0.49c0.41306,-0.34105 0.72727,-0.78647 0.91,-1.29c0.38629,-1.12099 0.38629,-2.33901 0,-3.46c-0.17751,-0.50903 -0.49248,-0.95898 -0.91,-1.3c-0.451,-0.3482 -1.01079,-0.52535 -1.58,-0.5c-0.56629,-0.02647 -1.12331,0.15092 -1.57,0.5c-0.42029,0.33845 -0.73585,0.78926 -0.91,1.3c-0.39985,1.11868 -0.39985,2.34132 0,3.46c0.17678,0.50661 0.49204,0.95352 0.91,1.29c0.45008,0.34161 1.00551,0.51496 1.57,0.49z"/><path d="M218.9,179v5.59h-1.43v-9.29h1.38v1.45h0.15c0.21899,-0.46681 0.5657,-0.86206 1,-1.14c0.51902,-0.30827 1.11697,-0.45775 1.72,-0.43c0.57347,-0.01671 1.14161,0.11414 1.65,0.38c0.47815,0.26316 0.86258,0.66856 1.1,1.16c0.28922,0.62578 0.42629,1.31111 0.4,2v5.9h-1.47v-5.81c0.03729,-0.62213 -0.16689,-1.23467 -0.57,-1.71c-0.40571,-0.42178 -0.9758,-0.6447 -1.56,-0.61c-0.42583,-0.00774 -0.84632,0.09566 -1.22,0.3c-0.36157,0.19374 -0.65482,0.49397 -0.84,0.86c-0.21436,0.41708 -0.32093,0.88118 -0.31,1.35z"/><path d="M236.27,175.26v1.21h-4.82v-1.21zM232.86,173h1.43v8.86c-0.02188,0.30964 0.03668,0.61968 0.17,0.9c0.10342,0.18173 0.26567,0.32282 0.46,0.4c0.19247,0.06871 0.39565,0.10258 0.6,0.1c0.12971,0.01233 0.26029,0.01233 0.39,0h0.24l0.29,1.28c-0.13374,0.04681 -0.27079,0.08358 -0.41,0.11c-0.21711,0.04431 -0.43846,0.06444 -0.66,0.06c-0.40716,-0.00345 -0.8091,-0.09201 -1.18,-0.26c-0.38173,-0.17347 -0.70983,-0.44631 -0.95,-0.79c-0.26791,-0.39772 -0.4011,-0.87093 -0.38,-1.35z"/><path d="M240,179v5.59h-1.42v-12.43h1.42v4.55h0.12c0.21551,-0.47172 0.56278,-0.87108 1,-1.15c0.53135,-0.304 1.13855,-0.44973 1.75,-0.42c0.57534,-0.01503 1.1455,0.11206 1.66,0.37c0.48311,0.25988 0.87164,0.66592 1.11,1.16c0.29255,0.62469 0.42978,1.31084 0.4,2v5.9h-1.43v-5.81c0.04046,-0.62255 -0.1641,-1.23624 -0.57,-1.71c-0.41033,-0.4273 -0.98898,-0.65071 -1.58,-0.61c-0.43854,-0.00746 -0.87188,0.09572 -1.26,0.3c-0.37039,0.19196 -0.67377,0.49185 -0.87,0.86c-0.22917,0.4303 -0.34286,0.91265 -0.33,1.4z"/><path d="M252.58,184.74c-0.81288,0.02048 -1.61566,-0.18367 -2.32,-0.59c-0.64545,-0.40355 -1.16236,-0.9829 -1.49,-1.67c-0.36218,-0.78262 -0.54007,-1.63787 -0.52,-2.5c-0.02101,-0.86865 0.15686,-1.73061 0.52,-2.52c0.32004,-0.69349 0.82525,-1.28521 1.46,-1.71c0.65682,-0.41655 1.42246,-0.62884 2.2,-0.61c0.48669,0 0.96998,0.08111 1.43,0.24c0.48238,0.16143 0.92296,0.42782 1.29,0.78c0.41491,0.39958 0.73301,0.8887 0.93,1.43c0.24523,0.70333 0.36044,1.44542 0.34,2.19v0.61h-7.16v-1.24h5.74c0.01135,-0.48486 -0.09502,-0.96525 -0.31,-1.4c-0.19122,-0.41092 -0.49673,-0.75808 -0.88,-1c-0.40598,-0.24742 -0.87473,-0.37243 -1.35,-0.36c-0.52151,-0.01429 -1.03476,0.13236 -1.47,0.42c-0.42565,0.26636 -0.77122,0.64302 -1,1.09c-0.22716,0.44579 -0.34377,0.93968 -0.34,1.44v0.82c-0.03494,0.63269 0.08521,1.26433 0.35,1.84c0.21566,0.45853 0.56403,0.84175 1,1.1c0.46406,0.25907 0.98862,0.39021 1.52,0.38c0.33999,0.00372 0.67814,-0.05038 1,-0.16c0.2924,-0.10636 0.56088,-0.26949 0.79,-0.48c0.22638,-0.2301 0.40035,-0.50641 0.51,-0.81l1.38,0.39c-0.14804,0.45954 -0.39753,0.87991 -0.73,1.23c-0.36257,0.3576 -0.79488,0.63673 -1.27,0.82c-0.52053,0.18221 -1.06851,0.27354 -1.62,0.27z"/><path d="M264.82,179v5.59h-1.43v-9.29h1.38v1.45h0.12c0.21899,-0.46681 0.5657,-0.86206 1,-1.14c0.51947,-0.30718 1.11709,-0.45659 1.72,-0.43c0.57347,-0.01671 1.14161,0.11414 1.65,0.38c0.48023,0.26045 0.8654,0.66662 1.1,1.16c0.29408,0.62419 0.43139,1.31072 0.4,2v5.9h-1.43v-5.81c0.03729,-0.62213 -0.16689,-1.23467 -0.57,-1.71c-0.40571,-0.42178 -0.9758,-0.6447 -1.56,-0.61c-0.42583,-0.00774 -0.84632,0.09566 -1.22,0.3c-0.35965,0.19628 -0.65223,0.49583 -0.84,0.86c-0.21783,0.41618 -0.32785,0.88033 -0.32,1.35z"/><path d="M277.26,184.74c-0.81288,0.02048 -1.61566,-0.18367 -2.32,-0.59c-0.64545,-0.40355 -1.16236,-0.9829 -1.49,-1.67c-0.36218,-0.78262 -0.54007,-1.63787 -0.52,-2.5c-0.02101,-0.86865 0.15686,-1.73061 0.52,-2.52c0.3169,-0.6955 0.82278,-1.288 1.46,-1.71c0.65682,-0.41655 1.42246,-0.62884 2.2,-0.61c0.48669,0 0.96998,0.08111 1.43,0.24c0.48238,0.16143 0.92296,0.42782 1.29,0.78c0.41491,0.39958 0.73301,0.8887 0.93,1.43c0.24523,0.70333 0.36044,1.44542 0.34,2.19v0.61h-7.16v-1.24h5.71c0.01135,-0.48486 -0.09502,-0.96525 -0.31,-1.4c-0.19122,-0.41092 -0.49673,-0.75808 -0.88,-1c-0.40598,-0.24742 -0.87473,-0.37243 -1.35,-0.36c-0.52151,-0.01429 -1.03476,0.13236 -1.47,0.42c-0.40726,0.27318 -0.73502,0.64924 -0.95,1.09c-0.22716,0.44579 -0.34377,0.93968 -0.34,1.44v0.82c-0.02059,0.61759 0.10625,1.23119 0.37,1.79c0.21566,0.45853 0.56403,0.84175 1,1.1c0.46406,0.25907 0.98862,0.39021 1.52,0.38c0.33999,0.00372 0.67814,-0.05038 1,-0.16c0.29054,-0.10405 0.55619,-0.26752 0.78,-0.48c0.23287,-0.22679 0.41074,-0.50386 0.52,-0.81l1.38,0.39c-0.14804,0.45954 -0.39753,0.87991 -0.73,1.23c-0.36257,0.3576 -0.79488,0.63673 -1.27,0.82c-0.5301,0.20383 -1.09211,0.31217 -1.66,0.32z"/><path d="M284.1,175.26l2.23,3.8l2.23,-3.8h1.64l-3,4.64l3,4.65h-1.64l-2.23,-3.61l-2.23,3.61h-1.64l3,-4.65l-3,-4.64z"/><path d="M296.27,175.26v1.21h-4.81v-1.21zM292.86,173h1.43v8.86c-0.01971,0.31058 0.04236,0.62089 0.18,0.9c0.10147,0.18333 0.26436,0.32497 0.46,0.4c0.18899,0.0688 0.3889,0.10268 0.59,0.1c0.12971,0.01233 0.26029,0.01233 0.39,0h0.24l0.29,1.28c-0.13027,0.04702 -0.26401,0.0838 -0.4,0.11c-0.21711,0.04431 -0.43846,0.06444 -0.66,0.06c-0.40726,-0.00255 -0.80938,-0.09116 -1.18,-0.26c-0.8503,-0.36285 -1.3849,-1.21661 -1.34,-2.14z"/><path d="M303.22,184.55v-9.29h1.38v1.45h0.12c0.17562,-0.48044 0.50639,-0.88862 0.94,-1.16c0.46723,-0.28114 1.00488,-0.42336 1.55,-0.41c0.53931,-0.01754 1.07173,0.12513 1.53,0.41c0.43609,0.28459 0.78277,0.68674 1,1.16h0.1c0.23727,-0.47921 0.60911,-0.87885 1.07,-1.15c0.52199,-0.29089 1.11264,-0.43597 1.71,-0.42c0.74202,-0.01653 1.46064,0.26014 2,0.77c0.58042,0.66626 0.86552,1.5396 0.79,2.42v6.22h-1.41v-6.22c0.05812,-0.55123 -0.14985,-1.09716 -0.56,-1.47c-0.37644,-0.29385 -0.84254,-0.44921 -1.32,-0.44c-0.56747,-0.02817 -1.12014,0.18636 -1.52,0.59c-0.36586,0.40818 -0.55939,0.9422 -0.54,1.49v6.05h-1.45v-6.36c0.02083,-0.47996 -0.16481,-0.94588 -0.51,-1.28c-0.3607,-0.33342 -0.8392,-0.50971 -1.33,-0.49c-0.35456,0.00623 -0.70056,0.11003 -1,0.3c-0.32646,0.19823 -0.59268,0.48173 -0.77,0.82c-0.20537,0.36603 -0.30895,0.78039 -0.3,1.2v5.81z"/><path d="M323.88,180.75v-5.49h1.43v9.29h-1.43v-1.55h-0.09c-0.22429,0.47953 -0.56878,0.89291 -1,1.2c-0.51328,0.34391 -1.12269,0.51552 -1.74,0.49c-0.54072,0.00848 -1.07452,-0.12238 -1.55,-0.38c-0.46533,-0.27461 -0.83795,-0.68205 -1.07,-1.17c-0.28381,-0.62699 -0.41408,-1.31261 -0.38,-2v-5.9h1.42v5.8c-0.03052,0.59876 0.17812,1.18511 0.58,1.63c0.37815,0.40005 0.90982,0.61855 1.46,0.6c0.3759,-0.00629 0.74536,-0.09866 1.08,-0.27c0.3809,-0.18981 0.70253,-0.48032 0.93,-0.84c0.2566,-0.42414 0.38187,-0.91476 0.36,-1.41z"/><path d="M334.5,177.34l-1.28,0.36c-0.08745,-0.22185 -0.20524,-0.4305 -0.35,-0.62c-0.16772,-0.21644 -0.38338,-0.39102 -0.63,-0.51c-0.31477,-0.13875 -0.65607,-0.20701 -1,-0.2c-0.50198,-0.0174 -0.99733,0.11864 -1.42,0.39c-0.34833,0.21282 -0.56056,0.5918 -0.56,1c-0.0153,0.32695 0.13036,0.6407 0.39,0.84c0.36072,0.25727 0.77395,0.43144 1.21,0.51l1.38,0.34c0.69121,0.13177 1.33191,0.45385 1.85,0.93c0.41352,0.42345 0.63419,0.99863 0.61,1.59c0.00584,0.51239 -0.15179,1.01329 -0.45,1.43c-0.32915,0.44221 -0.77129,0.78763 -1.28,1c-0.60093,0.2524 -1.24839,0.37507 -1.9,0.36c-0.82637,0.03305 -1.64403,-0.1792 -2.35,-0.61c-0.62047,-0.42036 -1.04574,-1.07267 -1.18,-1.81l1.36,-0.34c0.09651,0.45345 0.35631,0.85561 0.73,1.13c0.4239,0.26672 0.91985,0.39595 1.42,0.37c0.56078,0.02874 1.11657,-0.11807 1.59,-0.42c0.34768,-0.21746 0.56778,-0.59052 0.59,-1c0.00287,-0.30527 -0.1201,-0.59824 -0.34,-0.81c-0.2858,-0.24639 -0.63016,-0.41513 -1,-0.49l-1.55,-0.37c-0.70229,-0.12237 -1.35282,-0.44938 -1.87,-0.94c-0.40356,-0.4331 -0.61928,-1.00834 -0.6,-1.6c-0.00728,-0.50026 0.15092,-0.98892 0.45,-1.39c0.30743,-0.43482 0.72506,-0.77997 1.21,-1c0.55291,-0.2352 1.14924,-0.35106 1.75,-0.34c0.76967,-0.04446 1.53249,0.16646 2.17,0.6c0.50359,0.41502 0.86966,0.97284 1.05,1.6z"/><path d="M337.55,173.71c-0.26438,0.0042 -0.51966,-0.09647 -0.71,-0.28c-0.1918,-0.17613 -0.30097,-0.4246 -0.30097,-0.685c0,-0.2604 0.10917,-0.50887 0.30097,-0.685c0.18872,-0.18719 0.4442,-0.29154 0.71,-0.29c0.26926,-0.00422 0.52884,0.10033 0.72,0.29c0.1918,0.17613 0.30097,0.4246 0.30097,0.685c0,0.2604 -0.10917,0.50887 -0.30097,0.685c-0.1928,0.18601 -0.45218,0.28688 -0.72,0.28zM336.83,184.55v-9.29h1.42v9.29z"/><path d="M344.64,184.74c-0.79393,0.02458 -1.5772,-0.18778 -2.25,-0.61c-0.63211,-0.4207 -1.13427,-1.00945 -1.45,-1.7c-0.35088,-0.77892 -0.52504,-1.62583 -0.51,-2.48c-0.01588,-0.86281 0.16539,-1.71786 0.53,-2.5c0.31475,-0.6942 0.8213,-1.28401 1.46,-1.7c0.65682,-0.41655 1.42246,-0.62884 2.2,-0.61c0.60588,-0.00962 1.20655,0.11325 1.76,0.36c0.50784,0.21855 0.95175,0.56267 1.29,1c0.33971,0.44262 0.55699,0.96684 0.63,1.52h-1.43c-0.12181,-0.44257 -0.37663,-0.83703 -0.73,-1.13c-0.42079,-0.34579 -0.95623,-0.52069 -1.5,-0.49c-0.51944,-0.01123 -1.02957,0.13901 -1.46,0.43c-0.44223,0.30367 -0.78903,0.72677 -1,1.22c-0.24334,0.57882 -0.36257,1.20224 -0.35,1.83c-0.01629,0.64331 0.09943,1.28314 0.34,1.88c0.21059,0.49885 0.55708,0.92851 1,1.24c0.73759,0.47949 1.66155,0.57263 2.48,0.25c0.29512,-0.12707 0.55818,-0.31838 0.77,-0.56c0.21586,-0.2509 0.36997,-0.54885 0.45,-0.87h1.43c-0.15616,1.09664 -0.85052,2.04247 -1.85,2.52c-0.56512,0.26909 -1.18412,0.40589 -1.81,0.4z"/><path d="M358.94,184.74c-0.79393,0.02458 -1.5772,-0.18778 -2.25,-0.61c-0.63211,-0.4207 -1.13427,-1.00945 -1.45,-1.7c-0.35088,-0.77892 -0.52504,-1.62583 -0.51,-2.48c-0.01588,-0.86281 0.16539,-1.71786 0.53,-2.5c0.31475,-0.6942 0.8213,-1.28401 1.46,-1.7c0.65682,-0.41655 1.42246,-0.62884 2.2,-0.61c0.60588,-0.00962 1.20655,0.11325 1.76,0.36c0.50784,0.21855 0.95175,0.56267 1.29,1c0.33971,0.44262 0.55699,0.96684 0.63,1.52h-1.43c-0.12181,-0.44257 -0.37663,-0.83703 -0.73,-1.13c-0.42079,-0.34579 -0.95623,-0.52069 -1.5,-0.49c-0.51962,-0.01256 -1.03014,0.1378 -1.46,0.43c-0.44223,0.30367 -0.78903,0.72677 -1,1.22c-0.24334,0.57882 -0.36257,1.20224 -0.35,1.83c-0.01629,0.64331 0.09943,1.28314 0.34,1.88c0.21059,0.49885 0.55708,0.92851 1,1.24c0.73759,0.47949 1.66155,0.57263 2.48,0.25c0.29512,-0.12707 0.55818,-0.31838 0.77,-0.56c0.21586,-0.2509 0.36997,-0.54885 0.45,-0.87h1.43c-0.15616,1.09664 -0.85052,2.04247 -1.85,2.52c-0.56512,0.26909 -1.18412,0.40589 -1.81,0.4z"/><path d="M366.1,179v5.59h-1.43v-12.43h1.43v4.55h0.12c0.21551,-0.47172 0.56278,-0.87108 1,-1.15c0.53093,-0.30506 1.13845,-0.45086 1.75,-0.42c0.57534,-0.01503 1.1455,0.11206 1.66,0.37c0.48311,0.25988 0.87164,0.66592 1.11,1.16c0.29255,0.62469 0.42978,1.31084 0.4,2v5.9h-1.44v-5.81c0.04046,-0.62255 -0.1641,-1.23624 -0.57,-1.71c-0.41033,-0.4273 -0.98898,-0.65071 -1.58,-0.61c-0.43854,-0.00746 -0.87188,0.09572 -1.26,0.3c-0.37039,0.19196 -0.67377,0.49185 -0.87,0.86c-0.2257,0.43123 -0.33594,0.91354 -0.32,1.4z"/><path d="M377.47,184.77c-0.55163,0.00352 -1.09747,-0.11247 -1.6,-0.34c-0.46773,-0.21759 -0.86333,-0.56461 -1.14,-1c-0.29054,-0.46362 -0.43673,-1.00312 -0.42,-1.55c-0.0202,-0.45379 0.08719,-0.90416 0.31,-1.3c0.20796,-0.32816 0.49735,-0.59688 0.84,-0.78c0.36608,-0.19371 0.75611,-0.33829 1.16,-0.43c0.43,-0.09 0.86,-0.17 1.29,-0.22c0.43,-0.05 1,-0.13 1.38,-0.17c0.26747,-0.01443 0.52932,-0.08244 0.77,-0.2c0.16836,-0.09894 0.26543,-0.28533 0.25,-0.48v-0.05c0.02697,-0.50991 -0.14922,-1.00973 -0.49,-1.39c-0.40425,-0.35422 -0.93406,-0.53083 -1.47,-0.49c-0.57067,-0.03654 -1.13723,0.1183 -1.61,0.44c-0.34864,0.26111 -0.62698,0.60473 -0.81,1l-1.36,-0.49c0.21724,-0.51697 0.56114,-0.97092 1,-1.32c0.39404,-0.30784 0.84653,-0.53239 1.33,-0.66c0.4663,-0.12561 0.94707,-0.18949 1.43,-0.19c0.33559,0.00454 0.67016,0.03799 1,0.1c0.39893,0.0761 0.7814,0.22164 1.13,0.43c0.38684,0.24651 0.70096,0.5917 0.91,1c0.26438,0.5512 0.38806,1.15932 0.36,1.77v6.12h-1.42v-1.26h-0.08c-0.12021,0.2434 -0.28274,0.4635 -0.48,0.65c-0.26066,0.24846 -0.56605,0.44526 -0.9,0.58c-0.43885,0.17236 -0.90898,0.25071 -1.38,0.23zM377.69,183.48c0.4973,0.01672 0.99031,-0.09705 1.43,-0.33c0.36967,-0.19997 0.67748,-0.4974 0.89,-0.86c0.19537,-0.33375 0.29888,-0.71328 0.3,-1.1v-1.31c-0.11462,0.0989 -0.25211,0.16764 -0.4,0.2l-0.7,0.15l-0.77,0.11l-0.6,0.07c-0.33899,0.04957 -0.67342,0.12648 -1,0.23c-0.29326,0.09203 -0.55825,0.25722 -0.77,0.48c-0.20913,0.2361 -0.31691,0.54505 -0.3,0.86c-0.02273,0.44846 0.18939,0.87647 0.56,1.13c0.40633,0.2561 0.87993,0.38494 1.36,0.37z"/><path d="M385.77,179v5.59h-1.42v-9.29h1.38v1.45h0.12c0.21265,-0.47093 0.56079,-0.86781 1,-1.14c0.51857,-0.30937 1.11685,-0.45894 1.72,-0.43c0.57333,-0.01538 1.14115,0.11539 1.65,0.38c0.47815,0.26316 0.86258,0.66856 1.1,1.16c0.28578,0.62662 0.41942,1.31192 0.39,2v5.9h-1.43v-5.81c0.03597,-0.62027 -0.16409,-1.23117 -0.56,-1.71c-0.40802,-0.42453 -0.98239,-0.64769 -1.57,-0.61c-0.42266,-0.00785 -0.83996,0.09561 -1.21,0.3c-0.36261,0.19568 -0.65857,0.49512 -0.85,0.86c-0.21321,0.41789 -0.32295,0.88087 -0.32,1.35z"/><path d="M398.07,188.23c-0.60451,0.01397 -1.20683,-0.07739 -1.78,-0.27c-0.45491,-0.1457 -0.87639,-0.38023 -1.24,-0.69c-0.31081,-0.2558 -0.57475,-0.56372 -0.78,-0.91l1.13,-0.79l0.49,0.58c0.23186,0.24364 0.51084,0.43757 0.82,0.57c0.42863,0.185 0.8936,0.27047 1.36,0.25c0.66041,0.02545 1.31075,-0.16789 1.85,-0.55c0.50656,-0.41329 0.77914,-1.04808 0.73,-1.7v-1.89h-0.12c-0.13502,0.2179 -0.28191,0.42821 -0.44,0.63c-0.22949,0.26952 -0.50767,0.49342 -0.82,0.66c-0.45396,0.20802 -0.95122,0.30405 -1.45,0.28c-0.70305,0.01331 -1.39581,-0.17027 -2,-0.53c-0.61291,-0.3659 -1.10358,-0.90529 -1.41,-1.55c-0.36935,-0.76957 -0.54772,-1.61684 -0.52,-2.47c-0.01851,-0.85345 0.15224,-1.7004 0.5,-2.48c0.30261,-0.67046 0.78777,-1.24225 1.4,-1.65c0.61764,-0.39338 1.33788,-0.59519 2.07,-0.58c0.49746,-0.02105 0.99233,0.08205 1.44,0.3c0.31688,0.16399 0.59614,0.39217 0.82,0.67l0.45,0.62h0.14v-1.47h1.38v9.55c0.03863,0.70727 -0.15064,1.40829 -0.54,2c-0.36149,0.50436 -0.86689,0.88777 -1.45,1.1c-0.65031,0.2342 -1.33918,0.34279 -2.03,0.32zM398.02,183.12c0.51117,0.01543 1.01554,-0.12023 1.45,-0.39c0.40466,-0.27989 0.71773,-0.67298 0.9,-1.13c0.22155,-0.56308 0.32699,-1.16514 0.31,-1.77c0.01149,-0.60356 -0.09027,-1.20393 -0.3,-1.77c-0.17996,-0.4801 -0.49195,-0.89955 -0.9,-1.21c-0.90799,-0.60667 -2.09201,-0.60667 -3,0c-0.40721,0.31962 -0.71858,0.74517 -0.9,1.23c-0.20564,0.54981 -0.30737,1.13304 -0.3,1.72c-0.01194,0.58407 0.08995,1.16488 0.3,1.71c0.1875,0.46496 0.50305,0.8672 0.91,1.16c0.44321,0.30564 0.97178,0.46316 1.51,0.45z"/><path d="M408.59,184.74c-0.80974,0.02071 -1.60937,-0.18352 -2.31,-0.59c-0.64915,-0.40208 -1.16965,-0.98157 -1.5,-1.67c-0.36218,-0.78262 -0.54007,-1.63787 -0.52,-2.5c-0.02101,-0.86865 0.15686,-1.73061 0.52,-2.52c0.32054,-0.69619 0.8298,-1.2886 1.47,-1.71c0.65632,-0.41767 1.42231,-0.63005 2.2,-0.61c0.48663,0.00074 0.9698,0.08183 1.43,0.24c0.48023,0.16605 0.91987,0.43187 1.29,0.78c0.40863,0.40278 0.72284,0.89117 0.92,1.43c0.24885,0.70265 0.36746,1.44479 0.35,2.19v0.61h-7.16v-1.24h5.72c0.00825,-0.48569 -0.10156,-0.96612 -0.32,-1.4c-0.18827,-0.41284 -0.49445,-0.76077 -0.88,-1c-0.40287,-0.24609 -0.86804,-0.37106 -1.34,-0.36c-0.52441,-0.0125 -1.04033,0.13391 -1.48,0.42c-0.42565,0.26636 -0.77122,0.64302 -1,1.09c-0.21942,0.44818 -0.33236,0.94099 -0.33,1.44v0.82c-0.0196,0.61644 0.10361,1.22907 0.36,1.79c0.22155,0.45457 0.56854,0.83626 1,1.1c0.46406,0.25907 0.98862,0.39021 1.52,0.38c0.33999,0.00372 0.67814,-0.05038 1,-0.16c0.29347,-0.10412 0.56238,-0.26751 0.79,-0.48c0.22638,-0.2301 0.40035,-0.50641 0.51,-0.81l1.38,0.39c-0.14413,0.4613 -0.39411,0.88251 -0.73,1.23c-0.36091,0.35966 -0.79368,0.63909 -1.27,0.82c-0.51729,0.20004 -1.0655,0.30833 -1.62,0.32z"/><path d="M415.66,184.65c-0.2896,0.003 -0.56783,-0.11262 -0.77,-0.32c-0.21369,-0.19783 -0.33054,-0.47898 -0.32,-0.77c-0.01054,-0.29102 0.10631,-0.57217 0.32,-0.77c0.20131,-0.20585 0.47708,-0.32189 0.765,-0.32189c0.28792,0 0.56369,0.11604 0.765,0.32189c0.34505,0.34785 0.41844,0.88198 0.18,1.31c-0.09618,0.16592 -0.23408,0.30382 -0.4,0.4c-0.16202,0.10045 -0.34938,0.15249 -0.54,0.15z"/><path d="M22.2,180.79c-1.1707,2.59207 -3.91368,4.09837 -6.72916,3.6953c-2.81548,-0.40307 -5.02565,-2.61848 -5.42205,-5.4349c-0.39641,-2.81642 1.11638,-5.55583 3.71121,-6.72039c-0.87196,1.9738 -0.69231,4.25387 0.47801,6.06675c1.17032,1.81289 3.17424,2.91529 5.33199,2.93325c0.90519,0.01013 1.80203,-0.17401 2.63,-0.54z"/></g></g></svg>