<svg version="1.1" xmlns="http://www.w3.org/2000/svg" xmlns:xlink="http://www.w3.org/1999/xlink" width="60.8539" height="16.48032" viewBox="0,0,60.8539,16.48032"><g transform="translate(-9.9861,-171.75397)"><g data-paper-data="{&quot;isPaintingLayer&quot;:true}" fill="#ffffff" fill-rule="nonzero" stroke="none" stroke-width="1" stroke-linecap="butt" stroke-linejoin="miter" stroke-miterlimit="10" stroke-dasharray="" stroke-dashoffset="0" style="mix-blend-mode: normal"><path d="M39.34,172.16v12.39h-1.45l-6.75,-9.73h-0.14v9.73h-1.5v-12.39h1.5l6.77,9.75h0.12v-9.75z"/><path d="M42.87,173.71c-0.26782,0.00688 -0.5272,-0.09399 -0.72,-0.28c-0.36194,-0.38495 -0.36194,-0.98505 0,-1.37c0.18848,-0.19555 0.4484,-0.30603 0.72,-0.30603c0.2716,0 0.53152,0.11047 0.72,0.30603c0.1918,0.17613 0.30097,0.4246 0.30097,0.685c0,0.2604 -0.10917,0.50887 -0.30097,0.685c-0.1928,0.18601 -0.45218,0.28688 -0.72,0.28zM42.15,184.55v-9.29h1.42v9.29z"/><path d="M49.94,188.23c-0.60451,0.01397 -1.20683,-0.07739 -1.78,-0.27c-0.45491,-0.1457 -0.87639,-0.38023 -1.24,-0.69c-0.31081,-0.2558 -0.57475,-0.56372 -0.78,-0.91l1.14,-0.79c0.12,0.16 0.29,0.36 0.49,0.58c0.22603,0.24585 0.50227,0.44025 0.81,0.57c0.42863,0.185 0.8936,0.27047 1.36,0.25c0.66041,0.02545 1.31075,-0.16789 1.85,-0.55c0.51029,-0.4112 0.78676,-1.04632 0.74,-1.7v-1.89h-0.12c-0.10667,0.16667 -0.25667,0.37667 -0.45,0.63c-0.2272,0.27185 -0.50587,0.49615 -0.82,0.66c-0.45069,0.2072 -0.94451,0.30322 -1.44,0.28c-0.70279,0.0112 -1.39498,-0.17223 -2,-0.53c-0.61291,-0.3659 -1.10358,-0.90529 -1.41,-1.55c-0.36935,-0.76957 -0.54772,-1.61684 -0.52,-2.47c-0.01851,-0.85345 0.15224,-1.7004 0.5,-2.48c0.30261,-0.67046 0.78777,-1.24225 1.4,-1.65c0.61764,-0.39338 1.33788,-0.59519 2.07,-0.58c0.49767,-0.02363 0.99317,0.0796 1.44,0.3c0.31688,0.16399 0.59614,0.39217 0.82,0.67c0.2,0.26 0.34,0.46 0.45,0.62h0.14v-1.47h1.41v9.55c0.03863,0.70727 -0.15064,1.40829 -0.54,2c-0.36149,0.50436 -0.86689,0.88777 -1.45,1.1c-0.66288,0.23926 -1.36581,0.34792 -2.07,0.32zM49.94,183.12c0.51138,0.01724 1.01627,-0.11856 1.45,-0.39c0.40983,-0.27432 0.72432,-0.66918 0.9,-1.13c0.22155,-0.56308 0.32699,-1.16514 0.31,-1.77c0.01149,-0.60356 -0.09027,-1.20393 -0.3,-1.77c-0.17649,-0.48198 -0.48915,-0.90234 -0.9,-1.21c-0.90799,-0.60667 -2.09201,-0.60667 -3,0c-0.40721,0.31962 -0.71858,0.74517 -0.9,1.23c-0.20564,0.54981 -0.30737,1.13304 -0.3,1.72c-0.01194,0.58407 0.08995,1.16488 0.3,1.71c0.1875,0.46496 0.50305,0.8672 0.91,1.16c0.43484,0.29963 0.95197,0.45686 1.48,0.45z"/><path d="M58,179v5.59h-1.43v-12.43h1.43v4.55h0.13c0.2115,-0.47428 0.55968,-0.87469 1,-1.15c0.53135,-0.304 1.13855,-0.44973 1.75,-0.42c0.57534,-0.01503 1.1455,0.11206 1.66,0.37c0.48311,0.25988 0.87164,0.66592 1.11,1.16c0.29255,0.62469 0.42978,1.31084 0.4,2v5.9h-1.46v-5.81c0.0485,-0.6422 -0.16424,-1.27679 -0.59,-1.76c-0.41033,-0.4273 -0.98898,-0.65071 -1.58,-0.61c-0.43854,-0.00746 -0.87188,0.09572 -1.26,0.3c-0.37039,0.19196 -0.67377,0.49185 -0.87,0.86c-0.22392,0.44893 -0.32403,0.94948 -0.29,1.45z"/><path d="M70.67,175.26v1.21h-4.81v-1.21zM67.26,173h1.43v8.86c-0.01971,0.31058 0.04236,0.62089 0.18,0.9c0.10147,0.18333 0.26436,0.32497 0.46,0.4c0.18881,0.06946 0.38885,0.10336 0.59,0.1c0.12971,0.01233 0.26029,0.01233 0.39,0h0.24l0.29,1.28c-0.13027,0.04702 -0.26401,0.0838 -0.4,0.11c-0.21722,0.04353 -0.43849,0.06364 -0.66,0.06c-0.4105,-0.00235 -0.81593,-0.09093 -1.19,-0.26c-0.4,-0.16574 -0.74618,-0.43922 -1,-0.79c-0.26351,-0.39975 -0.3963,-0.87149 -0.38,-1.35z"/><path d="M22.2,180.79c-1.1707,2.59207 -3.91368,4.09837 -6.72916,3.6953c-2.81548,-0.40307 -5.02565,-2.61848 -5.42205,-5.4349c-0.39641,-2.81642 1.11638,-5.55583 3.71121,-6.72039c-0.87196,1.9738 -0.69231,4.25387 0.47801,6.06675c1.17032,1.81289 3.17424,2.91529 5.33199,2.93325c0.90519,0.01013 1.80203,-0.17401 2.63,-0.54z"/></g></g></svg>