<svg xmlns="http://www.w3.org/2000/svg" id="Layer_1" data-name="Layer 1" viewBox="0 0 480 360"><defs><style>.cls-1{fill:#231f20;}</style></defs><path class="cls-1" d="M39.34,172.16v12.39H37.89l-6.75-9.73H31v9.73h-1.5V172.16H31l6.77,9.75h.12v-9.75Z"/><path class="cls-1" d="M42.87,173.71a1,1,0,0,1-.72-.28,1,1,0,0,1,0-1.37,1,1,0,0,1,1.44,0,.93.93,0,0,1,0,1.37A1,1,0,0,1,42.87,173.71Zm-.72,10.84v-9.29h1.42v9.29Z"/><path class="cls-1" d="M49.94,188.23a5.21,5.21,0,0,1-1.78-.27,3.61,3.61,0,0,1-1.24-.69,3.47,3.47,0,0,1-.78-.91l1.14-.79c.12.16.29.36.49.58a2.33,2.33,0,0,0,.81.57,3.09,3.09,0,0,0,1.36.25,3,3,0,0,0,1.85-.55,2,2,0,0,0,.74-1.7v-1.89h-.12q-.16.25-.45.63a2.69,2.69,0,0,1-.82.66,3.1,3.1,0,0,1-1.44.28,3.81,3.81,0,0,1-2-.53,3.61,3.61,0,0,1-1.41-1.55,5.31,5.31,0,0,1-.52-2.47,5.78,5.78,0,0,1,.5-2.48,3.92,3.92,0,0,1,1.4-1.65,3.71,3.71,0,0,1,2.07-.58,2.94,2.94,0,0,1,1.44.3,2.57,2.57,0,0,1,.82.67c.2.26.34.46.45.62h.14v-1.47H54v9.55a3.31,3.31,0,0,1-.54,2,3.08,3.08,0,0,1-1.45,1.1A5.46,5.46,0,0,1,49.94,188.23Zm0-5.11a2.57,2.57,0,0,0,1.45-.39,2.38,2.38,0,0,0,.9-1.13,4.49,4.49,0,0,0,.31-1.77,4.83,4.83,0,0,0-.3-1.77,2.65,2.65,0,0,0-.9-1.21,2.7,2.7,0,0,0-3,0,2.82,2.82,0,0,0-.9,1.23,4.74,4.74,0,0,0-.3,1.72,4.5,4.5,0,0,0,.3,1.71,2.65,2.65,0,0,0,.91,1.16A2.55,2.55,0,0,0,49.89,183.12Z"/><path class="cls-1" d="M58,179v5.59H56.57V172.16H58v4.55h.13a2.61,2.61,0,0,1,1-1.15,3.21,3.21,0,0,1,1.75-.42,3.5,3.5,0,0,1,1.66.37,2.6,2.6,0,0,1,1.11,1.16,4.28,4.28,0,0,1,.4,2v5.9H62.59v-5.81A2.39,2.39,0,0,0,62,177a2,2,0,0,0-1.58-.61,2.61,2.61,0,0,0-1.26.3,2.06,2.06,0,0,0-.87.86A2.82,2.82,0,0,0,58,179Z"/><path class="cls-1" d="M70.67,175.26v1.21H65.86v-1.21ZM67.26,173h1.43v8.86a1.78,1.78,0,0,0,.18.9.89.89,0,0,0,.46.4,1.63,1.63,0,0,0,.59.1,2.06,2.06,0,0,0,.39,0l.24,0,.29,1.28a2.66,2.66,0,0,1-.4.11,3.1,3.1,0,0,1-.66.06,2.93,2.93,0,0,1-1.19-.26,2.34,2.34,0,0,1-1-.79,2.31,2.31,0,0,1-.38-1.35Z"/><path class="cls-1" d="M77.62,184.55v-9.29H79v1.45h.12a2.33,2.33,0,0,1,.93-1.16,2.9,2.9,0,0,1,1.56-.41,2.73,2.73,0,0,1,1.53.41,2.76,2.76,0,0,1,1,1.16h.1a2.75,2.75,0,0,1,1.07-1.15,3.31,3.31,0,0,1,1.71-.42,2.82,2.82,0,0,1,2,.77,3.26,3.26,0,0,1,.79,2.42v6.22H88.38v-6.22a1.74,1.74,0,0,0-.56-1.47,2.1,2.1,0,0,0-1.32-.44A2,2,0,0,0,85,177a2.12,2.12,0,0,0-.54,1.49v6.05H83v-6.36a1.65,1.65,0,0,0-.52-1.28,1.81,1.81,0,0,0-1.32-.49,1.93,1.93,0,0,0-1,.3,2.1,2.1,0,0,0-.77.82,2.35,2.35,0,0,0-.3,1.2v5.81Z"/><path class="cls-1" d="M96.2,184.74a4.07,4.07,0,0,1-2.21-.6,4,4,0,0,1-1.47-1.67,6.28,6.28,0,0,1,0-5.05A4,4,0,0,1,94,175.74a4.07,4.07,0,0,1,2.21-.6,3.94,3.94,0,0,1,3.68,2.28,6.28,6.28,0,0,1,0,5.05,4,4,0,0,1-1.48,1.67A4,4,0,0,1,96.2,184.74Zm0-1.28a2.42,2.42,0,0,0,1.57-.49,3,3,0,0,0,.92-1.29,5.31,5.31,0,0,0,0-3.46,2.94,2.94,0,0,0-.92-1.3,2.71,2.71,0,0,0-3.14,0,2.94,2.94,0,0,0-.92,1.3,5.31,5.31,0,0,0,0,3.46,3,3,0,0,0,.92,1.29A2.42,2.42,0,0,0,96.2,183.46Z"/><path class="cls-1" d="M106.1,184.74a3.61,3.61,0,0,1-2.06-.59,4,4,0,0,1-1.39-1.67,6.07,6.07,0,0,1-.5-2.55,6,6,0,0,1,.5-2.54,3.92,3.92,0,0,1,1.4-1.67,3.71,3.71,0,0,1,2.07-.58,3,3,0,0,1,1.44.3,2.64,2.64,0,0,1,.81.67l.44.62h.12v-4.57h1.42v12.39H109v-1.43h-.16c-.11.17-.26.38-.45.64a2.61,2.61,0,0,1-.83.68A3,3,0,0,1,106.1,184.74Zm.19-1.28a2.32,2.32,0,0,0,1.45-.45,2.72,2.72,0,0,0,.9-1.25,5.7,5.7,0,0,0,0-3.68,2.63,2.63,0,0,0-.9-1.22,2.68,2.68,0,0,0-3,0,2.83,2.83,0,0,0-.9,1.25,5,5,0,0,0-.3,1.77,5.15,5.15,0,0,0,.3,1.8,3,3,0,0,0,.91,1.29A2.38,2.38,0,0,0,106.29,183.46Z"/><path class="cls-1" d="M117.06,184.74a4.42,4.42,0,0,1-2.32-.59,4,4,0,0,1-1.49-1.67,5.64,5.64,0,0,1-.52-2.5,5.7,5.7,0,0,1,.52-2.52,4.15,4.15,0,0,1,1.46-1.71,3.93,3.93,0,0,1,2.2-.61,4.48,4.48,0,0,1,1.44.24,3.48,3.48,0,0,1,1.28.78,3.78,3.78,0,0,1,.93,1.43,6.14,6.14,0,0,1,.34,2.19v.61h-7.16v-1.24h5.71a3,3,0,0,0-.31-1.4,2.36,2.36,0,0,0-.88-1,2.47,2.47,0,0,0-1.35-.36,2.54,2.54,0,0,0-1.47.42,2.7,2.7,0,0,0-1,1.09,3.12,3.12,0,0,0-.34,1.44v.82a4,4,0,0,0,.37,1.79,2.53,2.53,0,0,0,1,1.1,3,3,0,0,0,1.52.38,3,3,0,0,0,1-.16,2.36,2.36,0,0,0,.79-.48,2.24,2.24,0,0,0,.51-.81l1.38.39a3.22,3.22,0,0,1-.73,1.23,3.71,3.71,0,0,1-1.27.82A4.81,4.81,0,0,1,117.06,184.74Z"/><path class="cls-1" d="M130,184.55l-2.83-9.29h1.5l2,7.11h.1l2-7.11h1.52l2,7.09h.1l2-7.09h1.5L137,184.55h-1.4l-2-7.14h-.15l-2,7.14Z"/><path class="cls-1" d="M142.44,173.71a1,1,0,0,1-.72-.28.93.93,0,0,1,0-1.37,1,1,0,0,1,.72-.29,1,1,0,0,1,.71.29.93.93,0,0,1,0,1.37A1,1,0,0,1,142.44,173.71Zm-.73,10.84v-9.29h1.43v9.29Z"/><path class="cls-1" d="M147.18,172.16v12.39h-1.43V172.16Z"/><path class="cls-1" d="M151.22,172.16v12.39h-1.43V172.16Z"/><path class="cls-1" d="M161.36,184.77a3.79,3.79,0,0,1-1.6-.34,2.73,2.73,0,0,1-1.15-1,2.76,2.76,0,0,1-.42-1.55,2.43,2.43,0,0,1,.31-1.3,2.25,2.25,0,0,1,.84-.78,4.79,4.79,0,0,1,1.17-.43c.42-.09.85-.17,1.28-.22l1.38-.17a2,2,0,0,0,.77-.2.49.49,0,0,0,.25-.48v-.05a1.89,1.89,0,0,0-.49-1.39,2,2,0,0,0-1.47-.49,2.54,2.54,0,0,0-1.6.44,2.67,2.67,0,0,0-.82,1l-1.36-.49a3.36,3.36,0,0,1,1-1.32,3.54,3.54,0,0,1,1.33-.66,5.39,5.39,0,0,1,1.42-.19,5.84,5.84,0,0,1,1,.1,3.47,3.47,0,0,1,1.13.43,2.51,2.51,0,0,1,.91,1,3.58,3.58,0,0,1,.37,1.77v6.12h-1.43v-1.26h-.07a2.57,2.57,0,0,1-.49.65,2.64,2.64,0,0,1-.9.58A3.29,3.29,0,0,1,161.36,184.77Zm.22-1.29a2.88,2.88,0,0,0,1.43-.33,2.28,2.28,0,0,0,.88-.86,2.19,2.19,0,0,0,.3-1.1v-1.31a.85.85,0,0,1-.4.2l-.7.15-.77.11-.6.07a6.35,6.35,0,0,0-1,.23,1.87,1.87,0,0,0-.77.48,1.2,1.2,0,0,0-.29.86,1.28,1.28,0,0,0,.55,1.13A2.47,2.47,0,0,0,161.58,183.48Z"/><path class="cls-1" d="M168.23,188V175.26h1.38v1.47h.17c.1-.16.25-.36.44-.62a2.42,2.42,0,0,1,.81-.67,2.9,2.9,0,0,1,1.43-.3,3.66,3.66,0,0,1,2.07.58,3.85,3.85,0,0,1,1.4,1.67,5.84,5.84,0,0,1,.5,2.54,5.92,5.92,0,0,1-.5,2.55,3.9,3.9,0,0,1-1.39,1.67,3.57,3.57,0,0,1-2,.59,3,3,0,0,1-1.44-.3,2.57,2.57,0,0,1-.82-.68,6.69,6.69,0,0,1-.45-.64h-.12V188Zm1.4-8.13a5.29,5.29,0,0,0,.31,1.86,2.87,2.87,0,0,0,.9,1.25,2.6,2.6,0,0,0,2.95,0,2.91,2.91,0,0,0,.91-1.29,5.15,5.15,0,0,0,.3-1.8,5.21,5.21,0,0,0-.29-1.77,2.77,2.77,0,0,0-.91-1.25,2.37,2.37,0,0,0-1.5-.46,2.42,2.42,0,0,0-1.47.44,2.68,2.68,0,0,0-.89,1.22A4.85,4.85,0,0,0,169.63,179.9Z"/><path class="cls-1" d="M178.61,188V175.26H180v1.47h.17c.1-.16.25-.36.44-.62a2.64,2.64,0,0,1,.81-.67,2.9,2.9,0,0,1,1.43-.3,3.66,3.66,0,0,1,2.07.58,3.85,3.85,0,0,1,1.4,1.67,5.84,5.84,0,0,1,.5,2.54,5.92,5.92,0,0,1-.5,2.55,3.9,3.9,0,0,1-1.39,1.67,3.57,3.57,0,0,1-2,.59,2.9,2.9,0,0,1-1.43-.3,2.51,2.51,0,0,1-.83-.68,6.69,6.69,0,0,1-.45-.64H180V188Zm1.4-8.13a5.29,5.29,0,0,0,.31,1.86,2.87,2.87,0,0,0,.9,1.25,2.6,2.6,0,0,0,2.95,0,2.91,2.91,0,0,0,.91-1.29,5.15,5.15,0,0,0,.31-1.8,5,5,0,0,0-.3-1.77,2.77,2.77,0,0,0-.91-1.25,2.37,2.37,0,0,0-1.5-.46,2.42,2.42,0,0,0-1.47.44,2.68,2.68,0,0,0-.89,1.22A4.85,4.85,0,0,0,180,179.9Z"/><path class="cls-1" d="M190.42,172.16v12.39H189V172.16Z"/><path class="cls-1" d="M194,188a4.19,4.19,0,0,1-.65-.05,1.51,1.51,0,0,1-.39-.12l.36-1.25a2.83,2.83,0,0,0,.92.09,1.07,1.07,0,0,0,.71-.35,2.77,2.77,0,0,0,.57-1l.27-.72-3.43-9.34h1.54l2.57,7.4h.1l2.56-7.4h1.55l-3.94,10.64a4.26,4.26,0,0,1-.66,1.2,2.62,2.62,0,0,1-.91.7A2.78,2.78,0,0,1,194,188Z"/><path class="cls-1" d="M211.08,184.74a3.95,3.95,0,0,1-3.68-2.27,6.28,6.28,0,0,1,0-5.05,4.07,4.07,0,0,1,7.36,0,6.28,6.28,0,0,1,0,5.05,4,4,0,0,1-1.47,1.67A4,4,0,0,1,211.08,184.74Zm0-1.28a2.46,2.46,0,0,0,1.58-.49,3,3,0,0,0,.91-1.29,5.31,5.31,0,0,0,0-3.46,2.92,2.92,0,0,0-.91-1.3,2.41,2.41,0,0,0-1.58-.5,2.37,2.37,0,0,0-1.57.5,2.85,2.85,0,0,0-.91,1.3,5.14,5.14,0,0,0,0,3.46,2.87,2.87,0,0,0,.91,1.29A2.42,2.42,0,0,0,211.08,183.46Z"/><path class="cls-1" d="M218.9,179v5.59h-1.43v-9.29h1.38v1.45H219a2.73,2.73,0,0,1,1-1.14,3.09,3.09,0,0,1,1.72-.43,3.35,3.35,0,0,1,1.65.38,2.63,2.63,0,0,1,1.1,1.16,4.37,4.37,0,0,1,.4,2v5.9H223.4v-5.81a2.42,2.42,0,0,0-.57-1.71,2,2,0,0,0-1.56-.61,2.45,2.45,0,0,0-1.22.3,2,2,0,0,0-.84.86A2.81,2.81,0,0,0,218.9,179Z"/><path class="cls-1" d="M236.27,175.26v1.21h-4.82v-1.21ZM232.86,173h1.43v8.86a1.8,1.8,0,0,0,.17.9.92.92,0,0,0,.46.4,1.72,1.72,0,0,0,.6.1,2.06,2.06,0,0,0,.39,0l.24,0,.29,1.28a2.85,2.85,0,0,1-.41.11,3,3,0,0,1-.66.06,2.92,2.92,0,0,1-1.18-.26,2.34,2.34,0,0,1-.95-.79,2.24,2.24,0,0,1-.38-1.35Z"/><path class="cls-1" d="M240,179v5.59h-1.42V172.16H240v4.55h.12a2.69,2.69,0,0,1,1-1.15,3.21,3.21,0,0,1,1.75-.42,3.5,3.5,0,0,1,1.66.37,2.6,2.6,0,0,1,1.11,1.16,4.28,4.28,0,0,1,.4,2v5.9h-1.43v-5.81a2.39,2.39,0,0,0-.57-1.71,2,2,0,0,0-1.58-.61,2.61,2.61,0,0,0-1.26.3,2.06,2.06,0,0,0-.87.86A2.82,2.82,0,0,0,240,179Z"/><path class="cls-1" d="M252.58,184.74a4.42,4.42,0,0,1-2.32-.59,4,4,0,0,1-1.49-1.67,5.64,5.64,0,0,1-.52-2.5,5.7,5.7,0,0,1,.52-2.52,4.15,4.15,0,0,1,1.46-1.71,3.93,3.93,0,0,1,2.2-.61,4.38,4.38,0,0,1,1.43.24,3.44,3.44,0,0,1,1.29.78,3.78,3.78,0,0,1,.93,1.43,6.14,6.14,0,0,1,.34,2.19v.61h-7.16v-1.24H255a3,3,0,0,0-.31-1.4,2.36,2.36,0,0,0-.88-1,2.47,2.47,0,0,0-1.35-.36,2.54,2.54,0,0,0-1.47.42,2.78,2.78,0,0,0-1,1.09,3.12,3.12,0,0,0-.34,1.44v.82A3.89,3.89,0,0,0,250,182a2.53,2.53,0,0,0,1,1.1,3,3,0,0,0,1.52.38,3,3,0,0,0,1-.16,2.36,2.36,0,0,0,.79-.48,2.24,2.24,0,0,0,.51-.81l1.38.39a3.22,3.22,0,0,1-.73,1.23,3.71,3.71,0,0,1-1.27.82A4.81,4.81,0,0,1,252.58,184.74Z"/><path class="cls-1" d="M264.82,179v5.59h-1.43v-9.29h1.38v1.45h.12a2.73,2.73,0,0,1,1-1.14,3.11,3.11,0,0,1,1.72-.43,3.35,3.35,0,0,1,1.65.38,2.58,2.58,0,0,1,1.1,1.16,4.24,4.24,0,0,1,.4,2v5.9h-1.43v-5.81a2.42,2.42,0,0,0-.57-1.71,2,2,0,0,0-1.56-.61,2.45,2.45,0,0,0-1.22.3,2.05,2.05,0,0,0-.84.86A2.81,2.81,0,0,0,264.82,179Z"/><path class="cls-1" d="M277.26,184.74a4.42,4.42,0,0,1-2.32-.59,4,4,0,0,1-1.49-1.67,5.64,5.64,0,0,1-.52-2.5,5.7,5.7,0,0,1,.52-2.52,4.08,4.08,0,0,1,1.46-1.71,3.93,3.93,0,0,1,2.2-.61,4.38,4.38,0,0,1,1.43.24,3.44,3.44,0,0,1,1.29.78,3.78,3.78,0,0,1,.93,1.43,6.14,6.14,0,0,1,.34,2.19v.61h-7.16v-1.24h5.71a3,3,0,0,0-.31-1.4,2.36,2.36,0,0,0-.88-1,2.47,2.47,0,0,0-1.35-.36,2.54,2.54,0,0,0-1.47.42,2.78,2.78,0,0,0-.95,1.09,3.12,3.12,0,0,0-.34,1.44v.82a3.89,3.89,0,0,0,.37,1.79,2.53,2.53,0,0,0,1,1.1,3,3,0,0,0,1.52.38,3,3,0,0,0,1-.16,2.22,2.22,0,0,0,.78-.48,2.13,2.13,0,0,0,.52-.81l1.38.39a3.22,3.22,0,0,1-.73,1.23,3.71,3.71,0,0,1-1.27.82A4.81,4.81,0,0,1,277.26,184.74Z"/><path class="cls-1" d="M284.1,175.26l2.23,3.8,2.23-3.8h1.64l-3,4.64,3,4.65h-1.64l-2.23-3.61-2.23,3.61h-1.64l3-4.65-3-4.64Z"/><path class="cls-1" d="M296.27,175.26v1.21h-4.81v-1.21ZM292.86,173h1.43v8.86a1.78,1.78,0,0,0,.18.9.89.89,0,0,0,.46.4,1.66,1.66,0,0,0,.59.1,2.06,2.06,0,0,0,.39,0l.24,0,.29,1.28a2.66,2.66,0,0,1-.4.11,3,3,0,0,1-.66.06,2.89,2.89,0,0,1-1.18-.26,2.21,2.21,0,0,1-1.34-2.14Z"/><path class="cls-1" d="M303.22,184.55v-9.29h1.38v1.45h.12a2.3,2.3,0,0,1,.94-1.16,2.87,2.87,0,0,1,1.55-.41,2.73,2.73,0,0,1,1.53.41,2.76,2.76,0,0,1,1,1.16h.1a2.75,2.75,0,0,1,1.07-1.15,3.33,3.33,0,0,1,1.71-.42,2.82,2.82,0,0,1,2,.77,3.26,3.26,0,0,1,.79,2.42v6.22H314v-6.22a1.74,1.74,0,0,0-.56-1.47,2.08,2.08,0,0,0-1.32-.44,2,2,0,0,0-1.52.59,2.12,2.12,0,0,0-.54,1.49v6.05h-1.45v-6.36a1.68,1.68,0,0,0-.51-1.28,1.85,1.85,0,0,0-1.33-.49,1.93,1.93,0,0,0-1,.3,2.1,2.1,0,0,0-.77.82,2.35,2.35,0,0,0-.3,1.2v5.81Z"/><path class="cls-1" d="M323.88,180.75v-5.49h1.43v9.29h-1.43V183h-.09a3.07,3.07,0,0,1-1,1.2,2.91,2.91,0,0,1-1.74.49,3.15,3.15,0,0,1-1.55-.38,2.71,2.71,0,0,1-1.07-1.17,4.33,4.33,0,0,1-.38-2v-5.9h1.42v5.8a2.26,2.26,0,0,0,.58,1.63,1.92,1.92,0,0,0,1.46.6,2.46,2.46,0,0,0,1.08-.27,2.33,2.33,0,0,0,.93-.84A2.51,2.51,0,0,0,323.88,180.75Z"/><path class="cls-1" d="M334.5,177.34l-1.28.36a2.58,2.58,0,0,0-.35-.62,1.77,1.77,0,0,0-.63-.51,2.36,2.36,0,0,0-1-.2,2.47,2.47,0,0,0-1.42.39,1.17,1.17,0,0,0-.56,1,1,1,0,0,0,.39.84,3,3,0,0,0,1.21.51l1.38.34a3.78,3.78,0,0,1,1.85.93,2.15,2.15,0,0,1,.61,1.59,2.41,2.41,0,0,1-.45,1.43,3.07,3.07,0,0,1-1.28,1,4.63,4.63,0,0,1-1.9.36,4.19,4.19,0,0,1-2.35-.61,2.79,2.79,0,0,1-1.18-1.81l1.36-.34a1.89,1.89,0,0,0,.73,1.13,2.43,2.43,0,0,0,1.42.37,2.7,2.7,0,0,0,1.59-.42,1.26,1.26,0,0,0,.59-1,1.11,1.11,0,0,0-.34-.81,2.2,2.2,0,0,0-1-.49l-1.55-.37a3.62,3.62,0,0,1-1.87-.94,2.24,2.24,0,0,1-.6-1.6,2.27,2.27,0,0,1,.45-1.39,3,3,0,0,1,1.21-1,4.27,4.27,0,0,1,1.75-.34,3.5,3.5,0,0,1,2.17.6A3.23,3.23,0,0,1,334.5,177.34Z"/><path class="cls-1" d="M337.55,173.71a1,1,0,0,1-.71-.28.93.93,0,0,1,0-1.37,1,1,0,0,1,.71-.29,1,1,0,0,1,.72.29.93.93,0,0,1,0,1.37A1,1,0,0,1,337.55,173.71Zm-.72,10.84v-9.29h1.42v9.29Z"/><path class="cls-1" d="M344.64,184.74a4,4,0,0,1-2.25-.61,4.08,4.08,0,0,1-1.45-1.7,5.79,5.79,0,0,1-.51-2.48,5.67,5.67,0,0,1,.53-2.5,4,4,0,0,1,1.46-1.7,3.93,3.93,0,0,1,2.2-.61,4.16,4.16,0,0,1,1.76.36,3.26,3.26,0,0,1,1.29,1,3.18,3.18,0,0,1,.63,1.52h-1.43a2.24,2.24,0,0,0-.73-1.13,2.17,2.17,0,0,0-1.5-.49,2.51,2.51,0,0,0-1.46.43,2.83,2.83,0,0,0-1,1.22,4.49,4.49,0,0,0-.35,1.83,4.71,4.71,0,0,0,.34,1.88,2.89,2.89,0,0,0,1,1.24,2.72,2.72,0,0,0,2.48.25,2.16,2.16,0,0,0,.77-.56,2.12,2.12,0,0,0,.45-.87h1.43a3.31,3.31,0,0,1-1.85,2.52A4.12,4.12,0,0,1,344.64,184.74Z"/><path class="cls-1" d="M358.94,184.74a4,4,0,0,1-2.25-.61,4.08,4.08,0,0,1-1.45-1.7,5.79,5.79,0,0,1-.51-2.48,5.67,5.67,0,0,1,.53-2.5,4,4,0,0,1,1.46-1.7,3.93,3.93,0,0,1,2.2-.61,4.16,4.16,0,0,1,1.76.36,3.26,3.26,0,0,1,1.29,1,3.18,3.18,0,0,1,.63,1.52h-1.43a2.24,2.24,0,0,0-.73-1.13,2.17,2.17,0,0,0-1.5-.49,2.49,2.49,0,0,0-1.46.43,2.83,2.83,0,0,0-1,1.22,4.49,4.49,0,0,0-.35,1.83,4.71,4.71,0,0,0,.34,1.88,2.89,2.89,0,0,0,1,1.24,2.72,2.72,0,0,0,2.48.25,2.16,2.16,0,0,0,.77-.56,2.12,2.12,0,0,0,.45-.87h1.43a3.31,3.31,0,0,1-1.85,2.52A4.12,4.12,0,0,1,358.94,184.74Z"/><path class="cls-1" d="M366.1,179v5.59h-1.43V172.16h1.43v4.55h.12a2.69,2.69,0,0,1,1-1.15,3.19,3.19,0,0,1,1.75-.42,3.5,3.5,0,0,1,1.66.37,2.6,2.6,0,0,1,1.11,1.16,4.28,4.28,0,0,1,.4,2v5.9H370.7v-5.81a2.39,2.39,0,0,0-.57-1.71,2,2,0,0,0-1.58-.61,2.61,2.61,0,0,0-1.26.3,2.06,2.06,0,0,0-.87.86A2.82,2.82,0,0,0,366.1,179Z"/><path class="cls-1" d="M377.47,184.77a3.82,3.82,0,0,1-1.6-.34,2.7,2.7,0,0,1-1.14-1,2.76,2.76,0,0,1-.42-1.55,2.43,2.43,0,0,1,.31-1.3,2.25,2.25,0,0,1,.84-.78,4.71,4.71,0,0,1,1.16-.43c.43-.09.86-.17,1.29-.22s1-.13,1.38-.17a2,2,0,0,0,.77-.2.51.51,0,0,0,.25-.48v-.05a1.93,1.93,0,0,0-.49-1.39,2,2,0,0,0-1.47-.49,2.57,2.57,0,0,0-1.61.44,2.63,2.63,0,0,0-.81,1l-1.36-.49a3.34,3.34,0,0,1,1-1.32,3.69,3.69,0,0,1,1.33-.66,5.52,5.52,0,0,1,1.43-.19,5.84,5.84,0,0,1,1,.1,3.47,3.47,0,0,1,1.13.43,2.58,2.58,0,0,1,.91,1,3.7,3.7,0,0,1,.36,1.77v6.12h-1.42v-1.26h-.08a2.29,2.29,0,0,1-.48.65,2.85,2.85,0,0,1-.9.58A3.37,3.37,0,0,1,377.47,184.77Zm.22-1.29a2.85,2.85,0,0,0,1.43-.33,2.3,2.3,0,0,0,.89-.86,2.19,2.19,0,0,0,.3-1.1v-1.31a.91.91,0,0,1-.4.2l-.7.15-.77.11-.6.07a6.35,6.35,0,0,0-1,.23,1.81,1.81,0,0,0-.77.48,1.2,1.2,0,0,0-.3.86,1.29,1.29,0,0,0,.56,1.13A2.41,2.41,0,0,0,377.69,183.48Z"/><path class="cls-1" d="M385.77,179v5.59h-1.42v-9.29h1.38v1.45h.12a2.6,2.6,0,0,1,1-1.14,3.07,3.07,0,0,1,1.72-.43,3.38,3.38,0,0,1,1.65.38,2.63,2.63,0,0,1,1.1,1.16,4.37,4.37,0,0,1,.39,2v5.9h-1.43v-5.81a2.46,2.46,0,0,0-.56-1.71,2,2,0,0,0-1.57-.61,2.41,2.41,0,0,0-1.21.3,2.07,2.07,0,0,0-.85.86A2.93,2.93,0,0,0,385.77,179Z"/><path class="cls-1" d="M398.07,188.23a5.21,5.21,0,0,1-1.78-.27,3.61,3.61,0,0,1-1.24-.69,3.47,3.47,0,0,1-.78-.91l1.13-.79.49.58a2.48,2.48,0,0,0,.82.57,3.09,3.09,0,0,0,1.36.25,3,3,0,0,0,1.85-.55,2,2,0,0,0,.73-1.7v-1.89h-.12a7,7,0,0,1-.44.63,2.82,2.82,0,0,1-.82.66,3.12,3.12,0,0,1-1.45.28,3.77,3.77,0,0,1-2-.53,3.61,3.61,0,0,1-1.41-1.55,5.31,5.31,0,0,1-.52-2.47,5.78,5.78,0,0,1,.5-2.48,3.92,3.92,0,0,1,1.4-1.65,3.71,3.71,0,0,1,2.07-.58,3,3,0,0,1,1.44.3,2.57,2.57,0,0,1,.82.67l.45.62h.14v-1.47h1.38v9.55a3.31,3.31,0,0,1-.54,2,3.08,3.08,0,0,1-1.45,1.1A5.46,5.46,0,0,1,398.07,188.23Zm-.05-5.11a2.6,2.6,0,0,0,1.45-.39,2.5,2.5,0,0,0,.9-1.13,4.49,4.49,0,0,0,.31-1.77,4.83,4.83,0,0,0-.3-1.77,2.72,2.72,0,0,0-.9-1.21,2.7,2.7,0,0,0-3,0,2.82,2.82,0,0,0-.9,1.23,4.74,4.74,0,0,0-.3,1.72,4.5,4.5,0,0,0,.3,1.71,2.65,2.65,0,0,0,.91,1.16A2.55,2.55,0,0,0,398,183.12Z"/><path class="cls-1" d="M408.59,184.74a4.38,4.38,0,0,1-2.31-.59,4,4,0,0,1-1.5-1.67,5.64,5.64,0,0,1-.52-2.5,5.7,5.7,0,0,1,.52-2.52,4.1,4.1,0,0,1,1.47-1.71,3.91,3.91,0,0,1,2.2-.61,4.42,4.42,0,0,1,1.43.24,3.6,3.6,0,0,1,1.29.78,3.88,3.88,0,0,1,.92,1.43,6.13,6.13,0,0,1,.35,2.19v.61h-7.16v-1.24H411a3,3,0,0,0-.32-1.4,2.3,2.3,0,0,0-.88-1,2.46,2.46,0,0,0-1.34-.36,2.6,2.6,0,0,0-1.48.42,2.78,2.78,0,0,0-1,1.09,3.24,3.24,0,0,0-.33,1.44v.82a4,4,0,0,0,.36,1.79,2.65,2.65,0,0,0,1,1.1,3,3,0,0,0,1.52.38,3,3,0,0,0,1-.16,2.27,2.27,0,0,0,.79-.48,2.24,2.24,0,0,0,.51-.81l1.38.39a3.1,3.1,0,0,1-.73,1.23,3.62,3.62,0,0,1-1.27.82A4.77,4.77,0,0,1,408.59,184.74Z"/><path class="cls-1" d="M415.66,184.65a1.06,1.06,0,0,1-.77-.32,1,1,0,0,1-.32-.77,1,1,0,0,1,.32-.77,1.07,1.07,0,0,1,1.53,0,1.1,1.1,0,0,1,.18,1.31,1.1,1.1,0,0,1-.4.4A1,1,0,0,1,415.66,184.65Z"/><path class="cls-1" d="M22.2,180.79a6.39,6.39,0,1,1-8.44-8.46,6.41,6.41,0,0,0,5.81,9A6.33,6.33,0,0,0,22.2,180.79Z"/></svg>