<svg version="1.1" xmlns="http://www.w3.org/2000/svg" xmlns:xlink="http://www.w3.org/1999/xlink" width="325.82514" height="12.24753" viewBox="0,0,325.82514,12.24753"><g transform="translate(-77.08743,-173.87624)"><g data-paper-data="{&quot;isPaintingLayer&quot;:true}" fill="#231f20" fill-rule="nonzero" stroke="none" stroke-width="1" stroke-linecap="butt" stroke-linejoin="miter" stroke-miterlimit="10" stroke-dasharray="" stroke-dashoffset="0" style="mix-blend-mode: normal"><path d="M77.08743,175.2755v-0.97068h6.83651v0.97068h-2.87029v8.13075h-1.04374v-8.13075z"/><path d="M86.53329,179.30434v4.10191h-1.04374v-9.10143h1.04374v3.33998h0.09394c0.15048,-0.34726 0.40126,-0.64165 0.72018,-0.84543c0.39217,-0.22706 0.84165,-0.3358 1.29424,-0.31312c0.42409,-0.00838 0.84365,0.08845 1.22118,0.28181c0.35006,0.19373 0.63373,0.48831 0.81412,0.84543c0.21194,0.4533 0.31216,0.9508 0.29225,1.4508v4.34197h-1.04374v-4.26891c0.03159,-0.45623 -0.11849,-0.90646 -0.4175,-1.25249c-0.30338,-0.30969 -0.72571,-0.4733 -1.15855,-0.44881c-0.32306,-0.00538 -0.64235,0.06996 -0.92893,0.21919c-0.26963,0.141 -0.49125,0.35898 -0.63668,0.62625c-0.16954,0.31394 -0.25579,0.66611 -0.2505,1.02287z"/><path d="M95.74954,183.55237c-0.59838,0.02352 -1.19138,-0.12111 -1.71174,-0.4175c-0.4593,-0.31046 -0.82119,-0.74474 -1.04374,-1.25249c-0.2665,-0.57508 -0.39857,-1.20328 -0.38618,-1.83699c-0.01001,-0.63684 0.12191,-1.26792 0.38618,-1.84742c0.22352,-0.50715 0.58522,-0.94118 1.04374,-1.25249c0.48159,-0.31059 1.04486,-0.47048 1.6178,-0.45925c0.35513,0.00328 0.70747,0.06317 1.04374,0.17744c0.35433,0.12557 0.67803,0.32477 0.94981,0.5845c0.30195,0.29231 0.53388,0.64912 0.67843,1.04374c0.17994,0.51986 0.26479,1.06787 0.2505,1.6178v0.43837h-5.21871v-0.90806h4.17497c0.00989,-0.36145 -0.06895,-0.71982 -0.22962,-1.04374c-0.14306,-0.29382 -0.36772,-0.54023 -0.64712,-0.70974c-0.29836,-0.18096 -0.64277,-0.27159 -0.99156,-0.26094c-0.36955,0.00005 -0.7315,0.10501 -1.04374,0.30269c-0.29653,0.20532 -0.53694,0.48162 -0.69931,0.80368c-0.15496,0.32632 -0.23688,0.68251 -0.24006,1.04374v0.60537c-0.0168,0.45047 0.07634,0.89827 0.27137,1.30468c0.16329,0.33719 0.42066,0.61994 0.74106,0.81412c0.34049,0.19182 0.72607,0.28911 1.1168,0.28181c0.25606,0.0047 0.5108,-0.03775 0.75149,-0.12525c0.22119,-0.06811 0.42203,-0.19004 0.5845,-0.35487c0.1651,-0.17015 0.29305,-0.37274 0.37575,-0.59493l1.04374,0.29225c-0.10219,0.34093 -0.28474,0.65234 -0.53231,0.90806c-0.26715,0.26299 -0.58743,0.46583 -0.93937,0.59493c-0.42677,0.17532 -0.88516,0.2606 -1.34643,0.2505z"/><path d="M105.71728,183.57325c-0.40695,0.006 -0.81004,-0.07961 -1.17943,-0.2505c-0.73439,-0.31162 -1.19387,-1.05097 -1.14812,-1.84742c-0.01642,-0.33541 0.06324,-0.66855 0.22962,-0.96024c0.1514,-0.24203 0.36376,-0.44 0.61581,-0.57406c0.27097,-0.13999 0.55853,-0.2452 0.85587,-0.31312c0.31357,-0.07171 0.63058,-0.12745 0.94981,-0.167l1.04374,-0.12525c0.19638,-0.00633 0.3889,-0.05625 0.56362,-0.14612c0.12592,-0.07109 0.19612,-0.21148 0.17744,-0.35487v0c0.03085,-0.38198 -0.09758,-0.75973 -0.35487,-1.04374c-0.28663,-0.2538 -0.66141,-0.38497 -1.04374,-0.36531c-0.41798,-0.02433 -0.83237,0.08936 -1.17943,0.32356c-0.24895,0.18905 -0.45227,0.4316 -0.59493,0.70974l-1.04374,-0.35487c0.1504,-0.38133 0.39883,-0.71618 0.72018,-0.97068c0.28517,-0.23042 0.61603,-0.39763 0.97068,-0.49056c0.34034,-0.0926 0.69105,-0.1417 1.04374,-0.14612c0.25591,0.00585 0.51083,0.03379 0.76193,0.0835c0.2908,0.05623 0.56973,0.16216 0.82456,0.31312c0.28333,0.18022 0.51382,0.43232 0.668,0.73062c0.19705,0.40201 0.29034,0.84694 0.27137,1.29424v4.49853h-1.04374v-0.91849h-0.05219c-0.09243,0.17452 -0.21224,0.3331 -0.35487,0.46968c-0.18927,0.18666 -0.41246,0.33545 -0.65756,0.43837c-0.33325,0.12489 -0.68816,0.18167 -1.04374,0.167zM105.87384,182.62344c0.36287,0.01211 0.72262,-0.07063 1.04374,-0.24006c0.26877,-0.15053 0.49224,-0.3704 0.64712,-0.63668c0.14382,-0.24339 0.21953,-0.52098 0.21919,-0.80368v-0.93937c-0.07835,0.08 -0.18124,0.13144 -0.29225,0.14612c-0.1679,0.04894 -0.33872,0.08729 -0.51143,0.11481l-0.56362,0.0835h-0.44881c-0.25853,0.03236 -0.51357,0.08825 -0.76193,0.167c-0.21353,0.07155 -0.40681,0.19324 -0.56362,0.35487c-0.15389,0.17518 -0.23263,0.4039 -0.21919,0.63668c-0.01731,0.32702 0.13692,0.63945 0.40706,0.82456c0.30892,0.2039 0.67386,0.30608 1.04374,0.29225z"/><path d="M111.78142,179.30434v4.10191h-1.04374v-6.82607h1.04374v1.04374h0.09394c0.15393,-0.34554 0.40857,-0.63656 0.73062,-0.83499c0.37867,-0.23284 0.81894,-0.34564 1.26293,-0.32356c0.42089,-0.00974 0.83741,0.08721 1.21074,0.28181c0.34981,0.1955 0.63054,0.49447 0.80368,0.85587c0.21031,0.45014 0.31049,0.94386 0.29225,1.44036v4.34197h-1.04374v-4.26891c0.02289,-0.45509 -0.12613,-0.90215 -0.4175,-1.25249c-0.30016,-0.30804 -0.71862,-0.47162 -1.14812,-0.44881c-0.31326,-0.007 -0.62284,0.0686 -0.89762,0.21919c-0.26432,0.1446 -0.48165,0.36193 -0.62625,0.62625c-0.17152,0.32115 -0.26115,0.67966 -0.26094,1.04374z"/><path d="M118.62837,175.44249c-0.19441,0.00054 -0.38146,-0.07428 -0.52187,-0.20875c-0.14875,-0.13268 -0.23382,-0.32254 -0.23382,-0.52187c0,-0.19933 0.08506,-0.38919 0.23382,-0.52187c0.29528,-0.27064 0.74846,-0.27064 1.04374,0c0.14875,0.13268 0.23382,0.32254 0.23382,0.52187c0,0.19933 -0.08506,0.38919 -0.23382,0.52187c-0.141,0.13355 -0.32767,0.20822 -0.52187,0.20875zM118.09606,183.40625v-6.82607h1.04374v6.82607z"/><path d="M121.07072,183.40625v-6.82607h1.04374v1.04374h0.10437c0.12562,-0.35262 0.36889,-0.65118 0.68887,-0.84543c0.33973,-0.21501 0.73578,-0.32401 1.13768,-0.31312c0.39901,-0.01402 0.79263,0.09532 1.12724,0.31312c0.31261,0.20809 0.55894,0.50151 0.70974,0.84543h0.07306c0.16769,-0.35567 0.44107,-0.65092 0.78281,-0.84543c0.38432,-0.21814 0.82121,-0.32646 1.26293,-0.31312c0.55399,-0.01435 1.09096,0.19217 1.49255,0.57406c0.42641,0.48827 0.63723,1.12825 0.5845,1.77436v4.57159h-1.04374v-4.57159c0.02972,-0.39166 -0.12002,-0.77562 -0.40706,-1.04374c-0.28021,-0.21726 -0.62664,-0.3315 -0.98112,-0.32356c-0.41606,-0.02187 -0.82189,0.13364 -1.1168,0.42793c-0.26361,0.30279 -0.40174,0.69477 -0.38618,1.09593v4.44634h-1.04374v-4.67597c0.01373,-0.35226 -0.12287,-0.69376 -0.37575,-0.93937c-0.26347,-0.24271 -0.6128,-0.37042 -0.97068,-0.35487c-0.26972,-0.00137 -0.53417,0.0747 -0.76193,0.21919c-0.24088,0.1437 -0.43905,0.34907 -0.57406,0.59493c-0.14927,0.27152 -0.22484,0.57739 -0.21919,0.88718v4.26891z"/><path d="M133.97138,183.57325c-0.40695,0.006 -0.81004,-0.07961 -1.17943,-0.2505c-0.34039,-0.15644 -0.63241,-0.40159 -0.84543,-0.70974c-0.21501,-0.33973 -0.32401,-0.73578 -0.31312,-1.13768c-0.01326,-0.33643 0.07004,-0.66963 0.24006,-0.96024c0.14859,-0.24433 0.36166,-0.44296 0.61581,-0.57406c0.27097,-0.13999 0.55853,-0.2452 0.85587,-0.31312c0.31312,-0.07306 0.62625,-0.12525 0.93937,-0.167l1.04374,-0.12525c0.19968,-0.00651 0.39556,-0.05637 0.57406,-0.14612c0.12383,-0.07307 0.19328,-0.21197 0.17744,-0.35487v0c0.03085,-0.38198 -0.09758,-0.75973 -0.35487,-1.04374c-0.28776,-0.25186 -0.66173,-0.38275 -1.04374,-0.36531c-0.41814,-0.02591 -0.83304,0.08791 -1.17943,0.32356c-0.24895,0.18905 -0.45227,0.4316 -0.59493,0.70974l-1.04374,-0.35487c0.1504,-0.38133 0.39883,-0.71618 0.72018,-0.97068c0.28391,-0.23235 0.61522,-0.39978 0.97068,-0.49056c0.34034,-0.0926 0.69105,-0.1417 1.04374,-0.14612c0.25249,0.00533 0.50399,0.03327 0.75149,0.0835c0.29458,0.05445 0.57725,0.16045 0.83499,0.31312c0.28333,0.18022 0.51382,0.43232 0.668,0.73062c0.19705,0.40201 0.29034,0.84694 0.27137,1.29424v4.49853h-1.04374v-0.91849h-0.05219c-0.09243,0.17452 -0.21224,0.3331 -0.35487,0.46968c-0.19098,0.18948 -0.41816,0.33857 -0.668,0.43837c-0.32931,0.12603 -0.68106,0.18287 -1.0333,0.167zM134.12794,182.62344c0.36287,0.01211 0.72262,-0.07063 1.04374,-0.24006c0.26877,-0.15053 0.49224,-0.3704 0.64712,-0.63668c0.14382,-0.24339 0.21953,-0.52098 0.21919,-0.80368v-0.93937c-0.07835,0.08 -0.18124,0.13144 -0.29225,0.14612c-0.16822,0.0477 -0.33896,0.08603 -0.51143,0.11481l-0.56362,0.0835h-0.44881c-0.25853,0.03236 -0.51357,0.08825 -0.76193,0.167c-0.21482,0.06881 -0.40872,0.1909 -0.56362,0.35487c-0.15389,0.17518 -0.23263,0.4039 -0.21919,0.63668c-0.01731,0.32702 0.13692,0.63945 0.40706,0.82456c0.30892,0.2039 0.67386,0.30608 1.04374,0.29225z"/><path d="M141.98732,176.58017v0.88718h-3.53829v-0.88718zM139.48234,174.9415h1.04374v6.51295c-0.01338,0.22955 0.02962,0.45888 0.12525,0.668c0.07739,0.13446 0.19917,0.23778 0.34443,0.29225c0.14162,0.04625 0.28941,0.07088 0.43837,0.07306h0.28181h0.17744l0.20875,0.93937c-0.09482,0.03624 -0.1926,0.06418 -0.29225,0.0835c-0.4567,0.08861 -0.9295,0.03769 -1.35686,-0.14612c-0.28109,-0.12893 -0.52254,-0.33075 -0.69931,-0.5845c-0.2078,-0.30671 -0.30701,-0.67413 -0.28181,-1.04374z"/><path d="M144.13743,175.44249c-0.19441,0.00054 -0.38146,-0.07428 -0.52187,-0.20875c-0.14875,-0.13268 -0.23382,-0.32254 -0.23382,-0.52187c0,-0.19933 0.08506,-0.38919 0.23382,-0.52187c0.29528,-0.27064 0.74846,-0.27064 1.04374,0c0.14875,0.13268 0.23382,0.32254 0.23382,0.52187c0,0.19933 -0.08506,0.38919 -0.23382,0.52187c-0.141,0.13355 -0.32767,0.20822 -0.52187,0.20875zM143.60512,183.40625v-6.82607h1.04374v6.82607z"/><path d="M149.35614,183.55237c-1.15813,0.03982 -2.22738,-0.61818 -2.71373,-1.66999c-0.51449,-1.18515 -0.51449,-2.53058 0,-3.71572c0.22773,-0.4989 0.58895,-0.92514 1.04374,-1.23162c0.487,-0.30602 1.05323,-0.4621 1.62824,-0.44881c0.57187,-0.01434 1.13506,0.1419 1.6178,0.44881c0.45479,0.30648 0.81601,0.73271 1.04374,1.23162c0.51449,1.18515 0.51449,2.53058 0,3.71572c-0.23088,0.4969 -0.59144,0.92236 -1.04374,1.23162c-0.4736,0.29159 -1.01991,0.44354 -1.57605,0.43837zM149.35614,182.613c0.41678,0.01569 0.82615,-0.11339 1.15855,-0.36531c0.30439,-0.25044 0.53523,-0.57867 0.668,-0.94981c0.14867,-0.4043 0.22293,-0.83218 0.21919,-1.26293c0.00375,-0.43755 -0.07047,-0.87228 -0.21919,-1.2838c-0.13276,-0.37114 -0.36361,-0.69937 -0.668,-0.94981c-0.69605,-0.48559 -1.62106,-0.48559 -2.31711,0c-0.31062,0.2446 -0.54283,0.57478 -0.668,0.94981c-0.15935,0.39909 -0.24766,0.82297 -0.26094,1.25249c-0.00374,0.43075 0.07052,0.85863 0.21919,1.26293c0.12516,0.37503 0.35738,0.70521 0.668,0.94981c0.33924,0.27252 0.76548,0.41336 1.2003,0.39662z"/><path d="M155.06541,179.30434v4.10191h-1.04374v-6.82607h1.04374v1.04374h0.0835c0.16058,-0.34124 0.41372,-0.63054 0.73062,-0.83499c0.37968,-0.23046 0.81921,-0.34306 1.26293,-0.32356c0.42422,-0.0097 0.8441,0.0872 1.22118,0.28181c0.34981,0.1955 0.63054,0.49447 0.80368,0.85587c0.21031,0.45014 0.31049,0.94386 0.29225,1.44036v4.34197h-1.04374v-4.26891c0.02821,-0.4558 -0.12145,-0.90478 -0.4175,-1.25249c-0.29778,-0.31161 -0.71795,-0.47586 -1.14812,-0.44881c-0.31294,-0.00415 -0.62181,0.07127 -0.89762,0.21919c-0.26383,0.14174 -0.47853,0.36007 -0.61581,0.62625c-0.18032,0.31814 -0.2739,0.67806 -0.27137,1.04374z"/><path d="M166.42132,183.40625l-2.08748,-6.82607h1.10637l1.48211,5.21871h0.06262l1.46124,-5.21871h1.1168l1.4508,5.21871h0.06262l1.48211,-5.21871h1.10637l-2.08748,6.82607h-1.04374l-1.49255,-5.21871h-0.10437l-1.49255,5.21871z"/><path d="M175.58538,175.44249c-0.19781,0.00216 -0.3887,-0.0727 -0.53231,-0.20875c-0.14875,-0.13268 -0.23382,-0.32254 -0.23382,-0.52187c0,-0.19933 0.08506,-0.38919 0.23382,-0.52187c0.29528,-0.27064 0.74846,-0.27064 1.04374,0c0.14875,0.13268 0.23382,0.32254 0.23382,0.52187c0,0.19933 -0.08506,0.38919 -0.23382,0.52187c-0.13779,0.13199 -0.32064,0.20662 -0.51143,0.20875zM175.04263,183.40625v-6.82607h1.04374v6.82607z"/><path d="M179.07148,174.30482v9.10143h-1.04374v-9.10143z"/><path d="M182.03571,174.30482v9.10143h-1.04374v-9.10143z"/><path d="M187.63017,183.40625v-9.10143h1.04374v3.36085h0.09394c0.07306,-0.11481 0.17744,-0.27137 0.32356,-0.45925c0.15956,-0.20823 0.36258,-0.3792 0.59493,-0.501c0.32384,-0.15999 0.6829,-0.23539 1.04374,-0.21919c0.54044,-0.01013 1.07142,0.14262 1.52386,0.43837c0.45862,0.29763 0.82116,0.7218 1.04374,1.22118c0.26016,0.58755 0.385,1.22603 0.36531,1.8683c0.01844,0.64554 -0.10632,1.28714 -0.36531,1.87874c-0.22537,0.5004 -0.58709,0.92722 -1.04374,1.23162c-0.44845,0.28637 -0.97095,0.43513 -1.50299,0.42793c-0.36073,0.01486 -0.71947,-0.06047 -1.04374,-0.21919c-0.23826,-0.12176 -0.44811,-0.29249 -0.61581,-0.501c-0.13569,-0.18787 -0.2505,-0.34443 -0.32356,-0.46968h-0.12525v1.04374zM188.67391,179.99321c-0.00566,0.46582 0.07211,0.92889 0.22962,1.3673c0.1335,0.36202 0.36472,0.67995 0.668,0.91849c0.30227,0.22201 0.66874,0.33928 1.04374,0.334c0.39584,0.01544 0.78427,-0.11034 1.09593,-0.35487c0.30941,-0.24137 0.54158,-0.56786 0.668,-0.93937c0.15986,-0.4233 0.23779,-0.87314 0.22962,-1.32555c0.00638,-0.44116 -0.0679,-0.87978 -0.21919,-1.29424c-0.12656,-0.36855 -0.3589,-0.69164 -0.668,-0.92893c-0.32154,-0.23095 -0.71074,-0.34845 -1.10637,-0.334c-0.37371,-0.00756 -0.73984,0.10594 -1.04374,0.32356c-0.30433,0.22641 -0.53345,0.53918 -0.65756,0.89762c-0.17048,0.42852 -0.25899,0.88524 -0.26094,1.34643z"/><path d="M198.11978,183.55237c-0.59687,0.01523 -1.18612,-0.1366 -1.7013,-0.43837c-0.49099,-0.29109 -0.88638,-0.71912 -1.13768,-1.23162c-0.27008,-0.57388 -0.40233,-1.20293 -0.38618,-1.83699c-0.01398,-0.63721 0.11813,-1.26917 0.38618,-1.84742c0.22352,-0.50715 0.58522,-0.94118 1.04374,-1.25249c0.48159,-0.31059 1.04486,-0.47048 1.6178,-0.45925c0.35513,0.00328 0.70747,0.06317 1.04374,0.17744c0.35433,0.12557 0.67803,0.32477 0.94981,0.5845c0.30195,0.29231 0.53388,0.64912 0.67843,1.04374c0.17994,0.51986 0.26479,1.06787 0.2505,1.6178v0.43837h-5.21871v-0.90806h4.17497c0.00989,-0.36145 -0.06895,-0.71982 -0.22962,-1.04374c-0.14636,-0.29157 -0.37027,-0.53715 -0.64712,-0.70974c-0.29883,-0.17986 -0.6429,-0.27041 -0.99156,-0.26094c-0.36955,0.00005 -0.7315,0.10501 -1.04374,0.30269c-0.29653,0.20532 -0.53694,0.48162 -0.69931,0.80368c-0.1597,0.32465 -0.24188,0.68194 -0.24006,1.04374v0.60537c-0.01487,0.4492 0.07444,0.89575 0.26094,1.30468c0.17259,0.33411 0.43224,0.61539 0.75149,0.81412c0.34049,0.19182 0.72607,0.28911 1.1168,0.28181c0.25606,0.0047 0.5108,-0.03775 0.75149,-0.12525c0.22848,-0.07077 0.43626,-0.19615 0.60537,-0.36531c0.1651,-0.17015 0.29305,-0.37274 0.37575,-0.59493l1.04374,0.29225c-0.09994,0.34427 -0.28686,0.65699 -0.54275,0.90806c-0.2633,0.26275 -0.58014,0.46567 -0.92893,0.59493c-0.40691,0.16957 -0.84298,0.2582 -1.2838,0.26094z"/><path d="M205.31116,186.11998c-0.44289,0.00683 -0.88382,-0.0602 -1.30468,-0.19831c-0.33494,-0.1127 -0.64629,-0.28606 -0.91849,-0.51143c-0.22494,-0.19145 -0.41862,-0.41682 -0.57406,-0.668l0.83499,-0.5845c0.11427,0.14888 0.23621,0.29171 0.36531,0.42793c0.16865,0.17991 0.37073,0.32526 0.59493,0.42793c0.33094,0.1341 0.68708,0.19464 1.04374,0.17744c0.48646,0.01745 0.96569,-0.12156 1.3673,-0.39662c0.37311,-0.30873 0.57186,-0.78027 0.53231,-1.26293v-1.38818h-0.0835c-0.0835,0.12525 -0.18787,0.28181 -0.334,0.46968c-0.16256,0.20409 -0.36963,0.36831 -0.60537,0.48012c-0.32688,0.15 -0.68431,0.22149 -1.04374,0.20875c-1.09461,0.06373 -2.12002,-0.53752 -2.59892,-1.52386c-0.26477,-0.56791 -0.39343,-1.18976 -0.37575,-1.81611c-0.01232,-0.63152 0.11231,-1.25822 0.36531,-1.83699c0.2327,-0.4901 0.59328,-0.90837 1.04374,-1.21074c0.45492,-0.28917 0.98491,-0.43801 1.52386,-0.42793c0.36073,-0.01486 0.71947,0.06047 1.04374,0.21919c0.23538,0.12165 0.44184,0.29252 0.60537,0.501c0.14612,0.18787 0.2505,0.34443 0.32356,0.45925h0.11481v-1.04374h1.04374v7.02439c0.0194,0.50952 -0.11912,1.0126 -0.39662,1.44036c-0.26515,0.36343 -0.62669,0.64544 -1.04374,0.81412c-0.48998,0.1669 -1.00671,0.24122 -1.52386,0.21919zM205.31116,182.36251c0.36923,0.00849 0.73261,-0.09325 1.04374,-0.29225c0.30223,-0.20151 0.53252,-0.49394 0.65756,-0.83499c0.16458,-0.41108 0.24274,-0.85164 0.22962,-1.29424c0.00814,-0.4447 -0.06618,-0.88705 -0.21919,-1.30468c-0.13557,-0.34939 -0.36271,-0.65584 -0.65756,-0.88718c-0.66668,-0.43227 -1.52518,-0.43227 -2.19186,0c-0.29789,0.23706 -0.52528,0.55107 -0.65756,0.90806c-0.15049,0.40381 -0.22481,0.83202 -0.21919,1.26293c-0.0094,0.4278 0.06506,0.85331 0.21919,1.25249c0.27142,0.73162 0.98437,1.20411 1.76392,1.16899z"/><path d="M210.71774,175.44249c-0.19483,0.00279 -0.38271,-0.07236 -0.52187,-0.20875c-0.15865,-0.12676 -0.25102,-0.3188 -0.25102,-0.52187c0,-0.20307 0.09237,-0.39511 0.25102,-0.52187c0.13916,-0.13639 0.32704,-0.21154 0.52187,-0.20875c0.19781,-0.00216 0.3887,0.0727 0.53231,0.20875c0.14875,0.13268 0.23382,0.32254 0.23382,0.52187c0,0.19933 -0.08506,0.38919 -0.23382,0.52187c-0.14361,0.13605 -0.3345,0.2109 -0.53231,0.20875zM210.18544,183.40625v-6.82607h1.04374v6.82607z"/><path d="M214.20384,179.30434v4.10191h-1.04374v-6.82607h1.04374v1.04374h0.0835c0.16058,-0.34124 0.41372,-0.63054 0.73062,-0.83499c0.37918,-0.23164 0.81908,-0.34434 1.26293,-0.32356c0.42422,-0.0097 0.8441,0.0872 1.22118,0.28181c0.34981,0.1955 0.63054,0.49447 0.80368,0.85587c0.21031,0.45014 0.31049,0.94386 0.29225,1.44036v4.34197h-1.04374v-4.26891c0.02821,-0.4558 -0.12145,-0.90478 -0.4175,-1.25249c-0.29939,-0.30921 -0.7184,-0.47301 -1.14812,-0.44881c-0.3131,-0.00555 -0.62231,0.06996 -0.89762,0.21919c-0.26383,0.14174 -0.47853,0.36007 -0.61581,0.62625c-0.18032,0.31814 -0.2739,0.67806 -0.27137,1.04374z"/><path d="M226.019,183.57325c-0.40695,0.006 -0.81004,-0.07961 -1.17943,-0.2505c-0.33917,-0.15393 -0.62843,-0.39981 -0.83499,-0.70974c-0.21501,-0.33973 -0.32401,-0.73578 -0.31312,-1.13768c-0.01642,-0.33541 0.06324,-0.66855 0.22962,-0.96024c0.1514,-0.24203 0.36376,-0.44 0.61581,-0.57406c0.27097,-0.13999 0.55853,-0.2452 0.85587,-0.31312c0.31357,-0.07171 0.63058,-0.12745 0.94981,-0.167l1.04374,-0.12525c0.19638,-0.00633 0.3889,-0.05625 0.56362,-0.14612c0.12592,-0.07109 0.19612,-0.21148 0.17744,-0.35487v0c0.03085,-0.38198 -0.09758,-0.75973 -0.35487,-1.04374c-0.28663,-0.2538 -0.66141,-0.38497 -1.04374,-0.36531c-0.41798,-0.02433 -0.83237,0.08936 -1.17943,0.32356c-0.24895,0.18905 -0.45227,0.4316 -0.59493,0.70974l-1.04374,-0.35487c0.1504,-0.38133 0.39883,-0.71618 0.72018,-0.97068c0.2877,-0.23256 0.62244,-0.39993 0.98112,-0.49056c0.34009,-0.09385 0.69096,-0.14297 1.04374,-0.14612c0.25591,0.00585 0.51083,0.03379 0.76193,0.0835c0.29133,0.05435 0.57058,0.1604 0.82456,0.31312c0.28333,0.18022 0.51382,0.43232 0.668,0.73062c0.19705,0.40201 0.29034,0.84694 0.27137,1.29424v4.49853h-1.04374v-0.91849h-0.05219c-0.09243,0.17452 -0.21224,0.3331 -0.35487,0.46968c-0.18927,0.18666 -0.41246,0.33545 -0.65756,0.43837c-0.33651,0.12628 -0.69512,0.18308 -1.05418,0.167zM226.17557,182.62344c0.36287,0.01211 0.72262,-0.07063 1.04374,-0.24006c0.26877,-0.15053 0.49224,-0.3704 0.64712,-0.63668c0.14382,-0.24339 0.21953,-0.52098 0.21919,-0.80368v-0.93937c-0.07561,0.07797 -0.17452,0.12925 -0.28181,0.14612c-0.17177,0.04762 -0.34598,0.08595 -0.52187,0.11481l-0.56362,0.0835h-0.43837c-0.26216,0.03112 -0.52077,0.08704 -0.77237,0.167c-0.21353,0.07155 -0.40681,0.19324 -0.56362,0.35487c-0.15389,0.17518 -0.23263,0.4039 -0.21919,0.63668c-0.01731,0.32702 0.13692,0.63945 0.40706,0.82456c0.30892,0.2039 0.67386,0.30608 1.04374,0.29225z"/><path d="M234.04538,176.58017v0.88718h-3.53829v-0.88718zM231.52996,174.9415h1.04374v6.51295c-0.01632,0.23086 0.03059,0.4618 0.13569,0.668c0.0734,0.13374 0.1917,0.23725 0.334,0.29225c0.14162,0.04625 0.28941,0.07088 0.43837,0.07306h0.28181h0.17744l0.21919,0.93937c-0.09891,0.03458 -0.20003,0.06248 -0.30269,0.0835c-0.15951,0.01847 -0.32061,0.01847 -0.48012,0c-0.30241,0.00162 -0.60155,-0.06248 -0.87674,-0.18787c-0.2795,-0.13143 -0.52037,-0.33275 -0.69931,-0.5845c-0.2078,-0.30671 -0.30701,-0.67413 -0.28181,-1.04374z"/><path d="M242.12395,176.58017v0.88718h-3.54872v-0.88718zM239.60853,174.9415h1.04374v6.51295c-0.01338,0.22955 0.02962,0.45888 0.12525,0.668c0.07992,0.13233 0.20086,0.23494 0.34443,0.29225c0.14162,0.04625 0.28941,0.07088 0.43837,0.07306h0.28181h0.17744l0.20875,0.93937c-0.09482,0.03624 -0.1926,0.06418 -0.29225,0.0835c-0.4567,0.08861 -0.9295,0.03769 -1.35686,-0.14612c-0.2795,-0.13143 -0.52037,-0.33275 -0.69931,-0.5845c-0.2078,-0.30671 -0.30701,-0.67413 -0.28181,-1.04374z"/><path d="M244.88986,179.30434v4.10191h-1.04374v-9.10143h1.04374v3.33998h0.09394c0.15048,-0.34726 0.40126,-0.64165 0.72018,-0.84543c0.39217,-0.22706 0.84165,-0.3358 1.29424,-0.31312c0.42409,-0.00838 0.84365,0.08845 1.22118,0.28181c0.35006,0.19373 0.63373,0.48831 0.81412,0.84543c0.21194,0.4533 0.31216,0.9508 0.29225,1.4508v4.34197h-1.04374v-4.26891c0.03159,-0.45623 -0.11849,-0.90646 -0.4175,-1.25249c-0.30338,-0.30969 -0.72571,-0.4733 -1.15855,-0.44881c-0.32306,-0.00538 -0.64235,0.06996 -0.92893,0.21919c-0.26963,0.141 -0.49125,0.35898 -0.63668,0.62625c-0.16954,0.31394 -0.25579,0.66611 -0.2505,1.02287z"/><path d="M254.10611,183.55237c-0.59687,0.01523 -1.18612,-0.1366 -1.7013,-0.43837c-0.45628,-0.30482 -0.81789,-0.73152 -1.04374,-1.23162c-0.2665,-0.57508 -0.39857,-1.20328 -0.38618,-1.83699c-0.01001,-0.63684 0.12191,-1.26792 0.38618,-1.84742c0.22352,-0.50715 0.58522,-0.94118 1.04374,-1.25249c0.48159,-0.31059 1.04486,-0.47048 1.6178,-0.45925c0.35513,0.00328 0.70747,0.06317 1.04374,0.17744c0.35433,0.12557 0.67803,0.32477 0.94981,0.5845c0.30195,0.29231 0.53388,0.64912 0.67843,1.04374c0.17994,0.51986 0.26479,1.06787 0.2505,1.6178v0.43837h-5.21871v-0.90806h4.17497c0.00989,-0.36145 -0.06895,-0.71982 -0.22962,-1.04374c-0.14306,-0.29382 -0.36772,-0.54023 -0.64712,-0.70974c-0.31383,-0.18979 -0.67752,-0.28072 -1.04374,-0.26094c-0.36955,0.00005 -0.7315,0.10501 -1.04374,0.30269c-0.29653,0.20532 -0.53694,0.48162 -0.69931,0.80368c-0.15496,0.32632 -0.23688,0.68251 -0.24006,1.04374v0.60537c-0.0168,0.45047 0.07634,0.89827 0.27137,1.30468c0.16329,0.33719 0.42066,0.61994 0.74106,0.81412c0.34049,0.19182 0.72607,0.28911 1.1168,0.28181c0.25606,0.0047 0.5108,-0.03775 0.75149,-0.12525c0.22119,-0.06811 0.42203,-0.19004 0.5845,-0.35487c0.16877,-0.16723 0.29726,-0.37068 0.37575,-0.59493l1.04374,0.29225c-0.10219,0.34093 -0.28474,0.65234 -0.53231,0.90806c-0.26715,0.26299 -0.58743,0.46583 -0.93937,0.59493c-0.41381,0.16975 -0.85742,0.25492 -1.30468,0.2505z"/><path d="M266.90239,178.10404l-0.93937,0.27137c-0.06453,-0.16479 -0.15241,-0.31945 -0.26094,-0.45925c-0.12837,-0.15691 -0.28842,-0.28495 -0.46968,-0.37575c-0.58782,-0.23811 -1.25366,-0.18392 -1.79524,0.14612c-0.2544,0.15165 -0.41231,0.42405 -0.4175,0.72018c-0.01004,0.24382 0.09893,0.47733 0.29225,0.62625c0.26824,0.18219 0.56968,0.30986 0.88718,0.37575l1.04374,0.2505c0.50898,0.09759 0.98171,0.33215 1.3673,0.67843c0.30462,0.31096 0.46706,0.73407 0.44881,1.16899c0.00088,0.37433 -0.11597,0.73946 -0.334,1.04374c-0.249,0.31635 -0.57146,0.56715 -0.93937,0.73062c-0.4427,0.18426 -0.91926,0.27317 -1.39861,0.26094c-0.6089,0.02216 -1.21104,-0.13382 -1.73261,-0.44881c-0.45166,-0.31092 -0.76284,-0.78707 -0.86631,-1.32555l1.04374,-0.2505c0.07192,0.33285 0.26546,0.62688 0.54275,0.82456c0.31048,0.19852 0.67589,0.29353 1.04374,0.27137c0.40964,0.02133 0.81543,-0.08834 1.15855,-0.31312c0.26442,-0.15964 0.42957,-0.44274 0.43837,-0.75149c0.00596,-0.22511 -0.08531,-0.44188 -0.2505,-0.59493c-0.21599,-0.18885 -0.47944,-0.31516 -0.76193,-0.36531l-1.13768,-0.26094c-0.51654,-0.09694 -0.99458,-0.33959 -1.37774,-0.69931c-0.29465,-0.31655 -0.45223,-0.73675 -0.43837,-1.16899c-0.01307,-0.37446 0.10097,-0.74233 0.32356,-1.04374c0.23135,-0.30912 0.5413,-0.5506 0.89762,-0.69931c0.40323,-0.1813 0.8418,-0.27044 1.2838,-0.26094c0.56713,-0.02963 1.12826,0.12808 1.59693,0.44881c0.36402,0.31669 0.62562,0.73451 0.75149,1.2003z"/><path d="M271.57835,176.58017v0.88718h-3.53829v-0.88718zM269.07337,174.9415h1.04374v6.51295c-0.01099,0.23048 0.03564,0.46007 0.13569,0.668c0.0734,0.13374 0.1917,0.23725 0.334,0.29225c0.14204,0.04453 0.28957,0.06912 0.43837,0.07306h0.29225h0.17744l0.20875,0.93937l-0.29225,0.0835c-0.16301,0.01827 -0.32755,0.01827 -0.49056,0c-0.29889,0.00012 -0.59432,-0.06395 -0.86631,-0.18787c-0.28255,-0.13113 -0.52687,-0.33233 -0.70974,-0.5845c-0.19919,-0.31019 -0.29425,-0.67582 -0.27137,-1.04374z"/><path d="M275.16883,183.57325c-0.40358,0.00587 -0.80325,-0.07978 -1.16899,-0.2505c-0.34039,-0.15644 -0.63241,-0.40159 -0.84543,-0.70974c-0.21501,-0.33973 -0.32401,-0.73578 -0.31312,-1.13768c-0.01095,-0.33488 0.06836,-0.66654 0.22962,-0.96024c0.15541,-0.24245 0.37123,-0.44028 0.62625,-0.57406c0.27021,-0.14171 0.558,-0.247 0.85587,-0.31312c0.31312,-0.07306 0.62625,-0.12525 0.93937,-0.167l1.04374,-0.12525c0.19968,-0.00651 0.39556,-0.05637 0.57406,-0.14612c0.12383,-0.07307 0.19328,-0.21197 0.17744,-0.35487v0c0.02597,-0.38136 -0.10183,-0.75724 -0.35487,-1.04374c-0.28776,-0.25186 -0.66173,-0.38275 -1.04374,-0.36531c-0.41814,-0.02591 -0.83304,0.08791 -1.17943,0.32356c-0.25016,0.19064 -0.45658,0.43265 -0.60537,0.70974l-0.99156,-0.35487c0.1504,-0.37853 0.39465,-0.71257 0.70974,-0.97068c0.28893,-0.23066 0.62324,-0.39781 0.98112,-0.49056c0.34009,-0.09385 0.69096,-0.14297 1.04374,-0.14612c0.25595,0.00526 0.51092,0.03321 0.76193,0.0835c0.29413,0.05609 0.57651,0.16198 0.83499,0.31312c0.28333,0.18022 0.51382,0.43232 0.668,0.73062c0.19303,0.40308 0.2827,0.84786 0.26094,1.29424v4.49853h-1.04374v-0.91849h-0.05219c-0.09243,0.17452 -0.21224,0.3331 -0.35487,0.46968c-0.19098,0.18948 -0.41816,0.33857 -0.668,0.43837c-0.34572,0.13267 -0.71588,0.18962 -1.08549,0.167zM275.33582,182.62344c0.36287,0.01211 0.72262,-0.07063 1.04374,-0.24006c0.26877,-0.15053 0.49224,-0.3704 0.64712,-0.63668c0.14382,-0.24339 0.21953,-0.52098 0.21919,-0.80368v-0.93937c-0.07969,0.07814 -0.18192,0.12926 -0.29225,0.14612c-0.16822,0.0477 -0.33896,0.08603 -0.51143,0.11481l-0.57406,0.0835h-0.43837c-0.25853,0.03236 -0.51357,0.08825 -0.76193,0.167c-0.21781,0.06887 -0.41509,0.19082 -0.57406,0.35487c-0.34816,0.45843 -0.25944,1.11219 0.19831,1.46124c0.30892,0.2039 0.67386,0.30608 1.04374,0.29225z"/><path d="M280.23098,183.40625v-6.82607h1.04374v1.04374h0.07306c0.11989,-0.34423 0.35613,-0.63585 0.668,-0.82456c0.3322,-0.20589 0.71554,-0.31438 1.10637,-0.31312h0.55318v1.04374c-0.07985,-0.00744 -0.16021,-0.00744 -0.24006,0c-0.13546,-0.01114 -0.2716,-0.01114 -0.40706,0c-0.30555,-0.00898 -0.60803,0.06304 -0.87674,0.20875c-0.25342,0.12735 -0.46658,0.32244 -0.61581,0.56362c-0.1554,0.24654 -0.23522,0.53318 -0.22962,0.82456v4.32109z"/><path d="M288.28867,176.58017v0.88718h-3.53829v-0.88718zM285.77325,174.9415h1.04374v6.51295c-0.01632,0.23086 0.03059,0.4618 0.13569,0.668c0.0734,0.13374 0.1917,0.23725 0.334,0.29225c0.14162,0.04625 0.28941,0.07088 0.43837,0.07306h0.28181h0.17744l0.21919,0.93937c-0.09891,0.03458 -0.20003,0.06248 -0.30269,0.0835c-0.15951,0.01847 -0.32061,0.01847 -0.48012,0c-0.30214,-0.00093 -0.60075,-0.06492 -0.87674,-0.18787c-0.2795,-0.13143 -0.52037,-0.33275 -0.69931,-0.5845c-0.2078,-0.30671 -0.30701,-0.67413 -0.28181,-1.04374z"/><path d="M296.16892,183.55237c-0.57028,0.01316 -1.13218,-0.1391 -1.6178,-0.43837c-0.45742,-0.30354 -0.81934,-0.73061 -1.04374,-1.23162c-0.52869,-1.18216 -0.52869,-2.53357 0,-3.71572c0.2214,-0.50289 0.58397,-0.93073 1.04374,-1.23162c0.99497,-0.60042 2.24063,-0.60042 3.2356,0c0.45703,0.30397 0.81885,0.73091 1.04374,1.23162c0.51449,1.18515 0.51449,2.53058 0,3.71572c-0.48486,1.04823 -1.5489,1.70556 -2.70329,1.66999zM296.16892,182.613c0.41678,0.01569 0.82615,-0.11339 1.15855,-0.36531c0.30801,-0.24705 0.53964,-0.5764 0.668,-0.94981c0.14867,-0.4043 0.22293,-0.83218 0.21919,-1.26293c0.00375,-0.43755 -0.07047,-0.87228 -0.21919,-1.2838c-0.12836,-0.37341 -0.35998,-0.70275 -0.668,-0.94981c-0.69605,-0.48559 -1.62106,-0.48559 -2.31711,0c-0.30801,0.24705 -0.53964,0.5764 -0.668,0.94981c-0.14872,0.41152 -0.22294,0.84625 -0.21919,1.2838c-0.00374,0.43075 0.07052,0.85863 0.21919,1.26293c0.12836,0.37341 0.35998,0.70275 0.668,0.94981c0.3324,0.25192 0.74177,0.381 1.15855,0.36531z"/><path d="M303.90305,176.58017v0.88718h-3.68441v-0.88718zM301.32501,183.40625v-7.76544c-0.02465,-0.6766 0.36934,-1.29869 0.99156,-1.56561c0.29132,-0.13353 0.60848,-0.20124 0.92893,-0.19831c0.21397,-0.0047 0.42773,0.01633 0.63668,0.06262c0.12489,0.02754 0.24712,0.06596 0.36531,0.11481l-0.30269,0.90806l-0.21919,-0.07306c-0.12491,-0.01307 -0.25084,-0.01307 -0.37575,0c-0.27363,-0.02839 -0.54558,0.06737 -0.74106,0.26094c-0.17416,0.21369 -0.2567,0.4876 -0.22962,0.76193v7.52538z"/><path d="M311.87724,176.58017v0.88718h-3.53829v-0.88718zM309.37226,174.9415h1.04374v6.51295c-0.01632,0.23086 0.03059,0.4618 0.13569,0.668c0.0734,0.13374 0.1917,0.23725 0.334,0.29225c0.14162,0.04625 0.28941,0.07088 0.43837,0.07306h0.28181h0.17744l0.21919,0.93937c-0.09846,0.036 -0.19969,0.06393 -0.30269,0.0835c-0.15951,0.01847 -0.32061,0.01847 -0.48012,0c-0.29889,0.00012 -0.59432,-0.06395 -0.86631,-0.18787c-0.28409,-0.12866 -0.52899,-0.33035 -0.70974,-0.5845c-0.20413,-0.308 -0.29963,-0.67532 -0.27137,-1.04374z"/><path d="M314.65359,179.30434v4.10191h-1.04374v-9.10143h1.04374v3.33998h0.0835c0.15747,-0.34601 0.41108,-0.63948 0.73062,-0.84543c0.38892,-0.22565 0.83466,-0.33437 1.2838,-0.31312c0.42432,-0.0106 0.84441,0.08635 1.22118,0.28181c0.35469,0.18764 0.63999,0.48391 0.81412,0.84543c0.21194,0.4533 0.31216,0.9508 0.29225,1.4508v4.34197h-1.04374v-4.26891c0.02712,-0.45566 -0.12241,-0.90424 -0.4175,-1.25249c-0.30736,-0.31018 -0.73302,-0.47361 -1.16899,-0.44881c-0.31973,-0.00541 -0.63566,0.06998 -0.91849,0.21919c-0.27275,0.14036 -0.49789,0.35825 -0.64712,0.62625c-0.1623,0.31587 -0.24134,0.66793 -0.22962,1.02287z"/><path d="M323.86984,183.55237c-0.59731,0.01922 -1.18765,-0.13289 -1.7013,-0.43837c-0.48074,-0.29112 -0.86264,-0.7203 -1.09593,-1.23162c-0.27008,-0.57388 -0.40233,-1.20293 -0.38618,-1.83699c-0.01398,-0.63721 0.11813,-1.26917 0.38618,-1.84742c0.47298,-1.0591 1.53314,-1.73299 2.69285,-1.71174c0.35507,0.00398 0.7073,0.06386 1.04374,0.17744c0.35102,0.12603 0.67123,0.32527 0.93937,0.5845c0.30517,0.2917 0.54064,0.64846 0.68887,1.04374c0.17994,0.51986 0.26479,1.06787 0.2505,1.6178v0.43837h-5.2709v-0.90806h4.17497c0.00469,-0.36094 -0.07388,-0.7181 -0.22962,-1.04374c-0.1501,-0.2923 -0.37755,-0.5378 -0.65756,-0.70974c-0.2944,-0.18125 -0.63557,-0.27198 -0.98112,-0.26094c-0.36955,0.00005 -0.7315,0.10501 -1.04374,0.30269c-0.29869,0.2029 -0.53964,0.47981 -0.69931,0.80368c-0.16296,0.32391 -0.24869,0.68116 -0.2505,1.04374v0.60537c-0.01198,0.45006 0.08092,0.89673 0.27137,1.30468c0.16404,0.34002 0.42566,0.62345 0.75149,0.81412c0.57366,0.31054 1.25096,0.36729 1.8683,0.15656c0.218,-0.06847 0.41536,-0.19047 0.57406,-0.35487c0.17217,-0.16447 0.30122,-0.36879 0.37575,-0.59493l1.04374,0.29225c-0.11016,0.33972 -0.2957,0.65014 -0.54275,0.90806c-0.2633,0.26275 -0.58014,0.46567 -0.92893,0.59493c-0.40468,0.16368 -0.83685,0.24869 -1.27337,0.2505z"/><path d="M332.8669,179.30434v4.10191h-1.04374v-6.82607h1.04374v1.04374h0.0835c0.16058,-0.34124 0.41372,-0.63054 0.73062,-0.83499c0.37968,-0.23046 0.81921,-0.34306 1.26293,-0.32356c0.42422,-0.0097 0.8441,0.0872 1.22118,0.28181c0.34981,0.1955 0.63054,0.49447 0.80368,0.85587c0.21031,0.45014 0.31049,0.94386 0.29225,1.44036v4.34197h-1.04374v-4.26891c0.02821,-0.4558 -0.12145,-0.90478 -0.4175,-1.25249c-0.29778,-0.31161 -0.71795,-0.47586 -1.14812,-0.44881c-0.31294,-0.00415 -0.62181,0.07127 -0.89762,0.21919c-0.26154,0.14477 -0.47546,0.36231 -0.61581,0.62625c-0.17515,0.32021 -0.26838,0.67877 -0.27137,1.04374z"/><path d="M342.01008,183.55237c-0.57728,0.01196 -1.14706,-0.13229 -1.64911,-0.4175c-0.47555,-0.29731 -0.85589,-0.72474 -1.09593,-1.23162c-0.2665,-0.57508 -0.39857,-1.20328 -0.38618,-1.83699c-0.01001,-0.63684 0.12191,-1.26792 0.38618,-1.84742c0.22352,-0.50715 0.58522,-0.94118 1.04374,-1.25249c0.48237,-0.30885 1.0451,-0.4686 1.6178,-0.45925c0.35513,0.00328 0.70747,0.06317 1.04374,0.17744c0.35433,0.12557 0.67803,0.32477 0.94981,0.5845c0.30195,0.29231 0.53388,0.64912 0.67843,1.04374c0.17994,0.51986 0.26479,1.06787 0.2505,1.6178v0.43837h-5.21871v-0.90806h4.17497c0.00989,-0.36145 -0.06895,-0.71982 -0.22962,-1.04374c-0.14306,-0.29382 -0.36772,-0.54023 -0.64712,-0.70974c-0.29836,-0.18096 -0.64277,-0.27159 -0.99156,-0.26094c-0.36939,0.00118 -0.73103,0.10606 -1.04374,0.30269c-0.29653,0.20532 -0.53694,0.48162 -0.69931,0.80368c-0.15496,0.32632 -0.23688,0.68251 -0.24006,1.04374v0.60537c-0.0168,0.45047 0.07634,0.89827 0.27137,1.30468c0.16329,0.33719 0.42066,0.61994 0.74106,0.81412c0.34049,0.19182 0.72607,0.28911 1.1168,0.28181c0.25606,0.0047 0.5108,-0.03775 0.75149,-0.12525c0.22119,-0.06811 0.42203,-0.19004 0.5845,-0.35487c0.16877,-0.16723 0.29726,-0.37068 0.37575,-0.59493l1.04374,0.29225c-0.10219,0.34093 -0.28474,0.65234 -0.53231,0.90806c-0.26526,0.26535 -0.58609,0.46854 -0.93937,0.59493c-0.43153,0.1696 -0.89356,0.24779 -1.35686,0.22962z"/><path d="M347.05135,176.58017l1.65955,2.79723l1.62824,-2.79723h1.21074l-2.22317,3.42347l2.2023,3.41304h-1.21074l-1.60736,-2.66154l-1.63868,2.65111h-1.21074l2.17098,-3.41304l-2.17098,-3.41304z"/><path d="M356.0171,176.58017v0.88718h-3.53829v-0.88718zM353.51212,174.9415h1.04374v6.51295c-0.01099,0.23048 0.03564,0.46007 0.13569,0.668c0.0734,0.13374 0.1917,0.23725 0.334,0.29225c0.14204,0.04453 0.28957,0.06912 0.43837,0.07306h0.29225h0.17744l0.20875,0.93937l-0.29225,0.0835c-0.16301,0.01827 -0.32755,0.01827 -0.49056,0c-0.29889,0.00012 -0.59432,-0.06395 -0.86631,-0.18787c-0.28255,-0.13113 -0.52687,-0.33233 -0.70974,-0.5845c-0.19919,-0.31019 -0.29425,-0.67582 -0.27137,-1.04374z"/><path d="M361.10012,183.40625v-6.82607h1.04374v1.04374h0.09394c0.13264,-0.34861 0.37423,-0.64512 0.68887,-0.84543c0.34422,-0.21356 0.74314,-0.32236 1.14812,-0.31312c0.39901,-0.01402 0.79263,0.09532 1.12724,0.31312c0.30684,0.21168 0.54892,0.50435 0.69931,0.84543h0.07306c0.17646,-0.34967 0.44773,-0.64264 0.78281,-0.84543c0.38492,-0.21665 0.82138,-0.32487 1.26293,-0.31312c0.55757,-0.01716 1.09882,0.18957 1.50299,0.57406c0.42266,0.48992 0.62965,1.12971 0.57406,1.77436v4.57159h-1.04374v-4.57159c0.03025,-0.39384 -0.12398,-0.77941 -0.4175,-1.04374c-0.27533,-0.21885 -0.6191,-0.33344 -0.97068,-0.32356c-0.41648,-0.02457 -0.82338,0.13135 -1.1168,0.42793c-0.26646,0.30176 -0.40825,0.69353 -0.39662,1.09593v4.44634h-1.04374v-4.67597c0.01373,-0.35226 -0.12287,-0.69376 -0.37575,-0.93937c-0.26845,-0.24136 -0.62038,-0.36865 -0.98112,-0.35487c-0.26956,-0.00022 -0.53369,0.07577 -0.76193,0.21919c-0.23801,0.14395 -0.43274,0.34949 -0.56362,0.59493c-0.14927,0.27152 -0.22484,0.57739 -0.21919,0.88718v4.26891z"/><path d="M372.5291,175.44249c-0.19781,0.00216 -0.3887,-0.0727 -0.53231,-0.20875c-0.14875,-0.13268 -0.23382,-0.32254 -0.23382,-0.52187c0,-0.19933 0.08506,-0.38919 0.23382,-0.52187c0.29528,-0.27064 0.74846,-0.27064 1.04374,0c0.14875,0.13268 0.23382,0.32254 0.23382,0.52187c0,0.19933 -0.08506,0.38919 -0.23382,0.52187c-0.13779,0.13199 -0.32064,0.20662 -0.51143,0.20875zM371.99679,183.40625v-6.82607h1.04374v6.82607z"/><path d="M376.0152,179.30434v4.10191h-1.04374v-6.82607h1.04374v1.04374h0.09394c0.15393,-0.34554 0.40857,-0.63656 0.73062,-0.83499c0.37867,-0.23284 0.81894,-0.34564 1.26293,-0.32356c0.42089,-0.00974 0.83741,0.08721 1.21074,0.28181c0.3508,0.19753 0.63437,0.49564 0.81412,0.85587c0.20162,0.45264 0.29797,0.94511 0.28181,1.44036v4.34197h-1.04374v-4.26891c0.02289,-0.45509 -0.12613,-0.90215 -0.4175,-1.25249c-0.30016,-0.30804 -0.71862,-0.47162 -1.14812,-0.44881c-0.3131,-0.00555 -0.62231,0.06996 -0.89762,0.21919c-0.26383,0.14174 -0.47853,0.36007 -0.61581,0.62625c-0.18032,0.31814 -0.2739,0.67806 -0.27137,1.04374z"/><path d="M386.59875,180.61946v-4.03928h1.04374v6.82607h-1.04374v-1.14812h-0.07306c-0.35063,0.79513 -1.15717,1.28986 -2.02486,1.24205c-0.39733,0.00702 -0.78957,-0.09014 -1.13768,-0.28181c-0.34378,-0.1967 -0.61748,-0.49595 -0.78281,-0.85587c-0.20626,-0.45146 -0.30624,-0.94421 -0.29225,-1.44036v-4.34197h1.04374v4.26891c-0.02512,0.43643 0.12519,0.86481 0.4175,1.18987c0.26874,0.29054 0.648,0.45362 1.04374,0.44881c0.27904,-0.00756 0.55316,-0.0752 0.80368,-0.19831c0.27701,-0.1411 0.51125,-0.35371 0.67843,-0.61581c0.21266,-0.31026 0.32554,-0.67804 0.32356,-1.05418z"/><path d="M392.54808,176.58017v0.88718h-3.54872v-0.88718zM390.04309,174.9415h1.04374v6.51295c-0.01099,0.23048 0.03564,0.46007 0.13569,0.668c0.0734,0.13374 0.1917,0.23725 0.334,0.29225c0.14204,0.04453 0.28957,0.06912 0.43837,0.07306h0.29225h0.17744l0.20875,0.93937l-0.29225,0.0835c-0.16301,0.01827 -0.32755,0.01827 -0.49056,0c-0.29889,0.00012 -0.59432,-0.06395 -0.86631,-0.18787c-0.28109,-0.12893 -0.52254,-0.33075 -0.69931,-0.5845c-0.2078,-0.30671 -0.30701,-0.67413 -0.28181,-1.04374z"/><path d="M396.92136,183.55237c-0.59731,0.01922 -1.18765,-0.13289 -1.7013,-0.43837c-0.48136,-0.29344 -0.86603,-0.72167 -1.10637,-1.23162c-0.2665,-0.57508 -0.39857,-1.20328 -0.38618,-1.83699c-0.01001,-0.63684 0.12191,-1.26792 0.38618,-1.84742c0.22106,-0.50867 0.58327,-0.94333 1.04374,-1.25249c0.47782,-0.31034 1.03771,-0.47031 1.60736,-0.45925c0.35513,0.00328 0.70747,0.06317 1.04374,0.17744c0.35546,0.1232 0.67964,0.3227 0.94981,0.5845c0.30195,0.29231 0.53388,0.64912 0.67843,1.04374c0.18888,0.51782 0.27743,1.06686 0.26094,1.6178v0.43837h-5.21871v-0.90806h4.17497c0.00989,-0.36145 -0.06895,-0.71982 -0.22962,-1.04374c-0.14306,-0.29382 -0.36772,-0.54023 -0.64712,-0.70974c-0.29836,-0.18096 -0.64277,-0.27159 -0.99156,-0.26094c-0.36988,-0.0023 -0.73248,0.10286 -1.04374,0.30269c-0.30169,0.1995 -0.54343,0.47731 -0.69931,0.80368c-0.16296,0.32391 -0.24869,0.68116 -0.2505,1.04374v0.60537c-0.01198,0.45006 0.08092,0.89673 0.27137,1.30468c0.16404,0.34002 0.42566,0.62345 0.75149,0.81412c0.33847,0.19681 0.72547,0.29447 1.1168,0.28181c0.25256,0.00343 0.50365,-0.03901 0.74106,-0.12525c0.22119,-0.06811 0.42203,-0.19004 0.5845,-0.35487c0.17217,-0.16447 0.30122,-0.36879 0.37575,-0.59493l1.04374,0.29225c-0.10219,0.34093 -0.28474,0.65234 -0.53231,0.90806c-0.26526,0.26535 -0.58609,0.46854 -0.93937,0.59493c-0.40716,0.16756 -0.84352,0.2527 -1.2838,0.2505z"/><path d="M402.10875,183.47931c-0.21124,0.00284 -0.41465,-0.07983 -0.56404,-0.22921c-0.14938,-0.14938 -0.23204,-0.3528 -0.22921,-0.56404c-0.00307,-0.21432 0.07959,-0.42098 0.22962,-0.57406c0.31276,-0.30768 0.81448,-0.30768 1.12724,0c0.15287,0.15202 0.23921,0.35847 0.24006,0.57406c0.00266,0.13933 -0.03348,0.27665 -0.10437,0.39662c-0.07241,0.11957 -0.17268,0.21984 -0.29225,0.29225c-0.12322,0.07226 -0.26427,0.10843 -0.40706,0.10437z"/></g></g></svg>