<svg version="1.1" xmlns="http://www.w3.org/2000/svg" xmlns:xlink="http://www.w3.org/1999/xlink" width="369.84795" height="12.01539" viewBox="0,0,369.84795,12.01539"><g transform="translate(-55.07603,-173.99231)"><g data-paper-data="{&quot;isPaintingLayer&quot;:true}" fill="#231f20" fill-rule="nonzero" stroke="none" stroke-width="1" stroke-linecap="butt" stroke-linejoin="miter" stroke-miterlimit="10" stroke-dasharray="" stroke-dashoffset="0" style="mix-blend-mode: normal"><path d="M56.18384,174.28108v9.13272h-1.10781v-9.13272z"/><path d="M61.22755,176.56876v0.90066h-3.54861v-0.90066zM58.7147,174.92055h1.05377v6.5298c-0.01505,0.23023 0.03159,0.4603 0.1351,0.66649c0.06823,0.13862 0.18776,0.24522 0.33325,0.29722c0.14128,0.0515 0.291,0.07595 0.44132,0.07205c0.0958,0.01014 0.19241,0.01014 0.28821,0h0.17113l0.21616,0.90066l-0.29722,0.09007c-0.16171,0.01625 -0.32464,0.01625 -0.48636,0c-0.31035,0.00262 -0.61759,-0.0619 -0.90066,-0.18914c-0.28169,-0.13398 -0.52376,-0.33881 -0.70252,-0.59444c-0.19644,-0.29197 -0.29429,-0.63915 -0.27921,-0.99073z"/><path d="M66.89272,175.42492c-0.19922,0.00354 -0.39121,-0.07457 -0.53139,-0.21616c-0.14507,-0.12336 -0.22761,-0.30496 -0.22517,-0.49536c-0.00285,-0.19566 0.07929,-0.38294 0.22517,-0.51338c0.29714,-0.27575 0.75663,-0.27575 1.05377,0c0.14587,0.13043 0.22801,0.31772 0.22517,0.51338c0.00245,0.19041 -0.0801,0.37201 -0.22517,0.49536c-0.13741,0.14021 -0.32608,0.21828 -0.52238,0.21616zM66.35232,183.41379v-6.84503h1.05377v6.84503z"/><path d="M74.18808,178.09988l-0.90066,0.2702c-0.06404,-0.16789 -0.15201,-0.32563 -0.26119,-0.46834c-0.12769,-0.15539 -0.28745,-0.28135 -0.46834,-0.36927c-0.23777,-0.10551 -0.49665,-0.15482 -0.75656,-0.14411c-0.36959,-0.01346 -0.73435,0.08717 -1.04477,0.28821c-0.25736,0.15284 -0.41488,0.43022 -0.4143,0.72954c-0.00714,0.24098 0.09965,0.47124 0.28821,0.62146c0.27396,0.18123 0.57945,0.30954 0.90066,0.37828l1.01775,0.24318c0.50983,0.10018 0.98296,0.33674 1.36901,0.6845c0.30203,0.31348 0.46445,0.73578 0.45033,1.17086c0.00391,0.37919 -0.11628,0.74925 -0.34225,1.05377c-0.22898,0.3221 -0.53995,0.57709 -0.90066,0.73854c-0.4427,0.18121 -0.91775,0.2701 -1.39603,0.26119c-0.61095,0.02263 -1.21517,-0.1339 -1.73828,-0.45033c-0.46976,-0.30258 -0.79521,-0.78424 -0.90066,-1.33298l0.99974,-0.25219c0.07621,0.33399 0.26752,0.63051 0.5404,0.83762c0.31659,0.19282 0.68347,0.28689 1.05377,0.2702c0.41397,0.02298 0.82439,-0.08752 1.17086,-0.31523c0.26462,-0.16106 0.42791,-0.44681 0.43232,-0.75656c0.00528,-0.22518 -0.08659,-0.44175 -0.25219,-0.59444c-0.21732,-0.18973 -0.4818,-0.3173 -0.76556,-0.36927l-1.14384,-0.26119c-0.51615,-0.0948 -0.99435,-0.33546 -1.37801,-0.69351c-0.29668,-0.31987 -0.45525,-0.74382 -0.44132,-1.17987c-0.00586,-0.36832 0.10791,-0.7286 0.32424,-1.02675c0.23571,-0.30684 0.54567,-0.54861 0.90066,-0.70252c0.40638,-0.17507 0.84555,-0.26106 1.28795,-0.25219c0.56856,-0.03485 1.13256,0.12041 1.60318,0.44132c0.36624,0.30894 0.63266,0.71953 0.76556,1.17987z"/><path d="M79.42993,183.41379v-6.84503h1.01775v1.03576h0.07205c0.12667,-0.34637 0.36828,-0.63883 0.6845,-0.82861c0.3262,-0.21325 0.70916,-0.32312 1.09881,-0.31523h0.29722h0.26119v1.07179h-0.24318c-0.13193,-0.00924 -0.26436,-0.00924 -0.39629,0c-0.31313,-0.01045 -0.62356,0.06095 -0.90066,0.20715c-0.25475,0.12932 -0.46956,0.32545 -0.62146,0.56742c-0.14858,0.25077 -0.22639,0.53713 -0.22517,0.82861v4.33219z"/><path d="M86.77033,183.59392c-0.59942,0.01691 -1.19179,-0.13274 -1.71126,-0.43232c-0.47749,-0.29686 -0.85906,-0.72534 -1.09881,-1.23391c-0.51589,-1.17998 -0.51589,-2.52174 0,-3.70172c0.23314,-0.51447 0.60804,-0.95185 1.08079,-1.26093c0.48266,-0.31007 1.04776,-0.46704 1.62119,-0.45033c0.35831,-0.00174 0.71442,0.05609 1.05377,0.17113c0.76495,0.27234 1.36686,0.87426 1.63921,1.63921c0.16875,0.50786 0.24798,1.04117 0.23417,1.57616v0.45033h-5.26887v-0.90066h4.2151c0.00563,-0.35899 -0.07466,-0.71412 -0.23417,-1.03576c-0.14346,-0.29681 -0.36837,-0.5467 -0.64848,-0.72053c-0.298,-0.18113 -0.64216,-0.27186 -0.99073,-0.26119c-0.38601,-0.01158 -0.76631,0.09529 -1.0898,0.30623c-0.30243,0.20253 -0.54503,0.48244 -0.70252,0.8106c-0.16185,0.32758 -0.24512,0.68839 -0.24318,1.05377v0.61245c-0.01302,0.45333 0.07948,0.90349 0.2702,1.31497c0.16449,0.33753 0.42441,0.61938 0.74755,0.8106c0.3435,0.19221 0.73232,0.28864 1.12583,0.27921c0.25412,0.00504 0.50714,-0.03459 0.74755,-0.11709c0.2173,-0.07542 0.41662,-0.19502 0.58543,-0.35126c0.16879,-0.171 0.29793,-0.377 0.37828,-0.60344l1.01775,0.28821c-0.10784,0.33807 -0.29285,0.64641 -0.5404,0.90066c-0.25419,0.26255 -0.56116,0.46822 -0.90066,0.60344c-0.40916,0.16592 -0.84643,0.25154 -1.28795,0.25219z"/><path d="M93.99364,183.59392c-1.16346,0.03644 -2.23254,-0.63709 -2.70199,-1.70225c-0.51021,-1.17177 -0.51021,-2.50293 0,-3.6747c0.23862,-0.50854 0.61252,-0.94164 1.08079,-1.25192c0.4838,-0.30752 1.0481,-0.46427 1.62119,-0.45033c0.44885,-0.00584 0.89388,0.08316 1.30596,0.26119c0.37358,0.16906 0.69875,0.4292 0.9457,0.75656c0.25398,0.32232 0.41305,0.70908 0.45934,1.11682h-1.06278c-0.0921,-0.32454 -0.28053,-0.61348 -0.5404,-0.82861c-0.3106,-0.25554 -0.70632,-0.38423 -1.10781,-0.36026c-0.38101,-0.00637 -0.7549,0.10359 -1.07179,0.31523c-0.32094,0.22559 -0.57089,0.53803 -0.72053,0.90066c-0.18139,0.42686 -0.27041,0.88728 -0.26119,1.35099c-0.0081,0.47444 0.0776,0.9458 0.25219,1.38702c0.15092,0.36188 0.40061,0.67399 0.72053,0.90066c0.53632,0.34685 1.20695,0.41392 1.80132,0.18013c0.21964,-0.08628 0.41456,-0.22551 0.56742,-0.4053c0.15456,-0.18752 0.26808,-0.40537 0.33325,-0.63947h1.04477c-0.05163,0.39347 -0.20018,0.76795 -0.43232,1.0898c-0.23507,0.32318 -0.54384,0.58562 -0.90066,0.76556c-0.41588,0.1984 -0.87229,0.29709 -1.33298,0.28821z"/><path d="M101.0098,183.59392c-0.5747,0.01414 -1.14111,-0.1392 -1.6302,-0.44132c-0.4715,-0.29873 -0.84678,-0.72717 -1.08079,-1.23391c-0.27383,-0.57948 -0.40948,-1.21458 -0.39629,-1.85536c-0.01209,-0.64647 0.12344,-1.28718 0.39629,-1.87338c0.23402,-0.50674 0.6093,-0.93518 1.08079,-1.23391c0.48909,-0.30213 1.0555,-0.45546 1.6302,-0.44132c1.15376,-0.02897 2.2149,0.62893 2.70199,1.67523c0.27285,0.5862 0.40838,1.2269 0.39629,1.87338c0.01319,0.64078 -0.12246,1.27589 -0.39629,1.85536c-0.48709,1.0463 -1.54822,1.7042 -2.70199,1.67523zM101.0098,182.64823c0.41734,0.01827 0.82806,-0.10909 1.16185,-0.36026c0.29695,-0.239 0.52921,-0.54867 0.6755,-0.90066c0.28827,-0.82826 0.28827,-1.72962 0,-2.55788c-0.1369,-0.37484 -0.36983,-0.70716 -0.6755,-0.96371c-0.70008,-0.48039 -1.62362,-0.48039 -2.32371,0c-0.30826,0.25416 -0.54173,0.58725 -0.6755,0.96371c-0.28827,0.82826 -0.28827,1.72962 0,2.55788c0.14314,0.35378 0.37595,0.66419 0.6755,0.90066c0.33851,0.23839 0.74882,0.3529 1.16185,0.32424z"/><path d="M105.72027,183.41379v-6.84503h0.98172v1.06278h0.09007c0.13108,-0.3512 0.375,-0.64896 0.69351,-0.84662c0.34229,-0.21368 0.74058,-0.32031 1.14384,-0.30623c0.40054,-0.01505 0.79623,0.09172 1.13483,0.30623c0.30713,0.21272 0.5501,0.50553 0.70252,0.84662h0.07205c0.17485,-0.35192 0.45085,-0.6436 0.79258,-0.83762c0.38214,-0.22195 0.81929,-0.33124 1.26093,-0.31523c0.55714,-0.02002 1.09901,0.1844 1.50411,0.56742c0.43057,0.49665 0.64175,1.14644 0.58543,1.80132v4.58437h-1.01775v-4.58437c0.03781,-0.40514 -0.11537,-0.80474 -0.4143,-1.08079c-0.28046,-0.21731 -0.62701,-0.33177 -0.98172,-0.32424c-0.41736,-0.02473 -0.82489,0.13302 -1.11682,0.43232c-0.27126,0.30002 -0.4136,0.69471 -0.39629,1.09881v4.50331h-1.07179v-4.69245c0.00426,-0.33969 -0.13274,-0.66589 -0.37828,-0.90066c-0.26561,-0.24701 -0.61939,-0.37683 -0.98172,-0.36026c-0.27022,0.00023 -0.53513,0.07503 -0.76556,0.21616c-0.239,0.14764 -0.43475,0.35582 -0.56742,0.60344c-0.14933,0.27625 -0.22384,0.58673 -0.21616,0.90066v4.27815z"/><path d="M116.60927,183.41379v-6.84503h1.01775v1.06278h0.08106c0.13399,-0.34952 0.37722,-0.64645 0.69351,-0.84662c0.34616,-0.21241 0.74691,-0.31886 1.15285,-0.30623c0.3979,-0.01669 0.7912,0.09029 1.12583,0.30623c0.31205,0.2097 0.55866,0.50313 0.71152,0.84662h0.07205c0.17108,-0.35161 0.44414,-0.6435 0.78358,-0.83762c0.38252,-0.22104 0.8194,-0.33026 1.26093,-0.31523c0.55748,-0.02208 1.10012,0.18263 1.50411,0.56742c0.43429,0.49454 0.646,1.14596 0.58543,1.80132v4.58437h-1.05377v-4.58437c0.04216,-0.40572 -0.11175,-0.80721 -0.4143,-1.08079c-0.27699,-0.21732 -0.62074,-0.3319 -0.97272,-0.32424c-0.42006,-0.02498 -0.83045,0.13261 -1.12583,0.43232c-0.26715,0.30247 -0.40888,0.69545 -0.39629,1.09881v4.50331h-1.06278v-4.69245c0.00192,-0.34104 -0.13843,-0.66745 -0.38728,-0.90066c-0.26284,-0.24561 -0.6133,-0.37541 -0.97272,-0.36026c-0.27035,-0.00072 -0.53552,0.07415 -0.76556,0.21616c-0.24151,0.1474 -0.44023,0.35544 -0.57642,0.60344c-0.14933,0.27625 -0.22384,0.58673 -0.21616,0.90066v4.27815z"/><path d="M130.43444,183.59392c-0.59644,0.01571 -1.18559,-0.13391 -1.70225,-0.43232c-0.4779,-0.29902 -0.86184,-0.72667 -1.10781,-1.23391c-0.5041,-1.18242 -0.5041,-2.5193 0,-3.70172c0.23604,-0.51261 0.61031,-0.94927 1.08079,-1.26093c0.4838,-0.30752 1.0481,-0.46427 1.62119,-0.45033c0.36121,-0.00109 0.72017,0.05671 1.06278,0.17113c0.33637,0.1329 0.64265,0.33198 0.90066,0.58543c0.30781,0.29258 0.54232,0.65361 0.6845,1.05377c0.18334,0.5171 0.26886,1.0638 0.25219,1.61219v0.45033h-5.27788v-0.90066h4.20609c0.00843,-0.35825 -0.06876,-0.71334 -0.22517,-1.03576c-0.14346,-0.29681 -0.36837,-0.5467 -0.64848,-0.72053c-0.30059,-0.18283 -0.64813,-0.27363 -0.99974,-0.26119c-0.38303,-0.01031 -0.7601,0.09653 -1.08079,0.30623c-0.30243,0.20253 -0.54503,0.48244 -0.70252,0.8106c-0.16893,0.32536 -0.25552,0.68718 -0.25219,1.05377v0.61245c-0.01302,0.45333 0.07948,0.90349 0.2702,1.31497c0.16508,0.34003 0.42871,0.62248 0.75656,0.8106c0.34019,0.19231 0.72615,0.2888 1.11682,0.27921c0.25706,0.00498 0.51303,-0.03463 0.75656,-0.11709c0.21454,-0.07559 0.41089,-0.19524 0.57642,-0.35126c0.17177,-0.16862 0.30137,-0.37536 0.37828,-0.60344l1.01775,0.28821c-0.10436,0.33964 -0.28983,0.64876 -0.5404,0.90066c-0.25273,0.26429 -0.56011,0.47023 -0.90066,0.60344c-0.39728,0.14865 -0.81878,0.22195 -1.24291,0.21616z"/><path d="M135.92848,179.29776v4.11603h-1.04477v-6.84503h1.01775v1.06278h0.08106c0.16163,-0.34368 0.41781,-0.63422 0.73854,-0.83762c0.37998,-0.22724 0.81872,-0.33692 1.26093,-0.31523c0.42528,-0.01136 0.84655,0.08467 1.2249,0.27921c0.3561,0.21007 0.63907,0.52447 0.8106,0.90066c0.20553,0.45501 0.30412,0.95105 0.28821,1.45007v4.3502h-1.05377v-4.27815c0.02742,-0.45772 -0.12075,-0.90867 -0.4143,-1.26093c-0.30119,-0.30959 -0.72156,-0.47379 -1.15285,-0.45033c-0.31393,-0.00768 -0.62442,0.06683 -0.90066,0.21616c-0.26438,0.14889 -0.48017,0.37094 -0.62146,0.63947c-0.15636,0.30024 -0.23676,0.63421 -0.23417,0.97272z"/><path d="M144.81801,183.59392c-0.53609,0.00921 -1.06281,-0.14127 -1.51311,-0.43232c-0.44894,-0.30935 -0.80415,-0.73622 -1.02675,-1.23391c-0.49202,-1.20358 -0.49202,-2.55218 0,-3.75576c0.22322,-0.49756 0.58221,-0.9221 1.03576,-1.2249c0.45287,-0.29277 0.98297,-0.44333 1.52212,-0.43232c0.36675,-0.01786 0.73214,0.05645 1.06278,0.21616c0.23132,0.12458 0.43385,0.29642 0.59444,0.50437c0.1169,0.14356 0.22517,0.29393 0.32424,0.45033h0.09007v-3.36848h1.05377v9.09669h-1.01775v-1.04477h-0.12609c-0.07205,0.11709 -0.18914,0.27921 -0.33325,0.46834c-0.16397,0.20817 -0.36947,0.37994 -0.60344,0.50437c-0.32819,0.17002 -0.69319,0.25663 -1.06278,0.25219zM144.96212,182.64823c0.38476,0.014 0.7628,-0.10354 1.07179,-0.33325c0.30205,-0.23196 0.53296,-0.544 0.66649,-0.90066c0.15861,-0.4386 0.23495,-0.90271 0.22517,-1.36901c0.01087,-0.45757 -0.06555,-0.91302 -0.22517,-1.34199c-0.12658,-0.35795 -0.35513,-0.67103 -0.65748,-0.90066c-0.66543,-0.44344 -1.53218,-0.44344 -2.19762,0c-0.29838,0.2335 -0.52601,0.54532 -0.65748,0.90066c-0.1564,0.41732 -0.23278,0.86036 -0.22517,1.30596c-0.00318,0.45111 0.07304,0.89927 0.22517,1.32397c0.13487,0.3685 0.36481,0.69476 0.66649,0.9457c0.32039,0.23431 0.71133,0.3519 1.10781,0.33325z"/><path d="M152.90596,183.59392c-0.59942,0.01691 -1.19179,-0.13274 -1.71126,-0.43232c-0.47521,-0.29956 -0.85611,-0.72729 -1.09881,-1.23391c-0.51589,-1.17998 -0.51589,-2.52174 0,-3.70172c0.23314,-0.51447 0.60804,-0.95185 1.08079,-1.26093c0.48266,-0.31007 1.04776,-0.46704 1.62119,-0.45033c0.35831,-0.00174 0.71442,0.05609 1.05377,0.17113c0.76495,0.27234 1.36686,0.87426 1.63921,1.63921c0.17904,0.51818 0.26444,1.06408 0.25219,1.61219v0.45033h-5.28689v-0.90066h4.2151c0.00563,-0.35899 -0.07466,-0.71412 -0.23417,-1.03576c-0.14346,-0.29681 -0.36837,-0.5467 -0.64848,-0.72053c-0.298,-0.18113 -0.64216,-0.27186 -0.99073,-0.26119c-0.38601,-0.01158 -0.76631,0.09529 -1.0898,0.30623c-0.30243,0.20253 -0.54503,0.48244 -0.70252,0.8106c-0.16185,0.32758 -0.24512,0.68839 -0.24318,1.05377v0.61245c-0.01302,0.45333 0.07948,0.90349 0.2702,1.31497c0.16449,0.33753 0.42441,0.61938 0.74755,0.8106c0.57717,0.30405 1.25256,0.36249 1.87338,0.16212c0.2173,-0.07542 0.41662,-0.19502 0.58543,-0.35126c0.16879,-0.171 0.29793,-0.377 0.37828,-0.60344l1.01775,0.28821c-0.10784,0.33807 -0.29285,0.64641 -0.5404,0.90066c-0.25419,0.26255 -0.56116,0.46822 -0.90066,0.60344c-0.41158,0.15362 -0.84877,0.22699 -1.28795,0.21616z"/><path d="M159.93113,183.59392c-0.53304,0.00743 -1.05636,-0.14299 -1.50411,-0.43232c-0.45356,-0.30427 -0.80998,-0.73261 -1.02675,-1.23391c-0.50389,-1.20122 -0.50389,-2.55454 0,-3.75576c0.21692,-0.4988 0.5735,-0.92421 1.02675,-1.2249c0.45287,-0.29277 0.98297,-0.44333 1.52212,-0.43232c0.36675,-0.01786 0.73214,0.05645 1.06278,0.21616c0.23132,0.12458 0.43385,0.29642 0.59444,0.50437c0.1169,0.14356 0.22517,0.29393 0.32424,0.45033h0.09007v-3.36848h1.05377v9.09669h-1.01775v-1.04477h-0.12609c-0.07205,0.11709 -0.18013,0.27921 -0.32424,0.46834c-0.16959,0.20618 -0.37758,0.37747 -0.61245,0.50437c-0.32819,0.17002 -0.69319,0.25663 -1.06278,0.25219zM160.07523,182.64823c0.38476,0.014 0.7628,-0.10354 1.07179,-0.33325c0.30205,-0.23196 0.53296,-0.544 0.66649,-0.90066c0.15861,-0.4386 0.23495,-0.90271 0.22517,-1.36901c0.01087,-0.45757 -0.06555,-0.91302 -0.22517,-1.34199c-0.12317,-0.35973 -0.35239,-0.67374 -0.65748,-0.90066c-0.31449,-0.22463 -0.69459,-0.33866 -1.08079,-0.32424c-0.39766,-0.0168 -0.78893,0.10408 -1.10781,0.34225c-0.30346,0.23057 -0.53471,0.54306 -0.66649,0.90066c-0.1602,0.40492 -0.24859,0.83466 -0.26119,1.26993c-0.00318,0.45111 0.07304,0.89927 0.22517,1.32397c0.13502,0.37077 0.36856,0.69772 0.6755,0.9457c0.3242,0.24884 0.72675,0.37344 1.13483,0.35126z"/><path d="M171.65775,176.56876v0.90066h-3.54861v-0.90066zM169.1449,174.92055h1.05377v6.5298c-0.01303,0.22913 0.03026,0.45796 0.12609,0.66649c0.07396,0.13754 0.1957,0.24326 0.34225,0.29722c0.14128,0.0515 0.291,0.07595 0.44132,0.07205c0.09277,0.01056 0.18644,0.01056 0.27921,0h0.18013l0.21616,0.90066l-0.29722,0.09007c-0.16171,0.01625 -0.32464,0.01625 -0.48636,0c-0.31035,0.00262 -0.61759,-0.0619 -0.90066,-0.18914c-0.62196,-0.27151 -1.0123,-0.89821 -0.98172,-1.57616z"/><path d="M174.4408,179.29776v4.11603h-1.0898v-9.13272h1.05377v3.35046h0.09007c0.15616,-0.34446 0.40978,-0.63564 0.72954,-0.83762c0.38837,-0.23093 0.83682,-0.3407 1.28795,-0.31523c0.42528,-0.01136 0.84655,0.08467 1.2249,0.27921c0.35754,0.18618 0.64511,0.48323 0.8196,0.84662c0.21284,0.45608 0.3147,0.95608 0.29722,1.45907v4.3502h-0.99974v-4.27815c0.02726,-0.46197 -0.12432,-0.91672 -0.42331,-1.26993c-0.30898,-0.30814 -0.73535,-0.46885 -1.17086,-0.44132c-0.31337,-0.00259 -0.62261,0.07163 -0.90066,0.21616c-0.27406,0.14514 -0.49953,0.36747 -0.64848,0.63947c-0.17623,0.31031 -0.2693,0.66089 -0.2702,1.01775z"/><path d="M182.83497,183.59392c-0.40919,0.00563 -0.81476,-0.07733 -1.18887,-0.24318c-0.7277,-0.32914 -1.18352,-1.06628 -1.15285,-1.86437c-0.01197,-0.33379 0.06911,-0.66433 0.23417,-0.9547c0.154,-0.2425 0.36808,-0.44107 0.62146,-0.57642c0.28407,-0.14651 0.58723,-0.25261 0.90066,-0.31523c0.29715,-0.0699 0.59779,-0.12402 0.90066,-0.16212l1.01775,-0.12609c0.19641,-0.0126 0.38879,-0.06146 0.56742,-0.14411c0.12602,-0.07389 0.19663,-0.21512 0.18013,-0.36026v0c0.02478,-0.37704 -0.10534,-0.74786 -0.36026,-1.02675c-0.29549,-0.26344 -0.68634,-0.39372 -1.08079,-0.36026c-0.41835,-0.02564 -0.83337,0.08841 -1.17987,0.32424c-0.25491,0.18577 -0.4618,0.4297 -0.60344,0.71152l-0.99974,-0.36026c0.15214,-0.37862 0.39677,-0.71305 0.71152,-0.97272c0.29142,-0.22816 0.62505,-0.39651 0.98172,-0.49536c0.3444,-0.08801 0.69831,-0.13338 1.05377,-0.1351c0.25366,0.00458 0.50659,0.02866 0.75656,0.07205c0.29636,0.05709 0.58006,0.16691 0.83762,0.32424c0.28915,0.17499 0.52323,0.4278 0.6755,0.72954c0.19108,0.4047 0.28072,0.84984 0.26119,1.29695v4.50331h-1.05377v-0.90066h-0.05404c-0.08905,0.17796 -0.20785,0.3394 -0.35126,0.47735c-0.19161,0.18648 -0.41809,0.33338 -0.66649,0.43232c-0.32361,0.11263 -0.66737,0.1556 -1.00874,0.12609zM182.98808,182.69326c0.36934,0.0123 0.73554,-0.07149 1.06278,-0.24318c0.26774,-0.1496 0.4914,-0.36704 0.64848,-0.63046c0.1415,-0.25 0.21596,-0.53234 0.21616,-0.8196v-1.00874c-0.08097,0.07366 -0.1807,0.12352 -0.28821,0.14411c-0.17196,0.04812 -0.34633,0.0872 -0.52238,0.11709l-0.55841,0.07205l-0.45033,0.06305c-0.26004,0.03259 -0.51639,0.0899 -0.76556,0.17113c-0.2182,0.06188 -0.41474,0.18354 -0.56742,0.35126c-0.15002,0.17478 -0.22738,0.4004 -0.21616,0.63046c-0.02732,0.32967 0.12828,0.6478 0.4053,0.82861c0.3109,0.18978 0.67204,0.28085 1.03576,0.26119z"/><path d="M190.87788,176.56876v0.90066h-3.54861v-0.90066zM188.36503,174.92055h1.05377v6.5298c-0.01303,0.22913 0.03026,0.45796 0.12609,0.66649c0.07396,0.13754 0.1957,0.24326 0.34225,0.29722c0.14128,0.0515 0.291,0.07595 0.44132,0.07205c0.09277,0.01056 0.18644,0.01056 0.27921,0h0.18013l0.21616,0.90066l-0.29722,0.09007c-0.16171,0.01625 -0.32464,0.01625 -0.48636,0c-0.31035,0.00262 -0.61759,-0.0619 -0.90066,-0.18914c-0.62196,-0.27151 -1.0123,-0.89821 -0.98172,-1.57616z"/><path d="M196.67815,185.98969c-0.15876,0.01504 -0.31859,0.01504 -0.47735,0c-0.09884,-0.01596 -0.19554,-0.04316 -0.28821,-0.08106l0.2702,-0.90066c0.21964,0.06119 0.44789,0.08554 0.6755,0.07205c0.20006,-0.02078 0.38573,-0.11361 0.52238,-0.26119c0.18916,-0.22212 0.33297,-0.47914 0.42331,-0.75656l0.19815,-0.5404l-2.53987,-6.88106h1.14384l1.89139,5.45801h0.07205l1.89139,-5.45801h1.14384l-2.90914,7.84477c-0.11167,0.32484 -0.27598,0.62912 -0.48636,0.90066c-0.18004,0.22575 -0.41172,0.40492 -0.6755,0.52238c-0.27691,0.08402 -0.56787,0.11158 -0.85563,0.08106z"/><path d="M205.53166,183.59392c-1.15376,0.02897 -2.2149,-0.62893 -2.70199,-1.67523c-0.26678,-0.58153 -0.39915,-1.21567 -0.38728,-1.85536c-0.01061,-0.64537 0.12164,-1.28511 0.38728,-1.87338c0.48709,-1.0463 1.54822,-1.7042 2.70199,-1.67523c1.15376,-0.02897 2.2149,0.62893 2.70199,1.67523c0.27285,0.5862 0.40838,1.2269 0.39629,1.87338c0.01319,0.64078 -0.12246,1.27589 -0.39629,1.85536c-0.48709,1.0463 -1.54822,1.7042 -2.70199,1.67523zM205.53166,182.64823c0.41734,0.01827 0.82806,-0.10909 1.16185,-0.36026c0.29685,-0.23701 0.52661,-0.54749 0.66649,-0.90066c0.30005,-0.82623 0.30005,-1.73165 0,-2.55788c-0.13044,-0.37584 -0.36087,-0.70902 -0.66649,-0.96371c-0.70008,-0.48039 -1.62362,-0.48039 -2.32371,0c-0.31102,0.25159 -0.54509,0.58552 -0.6755,0.96371c-0.28827,0.82826 -0.28827,1.72962 0,2.55788c0.14012,0.35548 0.37347,0.66661 0.6755,0.90066c0.33851,0.23839 0.74882,0.3529 1.16185,0.32424z"/><path d="M214.55629,180.61273v-4.04397h1.05377v6.84503h-1.05377v-1.15285h-0.06305c-0.16902,0.36126 -0.4299,0.67183 -0.75656,0.90066c-0.37686,0.25367 -0.82508,0.37993 -1.27894,0.36026c-0.3992,0.00917 -0.79376,-0.08714 -1.14384,-0.27921c-0.34834,-0.21162 -0.6222,-0.52639 -0.78358,-0.90066c-0.19318,-0.45791 -0.27943,-0.95382 -0.25219,-1.45007v-4.32318h1.05377v4.32318c-0.02566,0.43996 0.12692,0.87173 0.42331,1.19788c0.27711,0.29449 0.66767,0.4553 1.07179,0.44132c0.59938,-0.00612 1.15645,-0.30997 1.48609,-0.8106c0.19528,-0.33461 0.28035,-0.72217 0.24318,-1.10781z"/><path d="M225.39126,180.61273v-4.04397h1.09881v6.84503h-1.05377v-1.15285h-0.07205c-0.16543,0.36087 -0.42332,0.67159 -0.74755,0.90066c-0.38017,0.25379 -0.83127,0.37997 -1.28795,0.36026c-0.39626,0.00843 -0.78772,-0.08788 -1.13483,-0.27921c-0.34868,-0.21378 -0.62487,-0.52763 -0.79258,-0.90066c-0.21453,-0.45291 -0.32237,-0.94897 -0.31523,-1.45007v-4.32318h1.05377v4.32318c-0.02412,0.43815 0.12465,0.86826 0.4143,1.19788c0.28057,0.29491 0.67399,0.45556 1.08079,0.44132c0.59938,-0.00612 1.15645,-0.30997 1.48609,-0.8106c0.20469,-0.33152 0.29927,-0.71928 0.2702,-1.10781z"/><path d="M233.22702,178.09988l-0.90066,0.2702c-0.06404,-0.16789 -0.15201,-0.32563 -0.26119,-0.46834c-0.12769,-0.15539 -0.28745,-0.28135 -0.46834,-0.36927c-0.23452,-0.10572 -0.49054,-0.15507 -0.74755,-0.14411c-0.37263,-0.01533 -0.74082,0.08537 -1.05377,0.28821c-0.25736,0.15284 -0.41488,0.43022 -0.4143,0.72954c-0.00714,0.24098 0.09965,0.47124 0.28821,0.62146c0.27396,0.18123 0.57945,0.30954 0.90066,0.37828l1.01775,0.24318c0.50983,0.10018 0.98296,0.33674 1.36901,0.6845c0.30203,0.31348 0.46445,0.73578 0.45033,1.17086c0.00391,0.37919 -0.11628,0.74925 -0.34225,1.05377c-0.22699,0.32395 -0.53852,0.57941 -0.90066,0.73854c-0.4427,0.18121 -0.91775,0.2701 -1.39603,0.26119c-0.61095,0.02263 -1.21517,-0.1339 -1.73828,-0.45033c-0.46976,-0.30258 -0.79521,-0.78424 -0.90066,-1.33298l0.99974,-0.25219c0.07557,0.33656 0.2708,0.63422 0.5494,0.83762c0.31246,0.19472 0.67708,0.28902 1.04477,0.2702c0.41397,0.02298 0.82439,-0.08752 1.17086,-0.31523c0.26462,-0.16106 0.42791,-0.44681 0.43232,-0.75656c0.00528,-0.22518 -0.08659,-0.44175 -0.25219,-0.59444c-0.21732,-0.18973 -0.4818,-0.3173 -0.76556,-0.36927l-1.14384,-0.26119c-0.51473,-0.099 -0.99182,-0.3391 -1.37801,-0.69351c-0.5358,-0.62452 -0.58029,-1.53273 -0.10808,-2.20662c0.23274,-0.30977 0.54355,-0.5522 0.90066,-0.70252c0.40932,-0.1758 0.85158,-0.26179 1.29695,-0.25219c0.5656,-0.03351 1.12633,0.12172 1.59417,0.44132c0.36292,0.31016 0.62612,0.72063 0.75656,1.17987z"/><path d="M237.81139,183.59392c-0.59644,0.01571 -1.18559,-0.13391 -1.70225,-0.43232c-0.4779,-0.29902 -0.86184,-0.72667 -1.10781,-1.23391c-0.5041,-1.18242 -0.5041,-2.5193 0,-3.70172c0.23604,-0.51261 0.61031,-0.94927 1.08079,-1.26093c0.4838,-0.30752 1.0481,-0.46427 1.62119,-0.45033c0.36121,-0.00109 0.72017,0.05671 1.06278,0.17113c0.35242,0.12745 0.67447,0.32681 0.9457,0.58543c0.30781,0.29258 0.54232,0.65361 0.6845,1.05377c0.18334,0.5171 0.26886,1.0638 0.25219,1.61219v0.45033h-5.27788v-0.90066h4.20609c0.00843,-0.35825 -0.06876,-0.71334 -0.22517,-1.03576c-0.14346,-0.29681 -0.36837,-0.5467 -0.64848,-0.72053c-0.30059,-0.18283 -0.64813,-0.27363 -0.99974,-0.26119c-0.38303,-0.01031 -0.7601,0.09653 -1.08079,0.30623c-0.30243,0.20253 -0.54503,0.48244 -0.70252,0.8106c-0.16466,0.32694 -0.251,0.68771 -0.25219,1.05377v0.61245c-0.01302,0.45333 0.07948,0.90349 0.2702,1.31497c0.16508,0.34003 0.42871,0.62248 0.75656,0.8106c0.34019,0.19231 0.72615,0.2888 1.11682,0.27921c0.25706,0.00498 0.51303,-0.03463 0.75656,-0.11709c0.21454,-0.07559 0.41089,-0.19524 0.57642,-0.35126c0.17177,-0.16862 0.30137,-0.37536 0.37828,-0.60344l1.01775,0.28821c-0.10784,0.33807 -0.29285,0.64641 -0.5404,0.90066c-0.25273,0.26429 -0.56011,0.47023 -0.90066,0.60344c-0.4114,0.15427 -0.84872,0.22767 -1.28795,0.21616z"/><path d="M245.40397,175.2628v-0.98172h6.85404v0.98172h-2.87311v8.15099h-1.10781v-8.15099z"/><path d="M257.24768,180.61273v-4.04397h1.05377v6.84503h-1.05377v-1.15285h-0.07205c-0.16825,0.35909 -0.4256,0.66915 -0.74755,0.90066c-0.38017,0.25379 -0.83127,0.37997 -1.28795,0.36026c-0.39911,0.00833 -0.79345,-0.08793 -1.14384,-0.27921c-0.34834,-0.21162 -0.6222,-0.52639 -0.78358,-0.90066c-0.20553,-0.45501 -0.30412,-0.95105 -0.28821,-1.45007v-4.32318h1.05377v4.32318c-0.02165,0.43939 0.1304,0.86966 0.42331,1.19788c0.27989,0.2959 0.67379,0.45674 1.08079,0.44132c0.27894,-0.00309 0.55334,-0.07092 0.80159,-0.19815c0.62722,-0.31557 1.00622,-0.97439 0.96371,-1.67523z"/><path d="M260.22888,183.41379v-6.84503h1.01775v1.03576h0.07205c0.12624,-0.34393 0.36406,-0.63566 0.6755,-0.82861c0.32899,-0.21449 0.71519,-0.32438 1.10781,-0.31523h0.31523h0.26119v1.07179h-0.24318c-0.13193,-0.00924 -0.26436,-0.00924 -0.39629,0c-0.31313,-0.01045 -0.62356,0.06095 -0.90066,0.20715c-0.25389,0.12714 -0.46632,0.32396 -0.61245,0.56742c-0.15302,0.24887 -0.23119,0.53652 -0.22517,0.82861v4.33219z"/><path d="M265.04742,183.41379v-9.13272h1.07179v3.36848h0.09007c0.09907,-0.1564 0.20734,-0.30677 0.32424,-0.45033c0.16058,-0.20795 0.36312,-0.37979 0.59444,-0.50437c0.33064,-0.15971 0.69603,-0.23402 1.06278,-0.21616c0.53915,-0.01102 1.06925,0.13955 1.52212,0.43232c0.45325,0.3007 0.80984,0.7261 1.02675,1.2249c0.49202,1.20358 0.49202,2.55218 0,3.75576c-0.21646,0.49883 -0.56921,0.9265 -1.01775,1.23391c-0.4503,0.29104 -0.97702,0.44153 -1.51311,0.43232c-0.36658,0.01561 -0.73142,-0.05859 -1.06278,-0.21616c-0.23487,-0.1269 -0.44286,-0.2982 -0.61245,-0.50437c-0.14411,-0.18914 -0.25219,-0.35126 -0.32424,-0.46834h-0.12609v1.04477zM266.11921,179.99127c-0.00978,0.4663 0.06655,0.9304 0.22517,1.36901c0.13043,0.35833 0.36194,0.67118 0.66649,0.90066c0.30899,0.2297 0.68703,0.34725 1.07179,0.33325c0.39589,0.01362 0.78423,-0.11052 1.09881,-0.35126c0.30694,-0.24797 0.54047,-0.57492 0.6755,-0.9457c0.15213,-0.4247 0.22834,-0.87286 0.22517,-1.32397c0.00314,-0.44524 -0.07311,-0.88748 -0.22517,-1.30596c-0.13178,-0.3576 -0.36303,-0.6701 -0.66649,-0.90066c-0.31888,-0.23817 -0.71016,-0.35905 -1.10781,-0.34225c-0.38621,-0.01442 -0.7663,0.0996 -1.08079,0.32424c-0.30509,0.22693 -0.53432,0.54093 -0.65748,0.90066c-0.15962,0.42896 -0.23604,0.88441 -0.22517,1.34199z"/><path d="M275.48609,183.59392c-0.5747,0.01414 -1.14111,-0.1392 -1.6302,-0.44132c-0.4715,-0.29873 -0.84678,-0.72717 -1.08079,-1.23391c-0.26949,-0.60515 -0.38995,-1.2661 -0.35126,-1.92742c-0.01209,-0.64647 0.12344,-1.28718 0.39629,-1.87338c0.23402,-0.50674 0.6093,-0.93518 1.08079,-1.23391c0.48909,-0.30213 1.0555,-0.45546 1.6302,-0.44132c1.15376,-0.02897 2.2149,0.62893 2.70199,1.67523c0.27285,0.5862 0.40838,1.2269 0.39629,1.87338c0.01319,0.64078 -0.12246,1.27589 -0.39629,1.85536c-0.48709,1.0463 -1.54822,1.7042 -2.70199,1.67523zM275.48609,182.64823c0.41734,0.01827 0.82806,-0.10909 1.16185,-0.36026c0.29695,-0.239 0.52921,-0.54867 0.6755,-0.90066c0.28827,-0.82826 0.28827,-1.72962 0,-2.55788c-0.1369,-0.37484 -0.36983,-0.70716 -0.6755,-0.96371c-0.70008,-0.48039 -1.62362,-0.48039 -2.32371,0c-0.31102,0.25159 -0.54509,0.58552 -0.6755,0.96371c-0.28827,0.82826 -0.28827,1.72962 0,2.55788c0.14012,0.35548 0.37347,0.66661 0.6755,0.90066c0.33851,0.23839 0.74882,0.3529 1.16185,0.32424z"/><path d="M281.52053,183.41379l-2.08954,-6.84503h1.09881l1.47709,5.24185h0.07205l1.46808,-5.24185h1.11682l1.45007,5.22384h0.07205l1.47709,-5.22384h1.10781l-2.08954,6.84503h-1.03576l-1.51311,-5.22384h-0.10808l-1.4951,5.25987z"/><path d="M292.23841,183.59392c-0.40919,0.00563 -0.81476,-0.07733 -1.18887,-0.24318c-0.7277,-0.32914 -1.18352,-1.06628 -1.15285,-1.86437c-0.01197,-0.33379 0.06911,-0.66433 0.23417,-0.9547c0.154,-0.2425 0.36808,-0.44107 0.62146,-0.57642c0.26991,-0.14267 0.55767,-0.24869 0.85563,-0.31523c0.31199,-0.0715 0.62771,-0.12562 0.9457,-0.16212l1.01775,-0.12609c0.19641,-0.0126 0.38879,-0.06146 0.56742,-0.14411c0.12602,-0.07389 0.19663,-0.21512 0.18013,-0.36026v0c0.02478,-0.37704 -0.10534,-0.74786 -0.36026,-1.02675c-0.29549,-0.26344 -0.68634,-0.39372 -1.08079,-0.36026c-0.41835,-0.02564 -0.83337,0.08841 -1.17987,0.32424c-0.25491,0.18577 -0.4618,0.4297 -0.60344,0.71152l-0.99974,-0.36026c0.15214,-0.37862 0.39677,-0.71305 0.71152,-0.97272c0.29142,-0.22816 0.62505,-0.39651 0.98172,-0.49536c0.3444,-0.08801 0.69831,-0.13338 1.05377,-0.1351c0.25366,0.00458 0.50659,0.02866 0.75656,0.07205c0.29636,0.05709 0.58006,0.16691 0.83762,0.32424c0.28915,0.17499 0.52323,0.4278 0.6755,0.72954c0.19108,0.4047 0.28072,0.84984 0.26119,1.29695v4.50331h-1.05377v-0.90066h-0.05404c-0.08905,0.17796 -0.20785,0.3394 -0.35126,0.47735c-0.19161,0.18648 -0.41809,0.33338 -0.66649,0.43232c-0.32361,0.11263 -0.66737,0.1556 -1.00874,0.12609zM292.39152,182.69326c0.36934,0.0123 0.73554,-0.07149 1.06278,-0.24318c0.26626,-0.15159 0.48945,-0.36858 0.64848,-0.63046c0.1415,-0.25 0.21596,-0.53234 0.21616,-0.8196v-1.00874c-0.08097,0.07366 -0.1807,0.12352 -0.28821,0.14411c-0.17196,0.04812 -0.34633,0.0872 -0.52238,0.11709l-0.55841,0.07205l-0.45033,0.06305c-0.26004,0.03259 -0.51639,0.0899 -0.76556,0.17113c-0.2182,0.06188 -0.41474,0.18354 -0.56742,0.35126c-0.15002,0.17478 -0.22738,0.4004 -0.21616,0.63046c-0.02732,0.32967 0.12828,0.6478 0.4053,0.82861c0.298,0.18113 0.64216,0.27186 0.99073,0.26119z"/><path d="M297.2551,183.41379v-6.84503h1.01775v1.03576h0.07205c0.12624,-0.34393 0.36406,-0.63566 0.6755,-0.82861c0.32991,-0.21245 0.71548,-0.32217 1.10781,-0.31523h0.28821h0.2702v1.07179h-0.24318c-0.13493,-0.00954 -0.27037,-0.00954 -0.4053,0c-0.31313,-0.01045 -0.62356,0.06095 -0.90066,0.20715c-0.25475,0.12932 -0.46956,0.32545 -0.62146,0.56742c-0.15302,0.24887 -0.23119,0.53652 -0.22517,0.82861v4.33219z"/><path d="M301.92954,185.98969v-9.42093h1.01775v1.08079h0.09907l0.32424,-0.45033c0.16397,-0.20817 0.36947,-0.37994 0.60344,-0.50437c0.32743,-0.1597 0.68991,-0.23406 1.05377,-0.21616c0.5422,-0.01283 1.07571,0.13781 1.53113,0.43232c0.45089,0.30334 0.80683,0.72797 1.02675,1.2249c0.49202,1.20358 0.49202,2.55218 0,3.75576c-0.21677,0.5013 -0.5732,0.92964 -1.02675,1.23391c-0.4503,0.29104 -0.97702,0.44153 -1.51311,0.43232c-0.36377,0.01673 -0.72597,-0.05756 -1.05377,-0.21616c-0.23649,-0.12448 -0.44493,-0.29614 -0.61245,-0.50437c-0.14411,-0.18914 -0.25219,-0.35126 -0.33325,-0.46834h-0.09007v3.60265zM302.9653,179.99127c-0.00689,0.46686 0.07249,0.93098 0.23417,1.36901c0.12705,0.3577 0.35551,0.67066 0.65748,0.90066c0.30964,0.22842 0.68722,0.34582 1.07179,0.33325c0.39863,0.01348 0.78978,-0.11054 1.10781,-0.35126c0.30711,-0.24588 0.5382,-0.57379 0.66649,-0.9457c0.15738,-0.42331 0.23376,-0.87244 0.22517,-1.32397c0.00603,-0.4447 -0.06717,-0.88692 -0.21616,-1.30596c-0.1348,-0.35597 -0.36548,-0.66769 -0.66649,-0.90066c-0.32165,-0.2395 -0.71622,-0.36041 -1.11682,-0.34225c-0.38569,-0.01046 -0.76455,0.1032 -1.08079,0.32424c-0.29978,0.23215 -0.52773,0.5444 -0.65748,0.90066c-0.15575,0.42999 -0.23205,0.88471 -0.22517,1.34199z"/><path d="M316.10596,176.56876v0.90066h-3.55762v-0.90066zM313.58411,174.92055h1.05377v6.5298c-0.01505,0.23023 0.03159,0.4603 0.1351,0.66649c0.07042,0.13694 0.18918,0.24285 0.33325,0.29722c0.14144,0.05089 0.29104,0.07532 0.44132,0.07205c0.09579,0.01049 0.19243,0.01049 0.28821,0h0.18013l0.21616,0.90066l-0.30623,0.09007c-0.16171,0.01625 -0.32464,0.01625 -0.48636,0c-0.31058,0.00498 -0.61832,-0.05965 -0.90066,-0.18914c-0.62726,-0.26662 -1.02245,-0.89532 -0.99073,-1.57616z"/><path d="M320.40212,183.59392c-1.15376,0.02897 -2.2149,-0.62893 -2.70199,-1.67523c-0.27383,-0.57948 -0.40948,-1.21458 -0.39629,-1.85536c-0.01209,-0.64647 0.12344,-1.28718 0.39629,-1.87338c0.48709,-1.0463 1.54822,-1.7042 2.70199,-1.67523c1.15376,-0.02897 2.2149,0.62893 2.70199,1.67523c0.26564,0.58827 0.39789,1.228 0.38728,1.87338c0.01187,0.63969 -0.1205,1.27384 -0.38728,1.85536c-0.48709,1.0463 -1.54822,1.7042 -2.70199,1.67523zM320.40212,182.64823c0.41734,0.01827 0.82806,-0.10909 1.16185,-0.36026c0.30202,-0.23405 0.53538,-0.54518 0.6755,-0.90066c0.28827,-0.82826 0.28827,-1.72962 0,-2.55788c-0.13041,-0.37819 -0.36448,-0.71212 -0.6755,-0.96371c-0.70008,-0.48039 -1.62362,-0.48039 -2.32371,0c-0.30562,0.25469 -0.53605,0.58787 -0.66649,0.96371c-0.30005,0.82623 -0.30005,1.73165 0,2.55788c0.13988,0.35317 0.36964,0.66365 0.66649,0.90066c0.33851,0.23839 0.74882,0.3529 1.16185,0.32424z"/><path d="M328.65219,185.98969v-9.42093h1.01775v1.08079h0.11709l0.32424,-0.45033c0.16611,-0.20608 0.37116,-0.37746 0.60344,-0.50437c0.32781,-0.1586 0.69,-0.23289 1.05377,-0.21616c0.5422,-0.01283 1.07571,0.13781 1.53113,0.43232c0.45325,0.3007 0.80984,0.7261 1.02675,1.2249c0.49202,1.20358 0.49202,2.55218 0,3.75576c-0.21677,0.5013 -0.5732,0.92964 -1.02675,1.23391c-0.4503,0.29104 -0.97702,0.44153 -1.51311,0.43232c-0.36377,0.01673 -0.72597,-0.05756 -1.05377,-0.21616c-0.23649,-0.12448 -0.44493,-0.29614 -0.61245,-0.50437c-0.14411,-0.18914 -0.25219,-0.35126 -0.33325,-0.46834h-0.08106v3.60265zM329.67894,179.99127c-0.00689,0.46686 0.07249,0.93098 0.23417,1.36901c0.13043,0.35833 0.36194,0.67118 0.66649,0.90066c0.30622,0.22839 0.68098,0.3459 1.06278,0.33325c0.39863,0.01348 0.78978,-0.11054 1.10781,-0.35126c0.30711,-0.24588 0.5382,-0.57379 0.66649,-0.9457c0.16439,-0.41589 0.24991,-0.85876 0.25219,-1.30596c0.00603,-0.4447 -0.06717,-0.88692 -0.21616,-1.30596c-0.1348,-0.35597 -0.36548,-0.66769 -0.66649,-0.90066c-0.66189,-0.4443 -1.52672,-0.4443 -2.18861,0c-0.30493,0.22911 -0.53652,0.54208 -0.66649,0.90066c-0.16072,0.41696 -0.24611,0.85914 -0.25219,1.30596z"/><path d="M337.36159,174.28108v9.13272h-1.05377v-9.13272z"/><path d="M341.29748,183.59392c-0.4063,0.00576 -0.80896,-0.07723 -1.17987,-0.24318c-0.34113,-0.16082 -0.63333,-0.4095 -0.84662,-0.72053c-0.21368,-0.34229 -0.32031,-0.74058 -0.30623,-1.14384c-0.04336,-0.63244 0.28793,-1.23159 0.84662,-1.53113c0.28492,-0.14455 0.58779,-0.25056 0.90066,-0.31523c0.31199,-0.0715 0.62771,-0.12562 0.9457,-0.16212l1.01775,-0.12609c0.19641,-0.0126 0.38879,-0.06146 0.56742,-0.14411c0.12602,-0.07389 0.19663,-0.21512 0.18013,-0.36026v0c0.02478,-0.37704 -0.10534,-0.74786 -0.36026,-1.02675c-0.29549,-0.26344 -0.68634,-0.39372 -1.08079,-0.36026c-0.75913,-0.07075 -1.48059,0.34409 -1.80132,1.03576l-0.99974,-0.36026c0.14898,-0.38036 0.39415,-0.71553 0.71152,-0.97272c0.29142,-0.22816 0.62505,-0.39651 0.98172,-0.49536c0.34428,-0.08864 0.69827,-0.13402 1.05377,-0.1351c0.25364,0.00496 0.50654,0.02904 0.75656,0.07205c0.29636,0.05709 0.58006,0.16691 0.83762,0.32424c0.28583,0.1763 0.51667,0.42899 0.66649,0.72954c0.19851,0.40244 0.29148,0.84873 0.2702,1.29695v4.50331h-1.05377v-0.90066h-0.05404c-0.08905,0.17796 -0.20785,0.3394 -0.35126,0.47735c-0.19316,0.18454 -0.41923,0.33119 -0.66649,0.43232c-0.33219,0.11592 -0.68546,0.15893 -1.03576,0.12609zM341.4596,182.69326c0.36639,0.01156 0.7295,-0.07223 1.05377,-0.24318c0.26955,-0.15036 0.49595,-0.36745 0.65748,-0.63046c0.1415,-0.25 0.21596,-0.53234 0.21616,-0.8196v-1.00874c-0.08242,0.07152 -0.18155,0.12109 -0.28821,0.14411c-0.17196,0.04812 -0.34633,0.0872 -0.52238,0.11709l-0.56742,0.07205l-0.44132,0.06305c-0.26022,0.03158 -0.51666,0.0889 -0.76556,0.17113c-0.2182,0.06188 -0.41474,0.18354 -0.56742,0.35126c-0.15002,0.17478 -0.22738,0.4004 -0.21616,0.63046c-0.02732,0.32967 0.12828,0.6478 0.4053,0.82861c0.3109,0.18978 0.67204,0.28085 1.03576,0.26119z"/><path d="M346.80053,185.98969c-0.15874,0.01548 -0.31861,0.01548 -0.47735,0c-0.10198,-0.01495 -0.20178,-0.04216 -0.29722,-0.08106l0.2702,-0.90066c0.21979,0.06039 0.44792,0.08472 0.6755,0.07205c0.20151,-0.02469 0.38876,-0.11673 0.53139,-0.26119c0.18595,-0.22287 0.32667,-0.47985 0.4143,-0.75656l0.19815,-0.5404l-2.53086,-6.88106h1.14384l1.89139,5.45801h0.07205l1.89139,-5.45801h1.14384l-2.91815,7.84477c-0.10325,0.32847 -0.26833,0.63417 -0.48636,0.90066c-0.17869,0.22341 -0.40686,0.40224 -0.66649,0.52238c-0.27691,0.08402 -0.56787,0.11158 -0.85563,0.08106z"/><path d="M359.62596,176.56876v0.90066h-3.54861v-0.90066zM357.08609,174.92055h1.05377v6.5298c-0.01303,0.22913 0.03026,0.45796 0.12609,0.66649c0.07396,0.13754 0.1957,0.24326 0.34225,0.29722c0.14128,0.0515 0.291,0.07595 0.44132,0.07205c0.0958,0.01014 0.19241,0.01014 0.28821,0h0.17113l0.21616,0.90066l-0.29722,0.09007c-0.16171,0.01625 -0.32464,0.01625 -0.48636,0c-0.31035,0.00262 -0.61759,-0.0619 -0.90066,-0.18914c-0.28319,-0.12741 -0.52613,-0.32986 -0.70252,-0.58543c-0.19644,-0.29197 -0.29429,-0.63915 -0.27921,-0.99073z"/><path d="M362.40901,179.29776v4.11603h-1.05377v-9.13272h1.05377v3.35046h0.09007c0.15616,-0.34446 0.40978,-0.63564 0.72954,-0.83762c0.38837,-0.23093 0.83682,-0.3407 1.28795,-0.31523c0.42528,-0.01136 0.84655,0.08467 1.2249,0.27921c0.35754,0.18618 0.64511,0.48323 0.8196,0.84662c0.21284,0.45608 0.3147,0.95608 0.29722,1.45907v4.3502h-1.05377v-4.27815c0.02726,-0.46197 -0.12432,-0.91672 -0.42331,-1.26993c-0.30898,-0.30814 -0.73535,-0.46885 -1.17086,-0.44132c-0.31337,-0.00259 -0.62261,0.07163 -0.90066,0.21616c-0.27406,0.14514 -0.49953,0.36747 -0.64848,0.63947c-0.16995,0.31201 -0.25679,0.66249 -0.25219,1.01775z"/><path d="M369.31709,175.42492c-0.19902,0.00249 -0.39063,-0.07544 -0.53139,-0.21616c-0.13877,-0.12719 -0.21729,-0.30713 -0.21616,-0.49536c-0.00177,-0.1936 0.07644,-0.37935 0.21616,-0.51338c0.14434,-0.13413 0.33436,-0.2082 0.53139,-0.20715c0.19737,-0.00292 0.38807,0.07142 0.53139,0.20715c0.13972,0.13403 0.21792,0.31978 0.21616,0.51338c0.00113,0.18824 -0.07738,0.36818 -0.21616,0.49536c-0.14018,0.14159 -0.33217,0.21969 -0.53139,0.21616zM368.7947,183.41379v-6.84503h1.05377v6.84503z"/><path d="M376.62146,178.09988l-0.9457,0.2702c-0.06762,-0.16619 -0.15534,-0.32348 -0.26119,-0.46834c-0.12769,-0.15539 -0.28745,-0.28135 -0.46834,-0.36927c-0.23777,-0.10551 -0.49665,-0.15482 -0.75656,-0.14411c-0.37,-0.01709 -0.73586,0.08383 -1.04477,0.28821c-0.25736,0.15284 -0.41488,0.43022 -0.4143,0.72954c-0.01075,0.23971 0.09285,0.4703 0.27921,0.62146c0.27396,0.18123 0.57945,0.30954 0.90066,0.37828l1.01775,0.24318c0.51058,0.098 0.98426,0.33484 1.36901,0.6845c0.30565,0.31117 0.4687,0.73508 0.45033,1.17086c0.00718,0.37826 -0.10989,0.74843 -0.33325,1.05377c-0.23117,0.32005 -0.54153,0.57455 -0.90066,0.73854c-0.4462,0.18002 -0.92394,0.26883 -1.40503,0.26119c-0.60808,0.02245 -1.20938,-0.13414 -1.72927,-0.45033c-0.47283,-0.29943 -0.79927,-0.78258 -0.90066,-1.33298l0.99974,-0.25219c0.07249,0.33555 0.26457,0.63326 0.5404,0.83762c0.31246,0.19472 0.67708,0.28902 1.04477,0.2702c0.41424,0.02559 0.82547,-0.08512 1.17086,-0.31523c0.26808,-0.15886 0.435,-0.445 0.44132,-0.75656c0.00082,-0.22431 -0.09032,-0.43915 -0.25219,-0.59444c-0.21851,-0.18791 -0.48248,-0.31523 -0.76556,-0.36927l-1.14384,-0.26119c-0.51615,-0.0948 -0.99435,-0.33546 -1.37801,-0.69351c-0.29668,-0.31987 -0.45525,-0.74382 -0.44132,-1.17987c-0.00586,-0.36832 0.10791,-0.7286 0.32424,-1.02675c0.23366,-0.30886 0.5442,-0.55109 0.90066,-0.70252c0.40638,-0.17507 0.84555,-0.26106 1.28795,-0.25219c0.56841,-0.03348 1.13198,0.12166 1.60318,0.44132c0.38044,0.30493 0.66241,0.71537 0.8106,1.17987z"/><path d="M381.86331,185.98969v-9.42093h1.01775v1.08079h0.12609c0.09907,-0.1564 0.20734,-0.30677 0.32424,-0.45033c0.16058,-0.20795 0.36312,-0.37979 0.59444,-0.50437c0.33064,-0.15971 0.69603,-0.23402 1.06278,-0.21616c0.53915,-0.01102 1.06925,0.13955 1.52212,0.43232c0.45355,0.3028 0.81254,0.72734 1.03576,1.2249c0.49202,1.20358 0.49202,2.55218 0,3.75576c-0.2226,0.49769 -0.57781,0.92456 -1.02675,1.23391c-0.44626,0.30376 -0.97328,0.46689 -1.51311,0.46834c-0.36658,0.01561 -0.73142,-0.05859 -1.06278,-0.21616c-0.23397,-0.12443 -0.43947,-0.2962 -0.60344,-0.50437c-0.14411,-0.18914 -0.26119,-0.35126 -0.33325,-0.46834h-0.09007v3.60265zM382.89907,179.99127c-0.00978,0.4663 0.06655,0.9304 0.22517,1.36901c0.13353,0.35666 0.36444,0.6687 0.66649,0.90066c0.30899,0.2297 0.68703,0.34725 1.07179,0.33325c0.39863,0.01348 0.78978,-0.11054 1.10781,-0.35126c0.30168,-0.25093 0.53162,-0.5772 0.66649,-0.9457c0.15738,-0.42331 0.23376,-0.87244 0.22517,-1.32397c0.00762,-0.4456 -0.06877,-0.88864 -0.22517,-1.30596c-0.13147,-0.35534 -0.3591,-0.66716 -0.65748,-0.90066c-0.66543,-0.44344 -1.53218,-0.44344 -2.19762,0c-0.30235,0.22963 -0.5309,0.54272 -0.65748,0.90066c-0.15738,0.42331 -0.23376,0.87244 -0.22517,1.32397z"/><path d="M389.50993,183.41379v-6.84503h1.01775v1.03576h0.07205c0.12624,-0.34393 0.36406,-0.63566 0.6755,-0.82861c0.32991,-0.21245 0.71548,-0.32217 1.10781,-0.31523h0.28821h0.26119v1.07179h-0.23417c-0.13494,-0.00925 -0.27036,-0.00925 -0.4053,0c-0.31313,-0.01045 -0.62356,0.06095 -0.90066,0.20715c-0.25223,0.12952 -0.46408,0.32579 -0.61245,0.56742c-0.15302,0.24887 -0.23119,0.53652 -0.22517,0.82861v4.33219z"/><path d="M396.76927,183.59392c-0.5747,0.01414 -1.14111,-0.1392 -1.6302,-0.44132c-0.4928,-0.30243 -0.88465,-0.74443 -1.12583,-1.26993c-0.27073,-0.58022 -0.40329,-1.21529 -0.38728,-1.85536c-0.00978,-0.63369 0.12256,-1.26152 0.38728,-1.83735c0.23732,-0.50737 0.61564,-0.93572 1.0898,-1.23391c1.00395,-0.58834 2.24744,-0.58834 3.25139,0c0.47416,0.29819 0.85249,0.72654 1.0898,1.23391c0.27005,0.58683 0.40251,1.22758 0.38728,1.87338c0.016,0.64007 -0.11656,1.27514 -0.38728,1.85536c-0.23732,0.50737 -0.61564,0.93572 -1.0898,1.23391c-0.47593,0.29426 -1.02564,0.44731 -1.58517,0.44132zM396.76927,182.64823c0.41429,0.01616 0.82148,-0.11108 1.15285,-0.36026c0.30202,-0.23405 0.53538,-0.54518 0.6755,-0.90066c0.28827,-0.82826 0.28827,-1.72962 0,-2.55788c-0.13041,-0.37819 -0.36448,-0.71212 -0.6755,-0.96371c-0.69648,-0.48139 -1.61822,-0.48139 -2.3147,0c-0.31102,0.25159 -0.54509,0.58552 -0.6755,0.96371c-0.28827,0.82826 -0.28827,1.72962 0,2.55788c0.14012,0.35548 0.37347,0.66661 0.6755,0.90066c0.33851,0.23839 0.74882,0.3529 1.16185,0.32424z"/><path d="M401.47974,176.56876h1.05377v7.3494c0.00852,0.37762 -0.06523,0.75256 -0.21616,1.09881c-0.14097,0.30133 -0.37028,0.55264 -0.65748,0.72053c-0.33572,0.17589 -0.71094,0.26272 -1.0898,0.25219h-0.25219v-0.98172h0.19815c0.2652,0.01216 0.52227,-0.0933 0.70252,-0.28821c0.16173,-0.2349 0.24093,-0.51683 0.22517,-0.80159zM401.99311,175.42492c-0.19902,0.00249 -0.39063,-0.07544 -0.53139,-0.21616c-0.13877,-0.12719 -0.21729,-0.30713 -0.21616,-0.49536c-0.00177,-0.1936 0.07644,-0.37935 0.21616,-0.51338c0.30013,-0.27695 0.76265,-0.27695 1.06278,0c0.13972,0.13403 0.21792,0.31978 0.21616,0.51338c0.00113,0.18824 -0.07738,0.36818 -0.21616,0.49536c-0.14076,0.14071 -0.33237,0.21865 -0.53139,0.21616z"/><path d="M407.32503,183.59392c-0.59644,0.01571 -1.18559,-0.13391 -1.70225,-0.43232c-0.47749,-0.29686 -0.85906,-0.72534 -1.09881,-1.23391c-0.51589,-1.17998 -0.51589,-2.52174 0,-3.70172c0.23009,-0.5164 0.60566,-0.95456 1.08079,-1.26093c0.48266,-0.31007 1.04776,-0.46704 1.62119,-0.45033c0.35821,-0.00043 0.71411,0.05736 1.05377,0.17113c0.35563,0.12633 0.68085,0.32576 0.9547,0.58543c0.30177,0.29581 0.5327,0.65606 0.6755,1.05377c0.18661,0.51647 0.27519,1.06322 0.26119,1.61219v0.45033h-5.28689v-0.90066h4.2151c0.00563,-0.35899 -0.07466,-0.71412 -0.23417,-1.03576c-0.14346,-0.29681 -0.36837,-0.5467 -0.64848,-0.72053c-0.298,-0.18113 -0.64216,-0.27186 -0.99073,-0.26119c-0.38601,-0.01158 -0.76631,0.09529 -1.0898,0.30623c-0.30243,0.20253 -0.54503,0.48244 -0.70252,0.8106c-0.16185,0.32758 -0.24512,0.68839 -0.24318,1.05377v0.61245c-0.01302,0.45333 0.07948,0.90349 0.2702,1.31497c0.16449,0.33753 0.42441,0.61938 0.74755,0.8106c0.34019,0.19231 0.72615,0.2888 1.11682,0.27921c0.25706,0.00498 0.51303,-0.03463 0.75656,-0.11709c0.21634,-0.07745 0.41528,-0.19682 0.58543,-0.35126c0.16879,-0.171 0.29793,-0.377 0.37828,-0.60344l1.01775,0.28821c-0.10784,0.33807 -0.29285,0.64641 -0.5404,0.90066c-0.25419,0.26255 -0.56116,0.46822 -0.90066,0.60344c-0.41475,0.15347 -0.85485,0.22682 -1.29695,0.21616z"/><path d="M414.55735,183.59392c-1.16346,0.03644 -2.23254,-0.63709 -2.70199,-1.70225c-0.51021,-1.17177 -0.51021,-2.50293 0,-3.6747c0.23862,-0.50854 0.61252,-0.94164 1.08079,-1.25192c0.48266,-0.31007 1.04776,-0.46704 1.62119,-0.45033c0.44878,-0.00503 0.89364,0.08394 1.30596,0.26119c0.37358,0.16906 0.69875,0.4292 0.9457,0.75656c0.25398,0.32232 0.41305,0.70908 0.45934,1.11682h-1.05377c-0.08806,-0.32412 -0.27355,-0.61337 -0.53139,-0.82861c-0.31188,-0.25319 -0.70666,-0.38158 -1.10781,-0.36026c-0.38376,-0.00594 -0.7604,0.10392 -1.08079,0.31523c-0.31593,0.22861 -0.56224,0.54039 -0.71152,0.90066c-0.18139,0.42686 -0.27041,0.88728 -0.26119,1.35099c-0.0118,0.47473 0.07403,0.94683 0.25219,1.38702c0.1505,0.35955 0.39657,0.67103 0.71152,0.90066c0.32091,0.21837 0.70171,0.33167 1.0898,0.32424c0.2566,0.00577 0.51148,-0.04336 0.74755,-0.14411c0.21844,-0.08849 0.41287,-0.22736 0.56742,-0.4053c0.15523,-0.18577 0.26611,-0.40446 0.32424,-0.63947h1.05377c-0.05503,0.39409 -0.20664,0.76846 -0.44132,1.0898c-0.23633,0.32201 -0.54479,0.5842 -0.90066,0.76556c-0.42713,0.20297 -0.8963,0.30175 -1.36901,0.28821z"/><path d="M421.76265,176.56876v0.90066h-3.54861v-0.90066zM419.23179,174.92055h1.05377v6.5298c-0.01505,0.23023 0.03159,0.4603 0.1351,0.66649c0.06823,0.13862 0.18776,0.24522 0.33325,0.29722c0.14144,0.05089 0.29104,0.07532 0.44132,0.07205c0.09579,0.01049 0.19243,0.01049 0.28821,0h0.18013l0.20715,0.90066l-0.29722,0.09007c-0.16171,0.01625 -0.32464,0.01625 -0.48636,0c-0.31035,0.00262 -0.61759,-0.0619 -0.90066,-0.18914c-0.28063,-0.13147 -0.5226,-0.33311 -0.70252,-0.58543c-0.19644,-0.29197 -0.29429,-0.63915 -0.27921,-0.99073z"/><path d="M424.12239,183.48584c-0.44271,0 -0.80159,-0.35888 -0.80159,-0.80159c0.0014,-0.33674 0.21311,-0.63671 0.52994,-0.75083c0.31682,-0.11412 0.67118,-0.01805 0.88699,0.24045c0.21581,0.2585 0.24704,0.62433 0.07817,0.91568c-0.07278,0.11683 -0.17138,0.21543 -0.28821,0.28821c-0.12276,0.07219 -0.26289,0.10956 -0.4053,0.10808z"/></g></g></svg>