<svg version="1.1" xmlns="http://www.w3.org/2000/svg" xmlns:xlink="http://www.w3.org/1999/xlink" width="525.23659" height="393.92744" viewBox="0,0,525.23659,393.92744"><g transform="translate(22.6183,16.96372)"><g data-paper-data="{&quot;isPaintingLayer&quot;:true}" fill-rule="nonzero" stroke="none" stroke-linecap="butt" stroke-linejoin="miter" stroke-miterlimit="10" stroke-dasharray="" stroke-dashoffset="0" style="mix-blend-mode: normal"><path d="M-22.6183,376.96372v-393.92744h525.23659v393.92744z" fill="#ffffff" stroke-width="0"/><path d="M40,330v-100h100v100z" fill="#ffca38" stroke-width="1"/><path d="M140,30v100h-100v-100zM125,80c0,-19.32997 -15.67003,-35 -35,-35c-19.32997,0 -35,15.67003 -35,35c0,19.32997 15.67003,35 35,35c19.32997,0 35,-15.67003 35,-35z" fill="#f15b60" stroke-width="1"/><path d="M240,130h-100l50,-50z" fill="#ffca38" stroke-width="1"/><path d="M240,30l-50,50l-50,-50z" fill="#ffca38" stroke-width="1"/><path d="M155,280c0,-19.32997 15.67003,-35 35,-35c19.32997,0 35,15.67003 35,35c0,19.32997 -15.67003,35 -35,35c-19.32997,0 -35,-15.67003 -35,-35z" fill="#8ac640" stroke-width="1"/><path d="M340,30v100h-100z" fill="#8ac640" stroke-width="1"/><path d="M290,280l-50,50v-100z" fill="#1a82c4" stroke-width="1"/><path d="M340,230v100l-50,-50z" fill="#1a82c4" stroke-width="1"/><path d="M355,80c0,-19.32997 15.67003,-35 35,-35c19.32997,0 35,15.67003 35,35c0,19.32997 -15.67003,35 -35,35c-19.32997,0 -35,-15.67003 -35,-35z" fill="#1a82c4" stroke-width="1"/><path d="M440,230v100l-100,-100z" fill="#6a4c93" stroke-width="1"/><path d="M116.9,171.5c-0.30335,-1.06488 -0.7688,-2.07673 -1.38,-3c-0.58814,-0.86955 -1.3223,-1.63078 -2.17,-2.25c-0.88311,-0.62533 -1.86277,-1.10165 -2.9,-1.41c-1.16598,-0.33937 -2.37572,-0.50449 -3.59,-0.49c-2.28348,-0.05082 -4.52989,0.58305 -6.45,1.82c-1.9235,1.31035 -3.42444,3.15178 -4.32,5.3c-1.10256,2.69109 -1.63051,5.58292 -1.55,8.49c-0.0772,2.91376 0.43998,5.8127 1.52,8.52c0.87893,2.16858 2.3782,4.02962 4.31,5.35c1.96191,1.25324 4.2526,1.89379 6.58,1.84c2.03251,0.05626 4.04987,-0.36502 5.89,-1.23c1.56683,-0.7596 2.86967,-1.97187 3.74,-3.48c0.89911,-1.6224 1.34795,-3.45574 1.3,-5.31l2.06,0.3h-12.36v-7.63h20.06v6c0.11713,3.79201 -0.79518,7.54493 -2.64,10.86c-1.73223,2.98658 -4.28252,5.41543 -7.35,7c-7.17463,3.43354 -15.55787,3.23288 -22.56,-0.54c-3.43221,-2.0005 -6.21099,-4.95296 -8,-8.5c-1.98182,-4.0899 -2.94911,-8.59707 -2.82,-13.14c-0.04343,-3.53521 0.54236,-7.04997 1.73,-10.38c1.0347,-2.88945 2.6591,-5.53208 4.77,-7.76c1.99859,-2.10124 4.41792,-3.75728 7.1,-4.86c2.80414,-1.1214 5.80005,-1.68526 8.82,-1.66c2.57712,-0.01916 5.14033,0.37934 7.59,1.18c2.25537,0.74194 4.36374,1.87227 6.23,3.34c1.81076,1.41132 3.33482,3.15601 4.49,5.14c1.16737,2.00439 1.92535,4.22053 2.23,6.52z" fill="#f15b60" stroke-width="1"/><path d="M151.45,204.65c-3.32295,0.09421 -6.61246,-0.68507 -9.54,-2.26c-2.63697,-1.4806 -4.77418,-3.71179 -6.14,-6.41c-2.87947,-6.20907 -2.87947,-13.37093 0,-19.58c1.35531,-2.71629 3.46213,-4.98625 6.07,-6.54c2.79757,-1.60922 5.98358,-2.41869 9.21,-2.34c2.26357,-0.01858 4.51225,0.36749 6.64,1.14c2.01506,0.73714 3.84935,1.89635 5.38,3.4c1.60083,1.61323 2.82656,3.55936 3.59,5.7c0.90528,2.56798 1.34221,5.27762 1.29,8v2.74h-30.36v-6.18h21c0.02634,-1.32924 -0.2942,-2.64239 -0.93,-3.81c-0.60892,-1.09009 -1.50462,-1.99271 -2.59,-2.61c-1.16825,-0.6547 -2.49121,-0.98285 -3.83,-0.95c-1.39995,-0.0411 -2.78409,0.30494 -4,1c-1.13902,0.66998 -2.0808,1.62901 -2.73,2.78c-0.65706,1.18757 -1.00119,2.52278 -1,3.88v5.87c-0.03719,1.59746 0.30555,3.18091 1,4.62c0.62205,1.25728 1.60356,2.30144 2.82,3c1.32421,0.73 2.81833,1.09577 4.33,1.06c1.01878,0.0059 2.03183,-0.15281 3,-0.47c0.88389,-0.29041 1.69303,-0.7718 2.37,-1.41c0.66623,-0.6405 1.17902,-1.42335 1.5,-2.29l9.22,0.61c-0.43529,2.14729 -1.42471,4.14336 -2.87,5.79c-1.52305,1.7068 -3.4331,3.0236 -5.57,3.84c-2.50503,0.97181 -5.17328,1.45387 -7.86,1.42z" fill="#ffca38" stroke-width="1"/><path d="M190.7,204.65c-3.2923,0.08368 -6.54633,-0.72119 -9.42,-2.33c-2.6253,-1.53417 -4.75073,-3.79505 -6.12,-6.51c-2.86658,-6.16647 -2.86658,-13.28353 0,-19.45c1.37209,-2.71298 3.49685,-4.97314 6.12,-6.51c5.89944,-3.10621 12.95056,-3.10621 18.85,0c2.62315,1.53686 4.74791,3.79702 6.12,6.51c2.86658,6.16647 2.86658,13.28353 0,19.45c-1.36927,2.71495 -3.4947,4.97583 -6.12,6.51c-2.87679,1.6101 -6.13438,2.415 -9.43,2.33zM190.75,196.92c1.50587,0.05127 2.97846,-0.45026 4.14,-1.41c1.1729,-1.04381 2.04333,-2.384 2.52,-3.88c1.13328,-3.64392 1.13328,-7.54608 0,-11.19c-0.4789,-1.49495 -1.34897,-2.83458 -2.52,-3.88c-1.1568,-0.97024 -2.63099,-1.47944 -4.14,-1.43c-1.52695,-0.04747 -3.01926,0.46063 -4.2,1.43c-1.18655,1.03779 -2.06809,2.37911 -2.55,3.88c-1.14667,3.64187 -1.14667,7.54813 0,11.19c0.4796,1.50199 1.36152,2.84389 2.55,3.88c1.18532,0.95898 2.67613,1.45947 4.2,1.41z" fill="#8ac640" stroke-width="1"/><path d="M257.39,172.79h-10.25c-0.16087,-1.24418 -0.55078,-2.44782 -1.15,-3.55c-0.5618,-1.01849 -1.31571,-1.91842 -2.22,-2.65c-0.9285,-0.74849 -1.98583,-1.32121 -3.12,-1.69c-1.23743,-0.39691 -2.53053,-0.59273 -3.83,-0.58c-2.29767,-0.05281 -4.55838,0.58465 -6.49,1.83c-1.91795,1.32339 -3.40595,3.17992 -4.28,5.34c-1.08501,2.69539 -1.60245,5.58559 -1.52,8.49c-0.08722,2.94466 0.43362,5.87567 1.53,8.61c1.72837,4.35602 6.00626,7.15726 10.69,7c1.27992,0.01016 2.55412,-0.17187 3.78,-0.54c1.11772,-0.34147 2.16693,-0.87623 3.1,-1.58c0.90491,-0.69856 1.67139,-1.56 2.26,-2.54c0.62246,-1.05389 1.04615,-2.21311 1.25,-3.42l10.25,0.05c-0.27632,2.22038 -0.95401,4.37203 -2,6.35c-1.07376,2.05999 -2.51006,3.90956 -4.24,5.46c-1.85178,1.64655 -3.99534,2.932 -6.32,3.79c-2.65204,0.96479 -5.4583,1.43589 -8.28,1.39c-4.00936,0.0648 -7.96405,-0.93596 -11.46,-2.9c-3.418,-1.97365 -6.19533,-4.88985 -8,-8.4c-3.91345,-8.45932 -3.91345,-18.21068 0,-26.67c1.8145,-3.50056 4.5897,-6.41105 8,-8.39c3.46883,-1.94915 7.39146,-2.94619 11.37,-2.89c2.62577,-0.02356 5.23852,0.37139 7.74,1.17c2.30114,0.73915 4.4468,1.89503 6.33,3.41c1.85006,1.5034 3.38305,3.35931 4.51,5.46c1.2557,2.30886 2.05365,4.83852 2.35,7.45z" fill="#1a82c4" stroke-width="1"/><path d="M274.46,156v48h-10v-48z" fill="#6a4c93" stroke-width="1"/><path d="M298.66,204.65c-3.29257,0.08617 -6.54725,-0.71887 -9.42,-2.33c-2.62964,-1.52872 -4.75644,-3.79105 -6.12,-6.51c-2.8762,-6.16434 -2.8762,-13.28566 0,-19.45c1.36595,-2.71728 3.49218,-4.979 6.12,-6.51c5.89591,-3.10617 12.94409,-3.10617 18.84,0c2.62782,1.531 4.75405,3.79272 6.12,6.51c2.8762,6.16434 2.8762,13.28566 0,19.45c-1.36356,2.71895 -3.49036,4.98128 -6.12,6.51c-2.87275,1.61113 -6.12743,2.41617 -9.42,2.33zM298.66,196.92c1.5056,0.04942 2.97754,-0.4519 4.14,-1.41c1.1729,-1.04381 2.04333,-2.384 2.52,-3.88c1.13328,-3.64392 1.13328,-7.54608 0,-11.19c-0.4789,-1.49495 -1.34897,-2.83458 -2.52,-3.88c-1.15774,-0.96858 -2.63127,-1.47755 -4.14,-1.43c-1.52981,-0.04627 -3.02486,0.46155 -4.21,1.43c-1.18655,1.03779 -2.06809,2.37911 -2.55,3.88c-1.13328,3.64392 -1.13328,7.54608 0,11.19c0.4796,1.50199 1.36152,2.84389 2.55,3.88c1.20286,0.96953 2.71624,1.47044 4.26,1.41z" fill="#f15b60" stroke-width="1"/><path d="M339.11,204.65c-3.31764,0.08928 -6.59739,-0.72288 -9.49,-2.35c-2.62578,-1.54215 -4.7428,-3.81907 -6.09,-6.55c-2.8421,-6.13342 -2.8421,-13.20658 0,-19.34c1.36074,-2.7196 3.47924,-4.98744 6.1,-6.53c2.8631,-1.62923 6.11691,-2.44528 9.41,-2.36c2.84085,-0.06277 5.65871,0.522 8.24,1.71c2.26704,1.06314 4.20264,2.72223 5.6,4.8c1.40607,2.16701 2.19118,4.678 2.27,7.26h-9.41c-0.19362,-1.64119 -0.93322,-3.16969 -2.1,-4.34c-1.19015,-1.13167 -2.78923,-1.73087 -4.43,-1.66c-1.43433,-0.02242 -2.83747,0.41956 -4,1.26c-1.22467,0.93048 -2.15515,2.19427 -2.68,3.64c-0.69818,1.84546 -1.03759,3.80725 -1,5.78c-0.05349,1.99235 0.2688,3.97695 0.95,5.85c0.5181,1.46032 1.44913,2.73876 2.68,3.68c1.17727,0.84882 2.59897,1.29113 4.05,1.26c1.06478,0.01737 2.118,-0.22277 3.07,-0.7c0.92264,-0.47346 1.70526,-1.18023 2.27,-2.05c0.63518,-0.97681 1.04193,-2.08428 1.19,-3.24h9.41c-0.10197,2.56747 -0.87423,5.06354 -2.24,7.24c-1.35122,2.1039 -3.25825,3.79288 -5.51,4.88c-2.58851,1.22442 -5.4273,1.82711 -8.29,1.76z" fill="#ffca38" stroke-width="1"/><path d="M361.58,204v-48h10v48zM370.58,193.65v-12h1.45l11.58,-13.65h11.44l-15.47,18.07h-2.36zM384.05,204l-10.58,-15.66l6.65,-7l15.61,22.66z" fill="#8ac640" stroke-width="1"/></g></g></svg>